<?xml version="1.0" encoding="utf-8"?>
<!-- Generator: Adobe Illustrator 25.4.1, SVG Export Plug-In . SVG Version: 6.00 Build 0)  -->
<svg version="1.1" id="Layer_1" xmlns="http://www.w3.org/2000/svg" xmlns:xlink="http://www.w3.org/1999/xlink" x="0px" y="0px"
	 viewBox="0 0 314 100" style="enable-background:new 0 0 314 100;" xml:space="preserve">
<style type="text/css">
	.st0{fill:#183358;}
	.st1{fill:#E5321B;}
</style>
<path class="st0" d="M271.5704,19.3248c7.6761,0,15.2265,0,22.8918,0c-0.9757,13.2544-1.9445,26.4141-2.9133,39.5738
	c0.105,0.0156,0.21,0.0311,0.315,0.0467c1.2935-4.5589,2.5838-9.1186,3.8811-13.6764c2.3571-8.2813,4.7262-16.5592,7.0659-24.8454
	c0.2361-0.8361,0.5638-1.2346,1.5385-1.2119c3.1382,0.0732,6.2791,0.0273,9.6506,0.0273c-0.7416,2.5237-1.4257,4.9153-2.147,7.2957
	c-4.3312,14.2924-8.6868,28.5774-12.9774,42.882c-0.339,1.1301-0.8061,1.4761-1.9627,1.4613
	c-5.0421-0.0646-10.0854-0.0277-15.3445-0.0277c1.0456-13.8057,2.0825-27.4964,3.1194-41.1871
	c-0.0468-0.0121-0.0935-0.0241-0.1402-0.0362c-0.1331,0.3463-0.2946,0.6846-0.3953,1.0401
	c-3.6181,12.7699-7.2595,25.5333-10.8046,38.3235c-0.4106,1.4813-0.9965,1.94-2.5161,1.8647
	c-2.8964-0.1435-5.8048-0.0416-8.9086-0.0416c0.7333-2.4772,1.4016-4.7755,2.0939-7.0666
	c3.4811-11.5201,6.9694-23.0379,10.4506-34.558c0.165-0.5461,0.2745-1.1089,0.4302-1.6581
	c0.8847-3.1196,0.0449-5.6272-2.6348-7.4922c-0.1938-0.1349-0.3626-0.3063-0.5397-0.4644
	C271.6914,19.5458,271.6758,19.4992,271.5704,19.3248z"/>
<path class="st0" d="M115.7089,19.2775c7.1926,0,13.9528-0.1005,20.7079,0.0396c3.7494,0.0777,5.6195,2.3212,5.1766,6.1545
	c-0.5842,5.0555-1.436,10.0802-2.18,15.1171c-1.3909,9.4154-2.7928,18.8292-4.1764,28.2456
	c-0.2956,2.0117-0.2686,2.0166-2.3488,2.0172c-2.8577,0.0007-5.7155,0.0033-8.5732-0.0036c-0.5082-0.0012-1.0163-0.0449-1.66-0.0754
	c0.8015-4.2516,1.574-8.3495,2.3812-12.6312c-2.3413,0-4.5652-0.0444-6.7835,0.0457c-0.3509,0.0142-0.8078,0.5752-0.9952,0.9844
	c-2.6943,5.8825-5.3692,11.7742-8.0003,17.6853c-0.5005,1.1245-1.1596,1.9706-2.2208,2.6494
	c-4.731,3.0263-9.4085,6.1365-14.108,9.2121c-0.2984,0.1953-0.6202,0.3547-1.2428,0.7073c1.2989-2.8959,2.4502-5.4836,3.6184-8.0636
	c7.8104-17.2496,15.6206-34.4994,23.4396-51.7451c2.0798-4.5872,1.9358-5.4736-1.6191-9.0333
	C116.7621,20.2206,116.371,19.8864,115.7089,19.2775z M130.0911,31.3929c-0.087-0.0364-0.174-0.0729-0.261-0.1093
	c-2.7236,6.0331-5.4473,12.0661-8.2643,18.306c1.6003,0,2.9658,0.0518,4.3215-0.0404c0.2984-0.0203,0.7461-0.5146,0.8142-0.8533
	C127.8604,42.9342,128.9704,37.1624,130.0911,31.3929z"/>
<path class="st0" d="M234.2401,19.2862c0.3127-0.0155,0.6253-0.0444,0.938-0.0444c8.0004-0.0017,16.001-0.0347,24.0009,0.0272
	c1.7446,0.0135,3.5284,0.1962,5.2195,0.6078c2.2614,0.5504,3.5007,2.1211,3.5114,4.4492c0.008,1.7384-0.1412,3.5497-0.632,5.2064
	c-3.1605,10.6677-6.3358,21.3332-9.7083,31.9351c-2.0021,6.2937-6.4286,9.7427-13.1665,9.8464
	c-3.6626,0.0564-7.3273-0.0044-10.9908-0.0388c-0.6136-0.0058-1.2298-0.1241-1.8381-0.2293
	c-3.7003-0.6397-5.7798-3.1828-5.1595-6.8882c0.5708-3.4093,1.4754-6.7782,2.4494-10.1014
	c2.5942-8.8514,5.2249-17.694,8.013-26.4855c0.9764-3.079,0.5708-5.4947-2.0452-7.4409c-0.2602-0.1936-0.5712-0.3188-0.8587-0.4758
	C234.0622,19.5315,234.1512,19.4088,234.2401,19.2862z M252.4018,27.7804c-2.4878,0.0029-3.4035,0.6696-4.2349,3.371
	c-2.2226,7.2216-4.4016,14.4568-6.5821,21.6913c-0.7262,2.4095-1.4762,4.8158-2.0781,7.2574
	c-0.3609,1.4641,0.1341,2.0102,1.6058,2.239c2.5723,0.3998,4.1216-0.4334,4.9505-2.9367c1.1199-3.3824,2.0908-6.8142,3.1245-10.2251
	c1.8191-6.0025,3.6655-11.997,5.4431-18.0119C255.4119,28.5215,254.8683,27.7775,252.4018,27.7804z"/>
<path class="st0" d="M149.169,19.2404c0.4088,0,0.8175,0.0001,1.2263,0c8.146-0.0026,16.292-0.006,24.438-0.0064
	c0.5238,0,1.0495-0.0016,1.571,0.0394c2.868,0.2253,4.637,2.0401,4.5202,5.1876c-0.0837,2.2547-0.6588,4.5035-1.1442,6.7266
	c-0.3338,1.5288-0.8449,3.0252-1.3773,4.4998c-0.137,0.3796-0.648,0.8805-0.9961,0.8875
	c-3.3273,0.0672-6.6566,0.0401-10.1499,0.0401c0.5702-1.8869,1.1254-3.6429,1.6302-5.4133
	c0.8141-2.8553-0.0512-3.7982-3.0046-3.3818c-1.7649,0.2488-2.4234,1.5325-2.8747,2.9891
	c-1.2246,3.9525-2.4165,7.9152-3.6159,11.8756c-1.6266,5.371-3.2713,10.7367-4.8517,16.1213
	c-0.3025,1.0308-1.0219,2.1989,0.112,3.1751c0.7701,0.6629,3.1757,0.6562,4.0738-0.1764c0.7277-0.6746,1.2967-1.6415,1.6389-2.5865
	c0.7438-2.0541,1.3451-4.1644,1.9082-6.2774c0.2592-0.9724,0.6446-1.3805,1.7349-1.3502c3.1389,0.0871,6.2818,0.0308,9.6366,0.0308
	c-1.7993,5.1767-2.5942,10.5817-5.8649,15.0362c-1.8596,2.5327-4.3458,4.3111-7.4986,4.4457
	c-4.6004,0.1963-9.2372,0.2618-13.821-0.0968c-4.0175-0.3143-6.1406-3.4435-5.2718-7.4159
	c0.9333-4.2673,2.1377-8.4809,3.361-12.6778c2.2225-7.625,4.4061-15.2667,6.8896-22.808c1.1768-3.5736,0.7256-6.3335-2.4948-8.5432
	C149.0192,19.4544,149.0941,19.3474,149.169,19.2404z"/>
<path class="st0" d="M179.6756,70.8494c4.3108-14.2583,8.5427-28.2555,12.8259-42.4223c-2.7601,0-5.3566,0-8.1482,0
	c1.0259-3.1864,1.5225-6.206-0.9399-9.11c0.7545-0.0337,1.2444-0.0744,1.7343-0.0747c7.9503-0.0041,25.6603-0.0032,25.6603-0.0032
	s3.4758,2.1076,3.4758,4.5639s-0.2052,3.6664-0.8966,4.5909l-7.5419-0.0253c-1.0645,0-1.4639,0.357-1.7587,1.34
	c-3.9597,13.2049-7.9809,26.3914-11.9262,39.6005c-0.3703,1.2398-0.9266,1.6059-2.1834,1.5712
	C186.6552,70.7886,183.3291,70.8494,179.6756,70.8494z"/>
<path class="st0" d="M83.1413,75.702c0,0-0.6068,0.9116-0.9138,1.2445c-9.0546,9.8187-20.1737,15.7285-33.4232,17.524
	c-7.9164,1.0728-15.5956,0.1974-22.8262-3.3454C16.6203,86.54,10.7929,78.871,7.711,69.1263
	c-4.1148-13.0107-3.0912-25.6128,4.1698-37.3538c5.4172-8.7596,13.417-14.1946,23.2637-16.8805
	c0.78-0.2127,5.6637-1.1704,5.6637-1.1704s-6.0182,1.8-9.1733,3.8028c-9.9595,5.458-16.1395,13.8946-18.8124,24.8449
	c-2.7566,11.2929-1.4864,22.1753,4.3715,32.2906c5.8682,10.133,14.7692,15.6408,26.4882,16.4118
	c12.5667,0.8268,23.5382-3.5332,33.6102-10.6124C79.3049,79.0448,83.1413,75.702,83.1413,75.702z"/>
<path class="st0" d="M216.259,19.2717c3.5509,0,11.034,0,11.034,0c1.6761,0,3.8499,2.3274,3.9489,4.7943
	c0.0487,1.215-0.0534,2.4986-0.4003,3.6574c-3.5353,11.8099-12.5683,41.2669-12.5683,41.2669
	c-0.2392,0.7863-0.4454,1.8838-1.6331,1.8838s-10.7769-0.0229-10.7769-0.0229s1.624-5.4858,2.4243-8.1384
	c3.4053-11.288,6.766-22.5899,10.254-33.8523C219.6463,25.2932,219.7689,22.03,216.259,19.2717z"/>
<path class="st1" d="M62.7669,83.5567c11.9896-5.8521,18.9584-15.5137,21.4119-28.5151
	c1.9533-10.3505,0.4975-20.2446-4.7177-29.4067C73.6538,15.4326,64.8112,9.7717,53.0301,8.8862
	C41.7396,8.0375,31.6188,11.5084,22.21,17.4116c-2.5304,1.5876-8.1311,5.8267-8.5688,6.0914c0,0,6.3896-6.0967,9.9855-8.6068
	C33.6902,7.8714,44.9144,4.2919,57.2611,5.3542c13.081,1.1254,23.0514,7.4922,28.8159,19.356
	c7.2267,14.8734,6.9324,29.7615-1.9303,43.9816c-5.3591,8.5986-13.4464,13.6576-23.1392,16.2551
	c-1.0078,0.2701-5.3532,1.0319-5.3532,1.0319S61.2017,84.3207,62.7669,83.5567z"/>
<path class="st0" d="M93.2544,41.2822c-0.771-10.9338-4.074-20.8178-12.4012-28.4349c-5.9564-5.4485-13.1557-8.295-21.0737-9.3024
	c-9.8664-1.2552-19.3334,0.3744-28.4095,4.3828l-2.0138,0.8284l1.7807-1.1558c9.3384-5.3426,19.2969-8.2514,30.1436-7.4765
	c16.6171,1.187,30.8182,11.9948,34.3475,28.8435c1.9379,9.2511,0.4571,18.168-2.9886,26.8415
	c-0.0409,0.1029-0.4839,1.1085-0.4839,1.1085S93.6043,46.2434,93.2544,41.2822z"/>
<path class="st1" d="M68.1074,90.4921c0,0-2.7477,1.7873-2.9409,1.8975c-11.2168,6.3969-23.1557,9.3709-35.9515,6.5341
	C16.3182,96.0645,7.0513,88.5404,2.2664,75.9971c-2.4338-6.3799-2.7022-13.0053-1.7693-19.7121
	c0.5795-4.1657,2.1977-9.8302,3.8167-13.8858C3.4402,45.5744,3.191,50.0556,3.0716,52.966
	C2.706,61.879,4.1871,70.4288,8.5408,78.3258c4.8698,8.833,12.4155,14.3266,22.0117,16.9231
	c11.8654,3.2105,23.3938,1.6983,34.5662-3.1713C65.286,92.0048,68.1074,90.4921,68.1074,90.4921z"/>
<polygon class="st0" points="228.6654,77.6087 227.8257,80.1166 111.7064,80.1177 112.8232,77.6077 "/>
<polygon class="st1" points="226.9676,82.7013 226.3061,85.0119 105.1919,85.011 108.622,82.7013 "/>
<path class="st1" d="M233.2885,83.6174c0.4129-3.8043,2.442-5.8016,6.2223-5.9386c3.7076-0.1344,7.4246-0.0877,11.1355-0.0165
	c2.1016,0.0403,2.8958,1.15,2.4922,3.201c-0.1375,0.699-0.305,1.3968-0.5232,2.0744c-1.1344,3.5223-2.7266,4.7097-6.4494,4.9276
	c-2.7078,0.1585-5.4126,0.3677-8.1183,0.5605c-1.0508,0.0749-1.9375,0.3826-2.2723,1.8242c4.9445,0,9.7515,0,14.7961,0
	c-0.3671,1.1992-0.6071,2.1537-0.9697,3.0593c-0.1033,0.258-0.5616,0.5529-0.8584,0.5544c-6.1342,0.0306-12.2686,0-18.7218,0
	c0.8016-2.1946,1.3899-4.2565,2.2993-6.1653c0.8779-1.8428,2.6977-2.4359,4.6315-2.6144c3.1253-0.2885,6.2578-0.5141,9.3728-0.887
	c0.5974-0.0715,1.334-0.5745,1.6493-1.0949c0.7887-1.302,0.3025-2.0737-1.231-2.0996c-2.0459-0.0347-4.093,0.0103-6.1396,0.0101
	c-1.3287-0.0001-2.2706,0.4775-2.6816,1.859c-0.0939,0.3155-0.6112,0.6862-0.9576,0.7122
	C235.7863,83.672,234.5976,83.6174,233.2885,83.6174z"/>
<path class="st1" d="M264.7148,93.8695c0,0,0.4958-1.8813,0.7811-2.9637c-4.3172,0-8.508,0-12.9603,0
	c0.6755-2.1437,1.2261-3.9984,1.8645-5.8224c0.1212-0.3462,0.5533-0.632,0.9041-0.8418c3.3058-1.9776,6.6068-3.9649,9.9555-5.8679
	c0.7012-0.3985,1.5859-0.6156,2.3974-0.6504c2.0869-0.0895,4.1802-0.0299,6.5169-0.0299c-0.9828,3.2493-1.9195,6.3461-2.9111,9.6246
	c1.0939,0,1.9807,0,3.1091,0c-0.3375,1.1145-0.8092,2.508-0.9498,2.9385s-0.2971,0.6305-0.922,0.6305s-2.4729,0-2.4729,0
	s-0.4195,1.7447-0.5503,2.1955s-0.2637,0.7868-0.8354,0.7868H264.7148z M268.0933,81.8681c0.1627-0.5711-0.38-0.6053-0.7622-0.3909
	l-9.3522,5.2464c-0.3074,0.2099-0.3058,0.6089,0,0.6089h8.204c0.358,0,0.4912-0.097,0.6106-0.4753
	C266.7936,86.8573,267.9306,82.4393,268.0933,81.8681z"/>
<path class="st1" d="M288.0125,81.6568c-0.9572,0-11.6138,0-11.6138,0l1.0442-3.4011c0.1728-0.4567,0.4919-0.6917,1.0547-0.6917
	h17.757c0,0-0.7863,3.6095-2.2208,4.9206c-3.6128,3.302-7.1342,6.7064-10.6242,10.1389c-0.9187,0.9036-0.9665,1.2657-2.4163,1.2657
	l-5.2655-0.0219c0,0,12.1552-11.3143,12.3777-11.5328C288.3281,82.1161,288.9698,81.6568,288.0125,81.6568z"/>
<path class="st0" d="M48.227,18.8224c-17.2896,0-31.3055,14.0217-31.3055,31.3183c0,17.2966,14.0159,31.3182,31.3055,31.3182
	c17.2895,0,31.3055-14.0217,31.3055-31.3182C79.5325,32.844,65.5165,18.8224,48.227,18.8224z M37.2594,34.1229l3.6336-6.71
	l3.1135,6.9668l7.5018,1.3836l-5.6609,5.1152l1.0028,7.5651l-6.6122-3.8054l-6.882,3.2919l1.5744-7.4671l-5.2561-5.5306
	L37.2594,34.1229z M46.4264,64.8757l-2.0667,7.3459l-4.5711-6.1094l-7.6222,0.3036l4.3955-6.2371l-2.6441-7.1583l7.2877,2.2546
	l5.9881-4.7277l0.1086,7.6306l6.3449,4.2364L46.4264,64.8757z M63.1141,54.3959L58.0919,60.14l-1.5026-7.4818l-7.0127-3.0033
	l6.6484-3.7417l0.688-7.6002l5.6116,5.1694l7.4379-1.694l-3.1803,6.9365l3.9089,6.5533L63.1141,54.3959z"/>
</svg>
