<svg width="16" height="17" viewBox="0 0 16 17" fill="none" xmlns="http://www.w3.org/2000/svg">
<g clip-path="url(#clip0_9878_64727)">
<path d="M12.6895 9.01149C12.6718 6.9884 14.4196 6.0051 14.4964 5.9599C13.5044 4.58103 11.9691 4.38889 11.4318 4.37194C10.1446 4.24196 8.89275 5.11223 8.23732 5.11223C7.57009 5.11223 6.55447 4.38889 5.46799 4.40584C4.06857 4.42845 2.75181 5.20265 2.03733 6.41198C0.555237 8.87021 1.65943 12.4869 3.08247 14.4761C3.79695 15.4481 4.62361 16.5387 5.71599 16.4992C6.77885 16.4596 7.18037 15.8493 8.4617 15.8493C9.73713 15.8493 10.1091 16.4992 11.2192 16.4766C12.3647 16.4596 13.0792 15.4989 13.7701 14.5157C14.5908 13.4024 14.9215 12.3004 14.9333 12.2439C14.9038 12.2326 12.7131 11.4302 12.6895 9.01149Z" fill="#15202B"/>
<path d="M10.5928 3.0656C11.1655 2.38182 11.5552 1.44938 11.4489 0.5C10.6223 0.533907 9.58304 1.04816 8.98666 1.72064C8.46114 2.314 7.98876 3.28034 8.10685 4.19017C9.0398 4.25798 9.99637 3.73808 10.5928 3.0656Z" fill="#15202B"/>
</g>
<defs>
<clipPath id="clip0_9878_64727">
<rect width="16" height="16" fill="white" transform="translate(0 0.5)"/>
</clipPath>
</defs>
</svg>
