<svg xmlns="http://www.w3.org/2000/svg"  xmlns:xlink="http://www.w3.org/1999/xlink" x="0px" y="0px"
   viewBox="0 0 243 100" style="enable-background:new 0 0 243 100;" xml:space="preserve">
  <path d="M240.86 55.9141H2.15063V97.8495H240.86V55.9141Z" fill="white"/>
  <path d="M0 0V100H243V0H0ZM239.46 96.4418H3.89353V58.1956H239.46V96.4418Z" fill="#004990"/>
  <path d="M238.642 3.56177H3.83057V53.8642H238.642V3.56177Z" fill="url(#paint0_linear_9915_61002)"/>
  <path d="M18.2628 12.1639H34.3247C38.1553 12.1639 41.0955 13.4912 42.322 14.4489C46.4214 17.6747 45.8166 26.3608 40.5243 28.4778V28.6122C46.7575 31.2668 45.0941 40.7426 40.7091 43.2627C38.4577 44.5564 34.9799 45.4133 31.5861 45.4133H13.2561L18.246 12.1639H18.2628ZM30.998 37.6176C32.9134 37.6176 34.4759 36.5423 34.6439 34.0893C34.7951 31.9388 32.4093 31.2836 30.7292 31.2836H25.5713L24.5968 37.6176H30.998ZM32.1237 25.336C33.5014 25.336 35.2151 24.5799 35.2151 22.1942C35.2151 20.6653 34.1398 19.674 32.5941 19.674H27.3018L26.3105 25.336H32.1069H32.1237Z" fill="white"/>
  <path d="M50.8568 12.1639H76.5792L75.3023 19.9764H60.1142L59.2741 24.6303H72.7318L71.6901 31.838H58.0812L57.342 37.1807H73.6558L72.5134 45.4133H45.8333L50.8568 12.1639Z" fill="white"/>
  <path d="M79.2002 12.1639H108.182L106.754 20.5645H97.7654L94.1532 45.4133H83.4509L87.1639 20.5645H77.7385L79.2002 12.1639Z" fill="white"/>
  <path d="M110.921 12.1639H134.224L132.947 20.3797H120.027L119.288 25.4032H130.276L129.049 33.4677H118.112L116.448 45.4133H105.83L110.938 12.1639H110.921Z" fill="white"/>
  <path d="M152.453 37.8528C152.806 34.7446 150.958 33.4173 147.799 33.4173H144.271L142.54 45.4301H132.191L137.214 12.1808H152.268C158.72 12.1808 164.936 13.2393 164.936 20.7493C164.936 26.1593 163.139 27.9402 158.871 30.3931V30.5276C161.324 31.5524 163.105 33.4509 162.702 37.7184C162.567 39.1969 162.231 40.877 162.13 42.6075C162.063 43.8676 162.584 44.17 163.172 44.4556V45.4301H151.865C151.579 41.3475 152.352 40.6418 152.436 37.8528H152.453ZM145.346 26.2601H150.521C152.957 26.2601 155.007 25.588 155.007 22.8495C155.007 21.0013 153.797 20.1445 151.26 20.1445H146.337L145.329 26.2601H145.346Z" fill="white"/>
  <path d="M170.884 12.1639H196.606L195.329 19.9764H180.141L179.301 24.6303H192.759L191.717 31.838H178.108L177.369 37.1807H193.683L192.54 45.4133H165.86L170.884 12.1639Z" fill="white"/>
  <path d="M200.588 12.1639H213.878C220.262 12.1639 223.354 13.3064 226.042 16.7338C227.873 19.0692 229.2 22.295 229.301 26.4449C229.57 36.8111 224.261 45.4133 211.677 45.4133H195.615L200.571 12.1639H200.588ZM211.089 37.1135C216.482 37.1135 218.33 33.1149 218.649 27.0833C218.918 22.1774 216.633 20.2621 212.937 20.2621H209.846L207.46 37.1303H211.089V37.1135Z" fill="white"/>
  <path d="M118.313 65.9946H102.957V69.6741H108.552V86.744H112.567V69.6741H118.313V65.9946Z" fill="#004990"/>
  <path d="M72.3622 65.877H69.2876C65.1209 66.0282 62.6176 68.5483 62.4832 75.7896V77.0497C62.5504 85.3158 65.709 86.8111 69.6404 86.8279H72.1438C76.5793 86.8279 79.1498 84.3245 79.1498 77.0497V75.588C79.0658 68.0275 76.3776 66.045 72.3454 65.8938L72.3622 65.877ZM75.1848 77.6545C75.1848 79.4186 74.9832 83.1149 71.8918 83.1149H69.758C66.5658 83.1149 66.5658 79.4186 66.5658 77.6545V75.3864C66.5658 70.4468 67.9603 69.506 70.1108 69.506H71.6229C73.5215 69.7244 75.1848 70.0436 75.1848 75.3864V77.6545Z" fill="#004990"/>
  <path d="M53.4946 66.0283H43.9348V86.744H47.9503V78.5619L52.4866 79.0659C56.334 79.2844 58.1317 77.8899 58.6358 73.6224V71.4718C58.6358 68.4309 56.5524 65.8603 53.5114 66.0283H53.4946ZM54.5363 73.4376C54.5363 74.5969 53.8475 75.5377 52.5538 75.5377H47.9503V69.5061H52.5538C53.6458 69.5061 54.5363 70.4302 54.5363 71.5895V73.4208V73.4376Z" fill="#004990"/>
  <path d="M95.3125 78.5787C97.8159 78.0579 98.5888 75.3361 98.5888 73.0847V72.0095C98.5888 68.9685 97.2447 66.1123 93.3636 66.0115H83.8374V86.744H87.8193V78.4947L91.2803 78.8811L94.7245 86.7272H99.2608L95.3293 78.5787H95.3125ZM87.8865 69.4893H92.5068C93.6156 69.4893 94.5565 70.0773 94.5565 72.0263V72.8495C94.5565 75.0505 93.5988 75.3697 92.5068 75.3697H87.8865V69.4893Z" fill="#004990"/>
  <path d="M38.6594 66.7003C37.2817 66.2298 35.2824 65.877 32.4934 65.877C29.0156 65.877 24.9497 65.4906 24.9497 72.1102C24.9497 78.7298 28.6963 78.4778 31.8045 78.4778C34.4927 78.4778 35.5008 78.1922 35.5008 80.9644C35.5008 83.7366 33.9047 83.2493 31.1157 83.2493C28.3267 83.2493 25.689 83.0141 25.689 83.0141V86.1727C26.9994 86.4415 29.2676 86.8448 31.6701 86.912C34.0727 86.9792 39.449 88.1048 39.449 80.7796C39.449 74.4624 36.324 74.4792 32.3254 74.4792C29.3852 74.4792 29.0492 74.412 29.0492 71.9926C29.0492 69.7581 29.3684 69.5061 32.3254 69.5061C34.9631 69.5061 38.7434 69.8253 38.7434 69.8253L38.693 66.7003H38.6594Z" fill="#004990"/>
  <path d="M135.921 66.7003C134.543 66.2298 132.544 65.877 129.755 65.877C126.277 65.877 122.211 65.4906 122.211 72.1102C122.211 78.7298 125.958 78.4778 129.066 78.4778C131.754 78.4778 132.762 78.1922 132.762 80.9644C132.762 83.7366 131.166 83.2493 128.377 83.2493C125.588 83.2493 122.95 83.0141 122.95 83.0141V86.1727C124.261 86.4415 126.529 86.8448 128.931 86.912C131.334 86.9792 136.71 88.1048 136.71 80.7796C136.71 74.4624 133.585 74.4792 129.587 74.4792C126.646 74.4792 126.31 74.412 126.31 71.9926C126.31 69.7581 126.63 69.5061 129.587 69.5061C132.224 69.5061 136.005 69.8253 136.005 69.8253L135.954 66.7003H135.921Z" fill="#004990"/>
  <path d="M153.041 75.9913C154.553 75.6552 155.779 73.9247 155.779 71.9926V70.8669C155.578 67.0867 152.402 65.9946 150.672 65.9946H141.415V86.7104H150.907C152.688 86.7104 155.947 85.5343 156.149 81.418V80.4436C156.149 78.2426 154.721 76.1593 153.041 75.9745V75.9913ZM145.363 69.5061H149.899C150.974 69.5061 151.848 70.3797 151.848 71.455V72.2446C151.848 73.3199 150.974 74.1936 149.899 74.1936H145.363V69.5061ZM152.117 81.0652C152.117 82.2413 151.159 83.1989 149.983 83.1989H145.363V77.5706H149.983C151.159 77.5706 152.117 78.5282 152.117 79.7043V81.0484V81.0652Z" fill="#004990"/>
  <path d="M169.792 65.877H166.717C162.55 66.0282 160.047 68.5483 159.913 75.7896V77.0497C159.98 85.3158 163.138 86.8111 167.07 86.8279H169.573C174.009 86.8279 176.579 84.3245 176.579 77.0497V75.588C176.495 68.0275 173.807 66.045 169.775 65.8938L169.792 65.877ZM172.614 77.6545C172.614 79.4186 172.413 83.1149 169.321 83.1149H167.187C163.995 83.1149 163.995 79.4186 163.995 77.6545V75.3864C163.995 70.4468 165.39 69.506 167.54 69.506H169.052C170.951 69.7244 172.614 70.0436 172.614 75.3864V77.6545Z" fill="#004990"/>
  <path d="M190.491 65.877H187.416C183.249 66.0282 180.746 68.5483 180.612 75.7896V77.0497C180.679 85.3158 183.837 86.8111 187.769 86.8279H190.272C194.708 86.8279 197.278 84.3245 197.278 77.0497V75.588C197.194 68.0275 194.506 66.045 190.474 65.8938L190.491 65.877ZM193.313 77.6545C193.313 79.4186 193.112 83.1149 190.02 83.1149H187.886C184.694 83.1149 184.694 79.4186 184.694 77.6545V75.3864C184.694 70.4468 186.089 69.506 188.239 69.506H189.751C191.65 69.7244 193.313 70.0436 193.313 75.3864V77.6545Z" fill="#004990"/>
  <path d="M202.05 65.9778V86.7103H205.88V78.1922H207.527L212.819 86.7103H217.44L211.089 76.344L217.44 65.9778H212.819L207.527 74.6471H205.88V65.9778H202.05Z" fill="#004990"/>
  <defs>
    <linearGradient id="paint0_linear_9915_61002" x1="3.83057" y1="28.7298" x2="238.642" y2="28.7298" gradientUnits="userSpaceOnUse">
      <stop stop-color="#E41636"/>
      <stop offset="1" stop-color="#025D9B"/>
    </linearGradient>
    <clipPath id="clip0_9915_61002">
      <rect width="243" height="100" fill="white"/>
    </clipPath>
  </defs>
</svg>
