<?xml version="1.0" encoding="utf-8"?>
<!-- Generator: Adobe Illustrator 25.4.1, SVG Export Plug-In . SVG Version: 6.00 Build 0)  -->
<svg version="1.1" id="Layer_1" xmlns="http://www.w3.org/2000/svg" xmlns:xlink="http://www.w3.org/1999/xlink" x="0px" y="0px"
	 viewBox="0 0 196 100" style="enable-background:new 0 0 196 100;" xml:space="preserve">
<style type="text/css">
	.st0{fill:#374B5E;}
	.st1{fill:#E3E41B;}
</style>
<path class="st0" d="M75.8888,67.6845"/>
<path class="st0" d="M103.3434,81.4829c0-1.5269-1.2378-2.7647-2.7648-2.7647c-0.001,0-0.0019,0.0003-0.0028,0.0003h-1.5081
	c-4.7276,0-7.8762-1.6388-7.8762-9.6386V53.0001h7.8762c1.5269,0,2.7648-1.2378,2.7648-2.7647s-1.2378-2.7647-2.7648-2.7647h-7.8762
	V39.241h-0.0001V39.241c0-1.5268-1.2378-2.7647-2.7648-2.7647s-2.7648,1.2378-2.7648,2.7647c0,0.0004,0.0001,0.0007,0.0001,0.0011
	v8.2287h-4.2437c-1.5269,0-2.7648,1.2378-2.7648,2.7647s1.2378,2.7647,2.7648,2.7647h4.2437v16.0797
	c0,12.5365,7.2899,15.168,13.4057,15.168h1.5111v-0.0003C102.1057,84.2475,103.3434,83.0098,103.3434,81.4829z"/>
<path class="st0" d="M20.1924,45.7158c-0.209-0.0505-0.4242-0.0846-0.6488-0.0846c-0.2245,0-0.4398,0.0341-0.6488,0.0846
	c-5.24,0.1725-9.9552,2.3936-13.3653,5.9056V33.7121c0-0.0002,0.0001-0.0004,0.0001-0.0006c0-1.5269-1.2378-2.7647-2.7648-2.7647
	s-2.7648,1.2378-2.7648,2.7647v0.0001H0v31.2077h0.0001c0,0.0002-0.0001,0.0003-0.0001,0.0005c0,0.035,0.009,0.0676,0.0103,0.1023
	c-0.0007,0.0687-0.0103,0.1352-0.0103,0.2041c0,10.7934,8.7499,19.5431,19.5435,19.5431s19.5435-8.7498,19.5435-19.5431
	C39.0871,54.6518,30.683,46.061,20.1924,45.7158z M19.8863,79.2744c-0.1136-0.0142-0.2253-0.0345-0.3427-0.0345
	c-0.1174,0-0.2292,0.0204-0.3427,0.0345c-7.5621-0.1826-13.6423-6.3217-13.7162-13.9101c0.0237-0.1456,0.0448-0.2923,0.0448-0.4445
	c0-0.0002-0.0001-0.0004-0.0001-0.0006v-0.7179c0.5268-7.2879,6.5917-13.0407,14.0141-13.0407
	c7.5419,0,13.6794,5.9402,14.032,13.3946c-0.016,0.1205-0.0368,0.2397-0.0368,0.3646c0,0.1927,0.0202,0.3806,0.0577,0.5621
	C33.4608,73.0156,27.4089,79.0928,19.8863,79.2744z"/>
<path class="st0" d="M118.3042,78.7182c-0.0008,0-0.0016,0.0002-0.0024,0.0002c-3.605-0.0003-5.1852-0.7269-5.1852-7.6668V36.4763
	l0,0v-0.0001c0-1.5269-1.2378-2.7647-2.7648-2.7647s-2.7648,1.2378-2.7648,2.7647v0.0001l0,0v34.5754
	c0,3.9491,0,13.1962,10.717,13.1962v-0.0003c0.0001,0,0.0001,0,0.0001,0c1.5269,0,2.7648-1.2378,2.7648-2.7647
	C121.069,79.956,119.8311,78.7182,118.3042,78.7182z"/>
<path class="st0" d="M156.0024,49.2067c0-1.5269-1.2378-2.7647-2.7648-2.7647c-1.1133,0-2.0668,0.6618-2.5049,1.6102l-0.0061-0.0028
	l-12.6268,27.3934l-12.8352-27.4087l-0.0067,0.0032c-0.4414-0.9401-1.3896-1.5952-2.4968-1.5952
	c-1.5269,0-2.7648,1.2378-2.7648,2.7647c0,0.4196,0.1006,0.8131,0.2679,1.1694l-0.0071,0.0033l14.814,31.6342l-6.4828,14.0643
	l0.0061,0.0028c-0.1628,0.3523-0.2599,0.741-0.2599,1.1545c0,1.5269,1.2378,2.7647,2.7648,2.7647
	c1.1133,0,2.0667-0.6618,2.5049-1.6102l0.0061,0.0028l22.1383-48.0285l-0.006-0.0028
	C155.9053,50.0091,156.0024,49.6204,156.0024,49.2067z"/>
<path class="st0" d="M78.6278,64.6642C78.363,54.414,70.9563,47.0297,61.6994,46.6418c-0.2135-0.0528-0.4333-0.089-0.6631-0.089
	c-0.2173,0-0.4262,0.031-0.629,0.0785c-9.3623,0.2758-16.8862,7.7304-17.1552,18.0315c-0.008,0.0859-0.0259,0.169-0.0259,0.257
	c0,0.0329,0.0086,0.0634,0.0097,0.096c-0.0007,0.0712-0.0097,0.139-0.0097,0.2104c0,10.7934,7.9307,19.5431,17.7137,19.5431
	l0.0002-0.0097c0.0021,0.0001,0.0042,0.0006,0.0064,0.0007l-0.0002,0.007c0.0302,0.0009,0.1962,0.0063,0.4698,0.0063
	c1.0948,0,3.9046-0.0801,6.5177-0.8145c3.3912-0.9522,6.2401-3.3704,6.5537-3.6431l-0.0077-0.0089
	c0.5829-0.5069,0.9591-1.2451,0.9591-2.0782c0-1.5269-1.2378-2.7647-2.7648-2.7647c-0.6915,0-1.3158,0.2628-1.8006,0.6824
	l-0.008-0.0092c-0.6021,0.5184-2.5717,1.9772-4.4275,2.4992c-2.4259,0.6813-5.2879,0.6048-5.3117,0.6048l-0.0002,0.0075
	c-0.0304-0.001-0.0589-0.0091-0.0896-0.0091c-6.2789,0-11.5621-4.9713-12.6348-11.5554h27.4873
	c1.5269,0,2.7648-1.2378,2.7648-2.7647C78.6536,64.8322,78.6357,64.7497,78.6278,64.6642z M78.0886,63.2615
	c-0.0079-0.0105-0.0169-0.02-0.025-0.0303C78.0716,63.2417,78.0808,63.251,78.0886,63.2615z M77.7628,62.898
	c-0.0261-0.0242-0.0554-0.0448-0.0824-0.0679C77.7074,62.8534,77.7368,62.8736,77.7628,62.898z M60.9399,52.0821
	c6.0802,0,11.1555,3.8896,12.4291,10.0729H48.5166C49.8045,56.0799,54.8723,52.0821,60.9399,52.0821z M76.429,62.2095
	c-0.1748-0.0346-0.3552-0.0544-0.5402-0.0544C76.074,62.1551,76.2543,62.1746,76.429,62.2095z M77.3744,62.5945
	c-0.0541-0.0346-0.1131-0.0612-0.1696-0.092C77.2612,62.5336,77.3205,62.5597,77.3744,62.5945z M76.9274,62.3607
	c-0.091-0.037-0.1879-0.0607-0.2835-0.088C76.7395,62.3001,76.8365,62.3234,76.9274,62.3607z"/>
<path class="st1" d="M133.1116,19.741c-0.3568-0.8158-1.3086-1.188-2.124-0.8316c-0.8158,0.3568-1.1884,1.3077-0.8316,2.1239
	l8.6588,19.8029c0.265,0.6057,0.8572,0.967,1.4787,0.967c0.2155,0,0.4352-0.0437,0.6453-0.1354
	c0.8158-0.3568,1.1884-1.3077,0.8316-2.1239L133.1116,19.741z"/>
<path class="st0" d="M173.997,0.1213c-0.8235-0.3379-1.7667,0.0544-2.1042,0.8784l-14.06,34.205
	c-0.3384,0.8239,0.0549,1.7662,0.8784,2.105c0.2007,0.0823,0.4086,0.1215,0.6129,0.1215c0.6345,0,1.2361-0.3771,1.4917-0.9999
	l14.0596-34.205C175.2147,1.4024,174.8214,0.4601,173.997,0.1213z"/>
<path class="st1" d="M194.226,46.2153l-25.6325,2.5721c-0.8865,0.0891-1.5327,0.8793-1.4436,1.7657
	c0.0837,0.8316,0.7848,1.4516,1.6029,1.4516c0.054,0,0.108-0.0027,0.1629-0.0081l25.6325-2.5721
	c0.8865-0.0891,1.5327-0.8793,1.4436-1.7657S195.1143,46.1303,194.226,46.2153z"/>
<path class="st0" d="M173.4012,28.7794c-0.2889,0.8424,0.1593,1.7599,1.0017,2.0488l4.3477,1.4915l-1.4912,4.3466
	c-0.2889,0.8424,0.1593,1.7599,1.0017,2.0488c0.1737,0.0594,0.3501,0.0877,0.5238,0.0877c0.6696,0,1.296-0.4207,1.5255-1.0899
	l1.4912-4.3466l4.3461,1.491c0.1737,0.0594,0.3501,0.0877,0.5238,0.0877c0.6696,0,1.296-0.4207,1.5255-1.0899
	c0.2889-0.8424-0.1593-1.7599-1.0017-2.0488l-4.3469-1.4912l1.4913-4.3468c0.2889-0.8424-0.1593-1.7599-1.0017-2.0488
	c-0.8424-0.2884-1.7604,0.1593-2.0493,1.0021l-1.4913,4.3468l-4.3469-1.4912C174.6063,27.4893,173.6901,27.9365,173.4012,28.7794z"
	/>
<path class="st0" d="M150.58,8.9856c-3.3616,0-6.0867,2.7251-6.0867,6.0866s2.7251,6.0866,6.0867,6.0866s6.0867-2.725,6.0867-6.0866
	S153.9416,8.9856,150.58,8.9856z M150.58,18.3941c-1.8318,0-3.322-1.4902-3.322-3.3219s1.4902-3.3219,3.322-3.3219
	s3.322,1.4902,3.322,3.3219S152.4118,18.3941,150.58,18.3941z"/>
<path class="st1" d="M188.365,16.9154c2.5449,0,4.6079-2.063,4.6079-4.6078s-2.063-4.6078-4.6079-4.6078
	c-2.5449,0-4.6079,2.063-4.6079,4.6078S185.8201,16.9154,188.365,16.9154z M188.365,10.0036c1.2704,0,2.304,1.0336,2.304,2.3039
	s-1.0336,2.3039-2.304,2.3039c-1.2704,0-2.304-1.0336-2.304-2.3039S187.0945,10.0036,188.365,10.0036z"/>
</svg>
