<svg xmlns="http://www.w3.org/2000/svg"  xmlns:xlink="http://www.w3.org/1999/xlink" x="0px" y="0px"
   viewBox="0 0 742 100" style="enable-background:new 0 0 742 100;" xml:space="preserve">
  <path d="M423.093 0.127101C418.592 0.453779 414.199 1.94198 410.333 4.46467C408.064 5.93472 404.743 9.21966 403.345 11.3431C402.837 12.1416 391.837 32.1416 378.932 55.8077L355.445 98.8204L366.989 98.8748C379.967 98.9293 380.221 98.9111 382.907 97.6588C384.868 96.7333 386.301 95.7351 387.518 94.4465C388.915 92.9583 389.169 92.5772 391.257 88.657L393.108 85.2088L395.449 85.0454C398.462 84.8458 451.771 84.8458 454.457 85.0454L456.526 85.2088L458.378 88.657C460.465 92.5772 460.719 92.9583 462.117 94.4465C463.333 95.7351 464.767 96.7333 466.727 97.6588C469.413 98.9111 469.631 98.9293 482.845 98.8748L494.57 98.8204L478.434 69.2378C469.541 52.9583 458.922 33.4846 454.802 25.9529C450.682 18.4211 446.834 11.579 446.235 10.726C441.171 3.59353 432.168 -0.544406 423.093 0.127101ZM434.455 43.9928C439.628 53.6843 443.894 61.6879 443.93 61.7786C443.966 61.9238 438.267 61.9783 424.817 61.9783C411.404 61.9783 405.668 61.9238 405.705 61.7786C405.868 61.1616 424.799 26.1343 424.908 26.2614C424.981 26.334 429.282 34.3195 434.455 43.9928Z" fill="#190532"/>
  <path d="M9.2578 2.10532C5.15574 2.97647 1.65266 6.35215 0.418415 10.6171C0.109853 11.6335 0.0917024 14.0291 0.0372503 48.8204C-0.0172018 89.4737 -0.0716538 87.2051 1.03554 89.9638C2.41499 93.412 5.55506 96.5155 9.07629 97.9492C11.4903 98.9111 11.1999 98.9111 30.7664 98.9111C51.2585 98.9111 51.6396 98.893 56.7218 97.6044C75.6893 92.795 86.5616 74.3558 82.4958 53.9747C81.679 49.9456 80.0818 45.844 77.94 42.305C73.4023 34.8276 65.7246 29.1834 56.976 26.8785C51.8212 25.5173 49.9153 25.4084 31.4561 25.4084H16.1551V13.6117V1.81494L13.3054 1.83309C11.5992 1.83309 9.96568 1.94198 9.2578 2.10532ZM48.8081 40.4901C53.7814 40.9438 57.7201 42.6861 61.0599 45.9166C64.1092 48.8567 65.9968 52.1416 67.0859 56.4429C67.6667 58.7659 67.8845 63.3031 67.5396 65.6988C66.3054 74.0654 61.2232 80.4356 53.7633 82.9402C50.5506 84.011 50.3146 84.0291 32.4544 84.0291H16.1551V62.2868C16.1551 50.3267 16.2095 40.4719 16.2821 40.4175C16.4818 40.1997 46.5393 40.2723 48.8081 40.4901Z" fill="#190532"/>
  <path d="M194.25 2.08693C190.093 2.99438 186.663 6.29746 185.374 10.6169C185.065 11.6514 185.047 13.6296 184.993 45.88C184.938 83.1033 184.92 81.7966 185.973 85.1178C188.296 92.5225 194.34 97.6042 202.127 98.7294C203.143 98.8746 208.334 98.9109 219.624 98.8746C237.212 98.802 236.032 98.8746 238.392 97.7131C240.77 96.5516 242.893 94.1196 243.746 91.5606C244.128 90.4717 244.2 89.8365 244.273 87.1505L244.345 84.0289H224.579C202.762 84.0289 203.779 84.0833 202.581 82.9036C202.254 82.577 201.818 81.9962 201.601 81.5969L201.201 80.8528V60.6169V40.381L217.174 40.2902L233.146 40.1995L234.508 39.7094C236.141 39.1105 238.065 37.822 239.064 36.6786C240.134 35.4263 241.187 33.194 241.496 31.488C241.641 30.6895 241.75 29.0016 241.768 27.7131V25.4082H221.439H201.111V13.6114V1.8147L198.261 1.83285C196.555 1.83285 194.921 1.94174 194.25 2.08693Z" fill="#190532"/>
  <path d="M267.54 2.15974C260.915 3.5572 255.851 8.47553 253.873 15.3903L253.474 16.7877L253.419 51.089C253.383 76.6244 253.419 85.7351 253.582 86.7514C254.49 92.5953 259.046 97.4229 264.781 98.6389C265.707 98.8385 267.649 98.9111 272.931 98.9111H279.883L279.919 86.4247L279.974 73.9565L312.373 73.8476C344.608 73.7569 344.79 73.7569 346.768 73.3576C350.834 72.5772 353.829 71.5609 357.241 69.8549C367.623 64.6462 374.52 54.9365 376.154 43.2124C376.481 40.8531 376.535 35.0636 376.263 32.9039C375.119 24.4102 371.707 17.3322 366.099 11.8149C361.67 7.47734 355.898 4.31945 349.672 2.84939C345.153 1.77861 346.75 1.81491 306.238 1.83306C271.225 1.83306 268.992 1.85121 267.54 2.15974ZM340.597 25.8258C345.933 27.3685 349.618 31.8694 349.89 37.187C350.199 43.0309 346.296 48.2941 340.506 49.8549C339.399 50.1634 337.384 50.1815 309.65 50.1815H279.974L279.919 38.0218C279.901 31.3249 279.919 25.7532 279.974 25.6262C280.046 25.4447 285.873 25.4084 309.777 25.4447C337.42 25.4992 339.58 25.5173 340.597 25.8258Z" fill="#190532"/>
  <path d="M506.349 1.99668C499.597 3.14006 493.843 8.45766 492.028 15.2635L491.61 16.788L491.574 48.1854L491.52 79.5829L496.82 89.2743L502.101 98.9658L504.298 98.8569C506.839 98.748 508.309 98.3669 510.396 97.2417C513.173 95.7535 515.333 93.503 516.658 90.7081C517.892 88.131 517.892 88.0584 518.001 80.6718L518.11 73.9567L540.926 73.9023L563.741 73.866L572.726 84.4286C578.861 91.6337 582.073 95.2816 582.854 95.8805C584.161 96.8969 585.83 97.7861 587.627 98.3851L588.898 98.8206L615.253 98.8751C641.317 98.9114 641.644 98.9114 643.477 98.5484C645.782 98.0765 647.634 97.3687 649.721 96.1528C651.264 95.2453 652.371 94.1745 673.807 72.7771L696.259 50.3633L673.807 27.9495C652.389 6.57018 651.264 5.48125 649.721 4.57381C647.652 3.37599 645.782 2.65004 643.495 2.19632C641.735 1.83334 641.063 1.81519 627.831 1.81519H614L613.383 2.43225C612.73 3.08561 612.585 3.82971 612.966 4.59196C613.075 4.80975 623.366 15.209 635.836 27.6773L658.506 50.3633L636.907 71.9604C618.139 90.7263 615.289 93.5212 615.053 93.2852C614.926 93.14 611.604 89.2199 607.684 84.5738C603.763 79.9277 600.17 75.7353 599.716 75.2635C598.046 73.503 595.287 71.8696 593.036 71.307L592.092 71.0711L593.908 70.1092C604.217 64.6283 611.695 54.9731 613.837 44.3379C615.38 36.7698 614.182 27.8406 610.697 20.9077C609.009 17.5321 607.303 15.1183 604.798 12.4867C599.298 6.69723 591.494 2.92227 583.144 2.01483C581.039 1.77889 507.728 1.77889 506.349 1.99668ZM578.552 25.8261C582.709 27.0239 586.012 30.1273 587.301 34.0112C587.736 35.2998 587.791 35.7716 587.791 37.8406C587.809 40.0185 587.754 40.3088 587.246 41.7607C585.849 45.6809 582.89 48.4939 578.824 49.7644L577.463 50.1818H547.787H518.11L518.056 38.0221C518.038 31.3252 518.056 25.7535 518.11 25.6264C518.183 25.4449 523.991 25.4086 547.823 25.4449C575.448 25.4994 577.536 25.5175 578.552 25.8261Z" fill="#190532"/>
  <path d="M711.743 2.08693C708.876 2.61325 705.808 3.97441 703.412 5.78929C702.632 6.3882 697.459 11.3973 691.941 16.9145L681.922 26.9508L689.037 34.047C695.535 40.4898 696.279 41.1795 697.314 41.6332C699.746 42.704 702.178 42.6496 704.519 41.488C705.699 40.8891 706.97 39.6731 723.904 22.7403L742.001 4.62776V3.75662C742.001 3.03067 741.91 2.77658 741.474 2.34101L740.948 1.8147L726.99 1.83285C716.408 1.85099 712.742 1.90544 711.743 2.08693Z" fill="#190532"/>
  <path d="M130.049 24.6102C123.533 24.9551 117.18 26.2073 112.697 28.0222C98.8663 33.5939 91.6968 44.4469 91.1704 60.6175C90.9163 68.3126 92.0961 74.5739 94.8368 80.3453C96.6156 84.0476 98.5033 86.6973 101.353 89.4378C107.27 95.1002 115.238 98.3852 126.238 99.6737C129.232 100.019 138.308 99.9641 141.393 99.583C150.378 98.4396 157.457 95.808 163.319 91.3979C165.28 89.9097 168.656 86.7881 168.583 86.534C168.547 86.4614 166.078 84.2291 163.102 81.5975L157.656 76.8062L156.132 78.1311C151.231 82.4324 145.695 84.7736 138.689 85.4814C136.293 85.7173 130.194 85.7173 127.762 85.4814C116.364 84.3561 110.065 79.8552 107.742 71.1619C107.488 70.2545 107.234 69.0567 107.179 68.5122L107.052 67.514H141.466H175.88V63.6483C175.88 54.7736 174.7 49.0748 171.687 43.1946C166.314 32.7953 155.787 26.4977 141.212 24.9732C138.526 24.6828 132.336 24.4832 130.049 24.6102ZM138.671 39.0204C144.842 39.583 149.797 41.1801 152.973 43.6302C155.242 45.3725 157.148 47.8226 158.237 50.3997C158.764 51.652 159.544 54.1384 159.544 54.5921C159.544 54.7554 153.464 54.8099 133.498 54.8099C110.555 54.8099 107.452 54.7736 107.452 54.5376C107.452 54.3924 107.706 53.4669 108.014 52.505C109.049 49.2563 110.465 46.897 112.552 44.9006C116.255 41.3797 120.72 39.7645 129.051 38.9659C130.557 38.8026 136.765 38.857 138.671 39.0204Z" fill="#190532"/>
  <path d="M699.365 58.4574C698.82 58.5482 697.876 58.8385 697.277 59.1108C696.279 59.5463 695.444 60.3086 689.037 66.6788L681.922 73.775L691.941 83.8113C697.459 89.3286 702.632 94.3376 703.412 94.9365C705.01 96.1525 707.151 97.2959 709.057 97.9492C711.816 98.893 712.306 98.9111 727.153 98.9111H740.948L741.474 98.3848C741.91 97.9492 742.001 97.6952 742.001 96.9692V96.0981L723.904 77.9855C706.879 60.9619 705.717 59.8367 704.519 59.256C703.83 58.9111 702.723 58.5482 702.069 58.4393C700.744 58.2396 700.726 58.2396 699.365 58.4574Z" fill="#190532"/>
</svg>
