<?xml version="1.0" encoding="utf-8"?>
<!-- Generator: Adobe Illustrator 24.1.3, SVG Export Plug-In . SVG Version: 6.00 Build 0)  -->
<svg version="1.1" id="Layer_1" xmlns="http://www.w3.org/2000/svg" xmlns:xlink="http://www.w3.org/1999/xlink" x="0px" y="0px"
	 viewBox="0 0 980 300" enable-background="new 0 0 980 300" xml:space="preserve">
<path fill="#E6E7E8" d="M978,2v296H2V2H978 M980,0H0v300h980V0L980,0z"/>
<g>
	<path fill="#254B53" d="M100.1,43.3c2.7,0,4,1.1,4,3.3c0,1.9-0.9,3.4-2.8,4.4c0.6,0.3,1.1,0.7,1.3,1.1s0.4,1,0.4,1.6
		c0,1.6-0.5,2.9-1.6,3.9c-1.1,1-2.6,1.5-4.5,1.5h-5.7l3.6-15.8H100.1z M98.4,52.1h-3.1l-1.1,4.7h3.2c0.9,0,1.6-0.3,2.2-0.9
		c0.5-0.6,0.8-1.3,0.8-2.3C100.4,52.6,99.7,52.1,98.4,52.1z M99.7,45.5h-2.8L95.8,50h2.9c0.8,0,1.5-0.3,2-0.8
		c0.5-0.6,0.8-1.3,0.8-2.1c0-0.5-0.1-0.9-0.4-1.2C100.8,45.6,100.3,45.5,99.7,45.5z"/>
	<path fill="#254B53" d="M112.3,47.3c2.9,0,4.3,1.4,4.3,4.1c0,1.3-0.2,2.6-0.6,3.7c-0.4,1.2-1.1,2.2-2,2.9c-0.9,0.8-2,1.2-3.2,1.2
		c-2.8,0-4.3-1.4-4.3-4.1c0-1.3,0.2-2.6,0.7-3.8c0.5-1.2,1.1-2.2,2-3C110.1,47.7,111.1,47.3,112.3,47.3z M110.7,57.2
		c1,0,1.8-0.6,2.4-1.7c0.6-1.2,0.9-2.5,0.9-4c0-0.6-0.2-1.1-0.5-1.5c-0.3-0.4-0.8-0.5-1.4-0.5c-1,0-1.8,0.6-2.4,1.8
		c-0.6,1.2-0.9,2.5-0.9,4C109,56.5,109.6,57.2,110.7,57.2z"/>
	<path fill="#254B53" d="M127.1,47.3c0.9,0,1.6,0.3,2.1,0.8c0.5,0.6,0.7,1.2,0.7,2c0,0.8-0.2,1.9-0.5,3.1L128,59h-2.5l1.3-5.5
		c0.3-1.3,0.4-2.2,0.4-2.6s-0.1-0.8-0.3-1.1c-0.2-0.2-0.5-0.4-0.9-0.4c-0.4,0-0.8,0.2-1.3,0.5c-0.5,0.3-0.8,0.6-1.1,1l-0.4,0.5
		l-1.8,7.7H119l2.6-11.5h2.4l-0.3,1.5c0.1-0.1,0.3-0.3,0.5-0.5c0.2-0.2,0.6-0.5,1.2-0.8S126.6,47.3,127.1,47.3z"/>
	<path fill="#254B53" d="M135.9,59.3c-0.9,0-1.6-0.3-2.1-0.8c-0.5-0.6-0.7-1.3-0.7-2.2c0-0.6,0.2-1.5,0.5-2.9l1.3-5.7h2.5l-1.3,5.5
		c-0.3,1.1-0.4,2-0.4,2.6c0,1,0.4,1.5,1.2,1.5c0.3,0,0.7-0.2,1.2-0.5c0.5-0.3,0.8-0.6,1.2-1l0.5-0.5l1.8-7.7h2.5L141.3,59h-2.4
		l0.3-1.5c-0.1,0.1-0.3,0.3-0.5,0.5c-0.2,0.2-0.6,0.5-1.2,0.8C136.9,59.1,136.4,59.3,135.9,59.3z"/>
	<path fill="#254B53" d="M151.4,49.4c-0.6,0-1.1,0.2-1.4,0.5c-0.3,0.3-0.5,0.7-0.5,1c0,0.4,0.1,0.7,0.4,0.8s0.7,0.3,1.4,0.5
		s1.1,0.3,1.4,0.5c0.3,0.1,0.6,0.3,0.9,0.5c0.6,0.4,0.8,1,0.8,1.8c0,1.4-0.5,2.5-1.4,3.2c-0.9,0.7-2.2,1.1-3.7,1.1
		c-1.2,0-2.3-0.2-3.3-0.5l-0.5-0.2l0.5-1.9c1.5,0.3,2.6,0.4,3.5,0.4c1.6,0,2.5-0.6,2.5-1.7c0-0.3-0.1-0.5-0.4-0.6s-0.8-0.3-1.7-0.6
		s-1.6-0.5-2.1-0.9c-0.5-0.4-0.8-1-0.8-1.7c0-1.3,0.5-2.4,1.4-3.2c0.9-0.8,2-1.2,3.3-1.2c1.3,0,2.4,0.2,3.5,0.5l0.5,0.1l-0.5,1.9
		C153.7,49.5,152.4,49.4,151.4,49.4z"/>
	<path fill="#254B53" d="M160.5,55.5c0,0.5,0.2,0.9,0.5,1.2c0.4,0.3,0.8,0.4,1.3,0.4c1.1,0,2.2-0.1,3.3-0.3l0.6-0.1l-0.3,1.9
		c-1.4,0.4-2.8,0.6-4.2,0.6c-2.5,0-3.7-1.2-3.7-3.7c0-2.2,0.5-4.1,1.4-5.6c0.5-0.8,1.1-1.4,2-1.9c0.8-0.5,1.8-0.7,2.8-0.7
		c2.5,0,3.8,1.1,3.8,3.2c0,1.4-0.5,2.4-1.5,2.9c-1,0.6-2.6,0.8-4.9,0.8h-1C160.5,54.5,160.5,55,160.5,55.5z M162,52.3
		c1.3,0,2.2-0.1,2.7-0.4s0.8-0.8,0.8-1.4c0-0.8-0.5-1.1-1.4-1.1c-1.6,0-2.7,1-3.2,3H162z"/>
	<path fill="#254B53" d="M175.6,49.4c-0.6,0-1.1,0.2-1.4,0.5c-0.3,0.3-0.5,0.7-0.5,1c0,0.4,0.1,0.7,0.4,0.8s0.7,0.3,1.4,0.5
		s1.1,0.3,1.4,0.5c0.3,0.1,0.6,0.3,0.9,0.5c0.6,0.4,0.8,1,0.8,1.8c0,1.4-0.5,2.5-1.4,3.2c-0.9,0.7-2.2,1.1-3.7,1.1
		c-1.2,0-2.3-0.2-3.3-0.5l-0.5-0.2l0.5-1.9c1.5,0.3,2.6,0.4,3.5,0.4c1.6,0,2.5-0.6,2.5-1.7c0-0.3-0.1-0.5-0.4-0.6s-0.8-0.3-1.7-0.6
		s-1.6-0.5-2.1-0.9c-0.5-0.4-0.8-1-0.8-1.7c0-1.3,0.5-2.4,1.4-3.2c0.9-0.8,2-1.2,3.3-1.2c1.3,0,2.4,0.2,3.5,0.5l0.5,0.1l-0.5,1.9
		C177.8,49.5,176.6,49.4,175.6,49.4z"/>
	<path fill="#254B53" d="M192,59.3c-1.1,0-1.8-0.3-2.3-1c-0.5-0.7-0.8-1.5-0.8-2.6c0-1,0.1-2,0.4-2.9c0.2-0.9,0.6-1.8,1-2.6
		c0.4-0.8,1.1-1.5,1.8-2s1.6-0.8,2.6-0.8c0.9,0,2.3,0.2,4.3,0.5l1,0.2l-1.7,7.5l-0.6,3.6l-2.5,0.1c0.2-1.1,0.3-1.8,0.3-2.1
		c-0.7,1-1.5,1.6-2.5,2C192.7,59.2,192.3,59.3,192,59.3z M197.1,49.7c-1-0.2-1.9-0.3-2.5-0.3s-1.2,0.3-1.7,1c-1,1.3-1.5,2.9-1.5,5
		c0,0.6,0.1,1,0.3,1.3s0.5,0.4,1,0.4c0.4,0,0.9-0.2,1.4-0.6c0.5-0.4,1-0.8,1.3-1.2l0.5-0.6L197.1,49.7z"/>
	<path fill="#254B53" d="M210,47.3c0.9,0,1.6,0.3,2.1,0.8c0.5,0.6,0.7,1.2,0.7,2c0,0.8-0.2,1.9-0.5,3.1l-1.3,5.7h-2.5l1.3-5.5
		c0.3-1.3,0.4-2.2,0.4-2.6s-0.1-0.8-0.3-1.1c-0.2-0.2-0.5-0.4-0.9-0.4c-0.4,0-0.8,0.2-1.3,0.5c-0.5,0.3-0.8,0.6-1.1,1l-0.4,0.5
		l-1.8,7.7h-2.5l2.6-11.5h2.4l-0.3,1.5c0.1-0.1,0.3-0.3,0.5-0.5c0.2-0.2,0.6-0.5,1.2-0.8S209.5,47.3,210,47.3z"/>
	<path fill="#254B53" d="M219,59.3c-1,0-1.8-0.3-2.3-1s-0.8-1.6-0.8-2.9c0-1.3,0.2-2.5,0.6-3.7c0.4-1.2,1.1-2.3,2-3.1
		c0.9-0.9,2-1.3,3.2-1.3c0.6,0,1.4,0.1,2.4,0.3l0.5,0.1l1.2-5h2.5L224.4,59H222l0.3-1.6c-0.1,0.1-0.3,0.3-0.5,0.5
		c-0.2,0.2-0.6,0.5-1.2,0.8C220.1,59.1,219.5,59.3,219,59.3z M224.1,49.7c-0.9-0.2-1.7-0.3-2.4-0.3s-1.3,0.3-1.8,1s-0.9,1.5-1.1,2.4
		s-0.4,1.8-0.4,2.7c0,1.1,0.5,1.7,1.4,1.7c0.3,0,0.8-0.2,1.3-0.5c0.5-0.4,0.9-0.7,1.3-1.1l0.5-0.5L224.1,49.7z"/>
	<path fill="#254B53" d="M243.7,47.3c1.1,0,1.9,0.3,2.4,1c0.5,0.7,0.8,1.6,0.8,2.8s-0.2,2.5-0.6,3.7c-0.4,1.2-1.1,2.3-2,3.2
		c-0.9,0.9-2,1.3-3.2,1.3c-0.8,0-1.6-0.1-2.5-0.3l-0.5-0.1L237,64h-2.5l3.8-16.4h2.4l-0.3,1.6c0.1-0.1,0.3-0.3,0.5-0.5
		s0.6-0.5,1.2-0.8C242.7,47.4,243.2,47.3,243.7,47.3z M242.9,49.4c-0.3,0-0.7,0.2-1.3,0.5c-0.5,0.4-0.9,0.7-1.3,1l-0.5,0.5l-1.2,5.3
		c0.9,0.2,1.7,0.3,2.4,0.3s1.3-0.3,1.8-1c0.5-0.7,0.9-1.5,1.1-2.4s0.4-1.8,0.4-2.6C244.3,50,243.9,49.4,242.9,49.4z"/>
	<path fill="#254B53" d="M249.2,59l2.6-11.5h2.5l-0.4,1.7c0.5-0.4,1.2-0.8,1.9-1.2c0.7-0.4,1.4-0.6,1.9-0.7l-0.7,2.6
		c-0.7,0.2-1.7,0.6-3,1.2l-0.6,0.3l-1.8,7.7H249.2z"/>
	<path fill="#254B53" d="M264.7,47.3c2.9,0,4.3,1.4,4.3,4.1c0,1.3-0.2,2.6-0.6,3.7c-0.4,1.2-1.1,2.2-2,2.9c-0.9,0.8-2,1.2-3.2,1.2
		c-2.8,0-4.3-1.4-4.3-4.1c0-1.3,0.2-2.6,0.7-3.8c0.5-1.2,1.1-2.2,2-3C262.6,47.7,263.6,47.3,264.7,47.3z M263.2,57.2
		c1,0,1.8-0.6,2.4-1.7c0.6-1.2,0.9-2.5,0.9-4c0-0.6-0.2-1.1-0.5-1.5c-0.3-0.4-0.8-0.5-1.4-0.5c-1,0-1.8,0.6-2.4,1.8
		c-0.6,1.2-0.9,2.5-0.9,4C261.4,56.5,262,57.2,263.2,57.2z"/>
	<path fill="#254B53" d="M279.7,50.9c0-1-0.4-1.5-1.2-1.5c-0.3,0-0.7,0.2-1.2,0.5c-0.5,0.3-0.8,0.6-1.1,1l-0.4,0.5l-1.8,7.7h-2.5
		l2.6-11.5h2.4l-0.3,1.5c0,0,0.1-0.1,0.2-0.2c0.1-0.1,0.2-0.2,0.5-0.4c0.2-0.2,0.5-0.4,0.7-0.5c0.6-0.4,1.3-0.6,1.9-0.6
		c0.6,0,1.2,0.1,1.6,0.4c0.4,0.3,0.7,0.6,0.7,0.9l0.2,0.5c0.1-0.1,0.3-0.3,0.6-0.5c0.2-0.2,0.7-0.5,1.3-0.8c0.6-0.3,1.2-0.5,1.8-0.5
		c0.9,0,1.6,0.3,2.1,0.8c0.4,0.6,0.7,1.2,0.7,2s-0.1,1.8-0.4,3.2l-1.3,5.7h-2.5l1.3-5.5c0.3-1.3,0.4-2.1,0.4-2.5
		c0-1-0.4-1.6-1.1-1.6c-0.3,0-0.7,0.1-1.2,0.4c-0.4,0.3-0.8,0.6-1.1,0.8l-0.4,0.4c-0.1,0.8-0.2,1.6-0.4,2.2l-1.3,5.7H278l1.3-5.5
		C279.5,52.2,279.7,51.3,279.7,50.9z"/>
	<path fill="#254B53" d="M297.4,47.3c2.9,0,4.3,1.4,4.3,4.1c0,1.3-0.2,2.6-0.6,3.7c-0.4,1.2-1.1,2.2-2,2.9c-0.9,0.8-2,1.2-3.2,1.2
		c-2.8,0-4.3-1.4-4.3-4.1c0-1.3,0.2-2.6,0.7-3.8c0.5-1.2,1.1-2.2,2-3C295.2,47.7,296.2,47.3,297.4,47.3z M295.8,57.2
		c1,0,1.8-0.6,2.4-1.7c0.6-1.2,0.9-2.5,0.9-4c0-0.6-0.2-1.1-0.5-1.5c-0.3-0.4-0.8-0.5-1.4-0.5c-1,0-1.8,0.6-2.4,1.8
		c-0.6,1.2-0.9,2.5-0.9,4C294.1,56.5,294.7,57.2,295.8,57.2z"/>
	<path fill="#254B53" d="M307.7,56.3c0,0.6,0.3,0.9,0.9,0.9l1.7-0.1l-0.2,1.8c-0.8,0.3-1.6,0.4-2.4,0.4s-1.4-0.2-1.9-0.6
		c-0.4-0.4-0.7-1-0.7-1.6s0.1-1.5,0.3-2.4l1.2-4.9h-1.3l0.6-2.1h1.3l0.7-3.2h2.5l-0.7,3.2h2.8l-0.5,2.1h-2.7l-1.2,5.1
		C307.8,55.4,307.7,55.9,307.7,56.3z"/>
	<path fill="#254B53" d="M313.3,59l2.6-11.5h2.5L315.8,59H313.3z M316.3,45.8l0.6-2.7h2.5l-0.6,2.7H316.3z"/>
	<path fill="#254B53" d="M326.6,47.3c2.9,0,4.3,1.4,4.3,4.1c0,1.3-0.2,2.6-0.6,3.7c-0.4,1.2-1.1,2.2-2,2.9c-0.9,0.8-2,1.2-3.2,1.2
		c-2.8,0-4.3-1.4-4.3-4.1c0-1.3,0.2-2.6,0.7-3.8c0.5-1.2,1.1-2.2,2-3C324.5,47.7,325.5,47.3,326.6,47.3z M325.1,57.2
		c1,0,1.8-0.6,2.4-1.7c0.6-1.2,0.9-2.5,0.9-4c0-0.6-0.2-1.1-0.5-1.5c-0.3-0.4-0.8-0.5-1.4-0.5c-1,0-1.8,0.6-2.4,1.8
		c-0.6,1.2-0.9,2.5-0.9,4C323.3,56.5,323.9,57.2,325.1,57.2z"/>
	<path fill="#254B53" d="M341.4,47.3c0.9,0,1.6,0.3,2.1,0.8c0.5,0.6,0.7,1.2,0.7,2c0,0.8-0.2,1.9-0.5,3.1l-1.3,5.7h-2.5l1.3-5.5
		c0.3-1.3,0.4-2.2,0.4-2.6s-0.1-0.8-0.3-1.1c-0.2-0.2-0.5-0.4-0.9-0.4c-0.4,0-0.8,0.2-1.3,0.5c-0.5,0.3-0.8,0.6-1.1,1l-0.4,0.5
		l-1.8,7.7h-2.5l2.6-11.5h2.4l-0.3,1.5c0.1-0.1,0.3-0.3,0.5-0.5c0.2-0.2,0.6-0.5,1.2-0.8S340.9,47.3,341.4,47.3z"/>
	<path fill="#254B53" d="M352.4,49.4c-0.6,0-1.1,0.2-1.4,0.5c-0.3,0.3-0.5,0.7-0.5,1c0,0.4,0.1,0.7,0.4,0.8s0.7,0.3,1.4,0.5
		s1.1,0.3,1.4,0.5c0.3,0.1,0.6,0.3,0.9,0.5c0.6,0.4,0.8,1,0.8,1.8c0,1.4-0.5,2.5-1.4,3.2c-0.9,0.7-2.2,1.1-3.7,1.1
		c-1.2,0-2.3-0.2-3.3-0.5l-0.5-0.2l0.5-1.9c1.5,0.3,2.6,0.4,3.5,0.4c1.6,0,2.5-0.6,2.5-1.7c0-0.3-0.1-0.5-0.4-0.6s-0.8-0.3-1.7-0.6
		s-1.6-0.5-2.1-0.9c-0.5-0.4-0.8-1-0.8-1.7c0-1.3,0.5-2.4,1.4-3.2c0.9-0.8,2-1.2,3.3-1.2c1.3,0,2.4,0.2,3.5,0.5l0.5,0.1l-0.5,1.9
		C354.6,49.5,353.4,49.4,352.4,49.4z"/>
	<path fill="#254B53" d="M100.1,92.3c2.7,0,4,1.1,4,3.3c0,1.9-0.9,3.4-2.8,4.4c0.6,0.3,1.1,0.7,1.3,1.1s0.4,1,0.4,1.6
		c0,1.6-0.5,2.9-1.6,3.9c-1.1,1-2.6,1.5-4.5,1.5h-5.7l3.6-15.8H100.1z M98.4,101.1h-3.1l-1.1,4.7h3.2c0.9,0,1.6-0.3,2.2-0.9
		c0.5-0.6,0.8-1.3,0.8-2.3C100.4,101.6,99.7,101.1,98.4,101.1z M99.7,94.5h-2.8L95.8,99h2.9c0.8,0,1.5-0.3,2-0.8
		c0.5-0.6,0.8-1.3,0.8-2.1c0-0.5-0.1-0.9-0.4-1.2C100.8,94.6,100.3,94.5,99.7,94.5z"/>
	<path fill="#254B53" d="M109.6,108.3c-1.1,0-1.8-0.3-2.3-1c-0.5-0.7-0.8-1.5-0.8-2.6c0-1,0.1-2,0.4-2.9c0.2-0.9,0.6-1.8,1-2.6
		c0.4-0.8,1.1-1.5,1.8-2s1.6-0.8,2.6-0.8c0.9,0,2.3,0.2,4.3,0.5l1,0.2l-1.7,7.5l-0.6,3.6l-2.5,0.1c0.2-1.1,0.3-1.8,0.3-2.1
		c-0.7,1-1.5,1.6-2.5,2C110.3,108.2,109.9,108.3,109.6,108.3z M114.7,98.7c-1-0.2-1.9-0.3-2.5-0.3s-1.2,0.3-1.7,1
		c-1,1.3-1.5,2.9-1.5,5c0,0.6,0.1,1,0.3,1.3s0.5,0.4,1,0.4c0.4,0,0.9-0.2,1.4-0.6c0.5-0.4,1-0.8,1.3-1.2l0.5-0.6L114.7,98.7z"/>
	<path fill="#254B53" d="M127.5,96.3c0.9,0,1.6,0.3,2.1,0.8c0.5,0.6,0.7,1.2,0.7,2c0,0.8-0.2,1.9-0.5,3.1l-1.3,5.7H126l1.3-5.5
		c0.3-1.3,0.4-2.2,0.4-2.6s-0.1-0.8-0.3-1.1c-0.2-0.2-0.5-0.4-0.9-0.4c-0.4,0-0.8,0.2-1.3,0.5c-0.5,0.3-0.8,0.6-1.1,1l-0.4,0.5
		L122,108h-2.5l2.6-11.5h2.4l-0.3,1.5c0.1-0.1,0.3-0.3,0.5-0.5c0.2-0.2,0.6-0.5,1.2-0.8S127,96.3,127.5,96.3z"/>
	<path fill="#254B53" d="M135.3,108h-2.5l3.7-16.3h2.5L137,101l1.1-0.1l3.5-4.3h2.8l-4.4,5.4l1.8,6h-2.6l-1.5-5.1l-1.2,0.1
		L135.3,108z"/>
	<path fill="#254B53" d="M145.1,108l2.6-11.5h2.5l-2.6,11.5H145.1z M148.1,94.8l0.6-2.7h2.5l-0.6,2.7H148.1z"/>
	<path fill="#254B53" d="M160.1,96.3c0.9,0,1.6,0.3,2.1,0.8c0.5,0.6,0.7,1.2,0.7,2c0,0.8-0.2,1.9-0.5,3.1l-1.3,5.7h-2.5l1.3-5.5
		c0.3-1.3,0.4-2.2,0.4-2.6s-0.1-0.8-0.3-1.1c-0.2-0.2-0.5-0.4-0.9-0.4c-0.4,0-0.8,0.2-1.3,0.5c-0.5,0.3-0.8,0.6-1.1,1l-0.4,0.5
		l-1.8,7.7h-2.5l2.6-11.5h2.4l-0.3,1.5c0.1-0.1,0.3-0.3,0.5-0.5c0.2-0.2,0.6-0.5,1.2-0.8S159.6,96.3,160.1,96.3z"/>
	<path fill="#254B53" d="M173.1,112.1c-1,0.8-2.3,1.2-3.9,1.2c-3.2,0-4.8-1-4.8-3.1c0-0.8,0.3-1.4,0.8-1.9c0.5-0.5,1.2-1,2.1-1.4
		c-0.3-0.3-0.4-0.6-0.4-1c0-0.4,0.1-0.8,0.3-1.1c0.2-0.4,0.4-0.7,0.7-0.9l0.3-0.3c-1.1-0.6-1.6-1.5-1.6-2.8c0-1.3,0.4-2.4,1.3-3.3
		c0.9-0.9,2-1.3,3.4-1.3c0.6,0,1.3,0.1,2.1,0.3l0.4,0.1l3.4-0.1l-0.5,2h-1.6c0.1,0.4,0.2,0.8,0.2,1.4c0,1.2-0.4,2.2-1.3,3.1
		c-0.9,0.9-2.1,1.3-3.5,1.3l-0.9-0.1c-0.3,0.4-0.5,0.8-0.5,1.1c0,0.3,0.1,0.4,0.4,0.5c0.3,0.1,0.9,0.2,1.9,0.3s1.7,0.4,2.3,0.8
		c0.6,0.4,0.9,1.1,0.9,2C174.6,110.2,174.1,111.3,173.1,112.1z M167.2,108.6c-0.4,0.4-0.5,0.8-0.5,1.2s0.2,0.8,0.6,1.1
		c0.4,0.3,1,0.4,1.8,0.4c0.8,0,1.6-0.2,2.2-0.5c0.6-0.3,1-0.9,1-1.5c0-0.4-0.1-0.6-0.4-0.8c-0.3-0.1-0.8-0.3-1.7-0.4
		c-0.9-0.1-1.4-0.2-1.7-0.3C167.9,107.9,167.6,108.2,167.2,108.6z M170.7,102.2c0.7,0,1.3-0.2,1.7-0.7c0.4-0.5,0.6-1,0.6-1.6
		c0-1-0.6-1.6-1.8-1.6c-0.7,0-1.2,0.2-1.6,0.7s-0.6,1-0.6,1.7C168.9,101.7,169.5,102.2,170.7,102.2z"/>
	<path fill="#254B53" d="M188.6,108.3c-1.1,0-1.8-0.3-2.3-1c-0.5-0.7-0.8-1.5-0.8-2.6c0-1,0.1-2,0.4-2.9c0.2-0.9,0.6-1.8,1-2.6
		c0.4-0.8,1.1-1.5,1.8-2s1.6-0.8,2.6-0.8c0.9,0,2.3,0.2,4.3,0.5l1,0.2l-1.7,7.5l-0.6,3.6l-2.5,0.1c0.2-1.1,0.3-1.8,0.3-2.1
		c-0.7,1-1.5,1.6-2.5,2C189.3,108.2,188.9,108.3,188.6,108.3z M193.7,98.7c-1-0.2-1.9-0.3-2.5-0.3s-1.2,0.3-1.7,1
		c-1,1.3-1.5,2.9-1.5,5c0,0.6,0.1,1,0.3,1.3s0.5,0.4,1,0.4c0.4,0,0.9-0.2,1.4-0.6c0.5-0.4,1-0.8,1.3-1.2l0.5-0.6L193.7,98.7z"/>
	<path fill="#254B53" d="M206.6,96.3c0.9,0,1.6,0.3,2.1,0.8c0.5,0.6,0.7,1.2,0.7,2c0,0.8-0.2,1.9-0.5,3.1l-1.3,5.7H205l1.3-5.5
		c0.3-1.3,0.4-2.2,0.4-2.6s-0.1-0.8-0.3-1.1c-0.2-0.2-0.5-0.4-0.9-0.4c-0.4,0-0.8,0.2-1.3,0.5c-0.5,0.3-0.8,0.6-1.1,1l-0.4,0.5
		L201,108h-2.5l2.6-11.5h2.4l-0.3,1.5c0.1-0.1,0.3-0.3,0.5-0.5c0.2-0.2,0.6-0.5,1.2-0.8S206,96.3,206.6,96.3z"/>
	<path fill="#254B53" d="M215.5,108.3c-1,0-1.8-0.3-2.3-1s-0.8-1.6-0.8-2.9c0-1.3,0.2-2.5,0.6-3.7c0.4-1.2,1.1-2.3,2-3.1
		c0.9-0.9,2-1.3,3.2-1.3c0.6,0,1.4,0.1,2.4,0.3l0.5,0.1l1.2-5h2.5L221,108h-2.4l0.3-1.6c-0.1,0.1-0.3,0.3-0.5,0.5
		c-0.2,0.2-0.6,0.5-1.2,0.8C216.6,108.1,216.1,108.3,215.5,108.3z M220.6,98.7c-0.9-0.2-1.7-0.3-2.4-0.3s-1.3,0.3-1.8,1
		s-0.9,1.5-1.1,2.4s-0.4,1.8-0.4,2.7c0,1.1,0.5,1.7,1.4,1.7c0.3,0,0.8-0.2,1.3-0.5c0.5-0.4,0.9-0.7,1.3-1.1l0.5-0.5L220.6,98.7z"/>
	<path fill="#254B53" d="M240.2,96.3c1.1,0,1.9,0.3,2.4,1c0.5,0.7,0.8,1.6,0.8,2.8s-0.2,2.5-0.6,3.7c-0.4,1.2-1.1,2.3-2,3.2
		c-0.9,0.9-2,1.3-3.2,1.3c-0.8,0-1.6-0.1-2.5-0.3l-0.5-0.1l-1.2,5.2h-2.5l3.8-16.4h2.4l-0.3,1.6c0.1-0.1,0.3-0.3,0.5-0.5
		s0.6-0.5,1.2-0.8C239.2,96.4,239.8,96.3,240.2,96.3z M239.5,98.4c-0.3,0-0.7,0.2-1.3,0.5c-0.5,0.4-0.9,0.7-1.3,1l-0.5,0.5l-1.2,5.3
		c0.9,0.2,1.7,0.3,2.4,0.3s1.3-0.3,1.8-1c0.5-0.7,0.9-1.5,1.1-2.4s0.4-1.8,0.4-2.6C240.9,99,240.4,98.4,239.5,98.4z"/>
	<path fill="#254B53" d="M249.5,108.3c-1.1,0-1.8-0.3-2.3-1c-0.5-0.7-0.8-1.5-0.8-2.6c0-1,0.1-2,0.4-2.9c0.2-0.9,0.6-1.8,1-2.6
		c0.4-0.8,1.1-1.5,1.8-2s1.6-0.8,2.6-0.8c0.9,0,2.3,0.2,4.3,0.5l1,0.2l-1.7,7.5l-0.6,3.6l-2.5,0.1c0.2-1.1,0.3-1.8,0.3-2.1
		c-0.7,1-1.5,1.6-2.5,2C250.2,108.2,249.8,108.3,249.5,108.3z M254.6,98.7c-1-0.2-1.9-0.3-2.5-0.3s-1.2,0.3-1.7,1
		c-1,1.3-1.5,2.9-1.5,5c0,0.6,0.1,1,0.3,1.3s0.5,0.4,1,0.4c0.4,0,0.9-0.2,1.4-0.6c0.5-0.4,1-0.8,1.3-1.2l0.5-0.6L254.6,98.7z"/>
	<path fill="#254B53" d="M261,96.5h2.5l-0.1,9.4h0.5l4.4-9.4h2.5l-8,16.4h-2.5l2.5-4.9h-1.7L261,96.5z"/>
	<path fill="#254B53" d="M277.8,96.3c2.9,0,4.3,1.4,4.3,4.1c0,1.3-0.2,2.6-0.6,3.7c-0.4,1.2-1.1,2.2-2,2.9c-0.9,0.8-2,1.2-3.2,1.2
		c-2.8,0-4.3-1.4-4.3-4.1c0-1.3,0.2-2.6,0.7-3.8c0.5-1.2,1.1-2.2,2-3C275.7,96.7,276.7,96.3,277.8,96.3z M276.3,106.2
		c1,0,1.8-0.6,2.4-1.7c0.6-1.2,0.9-2.5,0.9-4c0-0.6-0.2-1.1-0.5-1.5c-0.3-0.4-0.8-0.5-1.4-0.5c-1,0-1.8,0.6-2.4,1.8
		c-0.6,1.2-0.9,2.5-0.9,4C274.5,105.5,275.1,106.2,276.3,106.2z"/>
	<path fill="#254B53" d="M288,108.3c-0.9,0-1.6-0.3-2.1-0.8c-0.5-0.6-0.7-1.3-0.7-2.2c0-0.6,0.2-1.5,0.5-2.9l1.3-5.7h2.5l-1.3,5.5
		c-0.3,1.1-0.4,2-0.4,2.6c0,1,0.4,1.5,1.2,1.5c0.3,0,0.7-0.2,1.2-0.5c0.5-0.3,0.8-0.6,1.2-1l0.5-0.5l1.8-7.7h2.5l-2.6,11.5h-2.4
		l0.3-1.5c-0.1,0.1-0.3,0.3-0.5,0.5c-0.2,0.2-0.6,0.5-1.2,0.8C289.1,108.1,288.5,108.3,288,108.3z"/>
	<path fill="#254B53" d="M301.5,105.3c0,0.6,0.3,0.9,0.9,0.9l1.7-0.1l-0.2,1.8c-0.8,0.3-1.6,0.4-2.4,0.4s-1.4-0.2-1.9-0.6
		c-0.4-0.4-0.7-1-0.7-1.6s0.1-1.5,0.3-2.4l1.2-4.9h-1.3l0.6-2.1h1.3l0.7-3.2h2.5l-0.7,3.2h2.8l-0.5,2.1h-2.7l-1.2,5.1
		C301.6,104.4,301.5,104.9,301.5,105.3z"/>
	<path fill="#254B53" d="M319.5,98.4c-0.6,0-1.1,0.2-1.4,0.5c-0.3,0.3-0.5,0.7-0.5,1c0,0.4,0.1,0.7,0.4,0.8s0.7,0.3,1.4,0.5
		s1.1,0.3,1.4,0.5c0.3,0.1,0.6,0.3,0.9,0.5c0.6,0.4,0.8,1,0.8,1.8c0,1.4-0.5,2.5-1.4,3.2c-0.9,0.7-2.2,1.1-3.7,1.1
		c-1.2,0-2.3-0.2-3.3-0.5l-0.5-0.2l0.5-1.9c1.5,0.3,2.6,0.4,3.5,0.4c1.6,0,2.5-0.6,2.5-1.7c0-0.3-0.1-0.5-0.4-0.6s-0.8-0.3-1.7-0.6
		s-1.6-0.5-2.1-0.9c-0.5-0.4-0.8-1-0.8-1.7c0-1.3,0.5-2.4,1.4-3.2c0.9-0.8,2-1.2,3.3-1.2c1.3,0,2.4,0.2,3.5,0.5l0.5,0.1l-0.5,1.9
		C321.8,98.5,320.5,98.4,319.5,98.4z"/>
	<path fill="#254B53" d="M333.5,96.3c1.1,0,1.9,0.3,2.4,1c0.5,0.7,0.8,1.6,0.8,2.8s-0.2,2.5-0.6,3.7c-0.4,1.2-1.1,2.3-2,3.2
		c-0.9,0.9-2,1.3-3.2,1.3c-0.8,0-1.6-0.1-2.5-0.3l-0.5-0.1l-1.2,5.2h-2.5l3.8-16.4h2.4l-0.3,1.6c0.1-0.1,0.3-0.3,0.5-0.5
		s0.6-0.5,1.2-0.8C332.5,96.4,333,96.3,333.5,96.3z M332.8,98.4c-0.3,0-0.7,0.2-1.3,0.5c-0.5,0.4-0.9,0.7-1.3,1l-0.5,0.5l-1.2,5.3
		c0.9,0.2,1.7,0.3,2.4,0.3s1.3-0.3,1.8-1c0.5-0.7,0.9-1.5,1.1-2.4s0.4-1.8,0.4-2.6C334.2,99,333.7,98.4,332.8,98.4z"/>
	<path fill="#254B53" d="M342.2,104.5c0,0.5,0.2,0.9,0.5,1.2c0.4,0.3,0.8,0.4,1.3,0.4c1.1,0,2.2-0.1,3.3-0.3l0.6-0.1l-0.3,1.9
		c-1.4,0.4-2.8,0.6-4.2,0.6c-2.5,0-3.7-1.2-3.7-3.7c0-2.2,0.5-4.1,1.4-5.6c0.5-0.8,1.1-1.4,2-1.9c0.8-0.5,1.8-0.7,2.8-0.7
		c2.5,0,3.8,1.1,3.8,3.2c0,1.4-0.5,2.4-1.5,2.9c-1,0.6-2.6,0.8-4.9,0.8h-1C342.2,103.5,342.2,104,342.2,104.5z M343.7,101.3
		c1.3,0,2.2-0.1,2.7-0.4s0.8-0.8,0.8-1.4c0-0.8-0.5-1.1-1.4-1.1c-1.6,0-2.7,1-3.2,3H343.7z"/>
	<path fill="#254B53" d="M354.7,104.5c0,0.5,0.2,0.9,0.5,1.2c0.4,0.3,0.8,0.4,1.3,0.4c1.1,0,2.2-0.1,3.3-0.3l0.6-0.1l-0.3,1.9
		c-1.4,0.4-2.8,0.6-4.2,0.6c-2.5,0-3.7-1.2-3.7-3.7c0-2.2,0.5-4.1,1.4-5.6c0.5-0.8,1.1-1.4,2-1.9c0.8-0.5,1.8-0.7,2.8-0.7
		c2.5,0,3.8,1.1,3.8,3.2c0,1.4-0.5,2.4-1.5,2.9c-1,0.6-2.6,0.8-4.9,0.8h-1C354.7,103.5,354.7,104,354.7,104.5z M356.2,101.3
		c1.3,0,2.2-0.1,2.7-0.4s0.8-0.8,0.8-1.4c0-0.8-0.5-1.1-1.4-1.1c-1.6,0-2.7,1-3.2,3H356.2z"/>
	<path fill="#254B53" d="M367.8,108.3c-1,0-1.8-0.3-2.3-1s-0.8-1.6-0.8-2.9c0-1.3,0.2-2.5,0.6-3.7c0.4-1.2,1.1-2.3,2-3.1
		c0.9-0.9,2-1.3,3.2-1.3c0.6,0,1.4,0.1,2.4,0.3l0.5,0.1l1.2-5h2.5l-3.8,16.3h-2.4l0.3-1.6c-0.1,0.1-0.3,0.3-0.5,0.5
		c-0.2,0.2-0.6,0.5-1.2,0.8C368.9,108.1,368.4,108.3,367.8,108.3z M372.9,98.7c-0.9-0.2-1.7-0.3-2.4-0.3s-1.3,0.3-1.8,1
		s-0.9,1.5-1.1,2.4s-0.4,1.8-0.4,2.7c0,1.1,0.5,1.7,1.4,1.7c0.3,0,0.8-0.2,1.3-0.5c0.5-0.4,0.9-0.7,1.3-1.1l0.5-0.5L372.9,98.7z"/>
	<path fill="#254B53" d="M98.8,157l-1.6-6.6l-2,0.1l-1.5,6.5h-2.6l3.7-15.8h2.6l-1.6,7l1.7-0.1l4.7-6.9h2.8l-5.5,7.9l1.9,7.8H98.8z"
		/>
	<path fill="#254B53" d="M107.5,153.5c0,0.5,0.2,0.9,0.5,1.2c0.4,0.3,0.8,0.4,1.3,0.4c1.1,0,2.2-0.1,3.3-0.3l0.6-0.1l-0.3,1.9
		c-1.4,0.4-2.8,0.6-4.2,0.6c-2.5,0-3.7-1.2-3.7-3.7c0-2.2,0.5-4.1,1.4-5.6c0.5-0.8,1.1-1.4,2-1.9c0.8-0.5,1.8-0.7,2.8-0.7
		c2.5,0,3.8,1.1,3.8,3.2c0,1.4-0.5,2.4-1.5,2.9c-1,0.6-2.6,0.8-4.9,0.8h-1C107.5,152.5,107.5,153,107.5,153.5z M109,150.3
		c1.3,0,2.2-0.1,2.7-0.4c0.5-0.3,0.8-0.8,0.8-1.4c0-0.8-0.5-1.1-1.4-1.1c-1.6,0-2.7,1-3.2,3H109z"/>
	<path fill="#254B53" d="M118.4,145.5h2.5l-0.1,9.4h0.5l4.4-9.4h2.5l-8,16.4h-2.5l2.5-4.9h-1.7L118.4,145.5z"/>
	<path fill="#254B53" d="M143.2,140.5c0.6,0,1.2,0.1,1.8,0.3l0.3,0.1l-0.5,1.9c-0.6-0.1-1.1-0.2-1.5-0.2s-0.8,0.2-1,0.5
		c-0.2,0.4-0.4,0.9-0.6,1.7l-0.2,0.7h2.7l-0.5,2.1H141l-2.2,9.4l-1.4,5h-2.2l3.3-14.3h-1.2l0.5-2.2h1.1l0.2-0.7
		c0.4-1.6,0.8-2.7,1.4-3.4C141.2,140.8,142.1,140.5,143.2,140.5z"/>
	<path fill="#254B53" d="M148,153.5c0,0.5,0.2,0.9,0.5,1.2c0.4,0.3,0.8,0.4,1.3,0.4c1.1,0,2.2-0.1,3.3-0.3l0.6-0.1l-0.3,1.9
		c-1.4,0.4-2.8,0.6-4.2,0.6c-2.5,0-3.7-1.2-3.7-3.7c0-2.2,0.5-4.1,1.4-5.6c0.5-0.8,1.1-1.4,2-1.9c0.8-0.5,1.8-0.7,2.8-0.7
		c2.5,0,3.8,1.1,3.8,3.2c0,1.4-0.5,2.4-1.5,2.9c-1,0.6-2.6,0.8-4.9,0.8h-1C148,152.5,148,153,148,153.5z M149.5,150.3
		c1.3,0,2.2-0.1,2.7-0.4c0.5-0.3,0.8-0.8,0.8-1.4c0-0.8-0.5-1.1-1.4-1.1c-1.6,0-2.7,1-3.2,3H149.5z"/>
	<path fill="#254B53" d="M161.1,157.3c-1.1,0-1.8-0.3-2.3-1c-0.5-0.7-0.8-1.5-0.8-2.6s0.1-2,0.4-2.9c0.2-0.9,0.6-1.8,1-2.6
		c0.4-0.8,1.1-1.5,1.8-2c0.8-0.5,1.6-0.8,2.6-0.8c0.9,0,2.3,0.2,4.3,0.5l1,0.2l-1.7,7.5l-0.6,3.6l-2.5,0.1c0.2-1.1,0.3-1.8,0.3-2.1
		c-0.7,1-1.5,1.6-2.5,2C161.8,157.2,161.4,157.3,161.1,157.3z M166.2,147.7c-1-0.2-1.9-0.3-2.5-0.3s-1.2,0.3-1.7,1
		c-1,1.3-1.5,2.9-1.5,5c0,0.6,0.1,1,0.3,1.3c0.2,0.3,0.5,0.4,1,0.4c0.4,0,0.9-0.2,1.4-0.6c0.5-0.4,1-0.8,1.3-1.2l0.5-0.6
		L166.2,147.7z"/>
	<path fill="#254B53" d="M174.6,154.3c0,0.6,0.3,0.9,0.9,0.9l1.7-0.1l-0.2,1.8c-0.8,0.3-1.6,0.4-2.4,0.4s-1.4-0.2-1.9-0.6
		c-0.4-0.4-0.7-1-0.7-1.6s0.1-1.5,0.3-2.4l1.2-4.9h-1.3l0.6-2.1h1.3l0.7-3.2h2.5l-0.7,3.2h2.8l-0.5,2.1h-2.7l-1.2,5.1
		C174.7,153.4,174.6,153.9,174.6,154.3z"/>
	<path fill="#254B53" d="M183.7,157.3c-0.9,0-1.6-0.3-2.1-0.8c-0.5-0.6-0.7-1.3-0.7-2.2c0-0.6,0.2-1.5,0.5-2.9l1.3-5.7h2.5l-1.3,5.5
		c-0.3,1.1-0.4,2-0.4,2.6c0,1,0.4,1.5,1.2,1.5c0.3,0,0.7-0.2,1.2-0.5c0.5-0.3,0.8-0.6,1.2-1l0.5-0.5l1.8-7.7h2.5l-2.6,11.5h-2.4
		l0.3-1.5c-0.1,0.1-0.3,0.3-0.5,0.5s-0.6,0.5-1.2,0.8C184.7,157.1,184.2,157.3,183.7,157.3z"/>
	<path fill="#254B53" d="M193.6,157l2.6-11.5h2.5l-0.4,1.7c0.5-0.4,1.2-0.8,1.9-1.2c0.7-0.4,1.4-0.6,1.9-0.7l-0.7,2.6
		c-0.7,0.2-1.7,0.6-3,1.2l-0.6,0.3L196,157H193.6z"/>
	<path fill="#254B53" d="M205.7,153.5c0,0.5,0.2,0.9,0.5,1.2c0.4,0.3,0.8,0.4,1.3,0.4c1.1,0,2.2-0.1,3.3-0.3l0.6-0.1l-0.3,1.9
		c-1.4,0.4-2.8,0.6-4.2,0.6c-2.5,0-3.7-1.2-3.7-3.7c0-2.2,0.5-4.1,1.4-5.6c0.5-0.8,1.1-1.4,2-1.9c0.8-0.5,1.8-0.7,2.8-0.7
		c2.5,0,3.8,1.1,3.8,3.2c0,1.4-0.5,2.4-1.5,2.9c-1,0.6-2.6,0.8-4.9,0.8h-1C205.8,152.5,205.7,153,205.7,153.5z M207.3,150.3
		c1.3,0,2.2-0.1,2.7-0.4c0.5-0.3,0.8-0.8,0.8-1.4c0-0.8-0.5-1.1-1.4-1.1c-1.6,0-2.7,1-3.2,3H207.3z"/>
	<path fill="#254B53" d="M220.9,147.4c-0.6,0-1.1,0.2-1.4,0.5c-0.3,0.3-0.5,0.7-0.5,1c0,0.4,0.1,0.7,0.4,0.8s0.7,0.3,1.4,0.5
		c0.7,0.2,1.1,0.3,1.4,0.5c0.3,0.1,0.6,0.3,0.9,0.5c0.6,0.4,0.8,1,0.8,1.8c0,1.4-0.5,2.5-1.4,3.2c-0.9,0.7-2.2,1.1-3.7,1.1
		c-1.2,0-2.3-0.2-3.3-0.5l-0.5-0.2l0.5-1.9c1.5,0.3,2.6,0.4,3.5,0.4c1.6,0,2.5-0.6,2.5-1.7c0-0.3-0.1-0.5-0.4-0.6
		c-0.2-0.1-0.8-0.3-1.7-0.6c-0.9-0.2-1.6-0.5-2.1-0.9c-0.5-0.4-0.8-1-0.8-1.7c0-1.3,0.5-2.4,1.4-3.2c0.9-0.8,2-1.2,3.3-1.2
		c1.3,0,2.4,0.2,3.5,0.5l0.5,0.1l-0.5,1.9C223.1,147.5,221.9,147.4,220.9,147.4z"/>
	<path fill="#254B53" d="M102.6,192.6c-1.7-0.3-3-0.4-4-0.4c-1,0-1.7,0.2-2.2,0.7s-0.8,1.1-0.8,1.9c0,0.5,0.1,0.9,0.4,1.2
		s1,0.6,2.2,1.1c1.1,0.5,1.9,1,2.4,1.5c0.4,0.5,0.7,1.3,0.7,2.3c0,1.7-0.5,3.1-1.6,4c-1.1,1-2.5,1.4-4.3,1.4c-0.7,0-1.4-0.1-2.2-0.2
		c-0.8-0.1-1.4-0.3-1.8-0.4l-0.7-0.2l0.4-1.9c1.8,0.3,3.2,0.4,4.3,0.4c2.1,0,3.2-1,3.2-2.9c0-0.5-0.1-0.9-0.4-1.2
		c-0.3-0.3-1-0.6-2.1-1c-1.1-0.4-1.9-0.9-2.4-1.5c-0.5-0.5-0.7-1.3-0.7-2.3c0-1.5,0.5-2.7,1.5-3.7c1-0.9,2.3-1.4,4-1.4
		c0.7,0,1.4,0.1,2.2,0.2c0.8,0.1,1.3,0.2,1.8,0.4l0.6,0.2L102.6,192.6z"/>
	<path fill="#254B53" d="M107.2,202.5c0,0.5,0.2,0.9,0.5,1.2c0.4,0.3,0.8,0.4,1.3,0.4c1.1,0,2.2-0.1,3.3-0.3l0.6-0.1l-0.3,1.9
		c-1.4,0.4-2.8,0.6-4.2,0.6c-2.5,0-3.7-1.2-3.7-3.7c0-2.2,0.5-4.1,1.4-5.6c0.5-0.8,1.1-1.4,2-1.9c0.8-0.5,1.8-0.7,2.8-0.7
		c2.5,0,3.8,1.1,3.8,3.2c0,1.4-0.5,2.4-1.5,2.9c-1,0.6-2.6,0.8-4.9,0.8h-1C107.2,201.5,107.2,202,107.2,202.5z M108.7,199.3
		c1.3,0,2.2-0.1,2.7-0.4c0.5-0.3,0.8-0.8,0.8-1.4c0-0.8-0.5-1.1-1.4-1.1c-1.6,0-2.7,1-3.2,3H108.7z"/>
	<path fill="#254B53" d="M123.3,194.3c0.9,0,1.8,0.1,2.7,0.4l0.5,0.2l-0.6,1.8c-1.1-0.2-2-0.3-2.6-0.3c-1.1,0-1.9,0.6-2.5,1.7
		c-0.6,1.1-0.9,2.4-0.9,3.8s0.7,2.2,2,2.2c0.7,0,1.4-0.1,2.1-0.2l0.4-0.1l-0.2,1.9c-1.1,0.4-2.2,0.5-3.3,0.5c-1.1,0-2-0.3-2.6-1
		c-0.7-0.7-1-1.6-1-2.8c0-2.4,0.5-4.3,1.6-5.9S121.3,194.3,123.3,194.3z"/>
	<path fill="#254B53" d="M131.2,206.3c-0.9,0-1.6-0.3-2.1-0.8c-0.5-0.6-0.7-1.3-0.7-2.2c0-0.6,0.2-1.5,0.5-2.9l1.3-5.7h2.5l-1.3,5.5
		c-0.3,1.1-0.4,2-0.4,2.6c0,1,0.4,1.5,1.2,1.5c0.3,0,0.7-0.2,1.2-0.5c0.5-0.3,0.8-0.6,1.2-1l0.5-0.5l1.8-7.7h2.5l-2.6,11.5h-2.4
		l0.3-1.5c-0.1,0.1-0.3,0.3-0.5,0.5s-0.6,0.5-1.2,0.8C132.3,206.1,131.7,206.3,131.2,206.3z"/>
	<path fill="#254B53" d="M141.1,206l2.6-11.5h2.5l-0.4,1.7c0.5-0.4,1.2-0.8,1.9-1.2c0.7-0.4,1.4-0.6,1.9-0.7l-0.7,2.6
		c-0.7,0.2-1.7,0.6-3,1.2l-0.6,0.3l-1.8,7.7H141.1z"/>
	<path fill="#254B53" d="M150.3,206l2.6-11.5h2.5l-2.6,11.5H150.3z M153.3,192.8l0.6-2.7h2.5l-0.6,2.7H153.3z"/>
	<path fill="#254B53" d="M160.9,203.3c0,0.6,0.3,0.9,0.9,0.9l1.7-0.1l-0.2,1.8c-0.8,0.3-1.6,0.4-2.4,0.4s-1.4-0.2-1.9-0.6
		c-0.4-0.4-0.7-1-0.7-1.6s0.1-1.5,0.3-2.4l1.2-4.9h-1.3l0.6-2.1h1.3l0.7-3.2h2.5l-0.7,3.2h2.8l-0.5,2.1h-2.7l-1.2,5.1
		C161,202.4,160.9,202.9,160.9,203.3z"/>
	<path fill="#254B53" d="M168.1,194.5h2.5l-0.1,9.4h0.5l4.4-9.4h2.5l-8,16.4h-2.5l2.5-4.9h-1.7L168.1,194.5z"/>
	<path fill="#254B53" d="M189.2,206.3c-1.1,0-1.8-0.3-2.3-1c-0.5-0.7-0.8-1.5-0.8-2.6s0.1-2,0.4-2.9c0.2-0.9,0.6-1.8,1-2.6
		c0.4-0.8,1.1-1.5,1.8-2c0.8-0.5,1.6-0.8,2.6-0.8c0.9,0,2.3,0.2,4.3,0.5l1,0.2l-1.7,7.5l-0.6,3.6l-2.5,0.1c0.2-1.1,0.3-1.8,0.3-2.1
		c-0.7,1-1.5,1.6-2.5,2C189.9,206.2,189.5,206.3,189.2,206.3z M194.3,196.7c-1-0.2-1.9-0.3-2.5-0.3s-1.2,0.3-1.7,1
		c-1,1.3-1.5,2.9-1.5,5c0,0.6,0.1,1,0.3,1.3c0.2,0.3,0.5,0.4,1,0.4c0.4,0,0.9-0.2,1.4-0.6c0.5-0.4,1-0.8,1.3-1.2l0.5-0.6
		L194.3,196.7z"/>
	<path fill="#254B53" d="M207.2,194.3c0.9,0,1.6,0.3,2.1,0.8c0.5,0.6,0.7,1.2,0.7,2c0,0.8-0.2,1.9-0.5,3.1l-1.3,5.7h-2.5l1.3-5.5
		c0.3-1.3,0.4-2.2,0.4-2.6s-0.1-0.8-0.3-1.1c-0.2-0.2-0.5-0.4-0.9-0.4c-0.4,0-0.8,0.2-1.3,0.5c-0.5,0.3-0.8,0.6-1.1,1l-0.4,0.5
		l-1.8,7.7h-2.5l2.6-11.5h2.4l-0.3,1.5c0.1-0.1,0.3-0.3,0.5-0.5c0.2-0.2,0.6-0.5,1.2-0.8C206.1,194.4,206.7,194.3,207.2,194.3z"/>
	<path fill="#254B53" d="M216.2,206.3c-1,0-1.8-0.3-2.3-1c-0.5-0.6-0.8-1.6-0.8-2.9s0.2-2.5,0.6-3.7c0.4-1.2,1.1-2.3,2-3.1
		c0.9-0.9,2-1.3,3.2-1.3c0.6,0,1.4,0.1,2.4,0.3l0.5,0.1l1.2-5h2.5l-3.8,16.3h-2.4l0.3-1.6c-0.1,0.1-0.3,0.3-0.5,0.5
		c-0.2,0.2-0.6,0.5-1.2,0.8C217.3,206.1,216.7,206.3,216.2,206.3z M221.3,196.7c-0.9-0.2-1.7-0.3-2.4-0.3s-1.3,0.3-1.8,1
		c-0.5,0.7-0.9,1.5-1.1,2.4s-0.4,1.8-0.4,2.7c0,1.1,0.5,1.7,1.4,1.7c0.3,0,0.8-0.2,1.3-0.5c0.5-0.4,0.9-0.7,1.3-1.1l0.5-0.5
		L221.3,196.7z"/>
	<path fill="#254B53" d="M236.5,203.3c0,0.6,0.3,0.9,0.9,0.9l1.7-0.1l-0.2,1.8c-0.8,0.3-1.6,0.4-2.4,0.4s-1.4-0.2-1.9-0.6
		c-0.4-0.4-0.7-1-0.7-1.6s0.1-1.5,0.3-2.4l1.2-4.9h-1.3l0.6-2.1h1.3l0.7-3.2h2.5l-0.7,3.2h2.8l-0.5,2.1h-2.7l-1.2,5.1
		C236.6,202.4,236.5,202.9,236.5,203.3z"/>
	<path fill="#254B53" d="M242,206l2.6-11.5h2.5l-0.4,1.7c0.5-0.4,1.2-0.8,1.9-1.2c0.7-0.4,1.4-0.6,1.9-0.7l-0.7,2.6
		c-0.7,0.2-1.7,0.6-3,1.2l-0.6,0.3l-1.8,7.7H242z"/>
	<path fill="#254B53" d="M254.8,206.3c-0.9,0-1.6-0.3-2.1-0.8c-0.5-0.6-0.7-1.3-0.7-2.2c0-0.6,0.2-1.5,0.5-2.9l1.3-5.7h2.5l-1.3,5.5
		c-0.3,1.1-0.4,2-0.4,2.6c0,1,0.4,1.5,1.2,1.5c0.3,0,0.7-0.2,1.2-0.5c0.5-0.3,0.8-0.6,1.2-1l0.5-0.5l1.8-7.7h2.5l-2.6,11.5h-2.4
		l0.3-1.5c-0.1,0.1-0.3,0.3-0.5,0.5s-0.6,0.5-1.2,0.8C255.8,206.1,255.3,206.3,254.8,206.3z"/>
	<path fill="#254B53" d="M270.3,196.4c-0.6,0-1.1,0.2-1.4,0.5c-0.3,0.3-0.5,0.7-0.5,1c0,0.4,0.1,0.7,0.4,0.8s0.7,0.3,1.4,0.5
		c0.7,0.2,1.1,0.3,1.4,0.5c0.3,0.1,0.6,0.3,0.9,0.5c0.6,0.4,0.8,1,0.8,1.8c0,1.4-0.5,2.5-1.4,3.2c-0.9,0.7-2.2,1.1-3.7,1.1
		c-1.2,0-2.3-0.2-3.3-0.5l-0.5-0.2l0.5-1.9c1.5,0.3,2.6,0.4,3.5,0.4c1.6,0,2.5-0.6,2.5-1.7c0-0.3-0.1-0.5-0.4-0.6
		c-0.2-0.1-0.8-0.3-1.7-0.6c-0.9-0.2-1.6-0.5-2.1-0.9c-0.5-0.4-0.8-1-0.8-1.7c0-1.3,0.5-2.4,1.4-3.2c0.9-0.8,2-1.2,3.3-1.2
		c1.3,0,2.4,0.2,3.5,0.5l0.5,0.1l-0.5,1.9C272.5,196.5,271.3,196.4,270.3,196.4z"/>
	<path fill="#254B53" d="M279.9,203.3c0,0.6,0.3,0.9,0.9,0.9l1.7-0.1l-0.2,1.8c-0.8,0.3-1.6,0.4-2.4,0.4s-1.4-0.2-1.9-0.6
		c-0.4-0.4-0.7-1-0.7-1.6s0.1-1.5,0.3-2.4l1.2-4.9h-1.3l0.6-2.1h1.3l0.7-3.2h2.5l-0.7,3.2h2.8l-0.5,2.1h-2.7l-1.2,5.1
		C280,202.4,279.9,202.9,279.9,203.3z"/>
	<path fill="#254B53" d="M96.6,255.3c-3.1,0-4.6-1.5-4.6-4.5c0-2.2,0.4-4.3,1.2-6.2c0.4-1,0.9-2,1.5-2.8c0.6-0.8,1.4-1.5,2.3-2
		s1.9-0.8,3.1-0.8c1,0,2.1,0.2,3.3,0.5l0.6,0.2l-0.6,1.9c-1-0.2-2.1-0.3-3.3-0.3c-1.2,0-2.1,0.5-3,1.4c-0.8,1-1.4,2.1-1.8,3.5
		s-0.6,2.9-0.6,4.4c0,1.7,0.8,2.5,2.3,2.5c1,0,2-0.1,3.2-0.3l0.5-0.1l-0.2,2C99.1,255.1,97.8,255.3,96.6,255.3z"/>
	<path fill="#254B53" d="M107.4,255.3c-0.9,0-1.6-0.3-2.1-0.8c-0.5-0.6-0.7-1.3-0.7-2.2c0-0.6,0.2-1.5,0.5-2.9l1.3-5.7h2.5l-1.3,5.5
		c-0.3,1.1-0.4,2-0.4,2.6c0,1,0.4,1.5,1.2,1.5c0.3,0,0.7-0.2,1.2-0.5c0.5-0.3,0.8-0.6,1.2-1l0.5-0.5l1.8-7.7h2.5l-2.6,11.5h-2.4
		l0.3-1.5c-0.1,0.1-0.3,0.3-0.5,0.5s-0.6,0.5-1.2,0.8C108.5,255.1,107.9,255.3,107.4,255.3z"/>
	<path fill="#254B53" d="M123,245.4c-0.6,0-1.1,0.2-1.4,0.5c-0.3,0.3-0.5,0.7-0.5,1c0,0.4,0.1,0.7,0.4,0.8s0.7,0.3,1.4,0.5
		c0.7,0.2,1.1,0.3,1.4,0.5c0.3,0.1,0.6,0.3,0.9,0.5c0.6,0.4,0.8,1,0.8,1.8c0,1.4-0.5,2.5-1.4,3.2c-0.9,0.7-2.2,1.1-3.7,1.1
		c-1.2,0-2.3-0.2-3.3-0.5l-0.5-0.2l0.5-1.9c1.5,0.3,2.6,0.4,3.5,0.4c1.6,0,2.5-0.6,2.5-1.7c0-0.3-0.1-0.5-0.4-0.6
		c-0.2-0.1-0.8-0.3-1.7-0.6c-0.9-0.2-1.6-0.5-2.1-0.9c-0.5-0.4-0.8-1-0.8-1.7c0-1.3,0.5-2.4,1.4-3.2c0.9-0.8,2-1.2,3.3-1.2
		c1.3,0,2.4,0.2,3.5,0.5l0.5,0.1l-0.5,1.9C125.2,245.5,123.9,245.4,123,245.4z"/>
	<path fill="#254B53" d="M132.5,252.3c0,0.6,0.3,0.9,0.9,0.9l1.7-0.1l-0.2,1.8c-0.8,0.3-1.6,0.4-2.4,0.4s-1.4-0.2-1.9-0.6
		c-0.4-0.4-0.7-1-0.7-1.6s0.1-1.5,0.3-2.4l1.2-4.9h-1.3l0.6-2.1h1.3l0.7-3.2h2.5l-0.7,3.2h2.8l-0.5,2.1H134l-1.2,5.1
		C132.6,251.4,132.5,251.9,132.5,252.3z"/>
	<path fill="#254B53" d="M144.5,243.3c2.9,0,4.3,1.4,4.3,4.1c0,1.3-0.2,2.6-0.6,3.7c-0.4,1.2-1.1,2.2-2,2.9c-0.9,0.8-2,1.2-3.2,1.2
		c-2.8,0-4.3-1.4-4.3-4.1c0-1.3,0.2-2.6,0.7-3.8c0.5-1.2,1.1-2.2,2-3C142.3,243.7,143.3,243.3,144.5,243.3z M142.9,253.2
		c1,0,1.8-0.6,2.4-1.7c0.6-1.2,0.9-2.5,0.9-4c0-0.6-0.2-1.1-0.5-1.5c-0.3-0.4-0.8-0.5-1.4-0.5c-1,0-1.8,0.6-2.4,1.8
		c-0.6,1.2-0.9,2.5-0.9,4C141.2,252.5,141.8,253.2,142.9,253.2z"/>
	<path fill="#254B53" d="M159.4,246.9c0-1-0.4-1.5-1.2-1.5c-0.3,0-0.7,0.2-1.2,0.5c-0.5,0.3-0.8,0.6-1.1,1l-0.4,0.5l-1.8,7.7h-2.5
		l2.6-11.5h2.4L156,245c0,0,0.1-0.1,0.2-0.2c0.1-0.1,0.2-0.2,0.5-0.4c0.2-0.2,0.5-0.4,0.7-0.5c0.6-0.4,1.3-0.6,1.9-0.6
		c0.6,0,1.2,0.1,1.6,0.4s0.7,0.6,0.7,0.9l0.2,0.5c0.1-0.1,0.3-0.3,0.6-0.5c0.2-0.2,0.7-0.5,1.3-0.8c0.6-0.3,1.2-0.5,1.8-0.5
		c0.9,0,1.6,0.3,2.1,0.8c0.4,0.6,0.7,1.2,0.7,2s-0.1,1.8-0.4,3.2l-1.3,5.7h-2.5l1.3-5.5c0.3-1.3,0.4-2.1,0.4-2.5
		c0-1-0.4-1.6-1.1-1.6c-0.3,0-0.7,0.1-1.2,0.4c-0.4,0.3-0.8,0.6-1.1,0.8l-0.4,0.4c-0.1,0.8-0.2,1.6-0.4,2.2l-1.3,5.7h-2.5l1.3-5.5
		C159.3,248.2,159.4,247.3,159.4,246.9z"/>
	<path fill="#254B53" d="M173.8,251.5c0,0.5,0.2,0.9,0.5,1.2c0.4,0.3,0.8,0.4,1.3,0.4c1.1,0,2.2-0.1,3.3-0.3l0.6-0.1l-0.3,1.9
		c-1.4,0.4-2.8,0.6-4.2,0.6c-2.5,0-3.7-1.2-3.7-3.7c0-2.2,0.5-4.1,1.4-5.6c0.5-0.8,1.1-1.4,2-1.9c0.8-0.5,1.8-0.7,2.8-0.7
		c2.5,0,3.8,1.1,3.8,3.2c0,1.4-0.5,2.4-1.5,2.9c-1,0.6-2.6,0.8-4.9,0.8h-1C173.9,250.5,173.8,251,173.8,251.5z M175.4,248.3
		c1.3,0,2.2-0.1,2.7-0.4c0.5-0.3,0.8-0.8,0.8-1.4c0-0.8-0.5-1.1-1.4-1.1c-1.6,0-2.7,1-3.2,3H175.4z"/>
	<path fill="#254B53" d="M183.3,255l2.6-11.5h2.5l-0.4,1.7c0.5-0.4,1.2-0.8,1.9-1.2c0.7-0.4,1.4-0.6,1.9-0.7l-0.7,2.6
		c-0.7,0.2-1.7,0.6-3,1.2l-0.6,0.3l-1.8,7.7H183.3z"/>
	<path fill="#254B53" d="M205,245.4c-0.6,0-1.1,0.2-1.4,0.5c-0.3,0.3-0.5,0.7-0.5,1c0,0.4,0.1,0.7,0.4,0.8s0.7,0.3,1.4,0.5
		c0.7,0.2,1.1,0.3,1.4,0.5c0.3,0.1,0.6,0.3,0.9,0.5c0.6,0.4,0.8,1,0.8,1.8c0,1.4-0.5,2.5-1.4,3.2c-0.9,0.7-2.2,1.1-3.7,1.1
		c-1.2,0-2.3-0.2-3.3-0.5l-0.5-0.2l0.5-1.9c1.5,0.3,2.6,0.4,3.5,0.4c1.6,0,2.5-0.6,2.5-1.7c0-0.3-0.1-0.5-0.4-0.6
		c-0.2-0.1-0.8-0.3-1.7-0.6c-0.9-0.2-1.6-0.5-2.1-0.9c-0.5-0.4-0.8-1-0.8-1.7c0-1.3,0.5-2.4,1.4-3.2c0.9-0.8,2-1.2,3.3-1.2
		c1.3,0,2.4,0.2,3.5,0.5l0.5,0.1l-0.5,1.9C207.2,245.5,206,245.4,205,245.4z"/>
	<path fill="#254B53" d="M214.4,255.3c-0.9,0-1.6-0.3-2.1-0.8c-0.5-0.6-0.7-1.3-0.7-2.2c0-0.6,0.2-1.5,0.5-2.9l1.3-5.7h2.5l-1.3,5.5
		c-0.3,1.1-0.4,2-0.4,2.6c0,1,0.4,1.5,1.2,1.5c0.3,0,0.7-0.2,1.2-0.5c0.5-0.3,0.8-0.6,1.2-1l0.5-0.5l1.8-7.7h2.5l-2.6,11.5h-2.4
		l0.3-1.5c-0.1,0.1-0.3,0.3-0.5,0.5s-0.6,0.5-1.2,0.8C215.5,255.1,214.9,255.3,214.4,255.3z"/>
	<path fill="#254B53" d="M232.3,243.3c1.1,0,1.9,0.3,2.4,1c0.5,0.7,0.8,1.6,0.8,2.8s-0.2,2.5-0.6,3.7s-1.1,2.3-2,3.2
		c-0.9,0.9-2,1.3-3.2,1.3c-0.8,0-1.6-0.1-2.5-0.3l-0.5-0.1l-1.2,5.2h-2.5l3.8-16.4h2.4l-0.3,1.6c0.1-0.1,0.3-0.3,0.5-0.5
		s0.6-0.5,1.2-0.8C231.3,243.4,231.8,243.3,232.3,243.3z M231.6,245.4c-0.3,0-0.7,0.2-1.3,0.5s-0.9,0.7-1.3,1l-0.5,0.5l-1.2,5.3
		c0.9,0.2,1.7,0.3,2.4,0.3s1.3-0.3,1.8-1c0.5-0.7,0.9-1.5,1.1-2.4c0.2-0.9,0.4-1.8,0.4-2.6C233,246,232.5,245.4,231.6,245.4z"/>
	<path fill="#254B53" d="M245.9,243.3c1.1,0,1.9,0.3,2.4,1c0.5,0.7,0.8,1.6,0.8,2.8s-0.2,2.5-0.6,3.7s-1.1,2.3-2,3.2
		c-0.9,0.9-2,1.3-3.2,1.3c-0.8,0-1.6-0.1-2.5-0.3l-0.5-0.1l-1.2,5.2h-2.5l3.8-16.4h2.4l-0.3,1.6c0.1-0.1,0.3-0.3,0.5-0.5
		s0.6-0.5,1.2-0.8C244.9,243.4,245.4,243.3,245.9,243.3z M245.1,245.4c-0.3,0-0.7,0.2-1.3,0.5s-0.9,0.7-1.3,1l-0.5,0.5l-1.2,5.3
		c0.9,0.2,1.7,0.3,2.4,0.3s1.3-0.3,1.8-1c0.5-0.7,0.9-1.5,1.1-2.4c0.2-0.9,0.4-1.8,0.4-2.6C246.6,246,246.1,245.4,245.1,245.4z"/>
	<path fill="#254B53" d="M257.8,243.3c2.9,0,4.3,1.4,4.3,4.1c0,1.3-0.2,2.6-0.6,3.7c-0.4,1.2-1.1,2.2-2,2.9c-0.9,0.8-2,1.2-3.2,1.2
		c-2.8,0-4.3-1.4-4.3-4.1c0-1.3,0.2-2.6,0.7-3.8c0.5-1.2,1.1-2.2,2-3C255.7,243.7,256.7,243.3,257.8,243.3z M256.3,253.2
		c1,0,1.8-0.6,2.4-1.7c0.6-1.2,0.9-2.5,0.9-4c0-0.6-0.2-1.1-0.5-1.5c-0.3-0.4-0.8-0.5-1.4-0.5c-1,0-1.8,0.6-2.4,1.8
		c-0.6,1.2-0.9,2.5-0.9,4C254.5,252.5,255.1,253.2,256.3,253.2z"/>
	<path fill="#254B53" d="M264.6,255l2.6-11.5h2.5l-0.4,1.7c0.5-0.4,1.2-0.8,1.9-1.2c0.7-0.4,1.4-0.6,1.9-0.7l-0.7,2.6
		c-0.7,0.2-1.7,0.6-3,1.2l-0.6,0.3L267,255H264.6z"/>
	<path fill="#254B53" d="M277.4,252.3c0,0.6,0.3,0.9,0.9,0.9l1.7-0.1l-0.2,1.8c-0.8,0.3-1.6,0.4-2.4,0.4s-1.4-0.2-1.9-0.6
		c-0.4-0.4-0.7-1-0.7-1.6s0.1-1.5,0.3-2.4l1.2-4.9H275l0.6-2.1h1.3l0.7-3.2h2.5l-0.7,3.2h2.8l-0.5,2.1h-2.7l-1.2,5.1
		C277.5,251.4,277.4,251.9,277.4,252.3z"/>
</g>
<path fill="#F0C11A" d="M529.9,69.6H416c-10.3,0-18.6-8.4-18.6-18.6s8.4-18.6,18.6-18.6h114c10.3,0,18.6,8.4,18.6,18.6
	S540.2,69.6,529.9,69.6z M416,33.3c-9.8,0-17.7,7.9-17.7,17.7c0,9.8,7.9,17.7,17.7,17.7h114c9.8,0,17.7-7.9,17.7-17.7
	c0-9.8-7.9-17.7-17.7-17.7H416z"/>
<g>
	<polygon fill="#F0C11A" points="424.2,54.6 429.9,58.9 427.6,52.1 433.4,48 426.3,48.1 424.2,41.3 422,48.1 414.9,48 420.7,52.1 
		418.4,58.9 	"/>
	<polygon fill="#F0C11A" points="448.6,54.6 454.3,58.9 452,52.1 457.8,48 450.7,48.1 448.6,41.3 446.4,48.1 439.3,48 445.1,52.1 
		442.8,58.9 	"/>
	<polygon fill="#F0C11A" points="473,54.6 478.7,58.9 476.4,52.1 482.2,48 475.1,48.1 473,41.3 470.8,48.1 463.7,48 469.5,52.1 
		467.2,58.9 	"/>
	<polygon fill="#F0C11A" points="497.4,54.6 503.1,58.9 500.8,52.1 506.6,48 499.5,48.1 497.4,41.3 495.2,48.1 488.1,48 493.9,52.1 
		491.6,58.9 	"/>
	<polygon fill="#F0C11A" points="521.8,54.6 527.5,58.9 525.2,52.1 531,48 523.9,48.1 521.8,41.3 519.6,48.1 512.5,48 518.3,52.1 
		516,58.9 	"/>
</g>
<path fill="#F0C11A" d="M529.9,119.1H416c-10.3,0-18.6-8.4-18.6-18.6s8.4-18.6,18.6-18.6h114c10.3,0,18.6,8.4,18.6,18.6
	S540.2,119.1,529.9,119.1z M416,82.8c-9.8,0-17.7,7.9-17.7,17.7s7.9,17.7,17.7,17.7h114c9.8,0,17.7-7.9,17.7-17.7
	s-7.9-17.7-17.7-17.7H416z"/>
<g>
	<polygon fill="#F0C11A" points="424.2,104.2 429.9,108.4 427.6,101.6 433.4,97.5 426.3,97.6 424.2,90.8 422,97.6 414.9,97.5 
		420.7,101.6 418.4,108.4 	"/>
	<polygon fill="#F0C11A" points="448.6,104.2 454.3,108.4 452,101.6 457.8,97.5 450.7,97.6 448.6,90.8 446.4,97.6 439.3,97.5 
		445.1,101.6 442.8,108.4 	"/>
	<polygon fill="#F0C11A" points="473,104.2 478.7,108.4 476.4,101.6 482.2,97.5 475.1,97.6 473,90.8 470.8,97.6 463.7,97.5 
		469.5,101.6 467.2,108.4 	"/>
	<polygon fill="#F0C11A" points="497.4,104.2 503.1,108.4 500.8,101.6 506.6,97.5 499.5,97.6 497.4,90.8 495.2,97.6 488.1,97.5 
		493.9,101.6 491.6,108.4 	"/>
	<polygon fill="#BCBEC0" points="521.8,104.2 527.5,108.4 525.2,101.6 531,97.5 523.9,97.6 521.8,90.8 519.6,97.6 512.5,97.5 
		518.3,101.6 516,108.4 	"/>
</g>
<path fill="#F0C11A" d="M529.9,168.6H416c-10.3,0-18.6-8.4-18.6-18.6s8.4-18.6,18.6-18.6h114c10.3,0,18.6,8.4,18.6,18.6
	S540.2,168.6,529.9,168.6z M416,132.3c-9.8,0-17.7,7.9-17.7,17.7s7.9,17.7,17.7,17.7h114c9.8,0,17.7-7.9,17.7-17.7
	s-7.9-17.7-17.7-17.7H416z"/>
<g>
	<polygon fill="#F0C11A" points="424.2,153.7 429.9,157.9 427.6,151.2 433.4,147 426.3,147.1 424.2,140.3 422,147.1 414.9,147 
		420.7,151.2 418.4,157.9 	"/>
	<polygon fill="#F0C11A" points="448.6,153.7 454.3,157.9 452,151.2 457.8,147 450.7,147.1 448.6,140.3 446.4,147.1 439.3,147 
		445.1,151.2 442.8,157.9 	"/>
	<polygon fill="#F0C11A" points="473,153.7 478.7,157.9 476.4,151.2 482.2,147 475.1,147.1 473,140.3 470.8,147.1 463.7,147 
		469.5,151.2 467.2,157.9 	"/>
	<polygon fill="#F0C11A" points="497.4,153.7 503.1,157.9 500.8,151.2 506.6,147 499.5,147.1 497.4,140.3 495.2,147.1 488.1,147 
		493.9,151.2 491.6,157.9 	"/>
	<polygon fill="#F0C11A" points="521.8,153.7 527.5,157.9 525.2,151.2 531,147 523.9,147.1 521.8,140.3 519.6,147.1 512.5,147 
		518.3,151.2 516,157.9 	"/>
</g>
<path fill="#F0C11A" d="M529.9,218.1H416c-10.3,0-18.6-8.4-18.6-18.6c0-10.3,8.4-18.6,18.6-18.6h114c10.3,0,18.6,8.4,18.6,18.6
	C548.6,209.8,540.2,218.1,529.9,218.1z M416,181.8c-9.8,0-17.7,7.9-17.7,17.7c0,9.8,7.9,17.7,17.7,17.7h114
	c9.8,0,17.7-7.9,17.7-17.7c0-9.8-7.9-17.7-17.7-17.7H416z"/>
<g>
	<polygon fill="#F0C11A" points="424.2,203.2 429.9,207.4 427.6,200.7 433.4,196.5 426.3,196.6 424.2,189.8 422,196.6 414.9,196.5 
		420.7,200.7 418.4,207.4 	"/>
	<polygon fill="#F0C11A" points="448.6,203.2 454.3,207.4 452,200.7 457.8,196.5 450.7,196.6 448.6,189.8 446.4,196.6 439.3,196.5 
		445.1,200.7 442.8,207.4 	"/>
	<polygon fill="#F0C11A" points="473,203.2 478.7,207.4 476.4,200.7 482.2,196.5 475.1,196.6 473,189.8 470.8,196.6 463.7,196.5 
		469.5,200.7 467.2,207.4 	"/>
	<polygon fill="#F0C11A" points="497.4,203.2 503.1,207.4 500.8,200.7 506.6,196.5 499.5,196.6 497.4,189.8 495.2,196.6 
		488.1,196.5 493.9,200.7 491.6,207.4 	"/>
	<polygon fill="#BCBEC0" points="521.8,203.2 527.5,207.4 525.2,200.7 531,196.5 523.9,196.6 521.8,189.8 519.6,196.6 512.5,196.5 
		518.3,200.7 516,207.4 	"/>
</g>
<path fill="#F0C11A" d="M529.9,267.6H416c-10.3,0-18.6-8.4-18.6-18.6c0-10.3,8.4-18.6,18.6-18.6h114c10.3,0,18.6,8.4,18.6,18.6
	C548.6,259.3,540.2,267.6,529.9,267.6z M416,231.3c-9.8,0-17.7,7.9-17.7,17.7c0,9.8,7.9,17.7,17.7,17.7h114
	c9.8,0,17.7-7.9,17.7-17.7c0-9.8-7.9-17.7-17.7-17.7H416z"/>
<g>
	<polygon fill="#F0C11A" points="424.2,252.7 429.9,256.9 427.6,250.2 433.4,246.1 426.3,246.1 424.2,239.3 422,246.1 414.9,246.1 
		420.7,250.2 418.4,256.9 	"/>
	<polygon fill="#F0C11A" points="448.6,252.7 454.3,256.9 452,250.2 457.8,246.1 450.7,246.1 448.6,239.3 446.4,246.1 439.3,246.1 
		445.1,250.2 442.8,256.9 	"/>
	<polygon fill="#F0C11A" points="473,252.7 478.7,256.9 476.4,250.2 482.2,246.1 475.1,246.1 473,239.3 470.8,246.1 463.7,246.1 
		469.5,250.2 467.2,256.9 	"/>
	<polygon fill="#BCBEC0" points="497.4,252.7 503.1,256.9 500.8,250.2 506.6,246.1 499.5,246.1 497.4,239.3 495.2,246.1 
		488.1,246.1 493.9,250.2 491.6,256.9 	"/>
	<polygon fill="#BCBEC0" points="521.8,252.7 527.5,256.9 525.2,250.2 531,246.1 523.9,246.1 521.8,239.3 519.6,246.1 512.5,246.1 
		518.3,250.2 516,256.9 	"/>
</g>
<g>
	<g>
		<path fill="#254B53" d="M704.8,121.7c-1,0.7-2.1,1.1-3.5,1.1s-2.4-0.3-3.1-1c-0.7-0.6-1-1.6-1-3c0-1.6,0.3-3.2,0.8-4.7
			c0.5-1.5,1.3-2.6,2.2-3.5c1-0.9,2.2-1.3,3.6-1.3c2.8,0,4.1,1.3,4.1,3.9c0,1.7-0.3,3.3-0.8,4.9
			C706.6,119.7,705.9,120.8,704.8,121.7z M699.4,118.4c0,1,0.2,1.7,0.5,2c0.3,0.3,0.9,0.5,1.6,0.5s1.4-0.2,1.9-0.7
			c0.7-0.6,1.3-1.6,1.7-2.9c0.4-1.3,0.6-2.6,0.6-3.9c0-0.8-0.2-1.4-0.5-1.7c-0.3-0.4-0.9-0.5-1.6-0.5c-0.8,0-1.4,0.2-1.8,0.6
			c-0.7,0.7-1.3,1.7-1.7,3C699.6,116.2,699.4,117.4,699.4,118.4z"/>
		<path fill="#254B53" d="M710.9,113.1h2l-0.1,7.8h0.5l3.6-7.8h2.1l-4.6,9.5H711L710.9,113.1z"/>
		<path fill="#254B53" d="M722,119.6c0,0.4,0.1,0.8,0.4,1c0.3,0.2,0.7,0.4,1.1,0.4c0.9,0,1.8-0.1,2.7-0.2l0.5-0.1l-0.2,1.6
			c-1.2,0.4-2.3,0.5-3.5,0.5c-2.1,0-3.1-1-3.1-3.1c0-1.8,0.4-3.4,1.2-4.7c0.4-0.7,1-1.2,1.6-1.6c0.7-0.4,1.5-0.6,2.3-0.6
			c2.1,0,3.1,0.9,3.1,2.6c0,1.2-0.4,2-1.2,2.4c-0.8,0.5-2.2,0.7-4.1,0.7h-0.8C722.1,118.9,722,119.2,722,119.6z M723.3,117
			c1.1,0,1.8-0.1,2.3-0.3s0.7-0.6,0.7-1.2c0-0.6-0.4-1-1.2-1c-1.3,0-2.2,0.8-2.6,2.5H723.3z"/>
		<path fill="#254B53" d="M729.8,122.6l2.2-9.5h2l-0.3,1.4c0.4-0.3,1-0.7,1.6-1c0.6-0.3,1.1-0.5,1.6-0.6l-0.6,2.1
			c-0.6,0.2-1.4,0.5-2.5,1l-0.5,0.2l-1.5,6.3H729.8z"/>
		<path fill="#254B53" d="M740.4,122.8c-0.9,0-1.5-0.3-1.9-0.8c-0.4-0.6-0.6-1.3-0.6-2.1s0.1-1.7,0.3-2.4c0.2-0.8,0.5-1.5,0.8-2.2
			c0.4-0.7,0.9-1.3,1.5-1.7s1.4-0.7,2.2-0.7c0.7,0,1.9,0.1,3.6,0.4l0.8,0.1l-1.4,6.2l-0.5,3l-2,0.1c0.1-0.9,0.2-1.5,0.3-1.7
			c-0.6,0.8-1.3,1.3-2,1.7C741,122.7,740.7,122.8,740.4,122.8z M744.6,114.9c-0.9-0.2-1.5-0.3-2.1-0.3c-0.5,0-1,0.3-1.4,0.9
			c-0.8,1.1-1.3,2.4-1.3,4.1c0,0.5,0.1,0.8,0.3,1.1c0.2,0.2,0.4,0.4,0.8,0.4c0.4,0,0.8-0.2,1.2-0.5c0.4-0.3,0.8-0.7,1.1-1l0.4-0.5
			L744.6,114.9z"/>
		<path fill="#254B53" d="M748.6,122.6l3.1-13.5h2.1l-3.1,13.5H748.6z"/>
		<path fill="#254B53" d="M754.4,122.6l3.1-13.5h2.1l-3.1,13.5H754.4z"/>
		<path fill="#254B53" d="M772.9,109.5c1.3,0,2.2,0.3,2.8,0.8c0.6,0.5,0.9,1.4,0.9,2.7c0,1.2-0.3,2.3-0.9,3.1
			c-0.6,0.8-1.3,1.4-2.2,1.7l1.2,4.8h-2.1l-1.1-4.5h-2.4l-1,4.5H766l3-13H772.9z M773.7,115.4c0.5-0.6,0.7-1.3,0.7-2.1
			c0-0.8-0.1-1.3-0.4-1.5c-0.3-0.3-0.7-0.4-1.3-0.4h-2l-1.1,4.9h2.2C772.6,116.3,773.2,116,773.7,115.4z"/>
		<path fill="#254B53" d="M780.9,122.8c-0.9,0-1.5-0.3-1.9-0.8c-0.4-0.6-0.6-1.3-0.6-2.1s0.1-1.7,0.3-2.4c0.2-0.8,0.5-1.5,0.8-2.2
			c0.4-0.7,0.9-1.3,1.5-1.7s1.4-0.7,2.2-0.7c0.7,0,1.9,0.1,3.6,0.4l0.8,0.1l-1.4,6.2l-0.5,3l-2,0.1c0.1-0.9,0.2-1.5,0.3-1.7
			c-0.6,0.8-1.3,1.3-2,1.7C781.5,122.7,781.2,122.8,780.9,122.8z M785.2,114.9c-0.9-0.2-1.5-0.3-2.1-0.3c-0.5,0-1,0.3-1.4,0.9
			c-0.8,1.1-1.3,2.4-1.3,4.1c0,0.5,0.1,0.8,0.3,1.1c0.2,0.2,0.4,0.4,0.8,0.4c0.4,0,0.8-0.2,1.2-0.5c0.4-0.3,0.8-0.7,1.1-1l0.4-0.5
			L785.2,114.9z"/>
		<path fill="#254B53" d="M792.1,120.3c0,0.5,0.2,0.7,0.7,0.7l1.4-0.1l-0.2,1.5c-0.7,0.2-1.3,0.4-2,0.4s-1.2-0.2-1.5-0.5
			c-0.4-0.4-0.5-0.8-0.5-1.4c0-0.6,0.1-1.2,0.3-2l1-4h-1.1l0.5-1.8h1.1l0.6-2.6h2.1l-0.6,2.6h2.3l-0.4,1.8h-2.3l-1,4.2
			C792.2,119.6,792.1,120,792.1,120.3z"/>
		<path fill="#254B53" d="M796.7,122.6l2.2-9.5h2.1l-2.2,9.5H796.7z M799.2,111.7l0.5-2.2h2.1l-0.5,2.2H799.2z"/>
		<path fill="#254B53" d="M809.1,112.9c0.8,0,1.3,0.2,1.7,0.7c0.4,0.5,0.6,1,0.6,1.7c0,0.7-0.1,1.5-0.4,2.6l-1.1,4.7h-2.1l1.1-4.6
			c0.2-1.1,0.3-1.8,0.3-2.2s-0.1-0.7-0.2-0.9c-0.1-0.2-0.4-0.3-0.7-0.3s-0.7,0.1-1.1,0.4c-0.4,0.3-0.7,0.5-1,0.8l-0.4,0.4l-1.5,6.3
			h-2.1l2.2-9.5h2l-0.2,1.3c0.1-0.1,0.2-0.3,0.4-0.4c0.2-0.2,0.5-0.4,1-0.6C808.2,113,808.7,112.9,809.1,112.9z"/>
		<path fill="#254B53" d="M819.8,125.9c-0.8,0.7-1.9,1-3.2,1c-2.6,0-4-0.8-4-2.5c0-0.6,0.2-1.1,0.7-1.6s1-0.8,1.7-1.2
			c-0.2-0.2-0.3-0.5-0.3-0.8c0-0.3,0.1-0.6,0.3-0.9c0.2-0.3,0.4-0.5,0.5-0.7l0.3-0.3c-0.9-0.5-1.3-1.2-1.3-2.3s0.4-2,1.1-2.7
			c0.7-0.7,1.7-1.1,2.8-1.1c0.5,0,1.1,0.1,1.8,0.2l0.3,0.1l2.8-0.1l-0.4,1.7h-1.3c0.1,0.3,0.2,0.7,0.2,1.1c0,1-0.4,1.8-1.1,2.5
			c-0.7,0.7-1.7,1.1-2.9,1.1l-0.7-0.1c-0.3,0.4-0.4,0.7-0.4,0.9s0.1,0.4,0.4,0.4c0.2,0.1,0.8,0.2,1.5,0.3c0.8,0.1,1.4,0.3,1.9,0.7
			c0.5,0.3,0.7,0.9,0.7,1.6C821,124.4,820.6,125.3,819.8,125.9z M814.9,123c-0.3,0.3-0.4,0.6-0.4,1c0,0.3,0.2,0.6,0.5,0.9
			s0.8,0.4,1.5,0.4c0.7,0,1.3-0.1,1.8-0.4c0.5-0.3,0.8-0.7,0.8-1.3c0-0.3-0.1-0.5-0.3-0.6c-0.2-0.1-0.7-0.2-1.4-0.3
			c-0.7-0.1-1.2-0.2-1.4-0.3C815.6,122.5,815.2,122.7,814.9,123z M817.8,117.8c0.6,0,1.1-0.2,1.4-0.6c0.4-0.4,0.5-0.9,0.5-1.3
			c0-0.9-0.5-1.3-1.5-1.3c-0.6,0-1,0.2-1.4,0.6s-0.5,0.9-0.5,1.4C816.3,117.4,816.8,117.8,817.8,117.8z"/>
		<path fill="#254B53" d="M823.3,122.6l0.6-2.6h2.1l-0.6,2.6H823.3z M824.7,116.7l0.6-2.6h2.1l-0.6,2.6H824.7z"/>
		<path fill="#254B53" d="M840.6,122.6v-2.6h-6.7v-2.5l3.9-10.7h3.6l-4.2,10.3h3.4v-4.4h3.3v4.4h1.5v2.9h-1.5v2.6H840.6z"/>
		<path fill="#254B53" d="M849.5,122.6v-4h3.5v4H849.5z"/>
		<path fill="#254B53" d="M867.9,106.7v2.9h-7.1l-0.4,3.4c1-0.4,1.9-0.6,2.8-0.6c3.4,0,5.1,1.6,5.1,4.8c0,1.8-0.5,3.2-1.4,4.2
			c-0.9,1-2.3,1.5-4,1.5c-0.7,0-1.6-0.1-2.5-0.2c-0.9-0.1-1.7-0.3-2.2-0.5l-0.9-0.2l0.4-2.4c1.9,0.3,3.6,0.5,4.8,0.5
			c0.8,0,1.4-0.2,1.8-0.6s0.6-1,0.6-1.8c0-0.8-0.2-1.3-0.5-1.7s-0.8-0.5-1.5-0.5c-1.1,0-2,0.1-2.8,0.3l-0.4,0.1l-2-0.5l0.4-8.6
			H867.9z"/>
		<path fill="#254B53" d="M872.1,122.4l6.9-17l2.8,1l-6.9,17L872.1,122.4z"/>
		<path fill="#254B53" d="M896.1,106.7v2.9H889l-0.4,3.4c1-0.4,1.9-0.6,2.8-0.6c3.4,0,5.1,1.6,5.1,4.8c0,1.8-0.5,3.2-1.4,4.2
			c-0.9,1-2.3,1.5-4,1.5c-0.7,0-1.6-0.1-2.5-0.2c-0.9-0.1-1.7-0.3-2.2-0.5l-0.9-0.2l0.4-2.4c1.9,0.3,3.6,0.5,4.8,0.5
			c0.8,0,1.4-0.2,1.8-0.6s0.6-1,0.6-1.8c0-0.8-0.2-1.3-0.5-1.7s-0.8-0.5-1.5-0.5c-1.1,0-2,0.1-2.8,0.3l-0.4,0.1l-2-0.5l0.4-8.6
			H896.1z"/>
	</g>
	<path fill="#E6E7E8" d="M926.3,214.7H668.2c-10.2,0-18.5-8.3-18.5-18.5V96.6c0-10.2,8.3-18.5,18.5-18.5h258.2
		c10.2,0,18.5,8.3,18.5,18.5v99.6C944.8,206.4,936.5,214.7,926.3,214.7z M668.2,79.1c-9.7,0-17.5,7.9-17.5,17.5v99.6
		c0,9.7,7.9,17.5,17.5,17.5h258.2c9.7,0,17.5-7.9,17.5-17.5V96.6c0-9.7-7.9-17.5-17.5-17.5H668.2z"/>
	<path fill="#F0C11A" d="M861.1,190.9H734.5c-11.4,0-20.7-9.3-20.7-20.7c0-11.4,9.3-20.7,20.7-20.7h126.6c11.4,0,20.7,9.3,20.7,20.7
		C881.8,181.6,872.5,190.9,861.1,190.9z M734.5,150.5c-10.9,0-19.7,8.8-19.7,19.7s8.8,19.7,19.7,19.7h126.6
		c10.9,0,19.7-8.8,19.7-19.7s-8.8-19.7-19.7-19.7H734.5z"/>
	<g>
		<polygon fill="#F0C11A" points="743.6,174.3 749.9,178.9 747.4,171.5 753.8,166.9 745.9,166.9 743.6,159.4 741.2,166.9 
			733.3,166.9 739.7,171.5 737.2,178.9 		"/>
		<polygon fill="#F0C11A" points="770.7,174.3 777,178.9 774.5,171.5 780.9,166.9 773,166.9 770.7,159.4 768.3,166.9 760.4,166.9 
			766.8,171.5 764.3,178.9 		"/>
		<polygon fill="#F0C11A" points="797.8,174.3 804.1,178.9 801.6,171.5 808,166.9 800.2,166.9 797.8,159.4 795.4,166.9 787.5,166.9 
			793.9,171.5 791.4,178.9 		"/>
		<polygon fill="#F0C11A" points="824.9,174.3 831.2,178.9 828.7,171.5 835.2,166.9 827.3,166.9 824.9,159.4 822.5,166.9 
			814.6,166.9 821,171.5 818.5,178.9 		"/>
		<polygon fill="#BCBEC0" points="852,174.3 858.3,178.9 855.8,171.5 862.3,166.9 854.4,166.9 852,159.4 849.6,166.9 841.7,166.9 
			848.2,171.5 845.7,178.9 		"/>
		<polygon fill="#F0C11A" points="852,174.3 852,159.4 849.6,166.9 841.7,166.9 848.2,171.5 845.7,178.9 		"/>
	</g>
</g>
<g>
	<path fill="none" d="M46,60c1.7,0.7,3.5,0.7,5.2,0.2l17.1-5.5c0.1,0,0.2-0.1,0.2-0.2c0-0.1,0-0.1,0-0.2c-0.5-0.7-1.4-1.1-2.3-0.9
		l-8.1,1.4l-7.6,1.7c-0.3,0.1-0.7-0.1-0.8-0.5c-0.1-0.3,0.1-0.7,0.5-0.8l7.6-1.7c0,0,0,0,0,0c0.2-0.1,0.5-0.2,0.6-0.4
		c0.1-0.2,0.2-0.5,0.1-0.7c-0.1-0.4-0.5-0.7-1-0.6l-3.8,0.5c-1.5,0.2-3.1-0.1-4.4-0.8c-1-0.6-2.2-0.8-3.4-0.7l-5.8,0.6v6.4L46,60z"
		/>
	<g>
		<path fill="#254B53" d="M54.8,47c0,0.5-0.2,0.9-0.5,1.2c-0.3,0.3-0.7,0.4-1.2,0.4h0L53,49.5c-0.4,0-0.6,0-0.6-0.1l0.1-0.9
			c-0.4,0-0.7-0.1-0.9-0.2l-0.2,0l0.1-0.8c0.4,0.1,0.8,0.1,1.1,0.1l0.2-1.3c-0.5-0.2-0.9-0.3-1.1-0.6c-0.2-0.2-0.3-0.5-0.3-0.9
			c0-0.5,0.2-0.9,0.5-1.1c0.3-0.2,0.7-0.4,1.2-0.4h0.1l0.1-1h0.6l-0.1,1.1c0.3,0,0.6,0.1,0.9,0.1l0.1,0l-0.1,0.8
			c-0.4,0-0.7-0.1-1-0.1l-0.2,1.2c0.5,0.2,0.9,0.3,1.1,0.5S54.8,46.6,54.8,47z M52.4,44.8c0,0.1,0,0.2,0.1,0.3
			c0.1,0.1,0.2,0.2,0.4,0.2l0.1-1C52.6,44.3,52.4,44.5,52.4,44.8z M53.8,47.1c0-0.1,0-0.2-0.1-0.3s-0.2-0.2-0.4-0.2l-0.1,1.2
			C53.6,47.7,53.8,47.5,53.8,47.1z"/>
	</g>
	<path fill="#254B53" d="M69.6,53.6c-0.8-1.1-2.2-1.7-3.5-1.4l-6.2,1.1c0.1-0.4,0.1-0.8,0-1.2c-0.3-1-1.3-1.6-2.4-1.5l-0.5,0.1
		c1.4-1.1,2.2-2.8,2.2-4.8c0-3.4-2.8-6.2-6.2-6.2c-3.4,0-6.2,2.8-6.2,6.2c0,1.5,0.5,2.8,1.4,3.9c-0.8-0.2-1.5-0.3-2.3-0.2L40.2,50
		v-0.2c0-0.4-0.3-0.6-0.6-0.6h-3.9v1.3H39v0.3v7.4v0.3h-3.3v1.3h3.9c0.3,0,0.6-0.3,0.6-0.6l5.3,2.2c1.1,0.4,2.2,0.7,3.4,0.7
		c0.9,0,1.8-0.1,2.7-0.4L68.8,56c0.5-0.2,0.8-0.5,1-1C69.9,54.5,69.9,54,69.6,53.6z M53,40.9c2.7,0,4.9,2.2,4.9,4.9
		s-2.2,4.9-4.9,4.9c-2.7,0-4.9-2.2-4.9-4.9S50.3,40.9,53,40.9z M68.6,54.6c0,0.1-0.1,0.1-0.2,0.2l-17.1,5.5
		c-1.7,0.5-3.6,0.5-5.2-0.2l-5.8-2.3v-6.4l5.8-0.6c1.2-0.1,2.3,0.1,3.4,0.7c1.3,0.7,2.9,1,4.4,0.8l3.8-0.5c0.4-0.1,0.8,0.2,1,0.6
		c0.1,0.2,0.1,0.5-0.1,0.7c-0.1,0.2-0.3,0.4-0.6,0.4c0,0,0,0,0,0l-7.6,1.7c-0.3,0.1-0.6,0.4-0.5,0.8c0.1,0.3,0.4,0.6,0.8,0.5
		l7.6-1.7l8.1-1.4c0.9-0.1,1.8,0.2,2.3,0.9C68.6,54.4,68.6,54.5,68.6,54.6z"/>
</g>
<path fill="#254B53" d="M66.4,108.8h-1.7v-1.1c0-0.2-0.2-0.4-0.4-0.4h-0.4V96.9h0.4c0.2,0,0.4-0.2,0.4-0.4v-1.1h1.7
	c0.2,0,0.4-0.2,0.4-0.4l0-2.1c0,0,0,0,0-0.1l0,0c0,0,0,0,0-0.1c0,0,0,0,0,0l0,0c0,0,0,0-0.1-0.1c0,0,0,0-0.1-0.1c0,0,0,0-0.1,0
	l-13.7-6.2c-0.1-0.1-0.2-0.1-0.4,0l-13.7,6.2c0,0,0,0-0.1,0c0,0,0,0-0.1,0.1c0,0,0,0,0,0l0,0c0,0,0,0,0,0.1c0,0,0,0,0,0l0,0
	c0,0,0,0,0,0.1v2c0,0.2,0.2,0.4,0.4,0.4h1.7v1.1c0,0.2,0.2,0.4,0.4,0.4h0.4v10.4h-0.4c-0.2,0-0.4,0.2-0.4,0.4v1.1h-1.7
	c-0.2,0-0.4,0.2-0.4,0.4v2c0,0.2,0.2,0.4,0.4,0.4h27.3c0.2,0,0.4-0.2,0.4-0.4v-2C66.9,109,66.7,108.8,66.4,108.8z M41.1,92.4
	l11.6-5.3l11.6,5.3H41.1z M66,93.3v1.2H39.5v-1.2H66z M63.8,108.1v0.7h-5.2v-0.7H63.8z M59.4,107.2V96.9H63v10.4H59.4z M63.9,95.2
	h-0.1V96h-5.2v-0.8h-0.1v0L63.9,95.2L63.9,95.2z M55.8,107.2h-0.4V96.9h0.4c0.2,0,0.4-0.2,0.4-0.4v-1.1h1.5v1.1
	c0,0.2,0.2,0.4,0.4,0.4h0.4v10.4h-0.4c-0.2,0-0.4,0.2-0.4,0.4v1.1h-1.5v-1.1C56.3,107.4,56.1,107.2,55.8,107.2z M55.4,108.1v0.7
	h-5.2v-0.7H55.4z M51,107.2V96.9h3.6v10.4H51z M50.2,96v-0.7h5.2V96H50.2z M47.4,107.2H47V96.9h0.4c0.2,0,0.4-0.2,0.4-0.4v-1.1h1.5
	v1.1c0,0.2,0.2,0.4,0.4,0.4h0.4v10.4h-0.4c-0.2,0-0.4,0.2-0.4,0.4v1.1h-1.5v-1.1C47.8,107.4,47.6,107.2,47.4,107.2z M46.9,95.3V96
	h-5.2v-0.7H46.9z M46.1,96.9v10.4h-3.6V96.9H46.1z M46.9,108.1v0.7h-5.2v-0.7H46.9z M66,109.7v1.2H39.5v-1.2H66z M66.6,92.5
	L66.6,92.5L66.6,92.5L66.6,92.5L66.6,92.5z M38.8,92.7L38.8,92.7L38.8,92.7L38.8,92.7z"/>
<g>
	<polygon fill="#254B53" points="50.6,152.9 47.9,150.2 46.7,151.4 50.6,155.3 58.6,147.2 57.4,146.1 	"/>
	<path fill="#254B53" d="M66,152.2v-3.8H64c-0.1-0.7-0.3-1.4-0.6-2.1l1.8-1.1l-1.9-3.3l-1.9,1.1c-0.5-0.5-1-1.1-1.5-1.5l1.1-1.9
		l-3.3-1.9l-1.1,1.9c-0.7-0.2-1.3-0.4-2-0.5v-2.2h-3.8v2.2c-0.7,0.1-1.4,0.3-2,0.5l-1.1-1.9l-3.3,1.9l1.1,1.9
		c-0.5,0.4-1,0.9-1.5,1.5l-1.9-1.1l-1.9,3.3l1.9,1.1c-0.2,0.7-0.4,1.3-0.6,2h-2.2v3.8h2.2c0.1,0.7,0.3,1.4,0.5,2.1l-1.9,1.1l1.9,3.3
		l1.8-1.1c0.5,0.6,1,1.1,1.5,1.5l-1.1,1.8l3.3,1.9l1-1.8c0.7,0.3,1.4,0.5,2.1,0.6v2.1h3.8v-2c0.7-0.1,1.4-0.3,2.1-0.6l1,1.8l3.3-1.9
		l-1-1.8c0.6-0.5,1.1-1,1.6-1.6l1.8,1l1.9-3.3l-1.8-1c0.3-0.7,0.4-1.4,0.6-2.1H66z M64,155.7l-1,1.7l-1.7-1l-0.2,0.3
		c-0.6,0.7-1.2,1.4-1.9,1.9l-0.3,0.2l1,1.7l-1.7,1l-1-1.7l-0.4,0.1c-0.8,0.3-1.7,0.6-2.7,0.7l-0.4,0v1.9h-2v-1.9l-0.4-0.1
		c-0.9-0.1-1.8-0.4-2.6-0.7l-0.4-0.2l-1,1.7l-1.7-1l1-1.7l-0.3-0.2c-0.7-0.6-1.4-1.2-1.9-1.9l-0.2-0.3l-1.7,1l-1-1.7l1.8-1l-0.1-0.4
		c-0.3-0.8-0.6-1.7-0.7-2.6l0-0.4h-2.1v-2h2.1l0.1-0.4c0.1-0.9,0.4-1.8,0.7-2.6l0.2-0.4l-1.8-1l1-1.7l1.8,1.1l0.2-0.3
		c0.5-0.7,1.2-1.3,1.9-1.9l0.3-0.2l-1.1-1.8l1.7-1l1.1,1.8l0.4-0.1c0.8-0.3,1.7-0.6,2.6-0.7l0.4-0.1v-2.1h2v2.1l0.4,0
		c0.9,0.1,1.8,0.3,2.6,0.7l0.4,0.1l1-1.8l1.7,1l-1,1.8l0.3,0.2c0.7,0.5,1.4,1.2,1.9,1.9l0.2,0.3l1.7-1l1,1.7l-1.7,1l0.2,0.4
		c0.4,0.8,0.6,1.7,0.7,2.6l0.1,0.4h2v2h-2l0,0.4c-0.1,0.9-0.3,1.8-0.7,2.6l-0.1,0.4L64,155.7z"/>
	<path fill="#254B53" d="M52.8,141.2c-5.1,0-9.3,4.2-9.3,9.3c0,5.1,4.2,9.3,9.3,9.3c5.1,0,9.3-4.2,9.3-9.3
		C62.1,145.3,57.9,141.2,52.8,141.2z M52.8,158.8c-4.6,0-8.4-3.8-8.4-8.4c0-4.6,3.8-8.4,8.4-8.4c4.6,0,8.4,3.8,8.4,8.4
		C61.2,155,57.4,158.8,52.8,158.8z"/>
</g>
<g>
	<path fill="#254B53" d="M64.4,190.5l0-0.5l-0.5,0h0c-2.6,0-5.1-0.6-7.3-1.6c-1.8-0.8-2.9-1.7-3.4-2.2l-0.4-0.3l-0.4,0.3
		c-0.5,0.5-1.7,1.4-3.4,2.2c-2.2,1-4.7,1.5-7.3,1.6l-0.5,0l0,0.5c-0.1,1-0.3,4.8,1,9c1.7,5.4,5.2,9.5,10.4,12.3l0.3,0.1l0.3-0.1
		c5.2-2.8,8.7-7,10.4-12.3C64.8,195.3,64.5,191.6,64.4,190.5z M62.4,199.3c-1.6,5-4.8,8.9-9.6,11.6c-4.8-2.7-8-6.6-9.6-11.6
		c-1.1-3.6-1.1-6.8-1-8.2c2.6-0.1,5-0.7,7.3-1.7c1.6-0.7,2.7-1.5,3.3-2c0.7,0.6,1.8,1.3,3.3,2c2.2,1,4.7,1.6,7.3,1.7
		C63.5,192.4,63.5,195.7,62.4,199.3z"/>
	<path fill="#254B53" d="M56.1,196.6h-0.8v-1.7c0-1.4-1.1-2.5-2.5-2.5c-1.4,0-2.5,1.1-2.5,2.5v1.7h-0.8c-0.3,0-0.5,0.2-0.5,0.5v5.9
		c0,0.3,0.2,0.5,0.5,0.5h6.7c0.3,0,0.5-0.2,0.5-0.5v-5.9C56.6,196.8,56.4,196.6,56.1,196.6z M51.5,194.9c0-0.7,0.6-1.2,1.2-1.2
		c0.7,0,1.2,0.6,1.2,1.2v1.7h-2.5V194.9z M53.1,199.8l-0.1,0.1l0.3,1.7h-0.9l0.3-1.7l-0.1-0.1c-0.2-0.1-0.4-0.4-0.4-0.6
		c0-0.4,0.3-0.7,0.7-0.7c0.4,0,0.7,0.3,0.7,0.7C53.4,199.5,53.3,199.7,53.1,199.8z"/>
</g>
<path fill="#254B53" d="M66.4,244.7c-0.3-0.3-0.7-0.5-1.2-0.6c-0.4-2.5-1.6-4.6-3.2-6.2c-1.3-1.3-2.9-2.2-4.7-2.8
	c-1.7-0.6-3.6-0.8-5.5-0.7c-3.2,0.2-6.4,1.4-8.7,3.8c-0.9,0.9-1.6,2-2.1,3.1c-0.4,0.9-0.6,1.8-0.8,2.7c-0.5,0.1-0.9,0.3-1.2,0.6
	c-0.4,0.4-0.7,1-0.7,1.6v2.6c0,0.5,0.2,0.9,0.5,1.2c0.3,0.3,0.8,0.5,1.2,0.5h2.2c0.3,0,0.6-0.3,0.6-0.6v-5.4c0-0.3-0.3-0.6-0.6-0.6
	h-0.9c0.1-0.8,0.4-1.5,0.7-2.2c0.4-1,1.1-2,1.9-2.8c2.1-2.2,5-3.3,8-3.5c1.7-0.1,3.4,0.1,5,0.7c1.6,0.5,3,1.4,4.2,2.5
	c1.4,1.4,2.5,3.1,2.9,5.3h-0.9c-0.3,0-0.6,0.3-0.6,0.6v5.4c0,0.3,0.3,0.6,0.6,0.6H64c0,1.1-0.1,1.9-0.4,2.4
	c-0.4,0.5-1.1,0.7-2.5,0.7h-0.2c0.5-1.3,0.8-2.9,0.8-4.5c0-0.2,0-0.2,0-0.2v-3.1c0-4.2-2.3-7-5.3-8.1c-1.1-0.5-2.4-0.7-3.6-0.7
	s-2.4,0.2-3.6,0.7c-3,1.2-5.3,3.9-5.3,8.1v3.1c0,3.1,1,5.8,2.5,7.7c1.6,2.1,3.9,3.3,6.2,3.4c0.1,0,0.1,0,0.1,0c2.2,0,4.4-1.1,6.1-3
	c0.6-0.6,1.1-1.4,1.5-2.2H61c1.8,0,2.9-0.4,3.5-1.2c0.5-0.7,0.6-1.7,0.6-3h0.2c0.5,0,0.9-0.2,1.2-0.5c0.3-0.3,0.5-0.8,0.5-1.2v-2.6
	C67.1,245.7,66.8,245.1,66.4,244.7z M58,256.3c-1.5,1.7-3.4,2.6-5.3,2.6c-0.1,0-0.1,0-0.1,0c-2,0-4-1.1-5.4-3
	c-1.3-1.7-2.2-4.1-2.2-6.9v-3.1c0-3.6,2-6,4.6-7c1-0.4,2.1-0.6,3.2-0.6c1.1,0,2.2,0.2,3.2,0.6c2.6,1,4.6,3.3,4.6,7v3.1
	c0,0.2,0,0.2,0,0.2c0,1.7-0.4,3.2-0.9,4.5h-5.2c-0.1-0.1-0.1-0.2-0.2-0.3l0,0l0,0l0,0c-0.2-0.2-0.6-0.4-1-0.4h-0.9
	c-0.4,0-0.7,0.2-1,0.4l0,0l0,0l0,0c-0.2,0.2-0.4,0.6-0.4,1v0c0,0.4,0.2,0.7,0.4,1l0,0l0,0l0,0c0.2,0.2,0.6,0.4,1,0.4h0.9
	c0.4,0,0.7-0.2,1-0.4l0,0l0,0l0,0c0.1-0.1,0.2-0.3,0.3-0.4H59C58.7,255.4,58.4,255.9,58,256.3z"/>
<rect x="548.1" y="149.5" fill="#E6E7E8" width="102" height="1"/>
<rect x="597.9" y="68.9" transform="matrix(0.4454 -0.8953 0.8953 0.4454 219.9485 605.0613)" fill="#E6E7E8" width="1" height="112.2"/>
<rect x="598.6" y="28.6" transform="matrix(0.7 -0.7141 0.7141 0.7 108.3224 457.8595)" fill="#E6E7E8" width="1" height="142.9"/>
<rect x="542.3" y="174.5" transform="matrix(0.8983 -0.4394 0.4394 0.8983 -15.9607 281.0442)" fill="#E6E7E8" width="113.6" height="1"/>
<polygon fill="#E6E7E8" points="548.5,250.4 547.8,249.6 649.8,149.6 650.5,150.4 "/>
</svg>
