<svg width="15" height="15" viewBox="0 0 15 15" fill="none" xmlns="http://www.w3.org/2000/svg">
<path d="M7.5 15C11.6437 15 15 11.6437 15 7.5C15 3.35629 11.6437 0 7.5 0C3.35629 0 0 3.35629 0 7.5C0 11.6437 3.35629 15 7.5 15ZM7.5 14.0956C3.85135 14.0956 0.904366 11.1409 0.904366 7.5C0.904366 3.85135 3.85135 0.904365 7.5 0.904365C11.1486 0.904365 14.0956 3.85135 14.0956 7.5C14.0956 11.1409 11.1486 14.0956 7.5 14.0956ZM3.98389 7.57796L6.63461 10.2131L11.4995 5.36383L10.8914 4.75572L6.63461 8.99688L4.5764 6.96985L3.98389 7.57796Z" fill="#FD5000"/>
</svg>
