<svg width="18" height="16" viewBox="0 0 18 16" fill="none" xmlns="http://www.w3.org/2000/svg">
<path d="M3 0.5V3M3 3C1.89543 3 1 3.89543 1 5C1 6.10457 1.89543 7 3 7M3 3C4.10457 3 5 3.89543 5 5C5 6.10457 4.10457 7 3 7M3 7V15.5M9 0.5V9M9 9C7.89543 9 7 9.89543 7 11C7 12.1046 7.89543 13 9 13M9 9C10.1046 9 11 9.89543 11 11C11 12.1046 10.1046 13 9 13M9 13V15.5M15 0.5V3M15 3C13.8954 3 13 3.89543 13 5C13 6.10457 13.8954 7 15 7M15 3C16.1046 3 17 3.89543 17 5C17 6.10457 16.1046 7 15 7M15 7V15.5" stroke="#253341" stroke-width="1.2"/>
</svg>
