<?xml version="1.0" encoding="utf-8"?>
<!-- Generator: Adobe Illustrator 24.1.3, SVG Export Plug-In . SVG Version: 6.00 Build 0)  -->
<svg version="1.1" id="Layer_1" xmlns="http://www.w3.org/2000/svg" xmlns:xlink="http://www.w3.org/1999/xlink" x="0px" y="0px"
	 viewBox="0 0 400 750" enable-background="new 0 0 400 750" xml:space="preserve">
<path fill="#F0C11A" d="M263.9,129.3H137.2c-11.4,0-20.7-9.3-20.7-20.7c0-11.4,9.3-20.7,20.7-20.7h126.6c11.4,0,20.7,9.3,20.7,20.7
	C284.5,120,275.3,129.3,263.9,129.3z M137.2,89c-10.9,0-19.7,8.8-19.7,19.7c0,10.9,8.8,19.7,19.7,19.7h126.6
	c10.9,0,19.7-8.8,19.7-19.7c0-10.9-8.8-19.7-19.7-19.7H137.2z"/>
<g>
	<polygon fill="#F0C11A" points="146.3,112.7 152.7,117.4 150.2,109.9 156.6,105.3 148.7,105.4 146.3,97.9 143.9,105.4 136.1,105.3 
		142.5,109.9 140,117.4 	"/>
	<polygon fill="#F0C11A" points="173.4,112.7 179.8,117.4 177.3,109.9 183.7,105.3 175.8,105.4 173.4,97.9 171.1,105.4 163.2,105.3 
		169.6,109.9 167.1,117.4 	"/>
	<polygon fill="#F0C11A" points="200.5,112.7 206.9,117.4 204.4,109.9 210.8,105.3 202.9,105.4 200.5,97.9 198.2,105.4 190.3,105.3 
		196.7,109.9 194.2,117.4 	"/>
	<polygon fill="#F0C11A" points="227.7,112.7 234,117.4 231.5,109.9 237.9,105.3 230,105.4 227.7,97.9 225.3,105.4 217.4,105.3 
		223.8,109.9 221.3,117.4 	"/>
	<polygon fill="#F0C11A" points="254.8,112.7 261.1,117.4 258.6,109.9 265,105.3 257.1,105.4 254.8,97.9 252.4,105.4 244.5,105.3 
		250.9,109.9 248.4,117.4 	"/>
</g>
<path fill="#F0C11A" d="M263.9,228.8H137.2c-11.4,0-20.7-9.3-20.7-20.7c0-11.4,9.3-20.7,20.7-20.7h126.6c11.4,0,20.7,9.3,20.7,20.7
	C284.5,219.6,275.3,228.8,263.9,228.8z M137.2,188.5c-10.9,0-19.7,8.8-19.7,19.7c0,10.9,8.8,19.7,19.7,19.7h126.6
	c10.9,0,19.7-8.8,19.7-19.7c0-10.9-8.8-19.7-19.7-19.7H137.2z"/>
<g>
	<polygon fill="#F0C11A" points="146.3,212.2 152.7,216.9 150.2,209.4 156.6,204.9 148.7,204.9 146.3,197.4 143.9,204.9 
		136.1,204.9 142.5,209.4 140,216.9 	"/>
	<polygon fill="#F0C11A" points="173.4,212.2 179.8,216.9 177.3,209.4 183.7,204.9 175.8,204.9 173.4,197.4 171.1,204.9 
		163.2,204.9 169.6,209.4 167.1,216.9 	"/>
	<polygon fill="#F0C11A" points="200.5,212.2 206.9,216.9 204.4,209.4 210.8,204.9 202.9,204.9 200.5,197.4 198.2,204.9 
		190.3,204.9 196.7,209.4 194.2,216.9 	"/>
	<polygon fill="#F0C11A" points="227.7,212.2 234,216.9 231.5,209.4 237.9,204.9 230,204.9 227.7,197.4 225.3,204.9 217.4,204.9 
		223.8,209.4 221.3,216.9 	"/>
	<polygon fill="#BCBEC0" points="254.8,212.2 261.1,216.9 258.6,209.4 265,204.9 257.1,204.9 254.8,197.4 252.4,204.9 244.5,204.9 
		250.9,209.4 248.4,216.9 	"/>
</g>
<path fill="#F0C11A" d="M263.9,328.4H137.2c-11.4,0-20.7-9.3-20.7-20.7s9.3-20.7,20.7-20.7h126.6c11.4,0,20.7,9.3,20.7,20.7
	S275.3,328.4,263.9,328.4z M137.2,288c-10.9,0-19.7,8.8-19.7,19.7s8.8,19.7,19.7,19.7h126.6c10.9,0,19.7-8.8,19.7-19.7
	s-8.8-19.7-19.7-19.7H137.2z"/>
<g>
	<polygon fill="#F0C11A" points="146.3,311.7 152.7,316.4 150.2,309 156.6,304.4 148.7,304.4 146.3,296.9 143.9,304.4 136.1,304.4 
		142.5,309 140,316.4 	"/>
	<polygon fill="#F0C11A" points="173.4,311.7 179.8,316.4 177.3,309 183.7,304.4 175.8,304.4 173.4,296.9 171.1,304.4 163.2,304.4 
		169.6,309 167.1,316.4 	"/>
	<polygon fill="#F0C11A" points="200.5,311.7 206.9,316.4 204.4,309 210.8,304.4 202.9,304.4 200.5,296.9 198.2,304.4 190.3,304.4 
		196.7,309 194.2,316.4 	"/>
	<polygon fill="#F0C11A" points="227.7,311.7 234,316.4 231.5,309 237.9,304.4 230,304.4 227.7,296.9 225.3,304.4 217.4,304.4 
		223.8,309 221.3,316.4 	"/>
	<polygon fill="#F0C11A" points="254.8,311.7 261.1,316.4 258.6,309 265,304.4 257.1,304.4 254.8,296.9 252.4,304.4 244.5,304.4 
		250.9,309 248.4,316.4 	"/>
</g>
<path fill="#F0C11A" d="M263.9,427.9H137.2c-11.4,0-20.7-9.3-20.7-20.7s9.3-20.7,20.7-20.7h126.6c11.4,0,20.7,9.3,20.7,20.7
	S275.3,427.9,263.9,427.9z M137.2,387.5c-10.9,0-19.7,8.8-19.7,19.7s8.8,19.7,19.7,19.7h126.6c10.9,0,19.7-8.8,19.7-19.7
	s-8.8-19.7-19.7-19.7H137.2z"/>
<g>
	<polygon fill="#F0C11A" points="146.3,411.3 152.7,415.9 150.2,408.5 156.6,403.9 148.7,403.9 146.3,396.4 143.9,403.9 
		136.1,403.9 142.5,408.5 140,415.9 	"/>
	<polygon fill="#F0C11A" points="173.4,411.3 179.8,415.9 177.3,408.5 183.7,403.9 175.8,403.9 173.4,396.4 171.1,403.9 
		163.2,403.9 169.6,408.5 167.1,415.9 	"/>
	<polygon fill="#F0C11A" points="200.5,411.3 206.9,415.9 204.4,408.5 210.8,403.9 202.9,403.9 200.5,396.4 198.2,403.9 
		190.3,403.9 196.7,408.5 194.2,415.9 	"/>
	<polygon fill="#F0C11A" points="227.7,411.3 234,415.9 231.5,408.5 237.9,403.9 230,403.9 227.7,396.4 225.3,403.9 217.4,403.9 
		223.8,408.5 221.3,415.9 	"/>
	<polygon fill="#BCBEC0" points="254.8,411.3 261.1,415.9 258.6,408.5 265,403.9 257.1,403.9 254.8,396.4 252.4,403.9 244.5,403.9 
		250.9,408.5 248.4,415.9 	"/>
</g>
<path fill="#F0C11A" d="M263.9,527.4H137.2c-11.4,0-20.7-9.3-20.7-20.7c0-11.4,9.3-20.7,20.7-20.7h126.6c11.4,0,20.7,9.3,20.7,20.7
	C284.5,518.1,275.3,527.4,263.9,527.4z M137.2,487c-10.9,0-19.7,8.8-19.7,19.7s8.8,19.7,19.7,19.7h126.6c10.9,0,19.7-8.8,19.7-19.7
	s-8.8-19.7-19.7-19.7H137.2z"/>
<g>
	<polygon fill="#F0C11A" points="146.3,510.8 152.7,515.5 150.2,508 156.6,503.4 148.7,503.5 146.3,495.9 143.9,503.5 136.1,503.4 
		142.5,508 140,515.5 	"/>
	<polygon fill="#F0C11A" points="173.4,510.8 179.8,515.5 177.3,508 183.7,503.4 175.8,503.5 173.4,495.9 171.1,503.5 163.2,503.4 
		169.6,508 167.1,515.5 	"/>
	<polygon fill="#F0C11A" points="200.5,510.8 206.9,515.5 204.4,508 210.8,503.4 202.9,503.5 200.5,495.9 198.2,503.5 190.3,503.4 
		196.7,508 194.2,515.5 	"/>
	<polygon fill="#BCBEC0" points="227.7,510.8 234,515.5 231.5,508 237.9,503.4 230,503.5 227.7,495.9 225.3,503.5 217.4,503.4 
		223.8,508 221.3,515.5 	"/>
	<polygon fill="#BCBEC0" points="254.8,510.8 261.1,515.5 258.6,508 265,503.4 257.1,503.5 254.8,495.9 252.4,503.5 244.5,503.4 
		250.9,508 248.4,515.5 	"/>
</g>
<g>
	<path fill="#254B53" d="M121.5,52.8c2.2,0,3.3,0.9,3.3,2.7c0,1.6-0.8,2.8-2.3,3.6c0.5,0.3,0.9,0.6,1.1,0.9c0.2,0.3,0.3,0.8,0.3,1.3
		c0,1.3-0.4,2.4-1.3,3.2c-0.9,0.8-2.1,1.2-3.8,1.2h-4.7l3-13H121.5z M120.1,60.1h-2.5l-0.9,3.9h2.6c0.8,0,1.4-0.2,1.8-0.7
		c0.4-0.5,0.7-1.1,0.7-1.9C121.7,60.6,121.2,60.1,120.1,60.1z M121.2,54.6h-2.3l-0.9,3.7h2.4c0.7,0,1.2-0.2,1.6-0.7
		c0.4-0.5,0.7-1,0.7-1.7c0-0.4-0.1-0.8-0.4-1C122.1,54.7,121.7,54.6,121.2,54.6z"/>
	<path fill="#254B53" d="M131.6,56.1c2.4,0,3.6,1.1,3.6,3.4c0,1.1-0.2,2.1-0.5,3.1c-0.4,1-0.9,1.8-1.7,2.4c-0.8,0.6-1.6,1-2.6,1
		c-2.3,0-3.5-1.1-3.5-3.4c0-1.1,0.2-2.1,0.6-3.1c0.4-1,0.9-1.8,1.7-2.4S130.6,56.1,131.6,56.1z M130.3,64.3c0.8,0,1.5-0.5,2-1.4
		c0.5-1,0.8-2.1,0.8-3.3c0-0.5-0.1-0.9-0.4-1.2c-0.3-0.3-0.6-0.4-1.1-0.4c-0.8,0-1.5,0.5-2,1.5c-0.5,1-0.8,2.1-0.8,3.3
		C128.8,63.8,129.3,64.3,130.3,64.3z"/>
	<path fill="#254B53" d="M143.8,56.1c0.8,0,1.3,0.2,1.7,0.7c0.4,0.5,0.6,1,0.6,1.7c0,0.7-0.1,1.5-0.4,2.6l-1.1,4.7h-2.1l1.1-4.6
		c0.2-1.1,0.3-1.8,0.3-2.2s-0.1-0.7-0.2-0.9c-0.1-0.2-0.4-0.3-0.7-0.3s-0.7,0.1-1.1,0.4c-0.4,0.3-0.7,0.5-1,0.8l-0.4,0.4l-1.5,6.3
		h-2.1l2.2-9.5h2l-0.2,1.3c0.1-0.1,0.2-0.3,0.4-0.4c0.2-0.2,0.5-0.4,1-0.6C142.9,56.3,143.4,56.1,143.8,56.1z"/>
	<path fill="#254B53" d="M151.1,66c-0.8,0-1.3-0.2-1.7-0.7c-0.4-0.5-0.6-1.1-0.6-1.9c0-0.5,0.1-1.3,0.4-2.4l1.1-4.7h2.1l-1,4.6
		c-0.2,0.9-0.3,1.6-0.3,2.1c0,0.8,0.3,1.2,1,1.2c0.3,0,0.6-0.1,1-0.4s0.7-0.5,1-0.8l0.4-0.4l1.5-6.3h2.1l-2.2,9.5h-2l0.2-1.3
		c-0.1,0.1-0.2,0.3-0.4,0.4c-0.2,0.2-0.5,0.4-1,0.6C151.9,65.9,151.5,66,151.1,66z"/>
	<path fill="#254B53" d="M163.9,57.9c-0.5,0-0.9,0.1-1.2,0.4s-0.4,0.5-0.4,0.9c0,0.3,0.1,0.5,0.3,0.7c0.2,0.1,0.6,0.3,1.1,0.4
		c0.5,0.2,0.9,0.3,1.2,0.4c0.3,0.1,0.5,0.2,0.8,0.4c0.5,0.3,0.7,0.8,0.7,1.5c0,1.2-0.4,2-1.2,2.6s-1.8,0.9-3,0.9
		c-1,0-1.9-0.1-2.8-0.4l-0.4-0.1l0.4-1.5c1.2,0.2,2.2,0.3,2.9,0.3c1.4,0,2-0.5,2-1.4c0-0.2-0.1-0.4-0.3-0.5
		c-0.2-0.1-0.7-0.3-1.4-0.5s-1.3-0.4-1.7-0.8c-0.4-0.3-0.6-0.8-0.6-1.4c0-1.1,0.4-2,1.1-2.6c0.7-0.6,1.7-1,2.8-1
		c1.1,0,2,0.1,2.9,0.4l0.4,0.1l-0.4,1.5C165.8,58,164.7,57.9,163.9,57.9z"/>
	<path fill="#254B53" d="M171.4,62.9c0,0.4,0.1,0.8,0.4,1c0.3,0.2,0.7,0.4,1.1,0.4c0.9,0,1.8-0.1,2.7-0.2l0.5-0.1l-0.2,1.6
		c-1.2,0.4-2.3,0.5-3.5,0.5c-2.1,0-3.1-1-3.1-3.1c0-1.8,0.4-3.4,1.2-4.7c0.4-0.7,1-1.2,1.6-1.6c0.7-0.4,1.5-0.6,2.3-0.6
		c2.1,0,3.1,0.9,3.1,2.6c0,1.2-0.4,2-1.2,2.4c-0.8,0.5-2.2,0.7-4.1,0.7h-0.8C171.4,62.1,171.4,62.5,171.4,62.9z M172.6,60.3
		c1.1,0,1.8-0.1,2.3-0.3s0.7-0.6,0.7-1.2c0-0.6-0.4-1-1.2-1c-1.3,0-2.2,0.8-2.6,2.5H172.6z"/>
	<path fill="#254B53" d="M183.9,57.9c-0.5,0-0.9,0.1-1.2,0.4s-0.4,0.5-0.4,0.9c0,0.3,0.1,0.5,0.3,0.7c0.2,0.1,0.6,0.3,1.1,0.4
		c0.5,0.2,0.9,0.3,1.2,0.4c0.3,0.1,0.5,0.2,0.8,0.4c0.5,0.3,0.7,0.8,0.7,1.5c0,1.2-0.4,2-1.2,2.6s-1.8,0.9-3,0.9
		c-1,0-1.9-0.1-2.8-0.4l-0.4-0.1l0.4-1.5c1.2,0.2,2.2,0.3,2.9,0.3c1.4,0,2-0.5,2-1.4c0-0.2-0.1-0.4-0.3-0.5
		c-0.2-0.1-0.7-0.3-1.4-0.5s-1.3-0.4-1.7-0.8c-0.4-0.3-0.6-0.8-0.6-1.4c0-1.1,0.4-2,1.1-2.6c0.7-0.6,1.7-1,2.8-1
		c1.1,0,2,0.1,2.9,0.4l0.4,0.1l-0.4,1.5C185.7,58,184.7,57.9,183.9,57.9z"/>
	<path fill="#254B53" d="M197.4,66c-0.9,0-1.5-0.3-1.9-0.8c-0.4-0.6-0.6-1.3-0.6-2.1s0.1-1.7,0.3-2.4c0.2-0.8,0.5-1.5,0.8-2.2
		c0.4-0.7,0.9-1.3,1.5-1.7s1.4-0.7,2.2-0.7c0.7,0,1.9,0.1,3.6,0.4l0.8,0.1l-1.4,6.2l-0.5,3l-2,0.1c0.1-0.9,0.2-1.5,0.3-1.7
		c-0.6,0.8-1.3,1.3-2,1.7C198,66,197.7,66,197.4,66z M201.7,58.2c-0.9-0.2-1.5-0.3-2.1-0.3c-0.5,0-1,0.3-1.4,0.9
		c-0.8,1.1-1.3,2.4-1.3,4.1c0,0.5,0.1,0.8,0.3,1.1c0.2,0.2,0.4,0.4,0.8,0.4c0.4,0,0.8-0.2,1.2-0.5c0.4-0.3,0.8-0.7,1.1-1l0.4-0.5
		L201.7,58.2z"/>
	<path fill="#254B53" d="M212.3,56.1c0.8,0,1.3,0.2,1.7,0.7c0.4,0.5,0.6,1,0.6,1.7c0,0.7-0.1,1.5-0.4,2.6l-1.1,4.7H211l1.1-4.6
		c0.2-1.1,0.3-1.8,0.3-2.2s-0.1-0.7-0.2-0.9c-0.1-0.2-0.4-0.3-0.7-0.3s-0.7,0.1-1.1,0.4c-0.4,0.3-0.7,0.5-1,0.8l-0.4,0.4l-1.5,6.3
		h-2.1l2.2-9.5h2l-0.2,1.3c0.1-0.1,0.2-0.3,0.4-0.4c0.2-0.2,0.5-0.4,1-0.6C211.4,56.3,211.9,56.1,212.3,56.1z"/>
	<path fill="#254B53" d="M219.7,66c-0.8,0-1.5-0.3-1.9-0.8c-0.4-0.5-0.7-1.3-0.7-2.4s0.2-2.1,0.5-3.1c0.3-1,0.9-1.9,1.6-2.6
		s1.6-1.1,2.6-1.1c0.5,0,1.2,0.1,2,0.3l0.4,0.1l1-4.1h2.1l-3.1,13.5h-2l0.2-1.3c-0.1,0.1-0.2,0.3-0.4,0.4c-0.2,0.2-0.5,0.4-1,0.7
		C220.6,65.9,220.2,66,219.7,66z M223.9,58.2c-0.8-0.2-1.4-0.3-2-0.3s-1,0.3-1.5,0.9c-0.4,0.6-0.7,1.2-0.9,2
		c-0.2,0.8-0.3,1.5-0.3,2.2c0,0.9,0.4,1.4,1.2,1.4c0.3,0,0.6-0.1,1.1-0.4c0.4-0.3,0.8-0.6,1.1-0.9l0.4-0.4L223.9,58.2z"/>
	<path fill="#254B53" d="M240.1,56.1c0.9,0,1.5,0.3,2,0.8c0.4,0.5,0.7,1.3,0.7,2.3s-0.2,2-0.5,3.1s-0.9,1.9-1.6,2.6
		c-0.7,0.7-1.6,1.1-2.6,1.1c-0.6,0-1.3-0.1-2-0.3l-0.4-0.1l-1,4.3h-2l3.1-13.6h2l-0.3,1.3c0.1-0.1,0.2-0.3,0.4-0.4
		c0.2-0.2,0.5-0.4,1-0.7C239.3,56.3,239.7,56.1,240.1,56.1z M239.5,57.9c-0.3,0-0.6,0.1-1,0.4c-0.4,0.3-0.8,0.6-1.1,0.9l-0.4,0.4
		l-1,4.4c0.8,0.2,1.4,0.3,2,0.3c0.6,0,1-0.3,1.5-0.9c0.4-0.6,0.7-1.2,0.9-2c0.2-0.7,0.3-1.5,0.3-2.2
		C240.7,58.3,240.3,57.9,239.5,57.9z"/>
	<path fill="#254B53" d="M244.7,65.8l2.2-9.5h2l-0.3,1.4c0.4-0.3,1-0.7,1.6-1c0.6-0.3,1.1-0.5,1.6-0.6l-0.6,2.1
		c-0.6,0.2-1.4,0.5-2.5,1l-0.5,0.2l-1.5,6.3H244.7z"/>
	<path fill="#254B53" d="M257.5,56.1c2.4,0,3.6,1.1,3.6,3.4c0,1.1-0.2,2.1-0.5,3.1c-0.4,1-0.9,1.8-1.7,2.4c-0.8,0.6-1.6,1-2.6,1
		c-2.3,0-3.5-1.1-3.5-3.4c0-1.1,0.2-2.1,0.6-3.1c0.4-1,0.9-1.8,1.7-2.4S256.6,56.1,257.5,56.1z M256.2,64.3c0.8,0,1.5-0.5,2-1.4
		c0.5-1,0.8-2.1,0.8-3.3c0-0.5-0.1-0.9-0.4-1.2c-0.3-0.3-0.6-0.4-1.1-0.4c-0.8,0-1.5,0.5-2,1.5c-0.5,1-0.8,2.1-0.8,3.3
		C254.8,63.8,255.3,64.3,256.2,64.3z"/>
	<path fill="#254B53" d="M269.9,59.1c0-0.8-0.3-1.2-1-1.2c-0.3,0-0.6,0.1-1,0.4c-0.4,0.3-0.7,0.5-1,0.8l-0.4,0.4l-1.5,6.3h-2.1
		l2.2-9.5h2l-0.2,1.2c0,0,0.1-0.1,0.1-0.2s0.2-0.2,0.4-0.4s0.4-0.3,0.6-0.4c0.5-0.3,1.1-0.5,1.6-0.5s1,0.1,1.3,0.4s0.5,0.5,0.6,0.8
		l0.1,0.4c0.1-0.1,0.3-0.3,0.5-0.4s0.6-0.4,1.1-0.7c0.5-0.3,1-0.4,1.5-0.4c0.8,0,1.3,0.2,1.7,0.7c0.4,0.5,0.6,1,0.6,1.6
		c0,0.6-0.1,1.5-0.4,2.7l-1.1,4.7h-2.1l1.1-4.6c0.2-1.1,0.3-1.7,0.3-2.1c0-0.9-0.3-1.3-1-1.3c-0.3,0-0.6,0.1-0.9,0.3
		c-0.4,0.2-0.7,0.5-0.9,0.7l-0.3,0.3c-0.1,0.7-0.2,1.3-0.3,1.8l-1.1,4.7h-2.1l1.1-4.6C269.7,60.2,269.9,59.5,269.9,59.1z"/>
	<path fill="#254B53" d="M284.5,56.1c2.4,0,3.6,1.1,3.6,3.4c0,1.1-0.2,2.1-0.5,3.1c-0.4,1-0.9,1.8-1.7,2.4c-0.8,0.6-1.6,1-2.6,1
		c-2.3,0-3.5-1.1-3.5-3.4c0-1.1,0.2-2.1,0.6-3.1c0.4-1,0.9-1.8,1.7-2.4S283.5,56.1,284.5,56.1z M283.2,64.3c0.8,0,1.5-0.5,2-1.4
		c0.5-1,0.8-2.1,0.8-3.3c0-0.5-0.1-0.9-0.4-1.2c-0.3-0.3-0.6-0.4-1.1-0.4c-0.8,0-1.5,0.5-2,1.5c-0.5,1-0.8,2.1-0.8,3.3
		C281.7,63.8,282.2,64.3,283.2,64.3z"/>
	<path fill="#254B53" d="M293,63.6c0,0.5,0.2,0.7,0.7,0.7l1.4-0.1l-0.2,1.5c-0.7,0.2-1.3,0.4-2,0.4s-1.2-0.2-1.5-0.5
		c-0.4-0.4-0.5-0.8-0.5-1.4c0-0.6,0.1-1.2,0.3-2l1-4H291l0.5-1.8h1.1l0.6-2.6h2.1l-0.6,2.6h2.3l-0.4,1.8h-2.3l-1,4.2
		C293.1,62.8,293,63.3,293,63.6z"/>
	<path fill="#254B53" d="M297.6,65.8l2.2-9.5h2.1l-2.2,9.5H297.6z M300.1,54.9l0.5-2.2h2.1l-0.5,2.2H300.1z"/>
	<path fill="#254B53" d="M308.6,56.1c2.4,0,3.6,1.1,3.6,3.4c0,1.1-0.2,2.1-0.5,3.1c-0.4,1-0.9,1.8-1.7,2.4c-0.8,0.6-1.6,1-2.6,1
		c-2.3,0-3.5-1.1-3.5-3.4c0-1.1,0.2-2.1,0.6-3.1c0.4-1,0.9-1.8,1.7-2.4S307.7,56.1,308.6,56.1z M307.4,64.3c0.8,0,1.5-0.5,2-1.4
		c0.5-1,0.8-2.1,0.8-3.3c0-0.5-0.1-0.9-0.4-1.2c-0.3-0.3-0.6-0.4-1.1-0.4c-0.8,0-1.5,0.5-2,1.5c-0.5,1-0.8,2.1-0.8,3.3
		C305.9,63.8,306.4,64.3,307.4,64.3z"/>
	<path fill="#254B53" d="M320.8,56.1c0.8,0,1.3,0.2,1.7,0.7c0.4,0.5,0.6,1,0.6,1.7c0,0.7-0.1,1.5-0.4,2.6l-1.1,4.7h-2.1l1.1-4.6
		c0.2-1.1,0.3-1.8,0.3-2.2s-0.1-0.7-0.2-0.9c-0.1-0.2-0.4-0.3-0.7-0.3s-0.7,0.1-1.1,0.4c-0.4,0.3-0.7,0.5-1,0.8l-0.4,0.4l-1.5,6.3
		h-2.1l2.2-9.5h2l-0.2,1.3c0.1-0.1,0.2-0.3,0.4-0.4c0.2-0.2,0.5-0.4,1-0.6C320,56.3,320.4,56.1,320.8,56.1z"/>
	<path fill="#254B53" d="M329.9,57.9c-0.5,0-0.9,0.1-1.2,0.4s-0.4,0.5-0.4,0.9c0,0.3,0.1,0.5,0.3,0.7c0.2,0.1,0.6,0.3,1.1,0.4
		c0.5,0.2,0.9,0.3,1.2,0.4c0.3,0.1,0.5,0.2,0.8,0.4c0.5,0.3,0.7,0.8,0.7,1.5c0,1.2-0.4,2-1.2,2.6s-1.8,0.9-3,0.9
		c-1,0-1.9-0.1-2.8-0.4l-0.4-0.1l0.4-1.5c1.2,0.2,2.2,0.3,2.9,0.3c1.4,0,2-0.5,2-1.4c0-0.2-0.1-0.4-0.3-0.5
		c-0.2-0.1-0.7-0.3-1.4-0.5s-1.3-0.4-1.7-0.8c-0.4-0.3-0.6-0.8-0.6-1.4c0-1.1,0.4-2,1.1-2.6c0.7-0.6,1.7-1,2.8-1
		c1.1,0,2,0.1,2.9,0.4l0.4,0.1l-0.4,1.5C331.8,58,330.7,57.9,329.9,57.9z"/>
	<path fill="#254B53" d="M113.5,152.8c2.2,0,3.3,0.9,3.3,2.7c0,1.6-0.8,2.8-2.3,3.6c0.5,0.3,0.9,0.6,1.1,0.9
		c0.2,0.3,0.3,0.8,0.3,1.3c0,1.3-0.4,2.4-1.3,3.2c-0.9,0.8-2.1,1.2-3.8,1.2h-4.7l3-13H113.5z M112.1,160.1h-2.5l-0.9,3.9h2.6
		c0.8,0,1.4-0.2,1.8-0.7c0.4-0.5,0.7-1.1,0.7-1.9C113.7,160.6,113.2,160.1,112.1,160.1z M113.2,154.6h-2.3l-0.9,3.7h2.4
		c0.7,0,1.2-0.2,1.6-0.7c0.4-0.5,0.7-1,0.7-1.7c0-0.4-0.1-0.8-0.4-1C114.1,154.7,113.7,154.6,113.2,154.6z"/>
	<path fill="#254B53" d="M121.3,166c-0.9,0-1.5-0.3-1.9-0.8c-0.4-0.6-0.6-1.3-0.6-2.1s0.1-1.7,0.3-2.4c0.2-0.8,0.5-1.5,0.8-2.2
		c0.4-0.7,0.9-1.3,1.5-1.7s1.4-0.7,2.2-0.7c0.7,0,1.9,0.1,3.6,0.4l0.8,0.1l-1.4,6.2l-0.5,3l-2,0.1c0.1-0.9,0.2-1.5,0.3-1.7
		c-0.6,0.8-1.3,1.3-2,1.7C121.9,166,121.6,166,121.3,166z M125.6,158.2c-0.9-0.2-1.5-0.3-2.1-0.3c-0.5,0-1,0.3-1.4,0.9
		c-0.8,1.1-1.3,2.4-1.3,4.1c0,0.5,0.1,0.8,0.3,1.1c0.2,0.2,0.4,0.4,0.8,0.4c0.4,0,0.8-0.2,1.2-0.5c0.4-0.3,0.8-0.7,1.1-1l0.4-0.5
		L125.6,158.2z"/>
	<path fill="#254B53" d="M136.2,156.1c0.8,0,1.3,0.2,1.7,0.7c0.4,0.5,0.6,1,0.6,1.7c0,0.7-0.1,1.5-0.4,2.6l-1.1,4.7h-2.1l1.1-4.6
		c0.2-1.1,0.3-1.8,0.3-2.2s-0.1-0.7-0.2-0.9c-0.1-0.2-0.4-0.3-0.7-0.3s-0.7,0.1-1.1,0.4c-0.4,0.3-0.7,0.5-1,0.8l-0.4,0.4l-1.5,6.3
		h-2.1l2.2-9.5h2l-0.2,1.3c0.1-0.1,0.2-0.3,0.4-0.4c0.2-0.2,0.5-0.4,1-0.6C135.3,156.3,135.8,156.1,136.2,156.1z"/>
	<path fill="#254B53" d="M142.6,165.8h-2.1l3.1-13.5h2.1L144,160l0.9-0.1l2.9-3.6h2.3l-3.6,4.5l1.5,5h-2.1l-1.2-4.2l-1,0.1
		L142.6,165.8z"/>
	<path fill="#254B53" d="M150.7,165.8l2.2-9.5h2.1l-2.2,9.5H150.7z M153.2,154.9l0.5-2.2h2.1l-0.5,2.2H153.2z"/>
	<path fill="#254B53" d="M163.1,156.1c0.8,0,1.3,0.2,1.7,0.7c0.4,0.5,0.6,1,0.6,1.7c0,0.7-0.1,1.5-0.4,2.6l-1.1,4.7h-2.1l1.1-4.6
		c0.2-1.1,0.3-1.8,0.3-2.2s-0.1-0.7-0.2-0.9c-0.1-0.2-0.4-0.3-0.7-0.3s-0.7,0.1-1.1,0.4c-0.4,0.3-0.7,0.5-1,0.8l-0.4,0.4l-1.5,6.3
		h-2.1l2.2-9.5h2l-0.2,1.3c0.1-0.1,0.2-0.3,0.4-0.4c0.2-0.2,0.5-0.4,1-0.6C162.2,156.3,162.7,156.1,163.1,156.1z"/>
	<path fill="#254B53" d="M173.8,169.2c-0.8,0.7-1.9,1-3.2,1c-2.6,0-4-0.8-4-2.5c0-0.6,0.2-1.1,0.7-1.6s1-0.8,1.7-1.2
		c-0.2-0.2-0.3-0.5-0.3-0.8c0-0.3,0.1-0.6,0.3-0.9c0.2-0.3,0.4-0.5,0.5-0.7l0.3-0.3c-0.9-0.5-1.3-1.2-1.3-2.3s0.4-2,1.1-2.7
		c0.7-0.7,1.7-1.1,2.8-1.1c0.5,0,1.1,0.1,1.8,0.2l0.3,0.1l2.8-0.1l-0.4,1.7h-1.3c0.1,0.3,0.2,0.7,0.2,1.1c0,1-0.4,1.8-1.1,2.5
		c-0.7,0.7-1.7,1.1-2.9,1.1l-0.7-0.1c-0.3,0.4-0.4,0.7-0.4,0.9s0.1,0.4,0.4,0.4c0.2,0.1,0.8,0.2,1.5,0.3c0.8,0.1,1.4,0.3,1.9,0.7
		c0.5,0.3,0.7,0.9,0.7,1.6C175,167.7,174.6,168.5,173.8,169.2z M168.9,166.3c-0.3,0.3-0.4,0.6-0.4,1c0,0.3,0.2,0.6,0.5,0.9
		s0.8,0.4,1.5,0.4c0.7,0,1.3-0.1,1.8-0.4c0.5-0.3,0.8-0.7,0.8-1.3c0-0.3-0.1-0.5-0.3-0.6c-0.2-0.1-0.7-0.2-1.4-0.3
		c-0.7-0.1-1.2-0.2-1.4-0.3C169.5,165.8,169.2,166,168.9,166.3z M171.8,161.1c0.6,0,1.1-0.2,1.4-0.6c0.4-0.4,0.5-0.9,0.5-1.3
		c0-0.9-0.5-1.3-1.5-1.3c-0.6,0-1,0.2-1.4,0.6s-0.5,0.9-0.5,1.4C170.3,160.6,170.8,161.1,171.8,161.1z"/>
	<path fill="#254B53" d="M186.6,166c-0.9,0-1.5-0.3-1.9-0.8c-0.4-0.6-0.6-1.3-0.6-2.1s0.1-1.7,0.3-2.4c0.2-0.8,0.5-1.5,0.8-2.2
		c0.4-0.7,0.9-1.3,1.5-1.7s1.4-0.7,2.2-0.7c0.7,0,1.9,0.1,3.6,0.4l0.8,0.1l-1.4,6.2l-0.5,3l-2,0.1c0.1-0.9,0.2-1.5,0.3-1.7
		c-0.6,0.8-1.3,1.3-2,1.7C187.2,166,186.9,166,186.6,166z M190.8,158.2c-0.9-0.2-1.5-0.3-2.1-0.3c-0.5,0-1,0.3-1.4,0.9
		c-0.8,1.1-1.3,2.4-1.3,4.1c0,0.5,0.1,0.8,0.3,1.1c0.2,0.2,0.4,0.4,0.8,0.4c0.4,0,0.8-0.2,1.2-0.5c0.4-0.3,0.8-0.7,1.1-1l0.4-0.5
		L190.8,158.2z"/>
	<path fill="#254B53" d="M201.4,156.1c0.8,0,1.3,0.2,1.7,0.7c0.4,0.5,0.6,1,0.6,1.7c0,0.7-0.1,1.5-0.4,2.6l-1.1,4.7h-2.1l1.1-4.6
		c0.2-1.1,0.3-1.8,0.3-2.2s-0.1-0.7-0.2-0.9c-0.1-0.2-0.4-0.3-0.7-0.3s-0.7,0.1-1.1,0.4c-0.4,0.3-0.7,0.5-1,0.8l-0.4,0.4l-1.5,6.3
		h-2.1l2.2-9.5h2l-0.2,1.3c0.1-0.1,0.2-0.3,0.4-0.4c0.2-0.2,0.5-0.4,1-0.6C200.6,156.3,201,156.1,201.4,156.1z"/>
	<path fill="#254B53" d="M208.9,166c-0.8,0-1.5-0.3-1.9-0.8c-0.4-0.5-0.7-1.3-0.7-2.4s0.2-2.1,0.5-3.1c0.3-1,0.9-1.9,1.6-2.6
		s1.6-1.1,2.6-1.1c0.5,0,1.2,0.1,2,0.3l0.4,0.1l1-4.1h2.1l-3.1,13.5h-2l0.2-1.3c-0.1,0.1-0.2,0.3-0.4,0.4c-0.2,0.2-0.5,0.4-1,0.7
		C209.8,165.9,209.3,166,208.9,166z M213.1,158.2c-0.8-0.2-1.4-0.3-2-0.3s-1,0.3-1.5,0.9c-0.4,0.6-0.7,1.2-0.9,2
		c-0.2,0.8-0.3,1.5-0.3,2.2c0,0.9,0.4,1.4,1.2,1.4c0.3,0,0.6-0.1,1.1-0.4c0.4-0.3,0.8-0.6,1.1-0.9l0.4-0.4L213.1,158.2z"/>
	<path fill="#254B53" d="M229.3,156.1c0.9,0,1.5,0.3,2,0.8c0.4,0.5,0.7,1.3,0.7,2.3s-0.2,2-0.5,3.1s-0.9,1.9-1.6,2.6
		c-0.7,0.7-1.6,1.1-2.6,1.1c-0.6,0-1.3-0.1-2-0.3l-0.4-0.1l-1,4.3h-2l3.1-13.6h2l-0.3,1.3c0.1-0.1,0.2-0.3,0.4-0.4
		c0.2-0.2,0.5-0.4,1-0.7C228.4,156.3,228.9,156.1,229.3,156.1z M228.7,157.9c-0.3,0-0.6,0.1-1,0.4c-0.4,0.3-0.8,0.6-1.1,0.9
		l-0.4,0.4l-1,4.4c0.8,0.2,1.4,0.3,2,0.3c0.6,0,1-0.3,1.5-0.9c0.4-0.6,0.7-1.2,0.9-2c0.2-0.7,0.3-1.5,0.3-2.2
		C229.8,158.3,229.4,157.9,228.7,157.9z"/>
	<path fill="#254B53" d="M236.9,166c-0.9,0-1.5-0.3-1.9-0.8c-0.4-0.6-0.6-1.3-0.6-2.1s0.1-1.7,0.3-2.4c0.2-0.8,0.5-1.5,0.8-2.2
		c0.4-0.7,0.9-1.3,1.5-1.7s1.4-0.7,2.2-0.7c0.7,0,1.9,0.1,3.6,0.4l0.8,0.1l-1.4,6.2l-0.5,3l-2,0.1c0.1-0.9,0.2-1.5,0.3-1.7
		c-0.6,0.8-1.3,1.3-2,1.7C237.5,166,237.2,166,236.9,166z M241.2,158.2c-0.9-0.2-1.5-0.3-2.1-0.3c-0.5,0-1,0.3-1.4,0.9
		c-0.8,1.1-1.3,2.4-1.3,4.1c0,0.5,0.1,0.8,0.3,1.1c0.2,0.2,0.4,0.4,0.8,0.4c0.4,0,0.8-0.2,1.2-0.5c0.4-0.3,0.8-0.7,1.1-1l0.4-0.5
		L241.2,158.2z"/>
	<path fill="#254B53" d="M246.5,156.3h2l-0.1,7.8h0.4l3.7-7.8h2.1l-6.6,13.6h-2.1l2.1-4.1h-1.4L246.5,156.3z"/>
	<path fill="#254B53" d="M260.3,156.1c2.4,0,3.6,1.1,3.6,3.4c0,1.1-0.2,2.1-0.5,3.1c-0.4,1-0.9,1.8-1.7,2.4c-0.8,0.6-1.6,1-2.6,1
		c-2.3,0-3.5-1.1-3.5-3.4c0-1.1,0.2-2.1,0.6-3.1c0.4-1,0.9-1.8,1.7-2.4S259.4,156.1,260.3,156.1z M259,164.3c0.8,0,1.5-0.5,2-1.4
		c0.5-1,0.8-2.1,0.8-3.3c0-0.5-0.1-0.9-0.4-1.2c-0.3-0.3-0.6-0.4-1.1-0.4c-0.8,0-1.5,0.5-2,1.5c-0.5,1-0.8,2.1-0.8,3.3
		C257.6,163.8,258.1,164.3,259,164.3z"/>
	<path fill="#254B53" d="M268.8,166c-0.8,0-1.3-0.2-1.7-0.7c-0.4-0.5-0.6-1.1-0.6-1.9c0-0.5,0.1-1.3,0.4-2.4l1.1-4.7h2.1l-1,4.6
		c-0.2,0.9-0.3,1.6-0.3,2.1c0,0.8,0.3,1.2,1,1.2c0.3,0,0.6-0.1,1-0.4s0.7-0.5,1-0.8l0.4-0.4l1.5-6.3h2.1l-2.2,9.5h-2l0.2-1.3
		c-0.1,0.1-0.2,0.3-0.4,0.4c-0.2,0.2-0.5,0.4-1,0.6C269.6,165.9,269.2,166,268.8,166z"/>
	<path fill="#254B53" d="M279.9,163.6c0,0.5,0.2,0.7,0.7,0.7l1.4-0.1l-0.2,1.5c-0.7,0.2-1.3,0.4-2,0.4s-1.2-0.2-1.5-0.5
		c-0.4-0.4-0.5-0.8-0.5-1.4c0-0.6,0.1-1.2,0.3-2l1-4h-1.1l0.5-1.8h1.1l0.6-2.6h2.1l-0.6,2.6h2.3l-0.4,1.8h-2.3l-1,4.2
		C280,162.8,279.9,163.3,279.9,163.6z"/>
	<path fill="#254B53" d="M294.8,157.9c-0.5,0-0.9,0.1-1.2,0.4s-0.4,0.5-0.4,0.9c0,0.3,0.1,0.5,0.3,0.7c0.2,0.1,0.6,0.3,1.1,0.4
		c0.5,0.2,0.9,0.3,1.2,0.4c0.3,0.1,0.5,0.2,0.8,0.4c0.5,0.3,0.7,0.8,0.7,1.5c0,1.2-0.4,2-1.2,2.6s-1.8,0.9-3,0.9
		c-1,0-1.9-0.1-2.8-0.4l-0.4-0.1l0.4-1.5c1.2,0.2,2.2,0.3,2.9,0.3c1.4,0,2-0.5,2-1.4c0-0.2-0.1-0.4-0.3-0.5
		c-0.2-0.1-0.7-0.3-1.4-0.5s-1.3-0.4-1.7-0.8c-0.4-0.3-0.6-0.8-0.6-1.4c0-1.1,0.4-2,1.1-2.6c0.7-0.6,1.7-1,2.8-1
		c1.1,0,2,0.1,2.9,0.4l0.4,0.1l-0.4,1.5C296.6,158,295.6,157.9,294.8,157.9z"/>
	<path fill="#254B53" d="M306.3,156.1c0.9,0,1.5,0.3,2,0.8c0.4,0.5,0.7,1.3,0.7,2.3s-0.2,2-0.5,3.1s-0.9,1.9-1.6,2.6
		c-0.7,0.7-1.6,1.1-2.6,1.1c-0.6,0-1.3-0.1-2-0.3l-0.4-0.1l-1,4.3h-2l3.1-13.6h2l-0.3,1.3c0.1-0.1,0.2-0.3,0.4-0.4
		c0.2-0.2,0.5-0.4,1-0.7C305.5,156.3,305.9,156.1,306.3,156.1z M305.7,157.9c-0.3,0-0.6,0.1-1,0.4c-0.4,0.3-0.8,0.6-1.1,0.9
		l-0.4,0.4l-1,4.4c0.8,0.2,1.4,0.3,2,0.3c0.6,0,1-0.3,1.5-0.9c0.4-0.6,0.7-1.2,0.9-2c0.2-0.7,0.3-1.5,0.3-2.2
		C306.9,158.3,306.5,157.9,305.7,157.9z"/>
	<path fill="#254B53" d="M313.5,162.9c0,0.4,0.1,0.8,0.4,1c0.3,0.2,0.7,0.4,1.1,0.4c0.9,0,1.8-0.1,2.7-0.2l0.5-0.1l-0.2,1.6
		c-1.2,0.4-2.3,0.5-3.5,0.5c-2.1,0-3.1-1-3.1-3.1c0-1.8,0.4-3.4,1.2-4.7c0.4-0.7,1-1.2,1.6-1.6c0.7-0.4,1.5-0.6,2.3-0.6
		c2.1,0,3.1,0.9,3.1,2.6c0,1.2-0.4,2-1.2,2.4c-0.8,0.5-2.2,0.7-4.1,0.7h-0.8C313.5,162.1,313.5,162.5,313.5,162.9z M314.7,160.3
		c1.1,0,1.8-0.1,2.3-0.3s0.7-0.6,0.7-1.2c0-0.6-0.4-1-1.2-1c-1.3,0-2.2,0.8-2.6,2.5H314.7z"/>
	<path fill="#254B53" d="M323.8,162.9c0,0.4,0.1,0.8,0.4,1c0.3,0.2,0.7,0.4,1.1,0.4c0.9,0,1.8-0.1,2.7-0.2l0.5-0.1l-0.2,1.6
		c-1.2,0.4-2.3,0.5-3.5,0.5c-2.1,0-3.1-1-3.1-3.1c0-1.8,0.4-3.4,1.2-4.7c0.4-0.7,1-1.2,1.6-1.6c0.7-0.4,1.5-0.6,2.3-0.6
		c2.1,0,3.1,0.9,3.1,2.6c0,1.2-0.4,2-1.2,2.4c-0.8,0.5-2.2,0.7-4.1,0.7h-0.8C323.9,162.1,323.8,162.5,323.8,162.9z M325.1,160.3
		c1.1,0,1.8-0.1,2.3-0.3s0.7-0.6,0.7-1.2c0-0.6-0.4-1-1.2-1c-1.3,0-2.2,0.8-2.6,2.5H325.1z"/>
	<path fill="#254B53" d="M334.7,166c-0.8,0-1.5-0.3-1.9-0.8c-0.4-0.5-0.7-1.3-0.7-2.4s0.2-2.1,0.5-3.1c0.3-1,0.9-1.9,1.6-2.6
		s1.6-1.1,2.6-1.1c0.5,0,1.2,0.1,2,0.3l0.4,0.1l1-4.1h2.1l-3.1,13.5h-2l0.2-1.3c-0.1,0.1-0.2,0.3-0.4,0.4c-0.2,0.2-0.5,0.4-1,0.7
		C335.6,165.9,335.1,166,334.7,166z M338.9,158.2c-0.8-0.2-1.4-0.3-2-0.3s-1,0.3-1.5,0.9c-0.4,0.6-0.7,1.2-0.9,2
		c-0.2,0.8-0.3,1.5-0.3,2.2c0,0.9,0.4,1.4,1.2,1.4c0.3,0,0.6-0.1,1.1-0.4c0.4-0.3,0.8-0.6,1.1-0.9l0.4-0.4L338.9,158.2z"/>
	<path fill="#254B53" d="M174.8,265.8l-1.3-5.5l-1.6,0.1l-1.2,5.4h-2.1l3-13h2.1l-1.3,5.8l1.4-0.1l3.9-5.7h2.3l-4.6,6.5l1.6,6.5
		H174.8z"/>
	<path fill="#254B53" d="M181.9,262.9c0,0.4,0.1,0.8,0.4,1c0.3,0.2,0.7,0.4,1.1,0.4c0.9,0,1.8-0.1,2.7-0.2l0.5-0.1l-0.2,1.6
		c-1.2,0.4-2.3,0.5-3.5,0.5c-2.1,0-3.1-1-3.1-3.1c0-1.8,0.4-3.4,1.2-4.7c0.4-0.7,1-1.2,1.6-1.6c0.7-0.4,1.5-0.6,2.3-0.6
		c2.1,0,3.1,0.9,3.1,2.6c0,1.2-0.4,2-1.2,2.4c-0.8,0.5-2.2,0.7-4.1,0.7h-0.8C182,262.1,181.9,262.5,181.9,262.9z M183.2,260.3
		c1.1,0,1.8-0.1,2.3-0.3s0.7-0.6,0.7-1.2c0-0.6-0.4-1-1.2-1c-1.3,0-2.2,0.8-2.6,2.5H183.2z"/>
	<path fill="#254B53" d="M191,256.3h2l-0.1,7.8h0.4l3.7-7.8h2.1l-6.6,13.6h-2.1l2.1-4.1h-1.4L191,256.3z"/>
	<path fill="#254B53" d="M211.5,252.2c0.5,0,1,0.1,1.5,0.3l0.2,0.1l-0.4,1.5c-0.5-0.1-0.9-0.1-1.3-0.1s-0.7,0.1-0.8,0.4
		c-0.2,0.3-0.4,0.8-0.5,1.4l-0.1,0.6h2.2l-0.4,1.8h-2.2l-1.8,7.7l-1.2,4.1h-1.8l2.8-11.8h-0.9l0.4-1.8h0.9l0.1-0.6
		c0.3-1.3,0.7-2.2,1.2-2.8C209.8,252.4,210.5,252.2,211.5,252.2z"/>
	<path fill="#254B53" d="M215.4,262.9c0,0.4,0.1,0.8,0.4,1c0.3,0.2,0.7,0.4,1.1,0.4c0.9,0,1.8-0.1,2.7-0.2l0.5-0.1l-0.2,1.6
		c-1.2,0.4-2.3,0.5-3.5,0.5c-2.1,0-3.1-1-3.1-3.1c0-1.8,0.4-3.4,1.2-4.7c0.4-0.7,1-1.2,1.6-1.6c0.7-0.4,1.5-0.6,2.3-0.6
		c2.1,0,3.1,0.9,3.1,2.6c0,1.2-0.4,2-1.2,2.4c-0.8,0.5-2.2,0.7-4.1,0.7h-0.8C215.4,262.1,215.4,262.5,215.4,262.9z M216.6,260.3
		c1.1,0,1.8-0.1,2.3-0.3s0.7-0.6,0.7-1.2c0-0.6-0.4-1-1.2-1c-1.3,0-2.2,0.8-2.6,2.5H216.6z"/>
	<path fill="#254B53" d="M226.2,266c-0.9,0-1.5-0.3-1.9-0.8c-0.4-0.6-0.6-1.3-0.6-2.1s0.1-1.7,0.3-2.4c0.2-0.8,0.5-1.5,0.8-2.2
		c0.4-0.7,0.9-1.3,1.5-1.7s1.4-0.7,2.2-0.7c0.7,0,1.9,0.1,3.6,0.4l0.8,0.1l-1.4,6.2l-0.5,3l-2,0.1c0.1-0.9,0.2-1.5,0.3-1.7
		c-0.6,0.8-1.3,1.3-2,1.7C226.8,266,226.5,266,226.2,266z M230.5,258.2c-0.9-0.2-1.5-0.3-2.1-0.3c-0.5,0-1,0.3-1.4,0.9
		c-0.8,1.1-1.3,2.4-1.3,4.1c0,0.5,0.1,0.8,0.3,1.1c0.2,0.2,0.4,0.4,0.8,0.4c0.4,0,0.8-0.2,1.2-0.5c0.4-0.3,0.8-0.7,1.1-1l0.4-0.5
		L230.5,258.2z"/>
	<path fill="#254B53" d="M237.4,263.6c0,0.5,0.2,0.7,0.7,0.7l1.4-0.1l-0.2,1.5c-0.7,0.2-1.3,0.4-2,0.4s-1.2-0.2-1.5-0.5
		c-0.4-0.4-0.5-0.8-0.5-1.4c0-0.6,0.1-1.2,0.3-2l1-4h-1.1l0.5-1.8h1.1l0.6-2.6h2.1l-0.6,2.6h2.3l-0.4,1.8h-2.3l-1,4.2
		C237.5,262.8,237.4,263.3,237.4,263.6z"/>
	<path fill="#254B53" d="M244.9,266c-0.8,0-1.3-0.2-1.7-0.7c-0.4-0.5-0.6-1.1-0.6-1.9c0-0.5,0.1-1.3,0.4-2.4l1.1-4.7h2.1l-1,4.6
		c-0.2,0.9-0.3,1.6-0.3,2.1c0,0.8,0.3,1.2,1,1.2c0.3,0,0.6-0.1,1-0.4s0.7-0.5,1-0.8l0.4-0.4l1.5-6.3h2.1l-2.2,9.5h-2l0.2-1.3
		c-0.1,0.1-0.2,0.3-0.4,0.4c-0.2,0.2-0.5,0.4-1,0.6C245.8,265.9,245.3,266,244.9,266z"/>
	<path fill="#254B53" d="M253,265.8l2.2-9.5h2l-0.3,1.4c0.4-0.3,1-0.7,1.6-1c0.6-0.3,1.1-0.5,1.6-0.6l-0.6,2.1
		c-0.6,0.2-1.4,0.5-2.5,1l-0.5,0.2l-1.5,6.3H253z"/>
	<path fill="#254B53" d="M263.1,262.9c0,0.4,0.1,0.8,0.4,1c0.3,0.2,0.7,0.4,1.1,0.4c0.9,0,1.8-0.1,2.7-0.2l0.5-0.1l-0.2,1.6
		c-1.2,0.4-2.3,0.5-3.5,0.5c-2.1,0-3.1-1-3.1-3.1c0-1.8,0.4-3.4,1.2-4.7c0.4-0.7,1-1.2,1.6-1.6c0.7-0.4,1.5-0.6,2.3-0.6
		c2.1,0,3.1,0.9,3.1,2.6c0,1.2-0.4,2-1.2,2.4c-0.8,0.5-2.2,0.7-4.1,0.7h-0.8C263.1,262.1,263.1,262.5,263.1,262.9z M264.4,260.3
		c1.1,0,1.8-0.1,2.3-0.3s0.7-0.6,0.7-1.2c0-0.6-0.4-1-1.2-1c-1.3,0-2.2,0.8-2.6,2.5H264.4z"/>
	<path fill="#254B53" d="M275.6,257.9c-0.5,0-0.9,0.1-1.2,0.4s-0.4,0.5-0.4,0.9c0,0.3,0.1,0.5,0.3,0.7c0.2,0.1,0.6,0.3,1.1,0.4
		c0.5,0.2,0.9,0.3,1.2,0.4c0.3,0.1,0.5,0.2,0.8,0.4c0.5,0.3,0.7,0.8,0.7,1.5c0,1.2-0.4,2-1.2,2.6s-1.8,0.9-3,0.9
		c-1,0-1.9-0.1-2.8-0.4l-0.4-0.1l0.4-1.5c1.2,0.2,2.2,0.3,2.9,0.3c1.4,0,2-0.5,2-1.4c0-0.2-0.1-0.4-0.3-0.5
		c-0.2-0.1-0.7-0.3-1.4-0.5s-1.3-0.4-1.7-0.8c-0.4-0.3-0.6-0.8-0.6-1.4c0-1.1,0.4-2,1.1-2.6c0.7-0.6,1.7-1,2.8-1
		c1.1,0,2,0.1,2.9,0.4l0.4,0.1l-0.4,1.5C277.5,258,276.4,257.9,275.6,257.9z"/>
	<path fill="#254B53" d="M153.7,354.8c-1.4-0.2-2.5-0.3-3.3-0.3c-0.8,0-1.4,0.2-1.8,0.6s-0.6,0.9-0.6,1.6c0,0.4,0.1,0.8,0.4,1
		s0.8,0.5,1.8,0.9c0.9,0.4,1.6,0.8,2,1.2c0.4,0.4,0.5,1.1,0.5,1.9c0,1.4-0.4,2.5-1.3,3.3c-0.9,0.8-2,1.2-3.5,1.2
		c-0.6,0-1.2-0.1-1.8-0.2c-0.6-0.1-1.1-0.2-1.5-0.3l-0.6-0.2l0.3-1.5c1.5,0.2,2.6,0.4,3.6,0.4c1.8,0,2.6-0.8,2.6-2.4
		c0-0.4-0.1-0.8-0.4-1c-0.2-0.2-0.8-0.5-1.7-0.9c-0.9-0.4-1.6-0.8-2-1.2c-0.4-0.5-0.6-1.1-0.6-1.9c0-1.3,0.4-2.3,1.2-3
		c0.8-0.8,1.9-1.2,3.3-1.2c0.6,0,1.2,0.1,1.8,0.2c0.6,0.1,1.1,0.2,1.5,0.3l0.5,0.2L153.7,354.8z"/>
	<path fill="#254B53" d="M157.5,362.9c0,0.4,0.1,0.8,0.4,1c0.3,0.2,0.7,0.4,1.1,0.4c0.9,0,1.8-0.1,2.7-0.2l0.5-0.1l-0.2,1.6
		c-1.2,0.4-2.3,0.5-3.5,0.5c-2.1,0-3.1-1-3.1-3.1c0-1.8,0.4-3.3,1.2-4.7c0.4-0.7,1-1.2,1.6-1.6c0.7-0.4,1.5-0.6,2.3-0.6
		c2.1,0,3.1,0.9,3.1,2.6c0,1.2-0.4,2-1.2,2.4c-0.8,0.5-2.2,0.7-4.1,0.7h-0.8C157.5,362.1,157.5,362.5,157.5,362.9z M158.7,360.3
		c1.1,0,1.8-0.1,2.3-0.3c0.4-0.2,0.7-0.6,0.7-1.2c0-0.6-0.4-0.9-1.2-0.9c-1.3,0-2.2,0.8-2.6,2.5H158.7z"/>
	<path fill="#254B53" d="M170.8,356.1c0.7,0,1.5,0.1,2.2,0.4l0.4,0.1l-0.5,1.5c-0.9-0.2-1.6-0.2-2.2-0.2c-0.9,0-1.6,0.5-2.1,1.4
		c-0.5,0.9-0.7,2-0.7,3.2c0,1.2,0.6,1.8,1.7,1.8c0.5,0,1.1-0.1,1.7-0.2l0.3-0.1l-0.2,1.6c-0.9,0.3-1.8,0.4-2.7,0.4s-1.6-0.3-2.2-0.8
		c-0.5-0.5-0.8-1.3-0.8-2.3c0-2,0.4-3.6,1.3-4.9C167.9,356.8,169.2,356.1,170.8,356.1z"/>
	<path fill="#254B53" d="M177.3,366c-0.8,0-1.3-0.2-1.7-0.7c-0.4-0.5-0.6-1.1-0.6-1.9c0-0.5,0.1-1.3,0.4-2.4l1.1-4.7h2.1l-1,4.6
		c-0.2,0.9-0.3,1.6-0.3,2.1c0,0.8,0.3,1.2,1,1.2c0.3,0,0.6-0.1,1-0.4c0.4-0.3,0.7-0.5,1-0.8l0.4-0.4l1.5-6.3h2.1l-2.2,9.5h-2
		l0.2-1.3c-0.1,0.1-0.2,0.3-0.4,0.4c-0.2,0.2-0.5,0.4-1,0.6C178.2,365.9,177.8,366,177.3,366z"/>
	<path fill="#254B53" d="M185.5,365.8l2.2-9.5h2l-0.3,1.4c0.4-0.3,1-0.7,1.6-1s1.1-0.5,1.6-0.6l-0.6,2.1c-0.6,0.2-1.4,0.5-2.5,1
		l-0.5,0.2l-1.5,6.3H185.5z"/>
	<path fill="#254B53" d="M193.1,365.8l2.2-9.5h2.1l-2.2,9.5H193.1z M195.6,354.9l0.5-2.2h2.1l-0.5,2.2H195.6z"/>
	<path fill="#254B53" d="M201.8,363.6c0,0.5,0.2,0.7,0.7,0.7l1.4-0.1l-0.2,1.5c-0.7,0.2-1.3,0.4-2,0.4s-1.2-0.2-1.5-0.5
		c-0.4-0.4-0.5-0.8-0.5-1.4s0.1-1.2,0.3-2l1-4h-1.1l0.5-1.8h1.1l0.6-2.6h2.1l-0.6,2.6h2.3l-0.4,1.8H203l-1,4.2
		C201.9,362.8,201.8,363.3,201.8,363.6z"/>
	<path fill="#254B53" d="M207.8,356.3h2l-0.1,7.8h0.4l3.7-7.8h2.1l-6.6,13.6h-2.1l2.1-4.1h-1.4L207.8,356.3z"/>
	<path fill="#254B53" d="M225.2,366c-0.9,0-1.5-0.3-1.9-0.8c-0.4-0.6-0.6-1.3-0.6-2.1c0-0.9,0.1-1.7,0.3-2.4
		c0.2-0.8,0.5-1.5,0.8-2.2c0.4-0.7,0.9-1.3,1.5-1.7c0.6-0.4,1.4-0.7,2.2-0.7c0.7,0,1.9,0.1,3.6,0.4l0.8,0.1l-1.4,6.2l-0.5,3l-2,0.1
		c0.1-0.9,0.2-1.5,0.3-1.7c-0.6,0.8-1.3,1.3-2,1.7C225.8,366,225.5,366,225.2,366z M229.5,358.2c-0.9-0.2-1.5-0.3-2.1-0.3
		c-0.5,0-1,0.3-1.4,0.9c-0.8,1.1-1.3,2.4-1.3,4.1c0,0.5,0.1,0.8,0.3,1.1s0.4,0.4,0.8,0.4c0.4,0,0.8-0.2,1.2-0.5
		c0.4-0.3,0.8-0.7,1.1-1l0.4-0.5L229.5,358.2z"/>
	<path fill="#254B53" d="M240.1,356.1c0.8,0,1.3,0.2,1.7,0.7c0.4,0.5,0.6,1,0.6,1.7s-0.1,1.5-0.4,2.6l-1.1,4.7h-2.1l1.1-4.6
		c0.2-1.1,0.3-1.8,0.3-2.2s-0.1-0.7-0.2-0.9c-0.1-0.2-0.4-0.3-0.7-0.3s-0.7,0.1-1.1,0.4s-0.7,0.5-1,0.8l-0.4,0.4l-1.5,6.3h-2.1
		l2.2-9.5h2l-0.2,1.3c0.1-0.1,0.2-0.3,0.4-0.4c0.2-0.2,0.5-0.4,1-0.6C239.2,356.3,239.7,356.1,240.1,356.1z"/>
	<path fill="#254B53" d="M247.5,366c-0.8,0-1.5-0.3-1.9-0.8c-0.4-0.5-0.7-1.3-0.7-2.4s0.2-2.1,0.5-3.1s0.9-1.9,1.6-2.6
		c0.7-0.7,1.6-1.1,2.6-1.1c0.5,0,1.2,0.1,2,0.3l0.4,0.1l1-4.1h2.1l-3.1,13.5h-2l0.2-1.3c-0.1,0.1-0.2,0.3-0.4,0.4
		c-0.2,0.2-0.5,0.4-1,0.7C248.4,365.9,248,366,247.5,366z M251.7,358.2c-0.8-0.2-1.4-0.3-2-0.3s-1,0.3-1.5,0.9
		c-0.4,0.6-0.7,1.2-0.9,2c-0.2,0.8-0.3,1.5-0.3,2.2c0,0.9,0.4,1.4,1.2,1.4c0.3,0,0.6-0.1,1.1-0.4c0.4-0.3,0.8-0.6,1.1-0.9l0.4-0.4
		L251.7,358.2z"/>
	<path fill="#254B53" d="M264.3,363.6c0,0.5,0.2,0.7,0.7,0.7l1.4-0.1l-0.2,1.5c-0.7,0.2-1.3,0.4-2,0.4s-1.2-0.2-1.5-0.5
		c-0.4-0.4-0.5-0.8-0.5-1.4s0.1-1.2,0.3-2l1-4h-1.1l0.5-1.8h1.1l0.6-2.6h2.1l-0.6,2.6h2.3l-0.4,1.8h-2.3l-1,4.2
		C264.3,362.8,264.3,363.3,264.3,363.6z"/>
	<path fill="#254B53" d="M268.9,365.8l2.2-9.5h2l-0.3,1.4c0.4-0.3,1-0.7,1.6-1s1.1-0.5,1.6-0.6l-0.6,2.1c-0.6,0.2-1.4,0.5-2.5,1
		l-0.5,0.2l-1.5,6.3H268.9z"/>
	<path fill="#254B53" d="M279.4,366c-0.8,0-1.3-0.2-1.7-0.7c-0.4-0.5-0.6-1.1-0.6-1.9c0-0.5,0.1-1.3,0.4-2.4l1.1-4.7h2.1l-1,4.6
		c-0.2,0.9-0.3,1.6-0.3,2.1c0,0.8,0.3,1.2,1,1.2c0.3,0,0.6-0.1,1-0.4c0.4-0.3,0.7-0.5,1-0.8l0.4-0.4l1.5-6.3h2.1l-2.2,9.5h-2
		l0.2-1.3c-0.1,0.1-0.2,0.3-0.4,0.4c-0.2,0.2-0.5,0.4-1,0.6C280.3,365.9,279.8,366,279.4,366z"/>
	<path fill="#254B53" d="M292.2,357.9c-0.5,0-0.9,0.1-1.2,0.4c-0.3,0.3-0.4,0.5-0.4,0.9s0.1,0.5,0.3,0.7c0.2,0.1,0.6,0.3,1.1,0.4
		c0.5,0.2,0.9,0.3,1.2,0.4s0.5,0.2,0.8,0.4c0.5,0.3,0.7,0.8,0.7,1.5c0,1.2-0.4,2-1.2,2.6s-1.8,0.9-3,0.9c-1,0-1.9-0.1-2.8-0.4
		l-0.4-0.1l0.4-1.5c1.2,0.2,2.2,0.3,2.9,0.3c1.4,0,2-0.5,2-1.4c0-0.2-0.1-0.4-0.3-0.5c-0.2-0.1-0.7-0.3-1.4-0.5
		c-0.7-0.2-1.3-0.4-1.7-0.8s-0.6-0.8-0.6-1.4c0-1.1,0.4-2,1.1-2.6c0.7-0.6,1.7-1,2.8-1c1.1,0,2,0.1,2.9,0.4l0.4,0.1l-0.4,1.5
		C294.1,358,293,357.9,292.2,357.9z"/>
	<path fill="#254B53" d="M300.1,363.6c0,0.5,0.2,0.7,0.7,0.7l1.4-0.1l-0.2,1.5c-0.7,0.2-1.3,0.4-2,0.4s-1.2-0.2-1.5-0.5
		c-0.4-0.4-0.5-0.8-0.5-1.4s0.1-1.2,0.3-2l1-4h-1.1l0.5-1.8h1.1l0.6-2.6h2.1l-0.6,2.6h2.3l-0.4,1.8h-2.3l-1,4.2
		C300.2,362.8,300.1,363.3,300.1,363.6z"/>
	<path fill="#254B53" d="M149.8,466c-2.5,0-3.8-1.2-3.8-3.7c0-1.8,0.3-3.6,1-5.1c0.3-0.9,0.8-1.6,1.3-2.3c0.5-0.7,1.1-1.2,1.9-1.6
		c0.8-0.4,1.6-0.6,2.5-0.6c0.8,0,1.8,0.1,2.7,0.4l0.5,0.1l-0.5,1.6c-0.9-0.2-1.8-0.3-2.7-0.3s-1.8,0.4-2.5,1.2
		c-0.7,0.8-1.2,1.8-1.5,2.9c-0.3,1.2-0.5,2.4-0.5,3.6c0,1.4,0.6,2.1,1.9,2.1c0.8,0,1.7-0.1,2.6-0.2l0.4-0.1l-0.2,1.7
		C151.8,465.9,150.7,466,149.8,466z"/>
	<path fill="#254B53" d="M158.7,466c-0.8,0-1.3-0.2-1.7-0.7c-0.4-0.5-0.6-1.1-0.6-1.9c0-0.5,0.1-1.3,0.4-2.4l1.1-4.7h2.1l-1,4.6
		c-0.2,0.9-0.3,1.6-0.3,2.1c0,0.8,0.3,1.2,1,1.2c0.3,0,0.6-0.1,1-0.4c0.4-0.3,0.7-0.5,1-0.8l0.4-0.4l1.5-6.3h2.1l-2.2,9.5h-2
		l0.2-1.3c-0.1,0.1-0.2,0.3-0.4,0.4c-0.2,0.2-0.5,0.4-1,0.6C159.6,465.9,159.1,466,158.7,466z"/>
	<path fill="#254B53" d="M171.5,457.9c-0.5,0-0.9,0.1-1.2,0.4c-0.3,0.3-0.4,0.5-0.4,0.9s0.1,0.5,0.3,0.7c0.2,0.1,0.6,0.3,1.1,0.4
		c0.5,0.2,0.9,0.3,1.2,0.4s0.5,0.2,0.8,0.4c0.5,0.3,0.7,0.8,0.7,1.5c0,1.2-0.4,2-1.2,2.6s-1.8,0.9-3,0.9c-1,0-1.9-0.1-2.8-0.4
		l-0.4-0.1l0.4-1.5c1.2,0.2,2.2,0.3,2.9,0.3c1.4,0,2-0.5,2-1.4c0-0.2-0.1-0.4-0.3-0.5c-0.2-0.1-0.7-0.3-1.4-0.5
		c-0.7-0.2-1.3-0.4-1.7-0.8s-0.6-0.8-0.6-1.4c0-1.1,0.4-2,1.1-2.6c0.7-0.6,1.7-1,2.8-1c1.1,0,2,0.1,2.9,0.4l0.4,0.1l-0.4,1.5
		C173.4,458,172.4,457.9,171.5,457.9z"/>
	<path fill="#254B53" d="M179.5,463.6c0,0.5,0.2,0.7,0.7,0.7l1.4-0.1l-0.2,1.5c-0.7,0.2-1.3,0.4-2,0.4s-1.2-0.2-1.5-0.5
		c-0.4-0.4-0.5-0.8-0.5-1.4s0.1-1.2,0.3-2l1-4h-1.1l0.5-1.8h1.1l0.6-2.6h2.1l-0.6,2.6h2.3l-0.4,1.8h-2.3l-1,4.2
		C179.5,462.8,179.5,463.3,179.5,463.6z"/>
	<path fill="#254B53" d="M189.3,456.1c2.4,0,3.6,1.1,3.6,3.4c0,1.1-0.2,2.1-0.5,3.1s-0.9,1.8-1.7,2.4c-0.8,0.6-1.6,1-2.6,1
		c-2.3,0-3.5-1.1-3.5-3.4c0-1.1,0.2-2.1,0.6-3.1c0.4-1,0.9-1.8,1.7-2.4C187.5,456.5,188.4,456.1,189.3,456.1z M188,464.3
		c0.8,0,1.5-0.5,2-1.4c0.5-1,0.8-2.1,0.8-3.3c0-0.5-0.1-0.9-0.4-1.2c-0.3-0.3-0.6-0.4-1.1-0.4c-0.8,0-1.5,0.5-2,1.5
		c-0.5,1-0.8,2.1-0.8,3.3C186.6,463.8,187.1,464.3,188,464.3z"/>
	<path fill="#254B53" d="M201.7,459.1c0-0.8-0.3-1.2-1-1.2c-0.3,0-0.6,0.1-1,0.4s-0.7,0.5-1,0.8l-0.4,0.4l-1.5,6.3h-2.1l2.2-9.5h2
		l-0.2,1.2c0,0,0.1-0.1,0.1-0.2s0.2-0.2,0.4-0.4s0.4-0.3,0.6-0.4c0.5-0.3,1.1-0.5,1.6-0.5s1,0.1,1.3,0.4s0.5,0.5,0.6,0.8l0.1,0.4
		c0.1-0.1,0.3-0.3,0.5-0.4c0.2-0.2,0.6-0.4,1.1-0.7s1-0.4,1.5-0.4c0.8,0,1.3,0.2,1.7,0.7c0.4,0.5,0.6,1,0.6,1.6
		c0,0.6-0.1,1.5-0.4,2.7l-1.1,4.7h-2.1l1.1-4.6c0.2-1.1,0.3-1.7,0.3-2.1c0-0.9-0.3-1.3-1-1.3c-0.3,0-0.6,0.1-0.9,0.3
		c-0.4,0.2-0.7,0.5-0.9,0.7l-0.3,0.3c-0.1,0.7-0.2,1.3-0.3,1.8l-1.1,4.7h-2.1l1.1-4.6C201.5,460.2,201.7,459.5,201.7,459.1z"/>
	<path fill="#254B53" d="M213.6,462.9c0,0.4,0.1,0.8,0.4,1c0.3,0.2,0.7,0.4,1.1,0.4c0.9,0,1.8-0.1,2.7-0.2l0.5-0.1l-0.2,1.6
		c-1.2,0.4-2.3,0.5-3.5,0.5c-2.1,0-3.1-1-3.1-3.1c0-1.8,0.4-3.3,1.2-4.7c0.4-0.7,1-1.2,1.6-1.6c0.7-0.4,1.5-0.6,2.3-0.6
		c2.1,0,3.1,0.9,3.1,2.6c0,1.2-0.4,2-1.2,2.4c-0.8,0.5-2.2,0.7-4.1,0.7h-0.8C213.6,462.1,213.6,462.5,213.6,462.9z M214.8,460.3
		c1.1,0,1.8-0.1,2.3-0.3c0.4-0.2,0.7-0.6,0.7-1.2c0-0.6-0.4-0.9-1.2-0.9c-1.3,0-2.2,0.8-2.6,2.5H214.8z"/>
	<path fill="#254B53" d="M221.4,465.8l2.2-9.5h2l-0.3,1.4c0.4-0.3,1-0.7,1.6-1s1.1-0.5,1.6-0.6l-0.6,2.1c-0.6,0.2-1.4,0.5-2.5,1
		l-0.5,0.2l-1.5,6.3H221.4z"/>
	<path fill="#254B53" d="M239.3,457.9c-0.5,0-0.9,0.1-1.2,0.4c-0.3,0.3-0.4,0.5-0.4,0.9s0.1,0.5,0.3,0.7c0.2,0.1,0.6,0.3,1.1,0.4
		c0.5,0.2,0.9,0.3,1.2,0.4s0.5,0.2,0.8,0.4c0.5,0.3,0.7,0.8,0.7,1.5c0,1.2-0.4,2-1.2,2.6s-1.8,0.9-3,0.9c-1,0-1.9-0.1-2.8-0.4
		l-0.4-0.1l0.4-1.5c1.2,0.2,2.2,0.3,2.9,0.3c1.4,0,2-0.5,2-1.4c0-0.2-0.1-0.4-0.3-0.5c-0.2-0.1-0.7-0.3-1.4-0.5
		c-0.7-0.2-1.3-0.4-1.7-0.8s-0.6-0.8-0.6-1.4c0-1.1,0.4-2,1.1-2.6c0.7-0.6,1.7-1,2.8-1c1.1,0,2,0.1,2.9,0.4l0.4,0.1l-0.4,1.5
		C241.1,458,240.1,457.9,239.3,457.9z"/>
	<path fill="#254B53" d="M247.1,466c-0.8,0-1.3-0.2-1.7-0.7c-0.4-0.5-0.6-1.1-0.6-1.9c0-0.5,0.1-1.3,0.4-2.4l1.1-4.7h2.1l-1,4.6
		c-0.2,0.9-0.3,1.6-0.3,2.1c0,0.8,0.3,1.2,1,1.2c0.3,0,0.6-0.1,1-0.4c0.4-0.3,0.7-0.5,1-0.8l0.4-0.4l1.5-6.3h2.1l-2.2,9.5h-2
		l0.2-1.3c-0.1,0.1-0.2,0.3-0.4,0.4c-0.2,0.2-0.5,0.4-1,0.6C248,465.9,247.5,466,247.1,466z"/>
	<path fill="#254B53" d="M261.9,456.1c0.9,0,1.5,0.3,2,0.8c0.4,0.5,0.7,1.3,0.7,2.3c0,1-0.2,2-0.5,3.1s-0.9,1.9-1.6,2.6
		c-0.7,0.7-1.6,1.1-2.6,1.1c-0.6,0-1.3-0.1-2-0.3l-0.4-0.1l-1,4.3h-2l3.1-13.6h2l-0.3,1.3c0.1-0.1,0.2-0.3,0.4-0.4
		c0.2-0.2,0.5-0.4,1-0.7C261,456.3,261.5,456.1,261.9,456.1z M261.2,457.9c-0.3,0-0.6,0.1-1,0.4c-0.4,0.3-0.8,0.6-1.1,0.9l-0.4,0.4
		l-1,4.4c0.8,0.2,1.4,0.3,2,0.3c0.6,0,1-0.3,1.5-0.9c0.4-0.6,0.7-1.2,0.9-2c0.2-0.7,0.3-1.5,0.3-2.2
		C262.4,458.3,262,457.9,261.2,457.9z"/>
	<path fill="#254B53" d="M273.1,456.1c0.9,0,1.5,0.3,2,0.8c0.4,0.5,0.7,1.3,0.7,2.3c0,1-0.2,2-0.5,3.1s-0.9,1.9-1.6,2.6
		c-0.7,0.7-1.6,1.1-2.6,1.1c-0.6,0-1.3-0.1-2-0.3l-0.4-0.1l-1,4.3h-2l3.1-13.6h2l-0.3,1.3c0.1-0.1,0.2-0.3,0.4-0.4
		c0.2-0.2,0.5-0.4,1-0.7C272.2,456.3,272.7,456.1,273.1,456.1z M272.5,457.9c-0.3,0-0.6,0.1-1,0.4c-0.4,0.3-0.8,0.6-1.1,0.9
		l-0.4,0.4l-1,4.4c0.8,0.2,1.4,0.3,2,0.3c0.6,0,1-0.3,1.5-0.9c0.4-0.6,0.7-1.2,0.9-2c0.2-0.7,0.3-1.5,0.3-2.2
		C273.6,458.3,273.2,457.9,272.5,457.9z"/>
	<path fill="#254B53" d="M282.9,456.1c2.4,0,3.6,1.1,3.6,3.4c0,1.1-0.2,2.1-0.5,3.1s-0.9,1.8-1.7,2.4c-0.8,0.6-1.6,1-2.6,1
		c-2.3,0-3.5-1.1-3.5-3.4c0-1.1,0.2-2.1,0.6-3.1c0.4-1,0.9-1.8,1.7-2.4C281.2,456.5,282,456.1,282.9,456.1z M281.7,464.3
		c0.8,0,1.5-0.5,2-1.4c0.5-1,0.8-2.1,0.8-3.3c0-0.5-0.1-0.9-0.4-1.2c-0.3-0.3-0.6-0.4-1.1-0.4c-0.8,0-1.5,0.5-2,1.5
		c-0.5,1-0.8,2.1-0.8,3.3C280.2,463.8,280.7,464.3,281.7,464.3z"/>
	<path fill="#254B53" d="M288.5,465.8l2.2-9.5h2l-0.3,1.4c0.4-0.3,1-0.7,1.6-1s1.1-0.5,1.6-0.6l-0.6,2.1c-0.6,0.2-1.4,0.5-2.5,1
		l-0.5,0.2l-1.5,6.3H288.5z"/>
	<path fill="#254B53" d="M299.1,463.6c0,0.5,0.2,0.7,0.7,0.7l1.4-0.1l-0.2,1.5c-0.7,0.2-1.3,0.4-2,0.4s-1.2-0.2-1.5-0.5
		c-0.4-0.4-0.5-0.8-0.5-1.4s0.1-1.2,0.3-2l1-4h-1.1l0.5-1.8h1.1l0.6-2.6h2.1l-0.6,2.6h2.3l-0.4,1.8h-2.3l-1,4.2
		C299.2,462.8,299.1,463.3,299.1,463.6z"/>
</g>
<g>
	<path fill="#254B53" d="M107.6,613.5c-1,0.7-2.1,1.1-3.5,1.1s-2.4-0.3-3.1-1c-0.7-0.6-1-1.6-1-3c0-1.6,0.3-3.2,0.8-4.7
		c0.5-1.5,1.3-2.6,2.2-3.5c1-0.9,2.2-1.3,3.6-1.3c2.8,0,4.1,1.3,4.1,3.9c0,1.7-0.3,3.3-0.8,4.9C109.4,611.5,108.6,612.7,107.6,613.5
		z M102.2,610.2c0,1,0.2,1.7,0.5,2c0.3,0.3,0.9,0.5,1.6,0.5s1.4-0.2,1.9-0.7c0.7-0.6,1.3-1.6,1.7-2.9s0.6-2.6,0.6-3.9
		c0-0.8-0.2-1.4-0.5-1.7c-0.3-0.4-0.9-0.5-1.6-0.5c-0.8,0-1.4,0.2-1.8,0.6c-0.7,0.7-1.3,1.7-1.7,3S102.2,609.2,102.2,610.2z"/>
	<path fill="#254B53" d="M113.7,604.9h2l-0.1,7.8h0.5l3.6-7.8h2.1l-4.6,9.5h-3.4L113.7,604.9z"/>
	<path fill="#254B53" d="M124.8,611.5c0,0.4,0.1,0.8,0.4,1c0.3,0.2,0.7,0.4,1.1,0.4c0.9,0,1.8-0.1,2.7-0.2l0.5-0.1l-0.2,1.6
		c-1.2,0.4-2.3,0.5-3.5,0.5c-2.1,0-3.1-1-3.1-3.1c0-1.8,0.4-3.4,1.2-4.7c0.4-0.7,1-1.2,1.6-1.6c0.7-0.4,1.5-0.6,2.3-0.6
		c2.1,0,3.1,0.9,3.1,2.6c0,1.2-0.4,2-1.2,2.4c-0.8,0.5-2.2,0.7-4.1,0.7h-0.8C124.8,610.7,124.8,611.1,124.8,611.5z M126.1,608.9
		c1.1,0,1.8-0.1,2.3-0.3c0.4-0.2,0.7-0.6,0.7-1.2c0-0.6-0.4-1-1.2-1c-1.3,0-2.2,0.8-2.6,2.5H126.1z"/>
	<path fill="#254B53" d="M132.6,614.4l2.2-9.5h2l-0.3,1.4c0.4-0.3,1-0.7,1.6-1c0.6-0.3,1.1-0.5,1.6-0.6l-0.6,2.1
		c-0.6,0.2-1.4,0.5-2.5,1l-0.5,0.2l-1.5,6.3H132.6z"/>
	<path fill="#254B53" d="M143.1,614.6c-0.9,0-1.5-0.3-1.9-0.8s-0.6-1.3-0.6-2.1c0-0.9,0.1-1.7,0.3-2.4c0.2-0.8,0.5-1.5,0.8-2.2
		c0.4-0.7,0.9-1.3,1.5-1.7c0.6-0.4,1.4-0.7,2.2-0.7c0.7,0,1.9,0.1,3.6,0.4l0.8,0.1l-1.4,6.2l-0.5,3l-2,0.1c0.1-0.9,0.2-1.5,0.3-1.7
		c-0.6,0.8-1.3,1.3-2,1.7C143.7,614.6,143.4,614.6,143.1,614.6z M147.4,606.8c-0.9-0.2-1.5-0.3-2.1-0.3c-0.5,0-1,0.3-1.4,0.9
		c-0.8,1.1-1.3,2.4-1.3,4.1c0,0.5,0.1,0.8,0.3,1.1c0.2,0.2,0.4,0.4,0.8,0.4c0.4,0,0.8-0.2,1.2-0.5s0.8-0.7,1.1-1l0.4-0.5
		L147.4,606.8z"/>
	<path fill="#254B53" d="M151.4,614.4l3.1-13.5h2.1l-3.1,13.5H151.4z"/>
	<path fill="#254B53" d="M157.2,614.4l3.1-13.5h2.1l-3.1,13.5H157.2z"/>
	<path fill="#254B53" d="M175.6,601.4c1.3,0,2.2,0.3,2.8,0.8c0.6,0.5,0.9,1.4,0.9,2.7c0,1.2-0.3,2.3-0.9,3.1
		c-0.6,0.8-1.3,1.4-2.2,1.7l1.2,4.8h-2.1l-1.1-4.5h-2.4l-1,4.5h-2.1l3-13H175.6z M176.5,607.2c0.5-0.6,0.7-1.3,0.7-2.1
		s-0.1-1.3-0.4-1.5c-0.3-0.3-0.7-0.4-1.3-0.4h-2l-1.1,4.9h2.2C175.3,608.1,176,607.8,176.5,607.2z"/>
	<path fill="#254B53" d="M183.7,614.6c-0.9,0-1.5-0.3-1.9-0.8s-0.6-1.3-0.6-2.1c0-0.9,0.1-1.7,0.3-2.4c0.2-0.8,0.5-1.5,0.8-2.2
		c0.4-0.7,0.9-1.3,1.5-1.7c0.6-0.4,1.4-0.7,2.2-0.7c0.7,0,1.9,0.1,3.6,0.4l0.8,0.1l-1.4,6.2l-0.5,3l-2,0.1c0.1-0.9,0.2-1.5,0.3-1.7
		c-0.6,0.8-1.3,1.3-2,1.7C184.3,614.6,184,614.6,183.7,614.6z M187.9,606.8c-0.9-0.2-1.5-0.3-2.1-0.3c-0.5,0-1,0.3-1.4,0.9
		c-0.8,1.1-1.3,2.4-1.3,4.1c0,0.5,0.1,0.8,0.3,1.1c0.2,0.2,0.4,0.4,0.8,0.4c0.4,0,0.8-0.2,1.2-0.5s0.8-0.7,1.1-1l0.4-0.5
		L187.9,606.8z"/>
	<path fill="#254B53" d="M194.9,612.2c0,0.5,0.2,0.7,0.7,0.7l1.4-0.1l-0.2,1.5c-0.7,0.2-1.3,0.4-2,0.4s-1.2-0.2-1.5-0.5
		c-0.4-0.4-0.5-0.8-0.5-1.4s0.1-1.2,0.3-2l1-4h-1.1l0.5-1.8h1.1l0.6-2.6h2.1l-0.6,2.6h2.3l-0.4,1.8H196l-1,4.2
		C194.9,611.4,194.9,611.9,194.9,612.2z"/>
	<path fill="#254B53" d="M199.5,614.4l2.2-9.5h2.1l-2.2,9.5H199.5z M202,603.5l0.5-2.2h2.1l-0.5,2.2H202z"/>
	<path fill="#254B53" d="M211.9,604.7c0.8,0,1.3,0.2,1.7,0.7c0.4,0.5,0.6,1,0.6,1.7c0,0.7-0.1,1.5-0.4,2.6l-1.1,4.7h-2.1l1.1-4.6
		c0.2-1.1,0.3-1.8,0.3-2.2s-0.1-0.7-0.2-0.9c-0.1-0.2-0.4-0.3-0.7-0.3s-0.7,0.1-1.1,0.4c-0.4,0.3-0.7,0.5-1,0.8l-0.4,0.4l-1.5,6.3
		h-2.1l2.2-9.5h2l-0.2,1.3c0.1-0.1,0.2-0.3,0.4-0.4c0.2-0.2,0.5-0.4,1-0.6C211,604.9,211.4,604.7,211.9,604.7z"/>
	<path fill="#254B53" d="M222.6,617.8c-0.8,0.7-1.9,1-3.2,1c-2.6,0-4-0.8-4-2.5c0-0.6,0.2-1.1,0.7-1.6s1-0.8,1.7-1.2
		c-0.2-0.2-0.3-0.5-0.3-0.8s0.1-0.6,0.3-0.9s0.4-0.5,0.5-0.7l0.3-0.3c-0.9-0.5-1.3-1.2-1.3-2.3c0-1.1,0.4-2,1.1-2.7
		c0.7-0.7,1.7-1.1,2.8-1.1c0.5,0,1.1,0.1,1.8,0.2l0.3,0.1l2.8-0.1l-0.4,1.7h-1.3c0.1,0.3,0.2,0.7,0.2,1.1c0,1-0.4,1.8-1.1,2.5
		c-0.7,0.7-1.7,1.1-2.9,1.1l-0.7-0.1c-0.3,0.4-0.4,0.7-0.4,0.9c0,0.2,0.1,0.4,0.4,0.4s0.8,0.2,1.5,0.3c0.8,0.1,1.4,0.3,1.9,0.7
		c0.5,0.3,0.7,0.9,0.7,1.6C223.8,616.3,223.4,617.1,222.6,617.8z M217.7,614.9c-0.3,0.3-0.4,0.6-0.4,1c0,0.3,0.2,0.6,0.5,0.9
		c0.3,0.2,0.8,0.4,1.5,0.4c0.7,0,1.3-0.1,1.8-0.4c0.5-0.3,0.8-0.7,0.8-1.3c0-0.3-0.1-0.5-0.3-0.6c-0.2-0.1-0.7-0.2-1.4-0.3
		c-0.7-0.1-1.2-0.2-1.4-0.3C218.3,614.4,218,614.6,217.7,614.9z M220.6,609.7c0.6,0,1.1-0.2,1.4-0.6c0.4-0.4,0.5-0.9,0.5-1.3
		c0-0.9-0.5-1.3-1.5-1.3c-0.6,0-1,0.2-1.4,0.6c-0.3,0.4-0.5,0.9-0.5,1.4C219.1,609.2,219.6,609.7,220.6,609.7z"/>
	<path fill="#254B53" d="M226.1,614.4l0.6-2.6h2.1l-0.6,2.6H226.1z M227.5,608.5l0.6-2.6h2.1l-0.6,2.6H227.5z"/>
	<path fill="#254B53" d="M243.4,614.4v-2.6h-6.7v-2.5l3.9-10.7h3.6l-4.2,10.3h3.4v-4.4h3.3v4.4h1.5v2.9h-1.5v2.6H243.4z"/>
	<path fill="#254B53" d="M252.3,614.4v-4h3.5v4H252.3z"/>
	<path fill="#254B53" d="M270.7,598.6v2.9h-7.1l-0.4,3.4c1-0.4,1.9-0.6,2.8-0.6c3.4,0,5.1,1.6,5.1,4.8c0,1.8-0.5,3.2-1.4,4.2
		c-0.9,1-2.3,1.5-4,1.5c-0.7,0-1.6-0.1-2.5-0.2c-0.9-0.1-1.7-0.3-2.2-0.5l-0.9-0.2l0.4-2.4c1.9,0.3,3.6,0.5,4.8,0.5
		c0.8,0,1.4-0.2,1.8-0.6s0.6-1,0.6-1.8s-0.2-1.3-0.5-1.7c-0.4-0.4-0.8-0.5-1.5-0.5c-1.1,0-2,0.1-2.8,0.3l-0.4,0.1l-2-0.5l0.4-8.6
		H270.7z"/>
	<path fill="#254B53" d="M274.9,614.2l6.9-17l2.8,1l-6.9,17L274.9,614.2z"/>
	<path fill="#254B53" d="M298.9,598.6v2.9h-7.1l-0.4,3.4c1-0.4,1.9-0.6,2.8-0.6c3.4,0,5.1,1.6,5.1,4.8c0,1.8-0.5,3.2-1.4,4.2
		c-0.9,1-2.3,1.5-4,1.5c-0.7,0-1.6-0.1-2.5-0.2c-0.9-0.1-1.7-0.3-2.2-0.5l-0.9-0.2l0.4-2.4c1.9,0.3,3.6,0.5,4.8,0.5
		c0.8,0,1.4-0.2,1.8-0.6s0.6-1,0.6-1.8s-0.2-1.3-0.5-1.7c-0.4-0.4-0.8-0.5-1.5-0.5c-1.1,0-2,0.1-2.8,0.3l-0.4,0.1l-2-0.5l0.4-8.6
		H298.9z"/>
</g>
<path fill="none" d="M71.6,69.4c2.2,0.9,4.7,1,7,0.3l22.9-7.3c0.2,0,0.2-0.2,0.2-0.2c0-0.1,0-0.2-0.1-0.3c-0.7-1-1.9-1.4-3-1.3
	l-10.8,1.8l-10.2,2.3c-0.5,0.1-0.9-0.2-1-0.6c-0.1-0.5,0.2-0.9,0.6-1l10.2-2.3c0,0,0,0,0,0c0.3-0.1,0.6-0.3,0.8-0.6
	c0.2-0.3,0.2-0.6,0.1-1c-0.2-0.6-0.7-0.9-1.3-0.8L82,59c-2,0.3-4.1-0.1-5.9-1.1c-1.4-0.8-2.9-1.1-4.5-0.9l-7.8,0.7v8.5L71.6,69.4z"
	/>
<g>
	<path fill="#254B53" d="M83.3,52c0,0.7-0.2,1.2-0.6,1.6c-0.4,0.4-1,0.5-1.7,0.5h0l-0.2,1.2c-0.5,0-0.7,0-0.7-0.1l0.1-1.2
		C79.8,54,79.3,54,79,53.9l-0.2,0l0.1-1c0.5,0.1,1,0.1,1.5,0.2l0.2-1.8c-0.7-0.2-1.2-0.5-1.5-0.8c-0.3-0.3-0.4-0.7-0.4-1.2
		c0-0.7,0.2-1.2,0.6-1.5c0.4-0.3,1-0.5,1.7-0.5h0.1l0.2-1.4H82l-0.2,1.4c0.4,0,0.8,0.1,1.1,0.2l0.2,0l-0.1,1.1
		c-0.5-0.1-0.9-0.1-1.4-0.1l-0.2,1.6c0.7,0.2,1.2,0.5,1.4,0.7S83.3,51.5,83.3,52z M80.1,49.1c0,0.2,0.1,0.3,0.2,0.4
		c0.1,0.1,0.3,0.2,0.6,0.3l0.2-1.4C80.4,48.5,80.1,48.7,80.1,49.1z M82,52.1c0-0.2,0-0.3-0.1-0.4s-0.3-0.2-0.5-0.3L81.2,53
		C81.7,52.9,82,52.6,82,52.1z"/>
</g>
<path fill="#254B53" d="M102.9,60.8c-1.1-1.5-2.9-2.2-4.7-1.9l-8.3,1.4c0.1-0.5,0.1-1.1,0-1.6c-0.4-1.3-1.8-2.2-3.2-2l-0.6,0.1
	c1.8-1.5,3-3.8,3-6.3c0-4.5-3.7-8.2-8.2-8.2c-4.5,0-8.2,3.7-8.2,8.2c0,1.9,0.7,3.7,1.8,5.2c-1-0.2-2.1-0.3-3.1-0.2L63.8,56v-0.3
	c0-0.5-0.4-0.8-0.8-0.8h-5.2v1.7h4.4V57v9.8v0.4h-4.4v1.7H63c0.5,0,0.8-0.4,0.8-0.8l7.1,2.9c1.4,0.6,3,0.9,4.5,0.9
	c1.2,0,2.4-0.2,3.6-0.6l22.9-7.3c0.6-0.2,1.1-0.7,1.3-1.3C103.4,62,103.3,61.3,102.9,60.8z M80.9,43.9c3.6,0,6.5,2.9,6.5,6.5
	s-2.9,6.5-6.5,6.5c-3.6,0-6.5-2.9-6.5-6.5S77.3,43.9,80.9,43.9z M101.6,62.1c0,0.1-0.1,0.2-0.2,0.2l-22.9,7.3
	c-2.3,0.7-4.7,0.6-7-0.3l-7.7-3.1v-8.5l7.8-0.7c1.6-0.2,3.1,0.2,4.5,0.9c1.8,1,3.9,1.4,5.9,1.1l5-0.7c0.6-0.1,1.1,0.3,1.3,0.8
	c0.1,0.3,0.1,0.7-0.1,1c-0.2,0.3-0.4,0.5-0.8,0.6c0,0,0,0,0,0L77.2,63c-0.5,0.1-0.7,0.6-0.6,1c0.1,0.5,0.6,0.7,1,0.6l10.2-2.3
	l10.8-1.8c1.2-0.2,2.4,0.3,3,1.3C101.7,61.9,101.6,62,101.6,62.1z"/>
<path fill="#254B53" d="M94.8,170.3h-2.3v-1.5c0-0.3-0.3-0.6-0.6-0.6h-0.5v-13.9h0.5c0.3,0,0.6-0.3,0.6-0.6v-1.5h2.3
	c0.3,0,0.6-0.3,0.6-0.6l0-2.8c0,0,0,0,0-0.1l0,0c0,0,0,0,0-0.1c0,0,0,0,0-0.1l0,0c0,0,0,0-0.1-0.1c0,0-0.1,0-0.1-0.1c0,0,0,0-0.1,0
	l-18.2-8.3c-0.2-0.1-0.3-0.1-0.5,0l-18.2,8.3c0,0,0,0-0.1,0c0,0-0.1,0-0.1,0.1c0,0,0,0,0,0.1l0,0c0,0,0,0,0,0.1c0,0,0,0,0,0.1l0,0.1
	c0,0,0,0,0,0.1v2.7c0,0.3,0.3,0.6,0.6,0.6h2.3v1.5c0,0.3,0.3,0.6,0.6,0.6h0.5v13.9h-0.5c-0.3,0-0.6,0.3-0.6,0.6v1.5h-2.3
	c-0.3,0-0.6,0.3-0.6,0.6v2.7c0,0.3,0.3,0.6,0.6,0.6h36.4c0.3,0,0.6-0.3,0.6-0.6v-2.7C95.4,170.5,95.1,170.3,94.8,170.3z M61.1,148.4
	l15.5-7l15.5,7H61.1z M94.2,149.6v1.5H58.9v-1.5H94.2z M91.3,169.4v0.9h-6.9v-0.9H91.3z M85.4,168.2v-13.9h4.8v13.9H85.4z
	 M91.4,152.1h-0.2v1h-6.9v-1h-0.2v0L91.4,152.1L91.4,152.1z M80.6,168.2h-0.5v-13.9h0.5c0.3,0,0.6-0.3,0.6-0.6v-1.5h2v1.5
	c0,0.3,0.3,0.6,0.6,0.6h0.5v13.9h-0.5c-0.3,0-0.6,0.3-0.6,0.6v1.5h-2v-1.5C81.2,168.5,80.9,168.2,80.6,168.2z M80,169.4v0.9h-6.9
	v-0.9H80z M74.2,168.2v-13.9h4.8v13.9H74.2z M73.1,153.2v-0.9H80v0.9H73.1z M69.3,168.2h-0.5v-13.9h0.5c0.3,0,0.6-0.3,0.6-0.6v-1.5
	h2v1.5c0,0.3,0.3,0.6,0.6,0.6H73v13.9h-0.5c-0.3,0-0.6,0.3-0.6,0.6v1.5h-2v-1.5C69.9,168.5,69.7,168.2,69.3,168.2z M68.8,152.3v0.9
	h-6.9v-0.9H68.8z M67.7,154.4v13.9h-4.8v-13.9H67.7z M68.8,169.4v0.9h-6.9v-0.9H68.8z M94.2,171.5v1.5H58.9v-1.5H94.2z M94.9,148.6
	L94.9,148.6L94.9,148.6L94.9,148.6L94.9,148.6z M57.9,148.8L57.9,148.8L57.9,148.8L57.9,148.8z"/>
<g>
	<polygon fill="#254B53" points="135.6,261.6 132,258 130.5,259.6 135.6,264.7 146.3,254 144.8,252.4 	"/>
	<path fill="#254B53" d="M156.3,260.7v-5h-2.8c-0.2-1-0.4-1.9-0.8-2.8l2.4-1.4l-2.5-4.3l-2.5,1.4c-0.6-0.7-1.3-1.4-2-2l1.4-2.5
		l-4.3-2.5l-1.5,2.5c-0.9-0.3-1.8-0.6-2.7-0.7v-2.9h-5v3c-0.9,0.2-1.8,0.4-2.7,0.7l-1.5-2.6l-4.3,2.5l1.5,2.6c-0.7,0.6-1.4,1.3-2,2
		l-2.6-1.5l-2.5,4.3l2.6,1.5c-0.3,0.9-0.6,1.8-0.7,2.7h-2.9v5h2.9c0.1,0.9,0.4,1.9,0.7,2.8l-2.5,1.4l2.5,4.3l2.4-1.4
		c0.6,0.7,1.3,1.4,2,2.1l-1.4,2.4l4.3,2.5l1.4-2.4c0.9,0.3,1.8,0.6,2.8,0.8v2.7h5v-2.7c1-0.2,1.9-0.4,2.8-0.7l1.4,2.3l4.3-2.5
		l-1.4-2.3c0.8-0.6,1.5-1.3,2.1-2.1l2.3,1.4l2.5-4.3l-2.4-1.4c0.3-0.9,0.6-1.9,0.7-2.8H156.3z M153.5,265.3l-1.3,2.3l-2.2-1.3
		l-0.3,0.4c-0.7,1-1.6,1.8-2.6,2.6l-0.4,0.3l1.3,2.2l-2.3,1.3l-1.3-2.2l-0.5,0.2c-1.1,0.5-2.3,0.8-3.5,0.9l-0.5,0.1v2.6h-2.6v-2.6
		l-0.5-0.1c-1.2-0.2-2.4-0.5-3.5-1l-0.5-0.2l-1.3,2.3l-2.3-1.3l1.3-2.3l-0.4-0.3c-1-0.7-1.8-1.6-2.5-2.6l-0.3-0.4l-2.3,1.3l-1.3-2.3
		l2.3-1.4l-0.2-0.5c-0.4-1.1-0.7-2.3-0.9-3.5l-0.1-0.5H122v-2.6h2.8l0.1-0.5c0.2-1.2,0.5-2.3,0.9-3.4l0.2-0.5l-2.4-1.4l1.3-2.3
		l2.4,1.4l0.3-0.4c0.7-0.9,1.6-1.8,2.5-2.5l0.4-0.3l-1.4-2.4l2.3-1.3l1.4,2.4l0.5-0.2c1.1-0.5,2.2-0.8,3.4-0.9l0.5-0.1v-2.8h2.6v2.8
		l0.5,0.1c1.2,0.1,2.3,0.4,3.4,0.9l0.5,0.2l1.4-2.4l2.3,1.3l-1.4,2.4l0.4,0.3c1,0.7,1.8,1.6,2.6,2.5l0.3,0.4l2.3-1.3l1.3,2.3
		l-2.3,1.3l0.2,0.5c0.5,1.1,0.8,2.3,1,3.5l0.1,0.5h2.6v2.6h-2.6l-0.1,0.5c-0.2,1.2-0.5,2.4-0.9,3.5l-0.2,0.5L153.5,265.3z"/>
	<path fill="#254B53" d="M138.6,245.9c-6.8,0-12.3,5.5-12.3,12.3c0,6.8,5.5,12.3,12.3,12.3c6.8,0,12.3-5.5,12.3-12.3
		C151,251.5,145.4,245.9,138.6,245.9z M138.6,269.4c-6.1,0-11.1-5-11.1-11.1c0-6.1,5-11.1,11.1-11.1c6.1,0,11.1,5,11.1,11.1
		C149.8,264.4,144.8,269.4,138.6,269.4z"/>
</g>
<g>
	<path fill="#254B53" d="M134.1,346.9l-0.1-0.6l-0.7,0h0c-3.5-0.1-6.8-0.8-9.7-2.1c-2.4-1.1-3.9-2.3-4.6-2.9l-0.5-0.4l-0.5,0.4
		c-0.7,0.6-2.2,1.8-4.6,2.9c-2.9,1.3-6.2,2.1-9.7,2.1l-0.7,0l-0.1,0.6c-0.1,1.4-0.5,6.4,1.3,12.1c2.3,7.2,6.9,12.7,13.8,16.4
		l0.4,0.2l0.4-0.2c6.9-3.7,11.6-9.3,13.8-16.4C134.6,353.3,134.2,348.3,134.1,346.9z M131.3,358.5c-2.1,6.7-6.4,11.9-12.8,15.4
		c-6.4-3.6-10.7-8.7-12.8-15.4c-1.5-4.8-1.5-9.1-1.3-10.9c3.5-0.1,6.7-0.9,9.7-2.2c2.1-0.9,3.6-2,4.5-2.7c0.9,0.7,2.4,1.8,4.5,2.7
		c2.9,1.3,6.2,2.1,9.7,2.2C132.8,349.4,132.9,353.7,131.3,358.5z"/>
	<path fill="#254B53" d="M123,354.9h-1.1v-2.3c0-1.9-1.5-3.4-3.4-3.4c-1.9,0-3.4,1.5-3.4,3.4v2.3h-1.1c-0.4,0-0.7,0.3-0.7,0.7v7.9
		c0,0.4,0.3,0.7,0.7,0.7h9c0.4,0,0.7-0.3,0.7-0.7v-7.9C123.7,355.3,123.4,354.9,123,354.9z M116.9,352.7c0-0.9,0.7-1.6,1.6-1.6
		c0.9,0,1.6,0.7,1.6,1.6v2.3h-3.3V352.7z M118.9,359.2l-0.2,0.1l0.4,2.3h-1.2l0.4-2.3l-0.2-0.1c-0.3-0.2-0.5-0.5-0.5-0.8
		c0-0.5,0.4-0.9,0.9-0.9c0.5,0,0.9,0.4,0.9,0.9C119.5,358.8,119.3,359.1,118.9,359.2z"/>
</g>
<path fill="#254B53" d="M131.8,455.8c-0.4-0.4-1-0.7-1.6-0.8c-0.5-3.4-2.1-6.1-4.3-8.2c-1.7-1.7-3.9-2.9-6.2-3.7
	c-2.3-0.8-4.8-1.1-7.3-1c-4.3,0.2-8.6,1.9-11.7,5.1c-1.2,1.3-2.1,2.7-2.8,4.2c-0.5,1.1-0.8,2.4-1.1,3.6c-0.6,0.1-1.2,0.4-1.6,0.8
	c-0.5,0.5-0.9,1.3-0.9,2.1v3.4c0,0.6,0.3,1.2,0.7,1.7c0.4,0.4,1,0.7,1.7,0.7h2.9c0.4,0,0.8-0.3,0.8-0.8v-7.3c0-0.4-0.3-0.8-0.8-0.8
	h-1.2c0.2-1,0.5-2,0.9-2.9c0.6-1.4,1.4-2.6,2.5-3.7c2.8-2.9,6.7-4.4,10.6-4.7c2.3-0.1,4.6,0.2,6.7,0.9c2.1,0.7,4.1,1.8,5.6,3.4
	c1.9,1.8,3.3,4.2,3.8,7.1h-1.2c-0.4,0-0.8,0.3-0.8,0.8v7.3c0,0.4,0.3,0.8,0.8,0.8h1.1c0,1.5-0.1,2.6-0.6,3.2c-0.5,0.7-1.5,1-3.4,1
	h-0.3c0.7-1.8,1.1-3.8,1.1-6c0-0.2,0-0.3,0-0.3v-4.1c0-5.7-3.1-9.3-7-10.9c-1.5-0.6-3.1-0.9-4.8-0.9c-1.6,0-3.3,0.3-4.8,0.9
	c-4,1.6-7,5.2-7,10.9v4.1c0,4.2,1.3,7.7,3.3,10.3c2.2,2.8,5.2,4.5,8.3,4.5c0.2,0,0.1,0,0.2,0c2.9,0,5.9-1.4,8.1-4
	c0.8-0.9,1.4-1.9,2-3h1c2.5,0,3.8-0.5,4.6-1.6c0.7-1,0.8-2.3,0.9-4.1h0.3c0.6,0,1.2-0.3,1.7-0.7c0.4-0.4,0.7-1,0.7-1.7v-3.4
	C132.7,457.1,132.3,456.3,131.8,455.8z M120.6,471.2c-1.9,2.2-4.5,3.5-7.1,3.5c-0.2,0-0.1,0-0.2,0c-2.7-0.1-5.3-1.5-7.2-4
	c-1.8-2.3-2.9-5.4-2.9-9.2v-4.1c0-4.8,2.7-7.9,6.1-9.3c1.4-0.5,2.8-0.8,4.3-0.8c1.5,0,3,0.3,4.3,0.8c3.4,1.4,6.1,4.5,6.1,9.3v4.1
	c0,0.2,0,0.3,0,0.3c0,2.3-0.5,4.3-1.3,6.1h-6.9c-0.1-0.2-0.2-0.3-0.3-0.4l0,0l0,0l0,0c-0.3-0.3-0.8-0.5-1.3-0.5h-1.3
	c-0.5,0-0.9,0.2-1.3,0.5l0,0l0,0l0,0c-0.3,0.3-0.5,0.8-0.5,1.3v0c0,0.5,0.2,0.9,0.5,1.3l0,0l0,0l0,0c0.3,0.3,0.8,0.5,1.3,0.5h1.3
	c0.5,0,0.9-0.2,1.3-0.5l0,0l0,0l0,0c0.2-0.2,0.3-0.4,0.4-0.6h6C121.5,470,121,470.6,120.6,471.2z"/>
<path fill="#E6E7E8" d="M329.1,706.6H70.9c-10.2,0-18.5-8.3-18.5-18.5v-99.6c0-10.2,8.3-18.5,18.5-18.5h258.2
	c10.2,0,18.5,8.3,18.5,18.5V688C347.6,698.3,339.3,706.6,329.1,706.6z M70.9,570.9c-9.7,0-17.5,7.9-17.5,17.5V688
	c0,9.7,7.9,17.5,17.5,17.5h258.2c9.7,0,17.5-7.9,17.5-17.5v-99.6c0-9.7-7.9-17.5-17.5-17.5H70.9z"/>
<path fill="#F0C11A" d="M263.9,682.7H137.2c-11.4,0-20.7-9.3-20.7-20.7s9.3-20.7,20.7-20.7h126.6c11.4,0,20.7,9.3,20.7,20.7
	S275.3,682.7,263.9,682.7z M137.2,642.4c-10.9,0-19.7,8.8-19.7,19.7s8.8,19.7,19.7,19.7h126.6c10.9,0,19.7-8.8,19.7-19.7
	s-8.8-19.7-19.7-19.7H137.2z"/>
<g>
	<polygon fill="#F0C11A" points="146.3,666.1 152.7,670.8 150.2,663.3 156.6,658.7 148.7,658.8 146.3,651.3 143.9,658.8 
		136.1,658.7 142.5,663.3 140,670.8 	"/>
	<polygon fill="#F0C11A" points="173.4,666.1 179.8,670.8 177.3,663.3 183.7,658.7 175.8,658.8 173.4,651.3 171.1,658.8 
		163.2,658.7 169.6,663.3 167.1,670.8 	"/>
	<polygon fill="#F0C11A" points="200.5,666.1 206.9,670.8 204.4,663.3 210.8,658.7 202.9,658.8 200.5,651.3 198.2,658.8 
		190.3,658.7 196.7,663.3 194.2,670.8 	"/>
	<polygon fill="#F0C11A" points="227.7,666.1 234,670.8 231.5,663.3 237.9,658.7 230,658.8 227.7,651.3 225.3,658.8 217.4,658.7 
		223.8,663.3 221.3,670.8 	"/>
	<polygon fill="#BCBEC0" points="254.8,666.1 261.1,670.8 258.6,663.3 265,658.7 257.1,658.8 254.8,651.3 252.4,658.8 244.5,658.7 
		250.9,663.3 248.4,670.8 	"/>
	<polygon fill="#F0C11A" points="254.8,666.1 254.8,651.3 252.4,658.8 244.5,658.7 250.9,663.3 248.4,670.8 	"/>
</g>
<path fill="#E6E7E8" d="M398,2v746H2V2H398 M400,0H0v750h400V0L400,0z"/>
</svg>
