<?xml version="1.0" encoding="utf-8"?>
<!-- Generator: Adobe Illustrator 24.1.3, SVG Export Plug-In . SVG Version: 6.00 Build 0)  -->
<svg version="1.1" id="Layer_1" xmlns="http://www.w3.org/2000/svg" xmlns:xlink="http://www.w3.org/1999/xlink" x="0px" y="0px"
	 viewBox="0 0 50 50" style="enable-background:new 0 0 50 50;" xml:space="preserve">
<style type="text/css">
	.st0{fill:none;}
	.st1{fill:#FF5100;}
</style>
<g>
	<path class="st0" d="M15.2,38.6c2.4,1,5.1,1.1,7.6,0.3l25.1-8c0.2-0.1,0.2-0.2,0.3-0.3c0-0.1,0-0.2-0.1-0.4c-0.8-1-2.1-1.6-3.3-1.4
		l-11.8,2l-11.2,2.5c-0.5,0.1-1-0.2-1.1-0.7c-0.1-0.5,0.2-1,0.7-1.1L32.5,29c0,0,0,0,0,0c0.4-0.1,0.7-0.3,0.8-0.6
		c0.2-0.3,0.2-0.7,0.1-1.1c-0.2-0.6-0.8-1-1.4-0.9l-5.5,0.8c-2.2,0.3-4.5-0.1-6.5-1.2c-1.5-0.8-3.2-1.2-4.9-1l-8.5,0.8v9.3
		L15.2,38.6z"/>
	<g>
		<path class="st1" d="M28,19.5c0,0.8-0.2,1.3-0.7,1.7c-0.5,0.4-1.1,0.6-1.8,0.6h0l-0.2,1.3c-0.5,0-0.8,0-0.8-0.1l0.2-1.3
			c-0.5-0.1-1-0.1-1.4-0.2l-0.2,0l0.1-1.1c0.6,0.1,1.1,0.1,1.6,0.2l0.2-1.9c-0.8-0.2-1.3-0.5-1.6-0.8C23.2,17.5,23,17,23,16.5
			c0-0.7,0.2-1.3,0.7-1.6c0.4-0.4,1-0.5,1.8-0.5h0.1l0.2-1.5h0.8l-0.2,1.6c0.5,0,0.9,0.1,1.3,0.2l0.2,0l-0.1,1.2
			c-0.5-0.1-1-0.1-1.5-0.1l-0.2,1.8c0.8,0.2,1.3,0.5,1.6,0.8C27.9,18.5,28,18.9,28,19.5z M24.5,16.4c0,0.2,0.1,0.3,0.2,0.4
			c0.1,0.1,0.3,0.2,0.6,0.3l0.2-1.5C24.8,15.6,24.5,15.9,24.5,16.4z M26.6,19.6c0-0.2,0-0.3-0.1-0.4c-0.1-0.1-0.3-0.2-0.5-0.3
			l-0.2,1.7C26.3,20.5,26.6,20.2,26.6,19.6z"/>
	</g>
	<path class="st1" d="M49.6,29.1c-1.2-1.6-3.2-2.5-5.2-2.1l-9.1,1.5c0.2-0.6,0.1-1.2,0-1.8c-0.5-1.5-1.9-2.4-3.5-2.2l-0.7,0.1
		c2-1.7,3.3-4.2,3.3-7c0-5-4-9-9-9c-5,0-9,4-9,9c0,2.1,0.7,4.1,2,5.6c-1.1-0.3-2.2-0.3-3.4-0.2L6.7,24v-0.3c0-0.5-0.4-0.9-0.9-0.9H0
		v1.9h4.8V25v10.8v0.4H0V38h5.7c0.5,0,0.9-0.4,0.9-0.9l7.8,3.2c1.6,0.6,3.2,1,4.9,1c1.3,0,2.7-0.2,4-0.6l25.1-8
		c0.7-0.2,1.2-0.8,1.5-1.4C50.1,30.5,50,29.7,49.6,29.1z M25.4,10.6c3.9,0,7.1,3.2,7.1,7.1c0,3.9-3.2,7.1-7.1,7.1
		c-3.9,0-7.1-3.2-7.1-7.1C18.3,13.8,21.5,10.6,25.4,10.6z M48.1,30.6c0,0.1-0.1,0.2-0.3,0.3l-25.1,8c-2.5,0.8-5.2,0.7-7.6-0.3
		l-8.5-3.4v-9.3l8.5-0.8c1.7-0.2,3.4,0.2,4.9,1c2,1.1,4.2,1.5,6.5,1.2l5.5-0.8c0.6-0.1,1.2,0.3,1.4,0.9c0.1,0.4,0.1,0.7-0.1,1.1
		c-0.2,0.3-0.5,0.5-0.8,0.6c0,0,0,0,0,0l-11.2,2.5c-0.5,0.1-0.8,0.6-0.7,1.1c0.1,0.5,0.6,0.8,1.1,0.7l11.2-2.5l11.8-2
		c1.3-0.2,2.6,0.3,3.3,1.4C48.2,30.4,48.1,30.5,48.1,30.6z"/>
</g>
</svg>
