<?xml version="1.0" encoding="utf-8"?>
<!-- Generator: Adobe Illustrator 24.1.3, SVG Export Plug-In . SVG Version: 6.00 Build 0)  -->
<svg version="1.1" id="Layer_1" xmlns="http://www.w3.org/2000/svg" xmlns:xlink="http://www.w3.org/1999/xlink" x="0px" y="0px"
	 viewBox="0 0 50 50" style="enable-background:new 0 0 50 50;" xml:space="preserve">
<style type="text/css">
	.st0{fill:#254B53;}
</style>
<path class="st0" d="M41.2,5.7c-1.3-2.3-4.5-3.7-6.9-4.4C31.2,0.4,27.6,0,24.4,0c-3.2,0-6,0.4-7.6,1.3c-1.6,0.9-2.4,3.5-2.6,7.8
	l0,0.1l-0.1,0c-1.7,0.5-5.8,1.9-6.7,5.6C4.5,26.4,15.7,35.9,18,37.7l0.1,0.1v11.5c0,0.4,0.3,0.7,0.7,0.7h17.7c0.4,0,0.7-0.3,0.7-0.7
	V37.4c0-0.1,0-0.3-0.1-0.4L37,37l0-0.1c1-2.1,3.5-7.3,4.5-11.6C43,19.3,44.1,11.1,41.2,5.7z M35.8,45.9h-6.5c-1.4,0-2.5-1.1-2.5-2.5
	c0-1.4,1.1-2.5,2.5-2.5h6.5V45.9z M35.8,39.4h-6.5c-2.2,0-4,1.8-4,4c0,2.2,1.8,4,4,4h6.5v1.2H19.5V38.2h16.2V39.4z M40.1,24.9
	c-1.1,4.4-3.8,10-4.6,11.7l0,0.1H19l0,0C16.8,34.9,6.2,25.8,8.9,15.2c0.7-2.6,3.5-3.8,5.1-4.4l0.2-0.1l0,0.2c0.1,5.4,1,11.3,1.3,13
	c0.1,0.4,0.5,0.7,0.9,0.6c0.2,0,0.4-0.1,0.5-0.3c0.1-0.2,0.2-0.4,0.1-0.6c-1.3-7.3-2.3-19.5,0.5-21.1C20.1,1.2,27.7,1,33.9,2.7
	c3.1,0.9,5.3,2.2,6,3.7C42.6,11.4,41.5,19.2,40.1,24.9z"/>
</svg>
