<?xml version="1.0" encoding="utf-8"?>
<!-- Generator: Adobe Illustrator 24.1.3, SVG Export Plug-In . SVG Version: 6.00 Build 0)  -->
<svg version="1.1" id="Layer_1" xmlns="http://www.w3.org/2000/svg" xmlns:xlink="http://www.w3.org/1999/xlink" x="0px" y="0px"
	 viewBox="0 0 140 80" style="enable-background:new 0 0 140 80;" xml:space="preserve">
<style type="text/css">
	.st0{fill-rule:evenodd;clip-rule:evenodd;fill:#EE3034;}
	.st1{fill-rule:evenodd;clip-rule:evenodd;fill:#FFFFFF;}
	.st2{fill:#FFFFFF;}
</style>
<g>
	<g>
		<polygon class="st0" points="2.5,1.5 2.5,78.5 36.3,78.5 36.3,1.5 2.5,1.5 		"/>
		<polygon class="st1" points="36.3,1.5 36.3,78.5 103.7,78.5 103.7,1.5 36.3,1.5 		"/>
		<polygon class="st0" points="137.4,1.5 103.7,1.5 103.7,78.5 137.4,78.5 137.4,1.5 		"/>
	</g>
	<path class="st0" d="M70,65.9h0.9l-0.3-12.1l0.9-0.7c3.9,0.5,7.4,0.9,11.2,1.3l-1-3.3c-0.2-0.6,0.1-1.2,0.5-1.6l11.3-9.4L91.2,39
		c-1-0.4-0.7-1-0.4-2.4l1.7-6.4L86,31.7c-0.6,0.1-1.1-0.3-1.2-0.7l-0.8-3l-5.2,5.9c-0.7,1-2.2,1-1.8-1.2l2.2-12l-3,1.6
		c-0.8,0.5-1.7,0.6-2.1-0.3L70,14.1l-4.2,7.8c-0.5,0.8-1.3,0.8-2.1,0.3l-3-1.6l2.2,12c0.5,2.2-1,2.2-1.8,1.2L56,27.9l-0.8,3
		c-0.1,0.4-0.5,0.8-1.2,0.7l-6.5-1.4l1.7,6.4c0.4,1.4,0.7,2-0.4,2.4l-2.3,1.1l11.3,9.4c0.4,0.4,0.7,1,0.5,1.6l-1,3.3
		c3.9-0.5,7.4-0.9,11.2-1.3l0.9,0.7l-0.3,12.1H70L70,65.9z"/>
</g>
<g>
	<path class="st2" d="M136,4v72H4V4H136 M140,0H0v80h140V0L140,0z"/>
</g>
</svg>
