<svg xmlns="http://www.w3.org/2000/svg"  xmlns:xlink="http://www.w3.org/1999/xlink" x="0px" y="0px"
   viewBox="0 0 589 100" style="enable-background:new 0 0 589 100;" xml:space="preserve">
  <path d="M288.306 36.9897H288.503V63.1309H288.306V36.9897ZM36.988 36.9897H37.1851V63.1309H36.988V36.9897ZM525.511 0H455.165V12.2603L442.903 0H356.293V33.2388H355.619V0H318.87V11.8661L307.106 0H271.515L265.708 5.80651V0H163.916V63.1309H163.243V0H126.376V63.1309H104.539V0H67.5529V11.8661L55.7887 0H20.2005L0 20.1988V79.2033L20.7984 100H55.1669L67.5512 87.6174V100H137.776V93.5955L144.184 100H182.38L200.189 82.1932V35.6715H209.469V100H246.34V35.6698H251.317V79.2016L272.113 99.9983H306.484L318.87 87.6157V99.9983H355.619V65.3257H356.293V99.9983H442.786L455.167 87.6157V99.9983H525.633V63.1309H514.751V36.9897H525.513V35.6715H532.762V100H569.627V35.6698H588.995V0H525.513H525.511ZM525.511 0H455.165V12.2603L442.903 0H356.293V33.2388H355.619V0H318.87V11.8661L307.106 0H271.515L265.708 5.80651V0H163.916V63.1309H163.243V0H126.376V63.1309H104.539V0H67.5529V11.8661L55.7887 0H20.2005L0 20.1988V79.2033L20.7984 100H55.1669L67.5512 87.6174V100H137.776V93.5955L144.184 100H182.38L200.189 82.1932V35.6715H209.469V100H246.34V35.6698H251.317V79.2016L272.113 99.9983H306.484L318.87 87.6157V99.9983H355.619V65.3257H356.293V99.9983H442.786L455.167 87.6157V99.9983H525.633V63.1309H514.751V36.9897H525.513V35.6715H532.762V100H569.627V35.6698H588.995V0H525.513H525.511Z" fill="white"/>
  <path d="M65.9 21.7796V41.5078H45.3377V31.2233L42.9458 28.8382H31.5876L28.8389 31.5834V68.4135L31.7099 71.2793H42.8252C43.4231 70.6814 44.7397 69.4854 45.3394 68.7702V56.9329H65.9V77.7382L51.7931 91.845H24.174L8.15259 75.8253V23.5736L23.5777 8.14844H52.3894L65.9017 21.7796H65.9ZM96.3867 71.2827H129.622V91.8484H75.7021V8.15183H96.3884L96.385 71.2827H96.3867ZM192.036 78.8152L179.003 91.845H147.558L134.525 78.8118V8.14844H155.087V68.5307L157.839 71.2793H169.316L172.067 68.5307V8.14844H192.034V78.8186L192.036 78.8152ZM257.556 27.5216H238.187V91.8484H217.622V27.5216H198.133V8.15183H257.556V27.5216ZM317.219 21.7796V41.5078H296.655V31.2233L294.263 28.8382H282.903L280.156 31.5834V68.4135L283.026 71.2793H294.146C294.739 70.6814 296.057 69.4854 296.655 68.7702V56.9329H317.219V77.7382L303.112 91.845H275.493L259.47 75.8253V23.5736L274.895 8.14844H303.707L317.219 21.7796V21.7796ZM385.127 91.8484H364.446V57.1759H347.466V91.8484H327.023V8.15183H347.461V41.3872H364.446V8.15183H385.127V91.8484Z" fill="#203366"/>
  <path d="M416.573 56.2172V71.2822H430.437L432.952 68.768V58.6058L430.563 56.2138L416.573 56.2172V56.2172ZM416.573 28.8308V41.385H430.437L432.834 38.9948V31.2228L430.442 28.8308H416.573V28.8308ZM453.159 41.8641L446.584 48.3195L453.519 55.2557V77.7411L439.409 91.8445H395.884V8.15133H439.526L453.152 21.7791L453.159 41.8641V41.8641ZM517.362 28.8342H484.004V42.1053H506.601V56.9324H484.004V71.2822H517.479V91.8479H463.314V8.14453H517.362V28.8342V28.8342ZM580.846 27.5211H561.478V91.8479H540.912V27.5211H521.42V8.15133H580.846V27.5211Z" fill="#EB1E28"/>
</svg>
