<svg width="33" height="33" viewBox="0 0 33 33" fill="none" xmlns="http://www.w3.org/2000/svg">
<path fill-rule="evenodd" clip-rule="evenodd" d="M12 12C12.5525 12 13 11.5525 13 11C13 10.4475 12.5525 10 12 10C11.448 10 11 10.4475 11 11C11 11.5525 11.448 12 12 12Z" fill="#FD5000"/>
<path fill-rule="evenodd" clip-rule="evenodd" d="M10 14C10.5525 14 11 13.5525 11 13C11 12.4475 10.5525 12 10 12C9.448 12 9 12.4475 9 13C9 13.5525 9.448 14 10 14Z" fill="#FD5000"/>
<path fill-rule="evenodd" clip-rule="evenodd" d="M14 10C14.5525 10 15 9.5525 15 9C15 8.4475 14.5525 8 14 8C13.448 8 13 8.4475 13 9C13 9.5525 13.448 10 14 10Z" fill="#FD5000"/>
<path fill-rule="evenodd" clip-rule="evenodd" d="M12 8C12 7.4475 11.5525 7 11 7C10.448 7 10 7.4475 10 8C10 8.5525 10.448 9 11 9C11.5525 9 12 8.5525 12 8Z" fill="#FD5000"/>
<path fill-rule="evenodd" clip-rule="evenodd" d="M8 10C8 10.5525 8.448 11 9 11C9.5525 11 10 10.5525 10 10C10 9.4475 9.5525 9 9 9C8.448 9 8 9.4475 8 10Z" fill="#FD5000"/>
<path fill-rule="evenodd" clip-rule="evenodd" d="M14 6C14 5.4475 13.5525 5 13 5C12.448 5 12 5.4475 12 6C12 6.5525 12.448 7 13 7C13.5525 7 14 6.5525 14 6Z" fill="#FD5000"/>
<path fill-rule="evenodd" clip-rule="evenodd" d="M6 12C6 12.5525 6.448 13 7 13C7.5525 13 8 12.5525 8 12C8 11.4475 7.5525 11 7 11C6.448 11 6 11.4475 6 12Z" fill="#FD5000"/>
<path fill-rule="evenodd" clip-rule="evenodd" d="M4.02884 3.08082C5.29556 1.81509 7.03774 1.03281 8.96451 1.03281C10.8913 1.03281 12.634 1.81509 13.9007 3.08082C15.1664 4.34754 15.9482 6.09072 15.9487 8.01749C15.9482 9.94427 15.1729 11.6874 13.9072 12.9542C12.6405 14.2199 10.9731 15.0022 8.97749 15.0022C6.98186 15.0022 5.30055 14.2199 4.03432 12.9542C2.7681 11.6874 1.98282 9.94427 1.98232 8.01749C1.98282 6.09072 2.76311 4.34754 4.02884 3.08082ZM8.97748 16C13.4676 15.999 16.952 12.4208 16.953 8.0175C16.952 3.61416 13.3703 0.0360015 8.967 0.0350037C4.56415 0.0360015 0.990988 3.61416 0.98999 8.0175C0.990988 12.4208 4.48732 15.999 8.97748 16Z" fill="#15202B"/>
</svg>
