<svg width="17" height="17" viewBox="0 0 17 17" fill="none" xmlns="http://www.w3.org/2000/svg">
<path fill-rule="evenodd" clip-rule="evenodd" d="M8.69855 10.3147L6.46586 9.71136L5.84583 7.45544L7.45699 5.84428L9.70129 6.45623L10.3132 8.70003L8.69855 10.3147ZM15.3971 7.18582L13.5754 9.00802L11.2741 8.38598L10.6768 6.19469L12.3339 4.53708L14.8564 5.22527L15.122 4.2508L12.5949 3.5616L11.9269 1.11332L10.953 1.3789L11.6199 3.82365L9.96284 5.48075L7.71803 4.8683L7.12729 2.70276L8.99191 0.838143L8.27797 0.124207L6.41335 1.98882L3.89084 1.30064L3.62526 2.2751L6.15181 2.9638L6.74255 5.13035L5.07182 6.80158L2.91688 6.21943L2.2186 3.68026L1.24463 3.94786L1.91565 6.38706L0.0469971 8.25622L0.760934 8.97015L2.56193 7.16916L4.89308 7.79928L5.47827 9.92746L3.79239 11.6133L1.31027 10.9428L1.04722 11.9178L3.56468 12.5979L4.25438 15.1048L5.22783 14.8372L4.53106 12.303L6.15939 10.6742L8.37845 11.274L8.99847 13.5476L7.17728 15.3688L7.89121 16.0828L9.75078 14.2232L12.2793 14.9063L12.5429 13.9319L9.95931 13.2336L9.36958 11.0716L11.0656 9.37559L13.2553 9.96734L13.9526 12.5237L14.9266 12.2576L14.247 9.76488L16.1116 7.90026L15.3971 7.18582Z" fill="#FD5000"/>
<path fill-rule="evenodd" clip-rule="evenodd" d="M1.00981 8.07799C1.00981 7.46856 1.08858 6.85409 1.25065 6.24922C1.9045 3.80951 3.80951 1.9045 6.24922 1.25065C6.85359 1.08858 7.46856 1.00981 8.07799 1.00981C9.92847 1.00981 11.734 1.73688 13.0771 3.08043C14.4201 4.42348 15.1472 6.22852 15.1472 8.079C15.1472 8.68892 15.0684 9.30339 14.9063 9.90827C14.253 12.3475 12.3475 14.253 9.90776 14.9063C9.30339 15.0684 8.68892 15.1472 8.079 15.1472C6.22852 15.1472 4.42348 14.4201 3.08043 13.0771C1.73688 11.734 1.00981 9.92847 1.00981 8.07799ZM10.1693 15.8818C12.9574 15.1345 15.1345 12.9574 15.8818 10.1693C16.0666 9.47859 16.157 8.77577 16.157 8.079C16.1575 5.96445 15.3259 3.90141 13.791 2.36599C12.2561 0.831075 10.1925 0 8.07799 0C7.38122 0 6.67839 0.0903781 5.98768 0.275174C3.19959 1.02243 1.02243 3.20009 0.275174 5.98768C0.0903781 6.67839 0 7.38122 0 8.07799C0 10.1925 0.831075 12.2561 2.36599 13.791C3.9009 15.3259 5.96445 16.1575 8.079 16.157C8.77577 16.157 9.47859 16.0671 10.1693 15.8818Z" fill="#15202B"/>
</svg>
