<svg width="16" height="16" viewBox="0 0 16 16" fill="none" xmlns="http://www.w3.org/2000/svg">
<path fill-rule="evenodd" clip-rule="evenodd" d="M7.42104 15.5C7.63091 15.2896 7.97351 15.2916 7.76365 15.0812L0.839741 8.1578C0.629876 7.9474 0.631452 8.28959 0.421049 8.5C0.210647 8.70986 0.210641 9.05049 0.421043 9.2609L6.66014 15.5C6.87001 15.7099 7.21064 15.7099 7.42104 15.5Z" fill="#FD5000"/>
<path fill-rule="evenodd" clip-rule="evenodd" d="M15.421 6.99999V6.73859L9.26293 0.580988L8.92101 0.5C9.13142 0.289598 8.71115 0.289598 8.92101 0.5C8.71061 0.709864 7.86841 0.708284 8.07882 0.918686L15.0027 7.8426C15.2126 8.05246 15.2106 7.70985 15.421 7.49999C15.6309 7.28959 15.6309 7.21039 15.421 6.99999Z" fill="#FD5000"/>
<path fill-rule="evenodd" clip-rule="evenodd" d="M10.7748 5.14659C10.5793 4.9511 10.2628 4.9511 10.0673 5.14659L9.92077 5.29308L8.77477 4.14662C8.57927 3.95113 8.26277 3.95113 8.06727 4.14662C7.87227 4.34211 7.87227 4.6586 8.06727 4.8536L9.21377 6.00006L7.92077 7.29302L6.77477 6.14656C6.57927 5.95106 6.26277 5.95106 6.06727 6.14656C5.87227 6.34205 5.87227 6.65854 6.06727 6.85354L7.21377 8L5.92077 9.29296L4.77477 8.1465C4.57927 7.951 4.26277 7.951 4.06727 8.1465C3.87227 8.34199 3.87227 8.65848 4.06727 8.85347L5.21377 9.99994L5.06727 10.1464C4.87227 10.3419 4.87227 10.6584 5.06727 10.8534C5.26277 11.0489 5.57927 11.0489 5.77477 10.8534L5.92077 10.7069L7.06727 11.8534C7.26277 12.0489 7.57927 12.0489 7.77477 11.8534C7.96977 11.6584 7.96977 11.3419 7.77477 11.1464L6.62827 9.99994L7.92077 8.70698L9.06727 9.85344C9.26277 10.0489 9.57927 10.0489 9.77477 9.85344C9.96977 9.65845 9.96977 9.34196 9.77477 9.14646L8.62827 8L9.92077 6.70704L11.0673 7.8535C11.2628 8.049 11.5793 8.049 11.7748 7.8535C11.9698 7.65851 11.9698 7.34202 11.7748 7.14653L10.6283 6.00006L10.7748 5.85357C10.9698 5.65857 10.9698 5.34208 10.7748 5.14659Z" fill="#FD5000"/>
<path fill-rule="evenodd" clip-rule="evenodd" d="M3.75826 3.75826C5.79123 1.71527 8.82139 0.998692 11.165 1.0022C11.9668 1.0022 12.6854 1.08538 13.2381 1.21717C13.7898 1.34195 14.1787 1.54439 14.2749 1.65363C14.3841 1.74984 14.5861 2.1387 14.7113 2.69041C14.8426 3.24312 14.9263 3.9612 14.9258 4.76296C14.9293 7.10711 14.2127 10.1368 12.1702 12.1697C10.1373 14.2127 7.10712 14.9293 4.76347 14.9258C3.96171 14.9263 3.24313 14.8426 2.69041 14.7108C2.1387 14.586 1.74985 14.3836 1.65364 14.2749L1.29936 14.6291L1.65364 14.2749C1.5444 14.1782 1.34195 13.7893 1.21718 13.2381C1.08539 12.6849 1.0022 11.9668 1.0022 11.165C0.999197 8.82088 1.71577 5.79122 3.75826 3.75826ZM2.4584 15.686C3.10582 15.8393 3.89205 15.9275 4.76347 15.928C7.29353 15.9245 10.5637 15.1839 12.8788 12.8788C15.1844 10.5637 15.925 7.29303 15.928 4.76297C15.928 3.89205 15.8398 3.10582 15.686 2.4584C15.5256 1.80998 15.3292 1.30286 14.9834 0.944576C14.6251 0.598816 14.1185 0.402384 13.4696 0.242032C12.8222 0.0886949 12.0359 0.000501101 11.165 0C8.63497 0.00350771 5.36479 0.744135 3.0497 3.0492C0.744135 5.36429 0.00350771 8.63497 0 11.165C0.000501101 12.0359 0.0886949 12.8222 0.242032 13.4696C0.402885 14.118 0.599317 14.6251 0.945077 14.9834C1.30336 15.3292 1.80998 15.5256 2.4584 15.686Z" fill="#15202B"/>
</svg>
