<svg width="16" height="16" viewBox="0 0 16 16" fill="none" xmlns="http://www.w3.org/2000/svg">
<path fill-rule="evenodd" clip-rule="evenodd" d="M6.86482 11.1241C6.66676 10.9261 6.34611 10.9261 6.14855 11.1241C5.95048 11.3222 5.95048 11.6428 6.14855 11.8404L10.1352 15.8274C10.3332 16.025 10.6539 16.025 10.8515 15.8274C11.0495 15.6294 11.0495 15.3087 10.8515 15.1107L6.86482 11.1241Z" fill="#FD5000"/>
<path fill-rule="evenodd" clip-rule="evenodd" d="M4.70765 12.0969C4.54593 11.9352 4.28343 11.9352 4.12129 12.0969C3.95957 12.259 3.95957 12.5215 4.12129 12.6836L7.29235 15.854C7.45407 16.0161 7.71657 16.0161 7.87871 15.854C8.04043 15.6923 8.04043 15.4298 7.87871 15.2677L4.70765 12.0969Z" fill="#FD5000"/>
<path fill-rule="evenodd" clip-rule="evenodd" d="M14.5 4.97559H11.75C11.543 4.97559 11.375 5.19959 11.375 5.47559C11.375 5.75159 11.293 5.97559 11.5 5.97559H14C14.2073 5.97559 14.375 5.75159 14.375 5.47559C14.375 5.19959 14.7074 4.97559 14.5 4.97559Z" fill="#FD5000"/>
<path fill-rule="evenodd" clip-rule="evenodd" d="M13.05 1.68039V1.6824C13.189 1.26267 13.5792 1.00003 13.998 0.999532C14.1025 0.999532 14.2086 1.01654 14.3156 1.05156L14.3151 1.05206C14.7348 1.19063 14.9995 1.58234 14.9995 2.00056C14.9995 2.10512 14.9835 2.21118 14.948 2.31723L10.9458 14.3236V14.3146C10.8068 14.7348 10.4156 14.9905 9.99683 14.9905H4.4939C3.66496 14.9905 3.00161 14.3271 3.00011 13.4987C3.00161 12.6697 3.50738 12.0079 4.50791 12.0064V11.9889H9.24893C9.46505 11.9889 9.65515 11.8603 9.72318 11.6557L13.05 1.68039ZM8.88824 10.9883H4.50791V11.0059C3.00711 11.0064 2.00007 12.1169 1.99957 13.4987C2.00007 14.8799 3.11216 15.991 4.4939 15.991H9.99683C10.8353 15.991 11.6147 15.4697 11.8948 14.6308V14.6353L15.897 2.6314V2.6329C15.9665 2.42379 16 2.21018 16 2.00007C16.0005 1.16162 15.4697 0.382705 14.6313 0.102556H14.6308C14.4222 0.033019 14.2081 1.40939e-06 13.998 1.40939e-06C13.159 -0.000999123 12.3801 0.530784 12.1004 1.36873V1.35972L8.88824 10.9883Z" fill="#15202B"/>
<path fill-rule="evenodd" clip-rule="evenodd" d="M1.99606 7.00371C2.54635 7.00471 3.0006 7.45395 3.0016 8.00424C3.0006 8.55453 2.50683 9.00377 2.00657 9.00477C1.5063 9.00377 1.00003 8.55453 0.999031 8.00424C1.00003 7.45395 1.44577 7.00471 1.99606 7.00371ZM2.00657 10.0053C3.0071 10.0043 3.99963 9.10933 4.00063 8.00424C3.99963 6.89965 3.10065 6.00417 1.99606 6.00317C0.890974 6.00417 0.00100053 6.89965 0 8.00424C0.00100053 9.10933 1.00604 10.0043 2.00657 10.0053Z" fill="#15202B"/>
</svg>
