<svg width="30" height="30" viewBox="0 0 30 30" fill="none" xmlns="http://www.w3.org/2000/svg">
<path d="M15 30L0 15L15 0L30 15L15 30ZM2.18028 15L15 27.8197L27.8197 15L15 2.18028L2.18028 15Z" fill="#FF5100"/>
<path d="M11.8335 6.97998L6.97992 11.8336H11.8335V6.97998Z" fill="#49727A"/>
<path d="M18.1664 6.97998L23.02 11.8336H18.1664V6.97998Z" fill="#49727A"/>
<path d="M11.8335 23.02L6.97992 18.1664H11.8335V23.02Z" fill="#49727A"/>
<path d="M18.1664 23.02L23.02 18.1664H18.1664V23.02Z" fill="#49727A"/>
<path d="M18.7134 14.4299H25.547L23.96 12.8506H17.1495V6.03238L15.5701 4.45302V11.2866L18.7134 14.4299Z" fill="#49727A"/>
<path d="M18.7134 15.5701L15.5701 18.7134V25.547L17.1495 23.9599V17.1495H23.96L25.547 15.5701H18.7134Z" fill="#49727A"/>
<path d="M11.2866 15.5701H4.453L6.03236 17.1495H12.8505V23.9599L14.4299 25.547V18.7134L11.2866 15.5701Z" fill="#49727A"/>
<path d="M14.4299 11.2866V4.45302L12.8505 6.03238V12.8506H6.03236L4.453 14.4299H11.2866L14.4299 11.2866Z" fill="#49727A"/>
<path d="M15.0003 12.3622L12.3636 14.9989L15.0003 17.6355L17.6369 14.9989L15.0003 12.3622Z" fill="#254B53"/>
</svg>
