<svg width="42" height="42" viewBox="0 0 42 42" fill="none" xmlns="http://www.w3.org/2000/svg">
<rect width="42" height="42" fill="#EEF1F4"/>
<g clip-path="url(#clip0_1:2)">
<rect width="1440" height="12915" transform="translate(-567 -3875)" fill="#F6F6F6"/>
<rect x="-509" y="-261" width="988" height="362" rx="4" fill="white"/>
<circle opacity="0.2" cx="21" cy="21" r="21" fill="#EE1C24"/>
<path d="M23.0131 21L28.4695 15.5452C29.0102 15.0047 29.0102 14.1201 28.4695 13.5304C27.9287 12.9899 27.0439 12.9899 26.4541 13.5304L20.9977 18.9852L15.5414 13.5304C15.0007 12.9899 14.1159 12.9899 13.526 13.5304C13.2803 13.8253 13.1328 14.1693 13.1328 14.5624C13.1328 14.9555 13.2803 15.2995 13.526 15.5452L18.9824 21L13.526 26.4548C13.1819 26.7988 13.0345 27.3393 13.1819 27.8307C13.3294 28.3222 13.6735 28.7153 14.1651 28.8136C14.3125 28.8627 14.4108 28.8627 14.5583 28.8627C14.9516 28.8627 15.2957 28.7153 15.5414 28.4696L20.9977 23.0148L26.4541 28.4696C26.9948 29.0101 27.8796 29.0101 28.4695 28.4696C28.7152 28.2239 28.8627 27.8307 28.8627 27.4867C28.8627 27.0936 28.7152 26.7496 28.4695 26.5039L23.0131 21Z" fill="#EE1C24"/>
</g>
<defs>
<clipPath id="clip0_1:2">
<rect width="1440" height="12915" fill="white" transform="translate(-567 -3875)"/>
</clipPath>
</defs>
</svg>
