<svg width="17" height="17" viewBox="0 0 17 17" fill="none" xmlns="http://www.w3.org/2000/svg">
<path fill-rule="evenodd" clip-rule="evenodd" d="M15.4647 8.01904C13.6502 8.14382 12.0046 8.87795 10.7203 10.012L8.70884 8L13.6667 3.04147C13.8627 2.84604 13.8627 2.52883 13.6667 2.33289C13.4713 2.13746 13.1541 2.13746 12.9582 2.33289L7.99978 7.29142L5.98836 5.27945C7.12235 3.99509 7.85646 2.34993 7.98124 0.535396C7.99978 0.259281 7.79132 0.0197486 7.51522 0.00120737C7.23911 -0.017835 7.00008 0.190629 6.98104 0.466743C6.87481 2.03072 6.24893 3.45339 5.2793 4.57087L3.04189 2.33289C2.84596 2.13746 2.52876 2.13746 2.33333 2.33289C2.1374 2.52883 2.1374 2.84604 2.33333 3.04147L4.57075 5.27945C3.45329 6.2486 2.03067 6.8745 0.46673 6.98123C0.190623 7.00028 -0.0178345 7.23931 0.00120734 7.51542C0.0202492 7.79154 0.259274 8 0.535381 7.98096C2.34987 7.85618 3.99548 7.12205 5.2798 5.98802L7.29122 8L2.33333 12.9585C2.1374 13.154 2.1374 13.4712 2.33333 13.6671C2.52876 13.8625 2.84596 13.8625 3.04189 13.6671L7.99978 8.70858L10.0117 10.7206C8.87771 12.0049 8.1436 13.6501 8.01882 15.4646C7.99978 15.7407 8.20824 15.9803 8.48434 15.9988C8.76045 16.0178 8.99998 15.8094 9.01852 15.5333C9.12525 13.9698 9.75113 12.5466 10.7208 11.4291L12.9582 13.6671C13.1541 13.8625 13.4713 13.8625 13.6667 13.6671C13.8627 13.4712 13.8627 13.154 13.6667 12.9585L11.4293 10.7206C12.5468 9.7514 13.9694 9.1255 15.5328 9.01877C15.8089 8.99972 16.0174 8.76069 15.9989 8.48458C15.9798 8.20846 15.7408 8 15.4647 8.01904Z" fill="#FD5000"/>
<path fill-rule="evenodd" clip-rule="evenodd" d="M12.9642 12.9662C11.6929 14.2365 10.0195 15.0217 8.01657 15.0217C6.01368 15.0217 4.32624 14.2365 3.05491 12.9662C1.78457 11.6949 0.996436 9.94535 0.995936 8.01156C0.996436 6.07777 1.77957 4.32824 3.0499 3.05691C4.32123 1.78658 6.06976 1.00144 8.00355 1.00144C9.93734 1.00144 11.6864 1.78658 12.9577 3.05691C14.228 4.32824 15.0127 6.07777 15.0132 8.01156C15.0127 9.94535 14.2345 11.6949 12.9642 12.9662ZM8.00605 0C3.58718 0.00100145 0.00100145 3.59218 0 8.01156C0.00100145 12.4309 3.51007 16.0221 8.01657 16.0231C12.5231 16.0221 16.0201 12.4309 16.0211 8.01156C16.0201 3.59218 12.4254 0.00100145 8.00605 0Z" fill="#15202B"/>
</svg>
