<svg width="15" height="16" viewBox="0 0 15 16" fill="none" xmlns="http://www.w3.org/2000/svg">
<path fill-rule="evenodd" clip-rule="evenodd" d="M2.69802 7.1965C2.9929 7.07 3.31589 7 3.65762 7C5.04031 7 4.73951 7 6.12319 7C6.66808 7.001 7.10843 7.448 7.10941 8C7.10843 8.552 6.66808 8.999 6.12319 9C5.61972 9 4.16158 9 3.65762 9C3.38542 9 3.16451 9.224 3.16451 9.5C3.16451 9.776 3.38542 10 3.65762 10C4.16158 10 5.61972 10 6.12319 10C7.21297 9.9995 8.09564 9.105 8.09564 8H10.5612C12.4681 7.9995 14.013 6.433 14.013 4.5C14.013 4.224 13.7926 4 13.5199 4C13.2477 4 13.0273 4.224 13.0273 4.5C13.0243 5.8805 11.9232 6.9975 10.5612 7H7.82245C7.48073 6.405 6.85201 6 6.12319 6C4.73951 6 5.04031 6 3.65762 6C3.18275 6 2.72711 6.098 2.31388 6.2755C2.06338 6.383 1.94602 6.676 2.05204 6.9305C2.15806 7.185 2.44752 7.304 2.69802 7.1965Z" fill="#FD5000"/>
<path fill-rule="evenodd" clip-rule="evenodd" d="M13.013 12.5C13.013 12.224 12.7895 12 12.5131 12C12.4101 12 10.1601 12 7.93552 12C5.72396 12 3.54489 12 3.5149 12H3.5129C3.38093 12 3.25245 12.0535 3.15897 12.1465C3.06599 12.2395 3.013 12.3685 3.013 12.5C3.013 12.6315 3.06599 12.7605 3.15897 12.8535C3.25245 12.9465 3.38093 13 3.5129 13H3.5149C3.54489 13 5.72396 13 7.93552 13C10.1601 13 12.4101 13 12.5131 13C12.7895 13 13.013 12.776 13.013 12.5Z" fill="#FD5000"/>
<path fill-rule="evenodd" clip-rule="evenodd" d="M2.66451 7.1715C2.79051 7.127 2.89101 7.036 2.94851 6.9155C3.00601 6.7945 3.01301 6.659 2.96851 6.533L2.96701 6.5H3.00651V3.5175C3.00651 2.137 4.11201 1 5.49251 1H10.5065V1.0175C12.0065 1.02 13.0065 2.137 13.0065 3.5175V11.5175C13.0065 11.7935 12.7755 12.017 12.4995 12.0175C12.368 12.0175 12.2425 12.071 12.1495 12.164C12.0565 12.257 12.0065 12.386 12.0065 12.5175V14.5175C12.0065 14.7935 11.7685 15 11.4925 15H4.49251C4.21701 15 4.00651 14.7935 4.00651 14.5175V12.5175C4.00651 12.386 3.94651 12.257 3.85301 12.164C3.76001 12.071 3.62801 12.0175 3.49601 12.0175C2.11551 12.015 0.997007 10.898 0.994507 9.5175C0.994007 8.4315 1.69101 7.517 2.66451 7.1715ZM3.0065 12.98V14.5175C3.0065 15.346 3.664 16 4.4925 16H11.4925C12.3215 16 13.0065 15.346 13.0065 14.5175V12.9445C13.6695 12.7555 14.0065 12.192 14.0065 11.5175V3.5175C14.0065 1.5845 12.5065 0.018 10.5065 0.0175V0H5.4925C3.5595 0 2.0065 1.5845 2.0065 3.5175V6.372C0.8245 6.9295 0.0005 8.118 0 9.5175C0.0005 11.2855 1.2615 12.7425 3.0065 12.98Z" fill="#15202B"/>
</svg>
