<svg width="16" height="16" viewBox="0 0 16 16" fill="none" xmlns="http://www.w3.org/2000/svg">
<path fill-rule="evenodd" clip-rule="evenodd" d="M15.6286 11.9966L8.03991 9.9316C7.42694 9.76478 6.99995 9.19803 6.99995 8.55067C7.00145 7.70589 7.67192 7.0218 8.49989 7.02027H15.3411C15.6171 7.02027 15.8411 6.79173 15.8411 6.51013C15.8411 6.22854 15.6171 6 15.3411 6H8.49989C7.11945 6.00051 6.0005 7.14168 6 8.55067C6.0005 9.66021 6.73147 10.6315 7.78192 10.9172L15.3711 12.9827C15.6376 13.0551 15.9116 12.8934 15.983 12.621C16.054 12.3491 15.8956 12.0691 15.6286 11.9966Z" fill="#FD5000"/>
<path fill-rule="evenodd" clip-rule="evenodd" d="M8 8.5C8 8.776 8.224 9 8.5 9C8.7765 9 9 8.776 9 8.5C9 8.224 8.7765 8 8.5 8C8.224 8 8 8.224 8 8.5Z" fill="#FD5000"/>
<path fill-rule="evenodd" clip-rule="evenodd" d="M8 0C7.48795 0 6.96141 0.0503961 6.43337 0.155345L6.52529 0.666061L6.61821 1.17626C7.0853 1.08326 7.5444 1.0391 7.99351 1.0391C9.92282 1.03962 11.6753 1.85375 12.9432 3.17184C14.2106 4.49097 15.0009 6.30627 15.0009 8.31277V13.4012C15.0009 13.8465 14.822 14.2299 14.5473 14.5115C14.272 14.7926 13.8938 14.9609 13.4957 14.9609C13.3683 14.9609 13.2364 14.9438 13.104 14.9069L2.53228 11.9756C2.08268 11.8509 1.7095 11.5231 1.53715 11.0918C1.19196 10.2346 0.999625 9.29835 0.999625 8.31277C0.999625 7.7475 1.06257 7.16561 1.19795 6.57176C1.81391 3.85661 3.98301 1.69684 6.61771 1.17626L6.42987 0.155345C3.39953 0.760618 0.940177 3.21029 0.225802 6.33225C0.0729362 7.00351 0 7.66645 0 8.31277C0 9.43967 0.220807 10.5141 0.614962 11.4929C0.915699 12.238 1.53915 12.7757 2.27401 12.9793L12.8448 15.9112C13.0611 15.9709 13.2859 16 13.4992 16C14.8385 15.9974 16 14.8731 16 13.4012V8.31277C16 3.72724 12.4091 0.0010391 8 0Z" fill="#15202B"/>
</svg>
