<svg width="16" height="17" viewBox="0 0 16 17" fill="none" xmlns="http://www.w3.org/2000/svg">
<path fill-rule="evenodd" clip-rule="evenodd" d="M0.986414 8.74627C1.4524 8.74627 1.90671 8.69763 2.35032 8.61883L2.469 9.10573C2.53224 9.36694 2.79539 9.52697 3.05659 9.46325C3.3178 9.39953 3.47783 9.13638 3.41411 8.87566L3.29737 8.39606C3.89614 8.20976 4.45941 7.94515 4.98668 7.62752L5.27513 8.04486C5.42786 8.2657 5.7309 8.32115 5.95173 8.16841C6.17305 8.01568 6.2285 7.71264 6.07576 7.49181L5.78829 7.07641C6.27617 6.69263 6.7154 6.25291 7.09918 5.76553L7.51458 6.05251C7.7359 6.20525 8.03893 6.14979 8.19167 5.92896C8.3444 5.70813 8.28895 5.40509 8.06763 5.25236L7.65029 4.96392C7.96792 4.43616 8.23252 3.87338 8.41882 3.27411L8.89843 3.39134C9.15963 3.45457 9.42278 3.29454 9.48601 3.03383C9.54974 2.77262 9.3897 2.50947 9.1285 2.44575L8.6416 2.32755C8.7204 1.88394 8.76904 1.42963 8.76904 0.963648C8.76904 0.695147 8.55161 0.477234 8.28263 0.477234C8.01412 0.477234 7.79621 0.695147 7.79621 0.963648C7.79621 1.35083 7.75633 1.72732 7.69406 2.09651L7.23829 1.9856C6.97709 1.92188 6.71394 2.08191 6.65071 2.34312C6.58699 2.60384 6.74702 2.86699 7.00822 2.93071L7.46934 3.04307C7.31417 3.52559 7.10307 3.98136 6.84965 4.41038L6.46684 4.14626C6.24601 3.99352 5.94297 4.04897 5.79024 4.2698C5.63751 4.49112 5.69296 4.79416 5.91379 4.94689L6.29903 5.21296C6.14192 5.40899 5.97702 5.59869 5.79948 5.77672C5.62194 5.95426 5.43175 6.11915 5.23573 6.27626L4.96966 5.89102C4.81693 5.67019 4.51389 5.61474 4.29306 5.76747C4.07174 5.92021 4.01677 6.22324 4.16951 6.44408L4.43363 6.8264C4.00461 7.07982 3.54836 7.29092 3.06583 7.44609L2.95347 6.98497C2.89024 6.72425 2.62709 6.56422 2.36588 6.62745C2.10517 6.69117 1.94514 6.95432 2.00837 7.21553L2.11976 7.6713C1.75008 7.73356 1.3736 7.77345 0.986414 7.77345C0.717914 7.77345 0.5 7.99136 0.5 8.25986C0.5 8.52836 0.717914 8.74627 0.986414 8.74627Z" fill="#FD5000"/>
<path fill-rule="evenodd" clip-rule="evenodd" d="M15.5192 6.76591C15.3441 6.75462 15.1669 6.74897 14.9887 6.74897C14.4966 6.74897 14.0175 6.80032 13.5491 6.88352L13.4238 6.36944C13.3565 6.09417 13.0792 5.92469 12.8034 5.99197C12.5276 6.05925 12.3586 6.33709 12.4259 6.61236L12.5491 7.11873C11.9169 7.31594 11.3222 7.59481 10.7654 7.93068L10.4609 7.48953C10.2996 7.25637 9.97966 7.19782 9.74649 7.35908C9.51281 7.52034 9.45426 7.84029 9.61552 8.07345L9.91854 8.51203C9.40393 8.91724 8.94016 9.3815 8.53494 9.89609L8.09582 9.59309C7.86265 9.43183 7.54269 9.49037 7.38142 9.72353C7.22016 9.9572 7.2787 10.2766 7.51239 10.4379L7.95304 10.7424C7.61767 11.2997 7.33828 11.8939 7.14158 12.5266L6.63518 12.4033C6.35938 12.336 6.08153 12.505 6.01477 12.7808C5.94749 13.0561 6.11646 13.3339 6.39225 13.4012L6.90584 13.5265C6.82264 13.9949 6.77179 14.474 6.77128 14.966C6.77128 15.1442 6.77744 15.3209 6.78823 15.4965C6.80672 15.7795 7.05067 15.9942 7.33366 15.9762C7.61716 15.9582 7.83184 15.7138 7.81335 15.4308C7.80359 15.2772 7.79845 15.1221 7.79845 14.966C7.79845 14.5577 7.84108 14.1597 7.90631 13.7699L8.38805 13.887C8.66333 13.9543 8.94118 13.7853 9.00846 13.5095C9.07574 13.2343 8.90677 12.9564 8.63098 12.8891L8.1441 12.7705C8.30793 12.2616 8.53083 11.7798 8.79841 11.3269L9.2026 11.6057C9.43577 11.767 9.75573 11.7085 9.917 11.4753C10.0783 11.2416 10.0197 10.9217 9.78603 10.7609L9.37979 10.4795C9.54568 10.2725 9.71978 10.0722 9.90724 9.88428C10.0947 9.69683 10.2955 9.52273 10.5025 9.35685L10.7834 9.76359C10.9447 9.99675 11.2646 10.0553 11.4978 9.89404C11.731 9.73278 11.7895 9.41334 11.6283 9.17967L11.3494 8.77601C11.8024 8.50844 12.2841 8.28555 12.7936 8.12172L12.9117 8.60858C12.979 8.88385 13.2569 9.05282 13.5326 8.98605C13.8079 8.91878 13.9769 8.64094 13.9101 8.36567L13.7925 7.88394C14.1823 7.81821 14.5804 7.7761 14.9887 7.7761C15.1453 7.7761 15.2999 7.78123 15.454 7.79099C15.737 7.80896 15.9809 7.59429 15.9989 7.31132C16.0174 7.02835 15.8027 6.78389 15.5192 6.76591Z" fill="#FD5000"/>
<path fill-rule="evenodd" clip-rule="evenodd" d="M12.9471 12.9491C11.6775 14.2178 10.0063 15.0019 8.006 15.0019C6.00575 15.0019 4.32054 14.2178 3.05088 12.9491C1.78222 11.6795 0.995125 9.93224 0.994625 8.001C0.995125 6.06976 1.77722 4.32254 3.04588 3.05288C4.31554 1.78422 6.06176 1.00012 7.993 1.00012C9.92424 1.00012 11.671 1.78422 12.9406 3.05288C14.2093 4.32254 14.9929 6.06976 14.9934 8.001C14.9929 9.93224 14.2158 11.6795 12.9471 12.9491ZM7.9955 0C3.58245 0.00100012 0.000500063 3.58745 0 8.001C0.000500063 12.4146 3.50544 16.001 8.006 16.002C12.5066 16.001 15.999 12.4146 16 8.001C15.999 3.58745 12.4091 0.00100012 7.9955 0Z" fill="#15202B"/>
</svg>
