<?xml version="1.0" encoding="utf-8"?>
<!-- Generator: Adobe Illustrator 24.1.3, SVG Export Plug-In . SVG Version: 6.00 Build 0)  -->
<svg version="1.1" id="Layer_1" xmlns="http://www.w3.org/2000/svg" xmlns:xlink="http://www.w3.org/1999/xlink" x="0px" y="0px"
	 viewBox="0 0 118.2 137.3" enable-background="new 0 0 118.2 137.3" xml:space="preserve">
<g>
	<path fill="#D42027" d="M50.9,5.3l0.9,0.8c2.6,2.5,4.1,4,4.1,6.2c0.2,0,0.3,0,0.5,0c0.8,0,1.5,0.2,2.1,0.6c0.7,0.5,1.2,1.3,1.4,2.2
		c0.3,1.9-1,3.6-2.9,4c-0.3,0-0.6,0.1-0.8,0.1c0.3,0.7,0.8,1.1,1.7,1.4c0.5,0.1,1,0.2,1.5,0.2c2.1,0,4.5-1,5.9-2.4
		c-0.3-0.4-0.5-0.9-0.6-1.5c-0.1-0.8,0.1-1.7,0.6-2.4c0.5-0.8,1.4-1.3,2.3-1.4c0.2,0,0.5-0.1,0.7-0.1c0.7,0,1.4,0.2,2,0.6
		c0.7,0.5,1.2,1.2,1.3,2c0.2,1.6-0.7,3-2.1,3.7c-0.1,1.1,0,2,0.4,2.5c0.3,0.4,0.8,0.6,1.6,0.6c2.7,0,4.2-1.1,5-2.1
		c-0.9-0.4-1.5-1.2-1.7-2.1c-0.2-1.6,0.9-3.1,2.5-3.4c0.2,0,0.4-0.1,0.6-0.1c1,0,2,0.5,2.5,1.3c1.1-0.4,2.3-0.8,3.9-1.7l4.7-2.7
		l-3.6,4c-0.1,0.1-5.8,6.5-7.2,10.9c-0.4,1.2-0.5,3.1-0.5,5.5l0,1l0.1,0l0,0.7c0,0.8,0.1,1.7,0.2,2.5c3,1.3,3.6,3.2,3.6,4.6
		c1.7,0.1,3.1,0.4,4.2,1c2.3,1.3,2.7,3.9,2.7,4.9l9.4,7.7c0.5-0.1,1.1-0.1,1.7-0.1c1.1,0,2,0.4,2.4,1.1c0.6,0.9,0.5,2.1-0.2,3.6
		c-0.4,0.9-1.2,6.2-1.2,7.4c0,0.4,0.1,0.6,0.1,0.7c0,0,0.1,0,0.2-0.1c0.6-0.3,1.1-0.7,1.2-0.8l2.7-2.7l-1.3,3.6
		c-0.5,1.4-0.9,2.4-1.3,3.2l-0.5,4.1c-0.3,2.3,1.3,5.8,3,8l0.8,1.1l-1.3,0.3c-4.6,1-5.6,3.3-6.6,5.8c-1,2.3-2.1,5-6,6.9L90,97.2
		l0.3-1.7c0.4-2.5-0.2-4.5-2.1-6.4c0.1,5.3-2.1,10.9-6.1,15.3c0,0-0.8,0.9-1.7,1.9c-0.3,0.3-0.8,0.8-1.4,1.3
		c-0.2,5.6-2.3,11.3-6.2,16.8l-1.7,2.4l0.1-2.9c0.3-11.5-9-14-18.8-16.6c-1.7-0.4-3.4-0.9-5-1.4c1.7,3.1,3.4,5.2,3.4,5.2l1.7,2.1
		l-2.6-0.7c-7.9-2-14.1-6.2-17.7-11.8c0.2,1.9,0.5,3.8,1.8,6.3l1.4,2.8l-2.7-1.6c-7.8-4.8-13.7-19.5-10.9-31.6l-1.4-3
		c-1.2-2.5-1-6.2-0.5-9.1c-0.9,0-1.8-0.3-2.5-0.8c-1-0.7-1.6-1.8-1.9-3.2l-0.2-1.1l1.1,0c0.1,0,0.3,0,0.4,0c3.2,0,4.7-1.5,6.7-3.6
		c1.9-1.9,4-4.2,8.2-5.7l0.8-1.2c0.9-1.4,2.1-2.7,3.4-4.1c-0.1-0.3-0.1-0.7-0.2-1c-0.2-0.9-0.4-1.9-0.6-2.6L35,40.7l0,0l-0.3-1
		c-0.8-2.3-1.5-4-2.2-4.9c-2.8-3.6-10.3-7.7-10.3-7.7l-4.7-2.5l5.3,0.9c1.3,0.2,2.5,0.3,3.4,0.3c0.3,0,0.6,0,0.9,0
		c0.2-1.1,1.2-2.1,2.5-2.3c0.2,0,0.4-0.1,0.6-0.1c1.4,0,2.7,1,3,2.4c0.2,1-0.2,1.9-0.9,2.6c0.6,0.4,1.6,0.7,2.7,0.7
		c0.8,0,1.7-0.1,2.7-0.5c0.7-0.3,1.1-0.6,1.3-1.1c0.3-0.8-0.1-1.7-0.4-2.5c-1.6-0.1-2.9-1.2-3.2-2.7c-0.3-1.8,0.9-3.4,2.8-3.8
		c0.2,0,0.5-0.1,0.7-0.1c0.7,0,1.4,0.2,2,0.6c0.7,0.5,1.2,1.2,1.3,2.1c0.1,0.5,0,1.1-0.1,1.6c0.9,0.5,2.1,0.7,3.3,0.7
		c1.6,0,3.2-0.4,4.3-1.2c0.7-0.5,1.1-1.2,1.1-1.9c-0.2,0.1-0.5,0.2-0.8,0.2c-0.2,0-0.5,0.1-0.7,0.1c-0.7,0-1.5-0.2-2.1-0.6
		c-0.7-0.5-1.2-1.3-1.4-2.2c-0.3-1.8,0.9-3.5,2.8-4c-0.8-2.1,0.1-4,1.7-7.3L50.9,5.3 M102.3,0.5l-15,8.5l-4.7,2.7
		c-0.7,0.4-1.3,0.7-1.9,0.9c-0.9-0.6-2-0.9-3.2-0.9c-0.4,0-0.8,0-1.1,0.1c-1.2,0.2-2.2,0.8-3,1.5c-0.4-0.8-1.1-1.6-1.9-2.1
		c-1-0.7-2.3-1.1-3.6-1.1c-0.4,0-0.8,0-1.2,0.1c-1.6,0.3-3.1,1.2-4.1,2.6c-0.1,0.2-0.3,0.4-0.4,0.6c-0.4-1.1-1.2-2.1-2.2-2.8
		c-0.5-0.4-1.2-0.7-1.8-0.9c-0.8-2.2-2.6-3.9-4.5-5.7l-0.9-0.8L50,0.6L48.3,4l-0.5,1.1c-1.2,2.4-2.3,4.6-2.3,7
		c-1.5,1.2-2.5,3-2.6,4.9c-0.2-0.2-0.4-0.3-0.6-0.4c-1-0.7-2.3-1.1-3.6-1.1c-0.4,0-0.8,0-1.3,0.1c-2.8,0.6-4.8,2.8-5.1,5.3
		c-0.7-0.3-1.5-0.5-2.3-0.5c-0.4,0-0.8,0-1.1,0.1c-1.5,0.3-2.8,1.1-3.7,2.3c-0.7,0-1.3-0.1-2-0.2l-5.3-0.9L1,18.9l15.1,8.1l4.7,2.5
		c1.9,1.1,7.4,4.4,9.4,6.9c0.2,0.3,0.8,1.3,1.7,4.1l0.1,0.3l0.2,0.6l0.2,0.7c0.1,0.5,0.3,1.2,0.5,1.9c-1,1.1-1.9,2.2-2.6,3.3
		l-0.3,0.5c-4.2,1.7-6.6,4.2-8.4,6c-2,2.1-2.7,2.7-4.6,2.7c-0.1,0-0.2,0-0.3,0l-1.1,0L12,56.5l0.5,3.4l0.2,1.1
		c0.3,2.1,1.4,3.9,3,5.1c0.3,0.2,0.6,0.4,1,0.6c-0.3,3.3,0,6.1,1,8.2l1,2.2c-2.4,12.5,3.3,28,12.4,33.7l2.7,1.6l8.6,5.3l-3.1-6.3
		c2.9,1.7,6.2,3.1,9.9,4l2.6,0.7l8.4,2.2l-5.5-6.7l-0.6-0.7c9.3,2.5,14.4,4.9,14.2,13.1l-0.1,2.9l-0.2,9.3l5.4-7.6l1.7-2.4
		c4-5.6,6.2-11.4,6.7-17.2c0.3-0.3,0.5-0.5,0.7-0.6c0.9-0.9,1.6-1.8,1.8-2c1.3-1.5,2.5-3.1,3.5-4.9l3.5-1.7l1.6-0.8
		c4.8-2.4,6.3-5.8,7.3-8.3c1-2.4,1.5-3.4,4.7-4.2l1.3-0.3l4.3-1l-2.6-3.5l-0.8-1.1c-1.6-2.1-2.6-4.9-2.4-6L105,71
		c0.4-0.8,0.8-1.8,1.2-3l1.3-3.6l4.1-11.5l-7.3,7c1.3-3,0.7-5-0.1-6.2c-0.6-0.9-2-2.4-4.8-2.4c-0.3,0-0.5,0-0.8,0L91,45.2
		c-0.3-1.8-1.3-4.4-4-5.9c-0.9-0.5-2-0.9-3.2-1.1c-0.5-1.3-1.5-2.6-3.3-3.8c0-0.3,0-0.5-0.1-0.8l0-0.7l-0.1-1.9
		c0-2.2,0.2-3.3,0.3-3.6c1-3.1,5.1-8.2,6.6-9.8l3.6-4L102.3,0.5L102.3,0.5z"/>
</g>
<path fill="none" stroke="#FFFFFF" stroke-width="1.9048" stroke-miterlimit="10" d="M104.7,82.3c-1.7-2.3-3.2-5.8-3-8l0.5-4.1
	c0.4-0.7,0.8-1.8,1.3-3.2l1.3-3.6l-2.7,2.7c-0.1,0.1-0.6,0.5-1.2,0.8c-0.1,0.1-0.2,0.1-0.2,0.1c0-0.1-0.1-0.3-0.1-0.7
	c-0.1-1.3,0.7-6.6,1.2-7.4c0.7-1.6,0.8-2.8,0.2-3.6c-0.5-0.7-1.3-1.1-2.4-1.1c-0.6,0-1.2,0-1.7,0.1l-9.4-7.7
	c-0.1-1.1-0.5-3.7-2.7-4.9c-1.1-0.6-2.5-0.9-4.2-1c0-1.4-0.6-3.2-3.6-4.6c-0.1-0.8-0.2-1.6-0.2-2.5l0-0.7l-0.1,0l0-1
	c-0.1-2.4,0.1-4.3,0.5-5.5c1.4-4.4,7.1-10.8,7.2-10.9l3.6-4L84,14.2c-1.6,0.9-2.9,1.4-3.9,1.7c-0.6-1-1.8-1.5-3.1-1.3
	c-1.6,0.3-2.7,1.8-2.5,3.4c0.2,1,0.8,1.7,1.7,2.1c-0.8,1-2.4,2.1-5,2.1c-0.7,0-1.2-0.2-1.6-0.6c-0.4-0.5-0.6-1.4-0.4-2.5
	c1.5-0.6,2.4-2.1,2.1-3.7c-0.1-0.8-0.6-1.5-1.3-2c-0.8-0.5-1.7-0.7-2.7-0.5c-0.9,0.1-1.8,0.7-2.3,1.4c-0.5,0.7-0.7,1.6-0.6,2.4
	c0.1,0.6,0.3,1.1,0.6,1.5c-1.6,1.8-5.1,2.9-7.3,2.2c-0.8-0.3-1.4-0.7-1.7-1.4c0.2,0,0.5,0,0.8-0.1c1.9-0.4,3.2-2.1,2.9-4
	c-0.1-0.9-0.6-1.7-1.4-2.2c-0.7-0.5-1.6-0.7-2.6-0.6c0-2.2-1.4-3.8-4.1-6.2l-0.9-0.8l-0.5,1.1c-1.6,3.3-2.5,5.3-1.7,7.3
	c-1.9,0.4-3.1,2.1-2.8,4c0.1,0.9,0.6,1.7,1.4,2.2c0.8,0.5,1.8,0.8,2.7,0.6c0.3,0,0.5-0.1,0.8-0.2c0,0.7-0.4,1.4-1.1,1.9
	c-1.9,1.4-5.5,1.6-7.6,0.5c0.2-0.5,0.2-1,0.1-1.6c-0.1-0.8-0.6-1.6-1.3-2.1c-0.8-0.5-1.7-0.7-2.7-0.5c-1.9,0.4-3.1,2.1-2.8,3.8
	c0.3,1.5,1.6,2.6,3.2,2.7c0.3,0.7,0.7,1.7,0.4,2.5c-0.2,0.5-0.6,0.8-1.3,1.1c-2.5,0.9-4.3,0.4-5.4-0.2c0.7-0.7,1-1.6,0.9-2.6
	c-0.3-1.6-1.9-2.6-3.6-2.3c-1.3,0.3-2.2,1.2-2.5,2.3c-1.1,0.1-2.4,0-4.3-0.3l-5.3-0.9l4.7,2.5c0.1,0,7.5,4.1,10.3,7.7
	c0.7,0.9,1.4,2.6,2.2,4.9l0.3,1l0,0l0.2,0.7c0.2,0.6,0.4,1.7,0.6,2.6c0.1,0.4,0.2,0.7,0.2,1c-1.3,1.3-2.5,2.7-3.4,4.1l-0.8,1.2
	c-4.1,1.5-6.3,3.7-8.2,5.7c-2.1,2.2-3.6,3.7-7.1,3.6l-1.1,0l0.2,1.1c0.2,1.4,0.9,2.5,1.9,3.2c0.7,0.5,1.6,0.8,2.5,0.8
	c-0.5,3-0.7,6.6,0.5,9.1l1.4,3c-2.7,12,3.1,26.8,10.9,31.6l2.7,1.6l-1.4-2.8c-1.2-2.5-1.6-4.5-1.8-6.3c3.7,5.6,9.8,9.8,17.7,11.8
	l2.6,0.7l-1.7-2.1c0,0-1.7-2.1-3.4-5.2c1.7,0.5,3.4,0.9,5,1.4c9.8,2.6,19.1,5,18.8,16.6l-0.1,2.9l1.7-2.4c3.9-5.6,6-11.3,6.2-16.8
	c0.6-0.5,1.1-1,1.4-1.3c0.9-0.9,1.7-1.9,1.7-1.9c4-4.4,6.2-10,6.1-15.3c1.8,1.9,2.5,3.9,2.1,6.4L90,97.2l1.6-0.8
	c3.8-1.9,5-4.5,6-6.9c1.1-2.6,2-4.8,6.6-5.8l1.3-0.3L104.7,82.3z"/>
<g id="Layer_x5F_1">
	<g id="_638263168">
		<path fill="#211C58" d="M86,65.9c0.7-0.4,1.1,0.4,0.4,0.8c-7.2,4.4-13.8,10.1-19.2,16.5C71.8,76.4,79,69.7,86,65.9z M83.9,62.4
			c0.7-0.2,0.9,0.8,0.2,1c-8.1,2.2-16,6-23,10.6C67.2,68.6,76,64.2,83.9,62.4z M85.2,63.8c0.7-0.2,1,0.6,0.3,1
			c-7.7,3.4-15,8.1-21.3,13.8C69.6,72.4,77.7,66.7,85.2,63.8z"/>
		<path fill="#211C58" d="M86.4,75.1c0.7-1.1,1.6-1.6,3.1-2.2c2.7-1.2,6.3-2.6,7.5-2.7c2-0.1,2.6,1.3,3.3,1.2
			c0.7-0.2,2.3-4.7,2.3-4.7c-0.2,0.2-0.8,0.6-1.4,1c-1.1,0.7-1.6-0.2-1.7-1.3c-0.1-1.2,0.7-6.8,1.2-7.8c0.8-1.7,0.9-3.5-1.4-3.5
			c-6.7,0-7.2,5-13.4,3.2c0,0,2,2.9,4.9,3c2.9,0.1,4-1.3,5.4-1c1,0.3,1.8,2,1.7,4c-0.2,4.7-7.8,5.4-11,7.2
			C85.4,72.4,85.4,73.6,86.4,75.1z M83.4,52.6c0,0-2.6-1.5-4.9-2.5v-2c0,0-3.9-0.1-7.6,2.6c1.1,0.4,3.4,1.1,4.8,1.3
			C77.6,52.3,83.4,52.6,83.4,52.6z"/>
		<path fill="#211C58" d="M100.8,74.2c0,0-1.5,2.9-1,5.9c-1.4-0.2-3.6-0.4-6-0.3c-4,0.2-7.3,1.5-9.8,1.4c-2.6-0.1-16.2-3.2-5.3,1.5
			C84,85,92.4,88,91.1,95.6c7.7-3.8,3.5-10.6,12.8-12.8C102.3,80.6,100.5,76.8,100.8,74.2z"/>
		<path fill="#211C58" d="M81.5,103.8c5.5-6.1,7-14,5-19.6c0.7-0.1,1.2-0.4,1.5-0.9c0.7-1.4-10.3-7-7.2-13.4
			c-3,2.1-7.3,5.8-10.2,8.8c1.9-3.1,6.8-7.9,10.4-10.8c-0.1-0.4-0.2-0.8-0.3-1.2c-3.7,1.8-8.9,4.8-12.9,8c2.5-3,7.9-7,12.2-9.5
			c-0.2-0.3-0.4-0.7-0.6-1c-4.3,1.5-10.1,3.9-14.8,6.9c3.1-3,8.6-5.8,13.5-7.9c-5.6,0.6-7.2,2.1-10.6,3.1c-6.7,1.8-6.3-5.4-2.8-7.8
			C52.4,60.8,47.8,81,61.7,86.1c-1.4-2.3-2.6-6.1-1.5-8.7C66.9,86.6,82.4,86.1,81.5,103.8z"/>
		<path fill="#211C58" d="M43.3,63.6c-6.5-3.1-7.1-13.5,0.3-16.4c3.9-1.5,9.1-0.9,11.4,2.7c-1.9,2.4-2.5,4.1-3,6.9l-1.9,0.5
			c-0.6-0.3-0.8-0.8-0.4-1.4c1.6-2.6,2.7-3.4,2.7-3.4c-2.3-3-7.2-3.4-10.3-1.8l1.3,1.4C40.4,55.4,40.7,60.2,43.3,63.6z"/>
		<path fill="#211C58" d="M54.7,56.9c-3.7,1.2-8.2,3-9.8,5.3c-1.7-3.6,0.7-9.7,6.2-7.3l1.8-2.2L52,48.1c5.3-2.9,13.1-4.3,19-3.9
			c-13.9,4.4-11.5,8.2-8,11.6c-8.1,3.5-11.4,10-12.4,14.4C49.8,67.4,49.8,61.4,54.7,56.9z"/>
		<path fill="#211C58" d="M23.6,73.6c-4.7,12.2,1.5,28.8,9.6,33.8c-2.2-4.5-1.8-7.3-2.1-10.6c3.4,8.1,10.8,12.8,19,14.9
			c0,0-2.5-3-4.5-7.3c11.8,4,26.9,4.3,26.6,19.5c9.7-13.7,7.6-28.2-5.5-36.9c3.2,7.3,1.2,8.6-2.2,7.3c-11.4-4.1-21.6-18-16.3-30.1
			C33.1,81,47.3,94,58.3,102.7c-6.1-1.9-15.2-6.2-21.5-16.1c0.1,2.7,0.3,5.3,0.4,7.6C32.7,92.8,24.6,83.8,23.6,73.6z"/>
		<path fill="#211C58" d="M33,86.7c-5.8-4.8-8.5-13.4-7.7-20.9c-3.7,3.8-4.2,7.4-4.2,7.4c-1.2-2.5-0.8-6.4-0.2-9.7
			c-2.2,0.4-4.2-0.6-4.6-3.1c8.6,0.3,6.8-8.8,21.1-10.6c-6.8,4-8.8,6.5-13.1,12.8c0,0,3.7-2.9,7.4-4.2C27.8,68.1,29.1,79.4,33,86.7z
			"/>
		<path fill="#211C58" d="M35.8,60.1c-2.9,5.5-6.7,19,3.6,25.2c-4-5.4-3-15.4,3.9-21.8c-0.5-0.4-0.4-0.5-1.1-1.2
			C39.7,62.6,37.1,62.2,35.8,60.1z"/>
		<path fill="#211C58" d="M92.4,51.2l-6.8-3.4c0,0-0.1-2.1-2.3-3c-2.3-0.8-8-0.6-8-0.6c2.7-5.4-6.8-6.9-10.3-6.6
			c1.6,0.8,4.5,3,5.8,4.3c-5-0.3-10-0.2-15,0.4c0.8,0.4,1.6,1,2.3,1.8c-8.3-0.6-15.4-0.1-24.8,5.5c3.2-4.7,7.9-8.1,11.7-9.9
			c-2,0.3-4.1,0.9-6.2,1.1c4.8-3.9,20.7-6.4,31.4-5.4c6.5,0.6,11.1,2.5,10.1,6.2c1.3,0,3.3,0.1,4.8,1c2.4,1.3,2.3,4.6,2.3,4.6
			L92.4,51.2z"/>
		<path fill="#211C58" d="M84.4,15c0,0-5.9,6.6-7.4,11.2c-0.4,1.5-0.6,3.6-0.5,5.8c-6.4-0.9-13.6-0.7-21,0.6s-14.2,3.7-20,6.9
			c-0.7-2.1-1.5-4-2.3-5.2c-3-3.8-10.6-7.9-10.6-7.9c2.3,0.4,4,0.3,5.3,0.2c-0.2-1.1,0.7-2.1,1.8-2.3c1.2-0.2,2.3,0.5,2.5,1.6
			c0.2,1-0.5,2-1.5,2.3c1.1,1.3,3.6,2.5,7.2,1.2c2.9-1.1,2.1-3.6,1.1-5.3c-1.3,0.2-2.6-0.7-2.9-2c-0.2-1.3,0.7-2.5,2.1-2.8
			c1.5-0.3,2.7,0.6,3,1.9c0.1,0.6-0.1,1.2-0.4,1.7c3.6,2.8,12.4,0.9,10.6-4.1c-0.4,0.4-1,0.7-1.6,0.8c-1.5,0.3-2.9-0.6-3.1-2
			s0.8-2.7,2.2-3c0.4-0.1,0.8-0.1,1.2,0c-1.5-2.1-1-3.6,1.1-7.8c3.3,3.1,4.3,4.4,3.6,6.9c0.3-0.2,0.7-0.3,1.1-0.4
			c1.5-0.3,2.9,0.6,3.1,2c0.2,1.4-0.8,2.7-2.2,3c-0.6,0.1-1.2,0.1-1.7-0.2c-0.1,5.4,8.7,4.1,11.2,0.2c-0.5-0.3-0.8-0.8-1-1.5
			c-0.2-1.3,0.7-2.6,2.1-2.8c1.4-0.3,2.7,0.6,3,1.8c0.2,1.3-0.7,2.5-2.1,2.9c-0.3,1.9-0.2,4.6,2.8,4.6c3.8-0.1,5.8-2.1,6.4-3.6
			c-1.1,0-2-0.7-2.1-1.7c-0.2-1.1,0.6-2.1,1.8-2.3c1.2-0.2,2.2,0.4,2.5,1.5C80.7,16.7,82.3,16.2,84.4,15z M76.6,33.7
			c0.1,1.2,0.2,2.4,0.3,3.5c-6.3-0.9-13.3-0.7-20.6,0.6c-7.3,1.3-13.7,4.8-19.3,7.8c-0.3-1.1-0.7-3.4-1.1-4.5
			c5.6-3.1,12.4-5.5,19.7-6.8C63.1,33,70.3,32.8,76.6,33.7z"/>
	</g>
</g>
</svg>
