<?xml version="1.0" encoding="utf-8"?>
<!-- Generator: Adobe Illustrator 24.2.0, SVG Export Plug-In . SVG Version: 6.00 Build 0)  -->
<svg version="1.1" id="Layer_1" xmlns="http://www.w3.org/2000/svg" xmlns:xlink="http://www.w3.org/1999/xlink" x="0px" y="0px"
	 viewBox="0 0 50 50" style="enable-background:new 0 0 50 50;" xml:space="preserve">
<style type="text/css">
	.st0{fill:#C4D8DA;}
	.st1{fill:#056068;}
	.st2{fill:#FDE4D9;}
	.st3{fill:#EF5423;}
	.st4{fill:#FFFFFF;}
</style>
<g>
	<circle class="st0" cx="33.7" cy="22.5" r="13.6"/>
	<path class="st1" d="M49.3,20.1c-0.3-3.6-1.8-7.1-4.3-9.9l-0.1-0.1l1.4-1.4l0.8,0.8c0.3,0,0.6-0.1,0.7-0.3c0.1-0.2,0-0.4-0.1-0.6
		l-2.1-2.1c0,0,0,0,0,0c-0.3,0-0.6,0.1-0.7,0.3c-0.1,0.2,0,0.4,0.1,0.6L45.5,8l-1.4,1.4l-0.1-0.1c-2.6-2.4-5.9-3.9-9.5-4.3l-0.2,0
		V2.6h2.5c0.2-0.2,0.3-0.5,0.2-0.7c-0.1-0.2-0.3-0.3-0.5-0.3h-7.7c-0.2,0.2-0.3,0.5-0.2,0.7c0.1,0.2,0.3,0.3,0.5,0.3h2.3V5l-0.2,0
		c-4.3,0.4-8.3,2.6-11,5.9c-0.1,0.2,0,0.5,0.2,0.5h2.4c0.2,0,0.4-0.1,0.5-0.2c4.1-3.8,10-4.8,15.5-2.6c3.1,1.3,5.6,3.8,6.9,6.8
		c2,4.7,1.6,9.7-1.1,13.7c-2.6,3.9-7,6.3-11.7,6.3c-3.6,0-7-1.4-9.6-3.8c-0.1-0.1-0.3-0.2-0.4-0.2h-2.3c-0.3,0-0.4,0.3-0.2,0.5
		c3.1,3.7,7.8,5.9,12.6,5.9c4.6,0,8.9-1.9,12.1-5.3C48.1,29.2,49.7,24.8,49.3,20.1z"/>
	<path class="st2" d="M18.4,16.7H8.8c-0.7,0-1.2-0.6-1.2-1.2v0c0-0.7,0.6-1.2,1.2-1.2h9.6c0.7,0,1.2,0.6,1.2,1.2v0
		C19.7,16.1,19.1,16.7,18.4,16.7z"/>
	<path class="st2" d="M16.6,22.3H6.7c-0.7,0-1.2-0.6-1.2-1.2v0c0-0.7,0.6-1.2,1.2-1.2h9.9c0.7,0,1.2,0.6,1.2,1.2v0
		C17.9,21.7,17.3,22.3,16.6,22.3z"/>
	<path class="st2" d="M3.5,22.3H1.9c-0.7,0-1.2-0.6-1.2-1.2v0c0-0.7,0.6-1.2,1.2-1.2h1.6c0.7,0,1.2,0.6,1.2,1.2v0
		C4.8,21.7,4.2,22.3,3.5,22.3z"/>
	<path class="st2" d="M18.2,27.9H6.9c-0.7,0-1.2-0.6-1.2-1.2v0c0-0.7,0.6-1.2,1.2-1.2h11.3c0.7,0,1.2,0.6,1.2,1.2v0
		C19.5,27.3,18.9,27.9,18.2,27.9z"/>
	<path class="st3" d="M19.1,15.2H9.5c-0.6,0-1.1,0.5-1.1,1.1c0,0.6,0.5,1.1,1.1,1.1h9.6c0.6,0,1.1-0.5,1.1-1.1
		C20.2,15.7,19.7,15.2,19.1,15.2z"/>
	<path class="st3" d="M17.3,20.8H7.3c-0.6,0-1.1,0.5-1.1,1.1c0,0.6,0.5,1.1,1.1,1.1h9.9c0.6,0,1.1-0.5,1.1-1.1
		C18.3,21.3,17.9,20.8,17.3,20.8z"/>
	<path class="st3" d="M4.2,20.8H2.5c-0.6,0-1.1,0.5-1.1,1.1c0,0.6,0.5,1.1,1.1,1.1h1.6c0.6,0,1.1-0.5,1.1-1.1
		C5.2,21.3,4.8,20.8,4.2,20.8z"/>
	<path class="st3" d="M18.9,26.4H7.5c-0.6,0-1.1,0.5-1.1,1.1c0,0.6,0.5,1.1,1.1,1.1h11.3c0.6,0,1.1-0.5,1.1-1.1
		C19.9,26.9,19.5,26.4,18.9,26.4z"/>
	<path class="st4" d="M33.4,20.1l-3.5-1.3c-0.4-0.1-0.6-0.6-0.6-1l0.1-0.6c0.1-0.6,0.7-1.1,1.3-1.1H33c0.6,0,1.1,0.6,1,1.1h2.3
		c0.3-1.9-1.1-3.4-2.9-3.4l0.3-2.3h-2.3l-0.3,2.3c-1.9,0-3.7,1.6-4,3.4L27,17.9c-0.2,1.4,0.6,2.7,1.8,3.2l3.5,1.3
		c0.4,0.1,0.6,0.6,0.6,1l-0.1,0.6c-0.1,0.6-0.7,1.1-1.3,1.1h-2.3c-0.6,0-1.1-0.6-1-1.1H26c-0.3,1.9,1.1,3.4,2.9,3.4l-0.3,2.3h2.3
		l0.3-2.3c1.9,0,3.7-1.6,4-3.4l0.1-0.6C35.6,21.9,34.8,20.6,33.4,20.1z"/>
	<path class="st3" d="M35.1,20.6l-3.5-1.3c-0.4-0.1-0.6-0.6-0.6-1l0.1-0.6c0.1-0.6,0.7-1.1,1.3-1.1h2.3c0.6,0,1.1,0.6,1,1.1H38
		c0.3-1.9-1.1-3.4-2.9-3.4l0.3-2.3h-2.3l-0.3,2.3c-1.9,0-3.7,1.6-4,3.4l-0.1,0.6c-0.2,1.4,0.6,2.7,1.8,3.2l3.5,1.3
		c0.4,0.1,0.6,0.6,0.6,1l-0.1,0.6c-0.1,0.6-0.7,1.1-1.3,1.1h-2.3c-0.6,0-1.1-0.6-1-1.1h-2.3c-0.3,1.9,1.1,3.4,2.9,3.4l-0.3,2.3h2.3
		l0.3-2.3c1.9,0,3.7-1.6,4-3.4l0.1-0.6C37.3,22.3,36.5,21,35.1,20.6z"/>
</g>
</svg>
