<?xml version="1.0" encoding="utf-8"?>
<!-- Generator: Adobe Illustrator 24.1.3, SVG Export Plug-In . SVG Version: 6.00 Build 0)  -->
<svg version="1.1" id="Layer_1" xmlns="http://www.w3.org/2000/svg" xmlns:xlink="http://www.w3.org/1999/xlink" x="0px" y="0px"
	 viewBox="0 0 50 50" style="enable-background:new 0 0 50 50;" xml:space="preserve">
<style type="text/css">
	.st0{fill:#254B53;}
</style>
<g>
	<g>
		<path class="st0" d="M25,39C14.2,39,5.5,30.3,5.5,19.5S14.2,0,25,0c10.8,0,19.5,8.7,19.5,19.5S35.8,39,25,39z M25,2
			C15.4,2,7.5,9.9,7.5,19.5S15.4,37,25,37s17.5-7.8,17.5-17.5S34.6,2,25,2z"/>
	</g>
	<g>
		<path class="st0" d="M32.9,31.1c0,1-0.8,1.7-1.7,1.7s-1.7-0.8-1.7-1.7c0-1,0.8-1.7,1.7-1.7S32.9,30.2,32.9,31.1z"/>
	</g>
	<g>
		<g>
			<path class="st0" d="M37.9,26.7c0,1-0.8,1.7-1.7,1.7s-1.7-0.8-1.7-1.7s0.8-1.7,1.7-1.7S37.9,25.8,37.9,26.7z"/>
		</g>
		<g>
			<path class="st0" d="M31.7,25.5c0,1-0.8,1.7-1.7,1.7s-1.7-0.8-1.7-1.7s0.8-1.7,1.7-1.7S31.7,24.6,31.7,25.5z"/>
		</g>
		<g>
			<path class="st0" d="M26.8,32.9c0,1-0.8,1.7-1.7,1.7s-1.7-0.8-1.7-1.7s0.8-1.7,1.7-1.7S26.8,31.9,26.8,32.9z"/>
		</g>
		<g>
			<path class="st0" d="M26.4,27.3c0,1-0.8,1.7-1.7,1.7S23,28.2,23,27.3s0.8-1.7,1.7-1.7S26.4,26.3,26.4,27.3z"/>
		</g>
		<g>
			<circle class="st0" cx="33.7" cy="21.6" r="1.7"/>
		</g>
		<g>
			<path class="st0" d="M37.9,26.7c0,1-0.8,1.7-1.7,1.7s-1.7-0.8-1.7-1.7s0.8-1.7,1.7-1.7S37.9,25.8,37.9,26.7z"/>
		</g>
		<g>
			<circle class="st0" cx="38.7" cy="20.9" r="1.7"/>
		</g>
	</g>
	<g>
		<path class="st0" d="M25.2,50c-0.2,0-0.4-0.1-0.6-0.2l-2.4-1.9c-0.2-0.2-0.4-0.5-0.4-0.8v-1.6c0-3.1-0.7-4.5-2.3-7.5l-0.1-0.2
			c-0.2-0.4-0.2-0.8,0.1-1.1c0.2-0.3,0.7-0.5,1.1-0.3c3.2,0.8,6.3,0.8,9.4,0c0.4-0.1,0.8,0,1.1,0.3c0.3,0.3,0.3,0.8,0.1,1.1L30.9,38
			c-1.6,3-2.3,4.4-2.3,7.5v1.6c0,0.3-0.1,0.6-0.4,0.8l-2.4,1.9C25.6,49.9,25.4,50,25.2,50z M23.8,46.6l1.4,1.1l1.4-1.1v-1.1
			c0-2.9,0.6-4.5,1.7-6.7c-2,0.3-4.1,0.3-6.1,0c1.1,2.1,1.7,3.8,1.7,6.7V46.6z"/>
	</g>
</g>
</svg>
