<?xml version="1.0" encoding="utf-8"?>
<!-- Generator: Adobe Illustrator 24.2.1, SVG Export Plug-In . SVG Version: 6.00 Build 0)  -->
<svg version="1.1" id="Layer_1" xmlns="http://www.w3.org/2000/svg" xmlns:xlink="http://www.w3.org/1999/xlink" x="0px" y="0px"
	 viewBox="0 0 130 180" enable-background="new 0 0 130 180" xml:space="preserve">
<rect fill="#006068" width="130" height="180"/>
<g>
	<defs>
		<rect id="SVGID_1_" width="130" height="180"/>
	</defs>
	<clipPath id="SVGID_2_">
		<use xlink:href="#SVGID_1_"  overflow="visible"/>
	</clipPath>
	<g opacity="5.000000e-02" clip-path="url(#SVGID_2_)">
		<path fill="#C5D9DB" d="M73.5,87.2c-0.1,0-0.3,0-0.4,0c-4.9-0.1-8.1-2.6-11.5-1.3c-2,0.8-2.9,2.4-2.9,4.2c0,1.7,0.9,3.4,2.9,4.2
			c3.4,1.3,6.6-1.2,11.5-1.3c0.1,0,0.3,0,0.4,0c0.3-0.9,0.5-1.9,0.5-2.9C73.9,89,73.8,88,73.5,87.2z"/>
		<path fill="#C5D9DB" d="M60.2,97.4c-0.1,0-0.1,0-0.2-0.1c1.4,1,3.2,1.6,5,1.6c3.1,0,5.9-1.6,7.5-4.1
			C67.9,96.2,65.4,98.8,60.2,97.4z"/>
		<path fill="#C5D9DB" d="M72.6,85.3c-1.6-2.5-4.4-4.2-7.6-4.2c-2,0-3.8,0.6-5.2,1.7c0.1,0,0.3-0.1,0.4-0.1
			C65.5,81.3,67.9,84,72.6,85.3z"/>
		<path fill="#C5D9DB" d="M65,79.5c-5.8,0-10.5,4.7-10.5,10.5c0,5.8,4.7,10.5,10.5,10.5c5.8,0,10.5-4.7,10.5-10.5
			C75.5,84.2,70.8,79.5,65,79.5z M65,99.7c-5.3,0-9.7-4.4-9.7-9.7c0-5.4,4.4-9.7,9.7-9.7c5.4,0,9.7,4.4,9.7,9.7
			C74.7,95.3,70.3,99.7,65,99.7z"/>
		<path fill="#C5D9DB" d="M65,78c-6.6,0-12,5.4-12,12c0,6.6,5.4,12,12,12c6.6,0,12-5.4,12-12C77,83.4,71.6,78,65,78z M65,101.2
			c-6.2,0-11.2-5-11.2-11.2c0-6.2,5-11.2,11.2-11.2c6.2,0,11.2,5,11.2,11.2C76.2,96.2,71.2,101.2,65,101.2z"/>
		<path fill="#C5D9DB" d="M65,76.2c-7.6,0-13.8,6.2-13.8,13.8c0,7.6,6.2,13.8,13.8,13.8c7.6,0,13.8-6.2,13.8-13.8
			C78.8,82.4,72.6,76.2,65,76.2z M65,102.8c-7.1,0-12.8-5.8-12.8-12.8c0-7.1,5.8-12.8,12.8-12.8c7.1,0,12.8,5.8,12.8,12.8
			C77.8,97.1,72.1,102.8,65,102.8z"/>
		<path fill="#C5D9DB" d="M65,74.1c-8.8,0-15.9,7.1-15.9,15.9c0,8.8,7.1,15.9,15.9,15.9c8.8,0,15.9-7.1,15.9-15.9
			C80.9,81.2,73.8,74.1,65,74.1z M65,104.8c-8.1,0-14.8-6.6-14.8-14.8c0-8.1,6.6-14.8,14.8-14.8c8.1,0,14.8,6.6,14.8,14.8
			C79.8,98.1,73.1,104.8,65,104.8z"/>
		<path fill="#C5D9DB" d="M65,71.7c-10.1,0-18.3,8.2-18.3,18.3c0,10.1,8.2,18.3,18.3,18.3c10.1,0,18.3-8.2,18.3-18.3
			C83.3,79.9,75.1,71.7,65,71.7z M65,107c-9.4,0-17-7.6-17-17c0-9.4,7.6-17,17-17c9.4,0,17,7.6,17,17C82,99.4,74.4,107,65,107z"/>
		<path fill="#C5D9DB" d="M65,69c-11.6,0-21,9.4-21,21c0,11.6,9.4,21,21,21c11.6,0,21-9.4,21-21C86,78.4,76.6,69,65,69z M65,109.5
			c-10.8,0-19.5-8.8-19.5-19.5c0-10.8,8.8-19.5,19.5-19.5c10.8,0,19.5,8.8,19.5,19.5C84.5,100.8,75.8,109.5,65,109.5z"/>
		<path fill="#C5D9DB" d="M65,65.8c-13.3,0-24.2,10.9-24.2,24.2c0,13.3,10.9,24.2,24.2,24.2c13.3,0,24.2-10.9,24.2-24.2
			C89.2,76.7,78.3,65.8,65,65.8z M65,112.4c-12.4,0-22.4-10.1-22.4-22.4c0-12.4,10.1-22.4,22.4-22.4c12.4,0,22.4,10.1,22.4,22.4
			C87.4,102.4,77.4,112.4,65,112.4z"/>
		<path fill="#C5D9DB" d="M65,62.2c-15.3,0-27.8,12.5-27.8,27.8c0,15.3,12.5,27.8,27.8,27.8c15.3,0,27.8-12.5,27.8-27.8
			C92.8,74.7,80.3,62.2,65,62.2z M65,115.8c-14.2,0-25.8-11.6-25.8-25.8c0-14.2,11.6-25.8,25.8-25.8c14.2,0,25.8,11.6,25.8,25.8
			C90.8,104.2,79.2,115.8,65,115.8z"/>
		<path fill="#C5D9DB" d="M65,58c-17.6,0-32,14.4-32,32c0,17.6,14.4,32,32,32c17.6,0,32-14.4,32-32C97,72.4,82.6,58,65,58z
			 M65,119.7c-16.4,0-29.7-13.3-29.7-29.7c0-16.4,13.3-29.7,29.7-29.7c16.4,0,29.7,13.3,29.7,29.7C94.7,106.4,81.4,119.7,65,119.7z"
			/>
		<path fill="#C5D9DB" d="M65,53.2c-20.3,0-36.8,16.5-36.8,36.8c0,20.3,16.5,36.8,36.8,36.8c20.3,0,36.8-16.5,36.8-36.8
			C101.8,69.7,85.3,53.2,65,53.2z M65,124.1c-18.8,0-34.1-15.3-34.1-34.1c0-18.8,15.3-34.1,34.1-34.1c18.8,0,34.1,15.3,34.1,34.1
			C99.1,108.8,83.8,124.1,65,124.1z"/>
		<path fill="#C5D9DB" d="M65,47.7c-23.3,0-42.3,19-42.3,42.3c0,23.3,19,42.3,42.3,42.3c23.3,0,42.3-19,42.3-42.3
			C107.3,66.7,88.3,47.7,65,47.7z M65,129.3c-21.6,0-39.3-17.6-39.3-39.3c0-21.6,17.6-39.3,39.3-39.3c21.6,0,39.3,17.6,39.3,39.3
			C104.3,111.6,86.6,129.3,65,129.3z"/>
		<path fill="#C5D9DB" d="M65,41.3c-26.8,0-48.7,21.8-48.7,48.7c0,26.8,21.8,48.7,48.7,48.7c26.8,0,48.7-21.8,48.7-48.7
			C113.7,63.2,91.8,41.3,65,41.3z M65,135.1c-24.9,0-45.1-20.2-45.1-45.1c0-24.9,20.2-45.1,45.1-45.1c24.9,0,45.1,20.2,45.1,45.1
			C110.1,114.9,89.9,135.1,65,135.1z"/>
		<path fill="#C5D9DB" d="M65,34C34.1,34,9,59.1,9,90c0,30.9,25.1,56,56,56c30.9,0,56-25.1,56-56C121,59.1,95.9,34,65,34z M65,141.9
			c-28.6,0-51.9-23.3-51.9-51.9c0-28.6,23.3-51.9,51.9-51.9c28.6,0,51.9,23.3,51.9,51.9C116.9,118.6,93.6,141.9,65,141.9z"/>
		<path fill="#C5D9DB" d="M65,25.6C29.5,25.6,0.6,54.5,0.6,90c0,35.5,28.9,64.4,64.4,64.4c35.5,0,64.4-28.9,64.4-64.4
			C129.4,54.5,100.5,25.6,65,25.6z M65,149.7c-32.9,0-59.7-26.8-59.7-59.7c0-32.9,26.8-59.7,59.7-59.7c32.9,0,59.7,26.8,59.7,59.7
			C124.7,122.9,97.9,149.7,65,149.7z"/>
		<path fill="#C5D9DB" d="M65,16C24.2,16-9,49.2-9,90c0,40.8,33.2,74,74,74c40.8,0,74-33.2,74-74C139,49.2,105.8,16,65,16z
			 M65,158.7c-37.9,0-68.7-30.8-68.7-68.7c0-37.9,30.8-68.7,68.7-68.7c37.9,0,68.7,30.8,68.7,68.7C133.7,127.9,102.9,158.7,65,158.7
			z"/>
		<path fill="#C5D9DB" d="M65,4.9C18.1,4.9-20.1,43.1-20.1,90c0,46.9,38.2,85.1,85.1,85.1c46.9,0,85.1-38.2,85.1-85.1
			C150.1,43.1,111.9,4.9,65,4.9z M65,168.9c-43.5,0-78.9-35.4-78.9-78.9c0-43.5,35.4-79,78.9-79c43.5,0,79,35.4,79,79
			C143.9,133.5,108.5,168.9,65,168.9z"/>
		<path fill="#C5D9DB" d="M65-7.9C11-7.9-32.9,36-32.9,90c0,54,43.9,97.9,97.9,97.9c54,0,97.9-43.9,97.9-97.9
			C162.9,36,119-7.9,65-7.9z M65,180.8c-50.1,0-90.8-40.7-90.8-90.8c0-50.1,40.7-90.8,90.8-90.8c50.1,0,90.8,40.7,90.8,90.8
			C155.8,140.1,115.1,180.8,65,180.8z"/>
		<path fill="#C5D9DB" d="M65-22.6C2.9-22.6-47.6,27.9-47.6,90c0,62.1,50.5,112.6,112.6,112.6c62.1,0,112.6-50.5,112.6-112.6
			C177.6,27.9,127.1-22.6,65-22.6z M65,194.4C7.4,194.4-39.4,147.6-39.4,90C-39.4,32.4,7.4-14.4,65-14.4
			c57.6,0,104.4,46.8,104.4,104.4C169.4,147.6,122.6,194.4,65,194.4z"/>
		<path fill="#C5D9DB" d="M65-39.4C-6.4-39.4-64.4,18.6-64.4,90c0,71.4,58.1,129.4,129.4,129.4c71.4,0,129.4-58.1,129.4-129.4
			C194.4,18.6,136.4-39.4,65-39.4z M65,210.1C-1.2,210.1-55.1,156.2-55.1,90C-55.1,23.8-1.2-30.1,65-30.1
			c66.2,0,120.1,53.9,120.1,120.1C185.1,156.2,131.2,210.1,65,210.1z"/>
	</g>
</g>
</svg>
