<?xml version="1.0" encoding="utf-8"?>
<!-- Generator: Adobe Illustrator 26.0.2, SVG Export Plug-In . SVG Version: 6.00 Build 0)  -->
<svg version="1.1" id="Layer_1" xmlns="http://www.w3.org/2000/svg" xmlns:xlink="http://www.w3.org/1999/xlink" x="0px" y="0px"
	 viewBox="0 0 100 100" style="enable-background:new 0 0 100 100;" xml:space="preserve">
<style type="text/css">
	.st0{fill:#D02032;}
	.st1{fill:#3B3971;}
	.st2{fill:#FFFFFF;}
</style>
<rect class="st0" width="100" height="7.8297"/>
<rect y="15.3846" class="st0" width="100" height="7.8297"/>
<rect y="30.7692" class="st0" width="100" height="7.8297"/>
<rect y="46.0165" class="st0" width="100" height="7.8297"/>
<rect class="st1" width="50" height="53.8461"/>
<rect y="61.4011" class="st0" width="100" height="7.8297"/>
<rect y="76.7857" class="st0" width="100" height="7.8297"/>
<rect y="92.1703" class="st0" width="100" height="7.8297"/>
<polygon class="st2" points="13.8736,7.6923 14.5604,9.8901 16.7582,9.8901 14.9725,11.2637 15.6593,13.4615 13.8736,12.0879 
	12.0879,13.4615 12.7747,11.2637 10.989,9.8901 13.1868,9.8901 "/>
<polygon class="st2" points="13.8736,18.4066 14.5604,20.6044 16.7582,20.6044 14.9725,21.978 15.6593,24.1758 13.8736,22.8022 
	12.0879,24.1758 12.7747,21.978 10.989,20.6044 13.1868,20.6044 "/>
<polygon class="st2" points="13.8736,29.2582 14.5604,31.456 16.7582,31.456 14.9725,32.8297 15.6593,35.0275 13.8736,33.6539 
	12.0879,35.0275 12.7747,32.8297 10.989,31.456 13.1868,31.456 "/>
<polygon class="st2" points="13.8736,40.1099 14.5604,42.3077 16.7582,42.3077 14.9725,43.544 15.6593,45.7418 13.8736,44.5055 
	12.0879,45.7418 12.7747,43.544 10.989,42.3077 13.1868,42.3077 "/>
<polygon class="st2" points="25.9615,7.6923 26.6483,9.8901 28.8461,9.8901 27.0604,11.2637 27.7472,13.4615 25.9615,12.0879 
	24.1758,13.4615 24.8626,11.2637 23.0769,9.8901 25.2747,9.8901 "/>
<polygon class="st2" points="25.9615,18.4066 26.6483,20.6044 28.8461,20.6044 27.0604,21.978 27.7472,24.1758 25.9615,22.8022 
	24.1758,24.1758 24.8626,21.978 23.0769,20.6044 25.2747,20.6044 "/>
<polygon class="st2" points="25.9615,29.2582 26.6483,31.456 28.8461,31.456 27.0604,32.8297 27.7472,35.0275 25.9615,33.6539 
	24.1758,35.0275 24.8626,32.8297 23.0769,31.456 25.2747,31.456 "/>
<polygon class="st2" points="25.9615,40.1099 26.6483,42.3077 28.8461,42.3077 27.0604,43.544 27.7472,45.7418 25.9615,44.5055 
	24.1758,45.7418 24.8626,43.544 23.0769,42.3077 25.2747,42.3077 "/>
<polygon class="st2" points="38.0494,7.6923 38.7363,9.8901 40.9341,9.8901 39.1483,11.2637 39.8352,13.4615 38.0494,12.0879 
	36.2637,13.4615 36.9505,11.2637 35.1648,9.8901 37.3626,9.8901 "/>
<polygon class="st2" points="38.0494,18.4066 38.7363,20.6044 40.9341,20.6044 39.1483,21.978 39.8352,24.1758 38.0494,22.8022 
	36.2637,24.1758 36.9505,21.978 35.1648,20.6044 37.3626,20.6044 "/>
<polygon class="st2" points="38.0494,29.2582 38.7363,31.456 40.9341,31.456 39.1483,32.8297 39.8352,35.0275 38.0494,33.6539 
	36.2637,35.0275 36.9505,32.8297 35.1648,31.456 37.3626,31.456 "/>
<polygon class="st2" points="38.0494,40.1099 38.7363,42.3077 40.9341,42.3077 39.1483,43.544 39.8352,45.7418 38.0494,44.5055 
	36.2637,45.7418 36.9505,43.544 35.1648,42.3077 37.3626,42.3077 "/>
<polygon class="st2" points="7.8297,2.0604 8.5165,4.2582 10.7143,4.2582 8.9286,5.6319 9.6154,7.8297 7.8297,6.456 6.0439,7.8297 
	6.7308,5.6319 4.945,4.2582 7.1428,4.2582 "/>
<polygon class="st2" points="7.8297,12.9121 8.5165,15.1099 10.7143,15.1099 8.9286,16.4835 9.6154,18.6813 7.8297,17.3077 
	6.0439,18.6813 6.7308,16.4835 4.945,15.1099 7.1428,15.1099 "/>
<polygon class="st2" points="7.8297,23.7637 8.5165,25.9615 10.7143,25.9615 8.9286,27.3352 9.6154,29.533 7.8297,28.1593 
	6.0439,29.533 6.7308,27.3352 4.945,25.9615 7.1428,25.9615 "/>
<polygon class="st2" points="7.8297,34.478 8.5165,36.6758 10.7143,36.6758 8.9286,38.0495 9.6154,40.2473 7.8297,38.8736 
	6.0439,40.2473 6.7308,38.0495 4.945,36.6758 7.1428,36.6758 "/>
<polygon class="st2" points="7.8297,45.3297 8.5165,47.5275 10.7143,47.5275 8.9286,48.9011 9.6154,51.0989 7.8297,49.7253 
	6.0439,51.0989 6.7308,48.9011 4.945,47.5275 7.1428,47.5275 "/>
<polygon class="st2" points="19.9176,2.0604 20.6044,4.2582 22.8022,4.2582 21.0165,5.6319 21.7033,7.8297 19.9176,6.456 
	18.1319,7.8297 18.8187,5.6319 17.033,4.2582 19.2308,4.2582 "/>
<polygon class="st2" points="19.9176,12.9121 20.6044,15.1099 22.8022,15.1099 21.0165,16.4835 21.7033,18.6813 19.9176,17.3077 
	18.1319,18.6813 18.8187,16.4835 17.033,15.1099 19.2308,15.1099 "/>
<polygon class="st2" points="19.9176,23.7637 20.6044,25.9615 22.8022,25.9615 21.0165,27.3352 21.7033,29.533 19.9176,28.1593 
	18.1319,29.533 18.8187,27.3352 17.033,25.9615 19.2308,25.9615 "/>
<polygon class="st2" points="19.9176,34.478 20.6044,36.6758 22.8022,36.6758 21.0165,38.0495 21.7033,40.2473 19.9176,38.8736 
	18.1319,40.2473 18.8187,38.0495 17.033,36.6758 19.2308,36.6758 "/>
<polygon class="st2" points="19.9176,45.3297 20.6044,47.5275 22.8022,47.5275 21.0165,48.9011 21.7033,51.0989 19.9176,49.7253 
	18.1319,51.0989 18.8187,48.9011 17.033,47.5275 19.2308,47.5275 "/>
<polygon class="st2" points="32.0055,2.0604 32.6923,4.2582 34.8901,4.2582 33.1044,5.6319 33.7912,7.8297 32.0055,6.456 
	30.2198,7.8297 30.9066,5.6319 29.1209,4.2582 31.3187,4.2582 "/>
<polygon class="st2" points="32.0055,12.9121 32.6923,15.1099 34.8901,15.1099 33.1044,16.4835 33.7912,18.6813 32.0055,17.3077 
	30.2198,18.6813 30.9066,16.4835 29.1209,15.1099 31.3187,15.1099 "/>
<polygon class="st2" points="32.0055,23.7637 32.6923,25.9615 34.8901,25.9615 33.1044,27.3352 33.7912,29.533 32.0055,28.1593 
	30.2198,29.533 30.9066,27.3352 29.1209,25.9615 31.3187,25.9615 "/>
<polygon class="st2" points="32.0055,34.478 32.6923,36.6758 34.8901,36.6758 33.1044,38.0495 33.7912,40.2473 32.0055,38.8736 
	30.2198,40.2473 30.9066,38.0495 29.1209,36.6758 31.3187,36.6758 "/>
<polygon class="st2" points="32.0055,45.3297 32.6923,47.5275 34.8901,47.5275 33.1044,48.9011 33.7912,51.0989 32.0055,49.7253 
	30.2198,51.0989 30.9066,48.9011 29.1209,47.5275 31.3187,47.5275 "/>
<polygon class="st2" points="44.2308,2.0604 44.9176,4.2582 47.1154,4.2582 45.3297,5.6319 46.0165,7.8297 44.2308,6.456 
	42.445,7.8297 43.1319,5.6319 41.3461,4.2582 43.544,4.2582 "/>
<polygon class="st2" points="44.2308,12.9121 44.9176,15.1099 47.1154,15.1099 45.3297,16.4835 46.0165,18.6813 44.2308,17.3077 
	42.445,18.6813 43.1319,16.4835 41.3461,15.1099 43.544,15.1099 "/>
<polygon class="st2" points="44.2308,23.7637 44.9176,25.9615 47.1154,25.9615 45.3297,27.3352 46.0165,29.533 44.2308,28.1593 
	42.445,29.533 43.1319,27.3352 41.3461,25.9615 43.544,25.9615 "/>
<polygon class="st2" points="44.2308,34.478 44.9176,36.6758 47.1154,36.6758 45.3297,38.0495 46.0165,40.2473 44.2308,38.8736 
	42.445,40.2473 43.1319,38.0495 41.3461,36.6758 43.544,36.6758 "/>
<polygon class="st2" points="44.2308,45.3297 44.9176,47.5275 47.1154,47.5275 45.3297,48.9011 46.0165,51.0989 44.2308,49.7253 
	42.445,51.0989 43.1319,48.9011 41.3461,47.5275 43.544,47.5275 "/>
<polygon class="st2" points="4.533,9.8901 2.3351,9.8901 1.6483,7.6923 0.9615,9.8901 0,9.8901 0,10.8411 0.5494,11.2637 0,13.022 
	0,13.3559 1.6483,12.0879 3.4341,13.4615 2.7473,11.2637 "/>
<polygon class="st2" points="4.533,20.6044 2.3351,20.6044 1.6483,18.4066 0.9615,20.6044 0,20.6044 0,21.5554 0.5494,21.978 
	0,23.7363 0,24.0702 1.6483,22.8022 3.4341,24.1758 2.7473,21.978 "/>
<polygon class="st2" points="4.533,31.4561 2.3351,31.4561 1.6483,29.2582 0.9615,31.4561 0,31.4561 0,32.407 0.5494,32.8297 
	0,34.588 0,34.9218 1.6483,33.6538 3.4341,35.0275 2.7473,32.8297 "/>
<polygon class="st2" points="4.533,42.3077 2.3351,42.3077 1.6483,40.1099 0.9615,42.3077 0,42.3077 0,43.1636 0.5494,43.5439 
	0,45.3022 0,45.6467 1.6483,44.5055 3.4341,45.7418 2.7473,43.5439 "/>
</svg>
