<?xml version="1.0" encoding="utf-8"?>
<!-- Generator: Adobe Illustrator 24.1.3, SVG Export Plug-In . SVG Version: 6.00 Build 0)  -->
<svg version="1.1" id="Layer_1" xmlns="http://www.w3.org/2000/svg" xmlns:xlink="http://www.w3.org/1999/xlink" x="0px" y="0px"
	 viewBox="0 0 50 50" style="enable-background:new 0 0 50 50;" xml:space="preserve">
<style type="text/css">
	.st0{fill:#FF5100;}
</style>
<g>
	<polygon class="st0" points="20.9,29.9 15.8,24.8 13.6,27 20.9,34.2 36,19.1 33.8,16.9 	"/>
	<path class="st0" d="M50,28.5v-7.1h-3.9c-0.2-1.3-0.6-2.7-1.1-3.9l3.4-2l-3.5-6.1l-3.5,2c-0.9-1-1.8-2-2.9-2.8l2-3.5l-6.1-3.5
		l-2.1,3.6c-1.2-0.5-2.5-0.8-3.8-1V0h-7.1v4.2c-1.3,0.2-2.6,0.6-3.8,1l-2.1-3.6L9.4,5.1l2.1,3.6c-1,0.8-1.9,1.8-2.8,2.8L5.1,9.4
		l-3.5,6.1l3.6,2.1c-0.5,1.2-0.8,2.5-1,3.8H0v7.1h4.1c0.2,1.3,0.5,2.6,1,3.9l-3.5,2l3.5,6.1l3.5-2c0.9,1,1.8,2,2.9,2.9l-2,3.4
		l6.1,3.5l1.9-3.4c1.3,0.5,2.6,0.9,4,1.1V50h7.1v-3.8c1.4-0.2,2.7-0.6,4-1.1l1.9,3.3l6.1-3.5l-1.9-3.3c1.1-0.9,2-1.9,2.9-2.9
		l3.3,1.9l3.5-6.1l-3.3-1.9c0.5-1.3,0.8-2.6,1-4H50z M46.1,35.1l-1.9,3.2l-3.1-1.8L40.7,37c-1,1.4-2.3,2.6-3.7,3.7l-0.6,0.4l1.8,3.1
		l-3.2,1.8L33.3,43l-0.7,0.3c-1.6,0.7-3.3,1.1-5,1.3l-0.7,0.1v3.6h-3.7v-3.6l-0.7-0.1c-1.7-0.2-3.4-0.7-5-1.4l-0.7-0.3l-1.8,3.2
		l-3.2-1.8l1.9-3.2L13,40.6c-1.3-1.1-2.6-2.3-3.6-3.6L9,36.4l-3.3,1.9l-1.9-3.2l3.3-1.9l-0.3-0.7c-0.6-1.6-1.1-3.2-1.3-4.9l-0.1-0.7
		H1.7v-3.7h3.9l0.1-0.7c0.2-1.7,0.7-3.3,1.3-4.8l0.3-0.7l-3.4-2l1.9-3.2l3.4,2l0.4-0.6c1-1.3,2.2-2.5,3.5-3.5l0.6-0.4l-2-3.5
		l3.2-1.9l2,3.4L17.6,7c1.5-0.6,3.2-1.1,4.8-1.3l0.7-0.1v-4h3.7v3.9l0.7,0.1c1.7,0.2,3.3,0.6,4.8,1.3l0.7,0.3l1.9-3.4l3.2,1.9
		l-1.9,3.3l0.6,0.4c1.3,1,2.6,2.2,3.6,3.5l0.5,0.6l3.3-1.9l1.9,3.2l-3.3,1.9l0.3,0.7c0.7,1.6,1.1,3.2,1.4,4.9l0.1,0.7h3.7v3.7h-3.7
		l-0.1,0.7c-0.2,1.7-0.6,3.4-1.3,5L43,33.2L46.1,35.1z"/>
	<path class="st0" d="M25.1,7.8c-9.6,0-17.4,7.8-17.4,17.4c0,9.6,7.8,17.4,17.4,17.4c9.6,0,17.4-7.8,17.4-17.4
		C42.5,15.6,34.7,7.8,25.1,7.8z M25.1,40.9c-8.7,0-15.7-7.1-15.7-15.7c0-8.7,7.1-15.7,15.7-15.7c8.7,0,15.7,7.1,15.7,15.7
		C40.8,33.8,33.8,40.9,25.1,40.9z"/>
</g>
</svg>
