<svg width="48" height="49" viewBox="0 0 48 49" fill="none" xmlns="http://www.w3.org/2000/svg">
<path fill-rule="evenodd" clip-rule="evenodd" d="M15.0653 3.84884C12.8562 3.84884 11.0653 5.59805 11.0653 7.75581V41.2442C11.0653 43.402 12.8562 45.1512 15.0653 45.1512H32.2082C34.4173 45.1512 36.2082 43.4019 36.2082 41.2442V7.75581C36.2082 5.59805 34.4173 3.84884 32.2082 3.84884H15.0653ZM7.63672 7.75581C7.63672 3.74854 10.9626 0.5 15.0653 0.5H32.2082C36.3108 0.5 39.6367 3.74854 39.6367 7.75581V41.2442C39.6367 45.2515 36.3108 48.5 32.2082 48.5H15.0653C10.9626 48.5 7.63672 45.2515 7.63672 41.2442V7.75581ZM23.6367 37.3372C23.0055 37.3372 22.4939 37.837 22.4939 38.4535C22.4939 39.07 23.0055 39.5698 23.6367 39.5698C24.2679 39.5698 24.7796 39.07 24.7796 38.4535C24.7796 37.837 24.2679 37.3372 23.6367 37.3372ZM19.0653 38.4535C19.0653 35.9875 21.112 33.9884 23.6367 33.9884C26.1615 33.9884 28.2082 35.9875 28.2082 38.4535C28.2082 40.9195 26.1615 42.9186 23.6367 42.9186C21.112 42.9186 19.0653 40.9195 19.0653 38.4535Z" fill="#FD5000"/>
</svg>
