<?xml version="1.0" encoding="utf-8"?>
<!-- Generator: Adobe Illustrator 25.4.1, SVG Export Plug-In . SVG Version: 6.00 Build 0)  -->
<svg version="1.1" id="Layer_1" xmlns="http://www.w3.org/2000/svg" xmlns:xlink="http://www.w3.org/1999/xlink" x="0px" y="0px"
	 viewBox="0 0 168 100" style="enable-background:new 0 0 168 100;" xml:space="preserve">
<style type="text/css">
	.st0{fill:#19285F;}
	.st1{fill:#7EA1BE;}
</style>
<path class="st0" d="M84.2881,33.2564c11.2675-6.5856,22.444-13.1179,33.7233-19.7103c-0.9648-1.9387-2.3544-3.251-3.5053-4.9214
	c-5.2743,1.2077-10.4843,2.4006-15.739,3.6037c-0.8569-2.0676-2.4237-5.9388-2.4237-5.9388s-2.5438-4.068-4.1613-5.8505
	C91.9705,0.2061,91.69,0.028,91.346,0.0012c-0.5332-0.0223-0.9531,0.2635-1.3858,0.5153c-1.4991,0.8726-3.0204,1.7097-4.4901,2.6292
	c-0.0058,0.0036-0.0137,0.0118-0.0202,0.017c-0.9435,0.5724-1.7924,0.5797-2.746-0.017c-1.4697-0.9196-2.991-1.7567-4.4901-2.6292
	c-0.4327-0.2518-0.8526-0.5376-1.3857-0.5153c-0.344,0.0267-0.6245,0.2049-0.836,0.4379c-1.6175,1.7824-4.1613,5.8505-4.1613,5.8505
	s-1.5668,3.8712-2.4237,5.9388c-5.2547-1.2032-10.4647-2.3961-15.739-3.6037c-1.151,1.6705-2.5405,2.9827-3.5053,4.9214
	c11.2807,6.5932,22.4585,13.1264,33.7276,19.7128c0.0638,0.0393,0.1245,0.0808,0.1898,0.1189
	c0.0023-0.0013,0.0046-0.0027,0.0069-0.004c0.0023,0.0013,0.0046,0.0027,0.0069,0.004
	C84.1604,33.339,84.2229,33.2965,84.2881,33.2564z"/>
<path class="st0" d="M100.3271,28.8471c-0.316-0.2502-0.5914-0.013-1.2237,0.3166c-4.5186,2.5295-9.0394,5.0558-13.5268,7.6397
	c-0.1147,0.043-0.2323,0.0966-0.3544,0.1672c-0.8709,0.5032-1.5041,0.4807-2.3639-0.0151c-4.5872-2.645-9.2107-5.2273-13.8313-7.814
	c-0.6323-0.3297-0.9077-0.5669-1.2237-0.3166c-0.2252,0.1783-0.2762,0.3696-0.0926,1.2546l2.4911,13.18
	c0.1072,0.5765,0.3495,0.9896,0.7997,1.3648c3.9982,3.3327,7.9988,6.6633,11.9518,10.0493
	c0.0047,0.0041,0.0092,0.0088,0.0139,0.0128c0.8222,0.704,1.37,0.7288,2.204,0.0144c3.9549-3.3877,7.9575-6.7199,11.9578-10.0544
	c0.4501-0.3752,0.6925-0.7883,0.7996-1.3648l2.4911-13.18C100.6032,29.2167,100.5522,29.0253,100.3271,28.8471z"/>
<path class="st0" d="M24.5569,89.9772c-3.1315,0.4255-6.0862,0.9694-9.0735,1.145c-0.2759-0.5642,0.1876-0.8064,0.3996-1.0984
	c0.6355-0.8754,1.0248-1.8397,1.1097-2.9047c0.3522-4.4209,0.2693-8.8511,0.0534-13.3365
	c-1.6673,5.8837-3.3345,11.7674-4.9848,17.5913c-0.3722,0.266-0.6801,0.4486-1.0589,0.3775
	c-0.4029-0.1683-0.4963-0.5266-0.6053-0.8765c-0.9096-2.9183-1.8215-5.836-2.7303-8.7546c-0.6103-1.9601-1.2119-3.923-1.8286-5.8811
	c-0.1289-0.4093-0.1518-0.8904-0.5907-1.1389c-0.24,0.1973-0.1659,0.4286-0.1642,0.6464c0.0273,3.4257,0.0992,6.8519,0.0637,10.277
	c-0.0231,2.2267,0.0064,4.3951,2.0058,6.2457c-2.5075,0.4492-4.717,0.806-6.8988,0.9944c-0.1497-0.2185-0.1656-0.3521-0.0778-0.4658
	c1.4179-1.8361,1.7144-3.9716,1.7137-6.2062c-0.0021-6.806,0.0318-13.612,0.0229-20.418C1.9106,64.4311,1.2201,62.899,0,61.3911
	c2.4809-0.2385,4.7399-0.1416,7.1269-0.0731c1.6739,5.3345,3.3327,10.6208,4.9915,15.9071c0.1238,0.0055,0.2475,0.011,0.3713,0.0166
	c1.7322-5.2314,2.9821-10.6163,4.6906-15.9211c2.5463-0.1226,4.9828-0.1991,7.3982-0.0723c0.0394,0.21,0.0994,0.3339,0.0646,0.3726
	c-1.4407,1.6009-1.6891,3.5026-1.6992,5.5882c-0.0266,5.4807-0.1252,10.9613-0.1383,16.4429
	C22.8001,85.9111,22.7317,88.1423,24.5569,89.9772z"/>
<path class="st0" d="M167.866,93.3432c-3.3049-0.4762-6.6098-0.9524-9.9373-1.4319c0.0602-0.2132,0.0581-0.2753,0.0871-0.2985
	c1.796-1.4365,1.5688-3.1465,0.8182-5.0416c-0.9528-2.4057-1.7565-4.8703-2.7048-7.5352c-1.0643,1.4288-2.1933,2.5298-1.9697,4.3203
	c0.0956,0.7652,0.0672,1.5526,0.0288,2.3266c-0.0963,1.9413,0.3728,3.7057,1.5295,5.2795c0.0759,0.1032,0.1069,0.2419,0.1462,0.368
	c0.0115,0.0368-0.0202,0.0871-0.0633,0.2469c-3.0443-0.2399-6.0713-0.7448-9.0706-1.1367c-0.0988-0.5285,0.2118-0.6943,0.421-0.9258
	c0.8316-0.9202,1.2456-2.0154,1.2473-3.245c0.0094-6.8496-0.0028-13.6992,0.0116-20.5488c0.0023-1.0948-0.3319-2.057-0.8979-2.968
	c-0.2607-0.4196-0.6562-0.7603-0.7959-1.3866c3.1001,0,6.1622,0,9.2075,0c0.0301,0.1924,0.0841,0.3134,0.0496,0.3491
	c-1.4392,1.4904-1.7589,3.333-1.7376,5.3084c0.0276,2.5561,0.0067,5.1127,0.0067,7.6888c0.3779-0.0711,0.4385-0.4663,0.6051-0.7442
	c1.4543-2.4261,2.899-4.858,4.3422-7.2907c1.567-2.6414,1.565-2.6425,0.1646-5.3c2.8374,0,5.6116,0,8.3917,0
	c0.0734,0.5223-0.2962,0.6877-0.5822,0.8686c-1.1139,0.705-1.8528,1.7266-2.5278,2.8266c-1.6213,2.6419-3.2368,5.2863-4.7336,7.9761
	c1.9429,5.4692,4.012,10.831,5.834,16.2812c0.4683,1.4008,1.4222,2.5278,2.2635,3.7147
	C167.9553,93.1444,167.9106,93.2438,167.866,93.3432z"/>
<path class="st0" d="M101.5456,87.1603c1.7778-2.4814,1.7794-2.482,0.7346-5.2358c-0.178-0.4691-0.3585-0.9388-0.5681-1.3942
	c-0.5699-1.2382-1.1561-2.4689-1.7453-3.7225c-0.8362-0.1701-1.6448-0.0555-2.635-0.0794c0.0487,2.4435-0.1281,4.8016,0.1141,7.1511
	c0.1146,1.1118,0.9055,1.9585,1.6671,2.944c-3.0971,0-6.0515,0-8.9878,0c-0.0292-0.2134-0.0817-0.3378-0.0459-0.3732
	c1.3711-1.3579,1.6579-3.0199,1.6167-4.8887c-0.1148-5.2052,0.1394-10.4128-0.0493-15.6206
	c-0.0585-1.6146-0.3259-3.0806-1.6286-4.1851c-0.0823-0.0697-0.0708-0.2499-0.1073-0.3958c0.3004-0.3252,0.692-0.2025,1.0217-0.1943
	c3.9246,0.0979,7.8591-0.2795,11.7751,0.2388c0.9538,0.1263,1.8828,0.3275,2.7757,0.7049c2.3086,0.9758,3.4235,2.784,3.6113,5.2051
	c0.1387,1.787-0.0166,3.5578-0.5543,5.2806c-0.3274,1.049-1.002,1.8289-1.9092,2.4197c-0.3394,0.221-0.6941,0.4187-0.9929,0.5977
	c-0.041,0.1613-0.1046,0.2631-0.0783,0.3291c1.2011,3.0084,2.532,5.9596,3.9666,8.8632c0.4702,0.9517,1.306,1.624,2.2528,2.6506
	C108.2447,87.4854,104.9993,87.0423,101.5456,87.1603z M97.4384,73.168c1.0365,0,1.9413,0.0231,2.8443-0.0075
	c0.6854-0.0232,1.3763-0.1566,1.9592-0.5184c1.4818-0.9197,1.3886-2.4611,1.3708-3.9026c-0.0176-1.4241-0.1435-2.9144-1.7114-3.5803
	c-1.4487-0.6153-2.9791-0.4855-4.5646-0.41C97.3826,67.6332,97.0933,70.3015,97.4384,73.168z"/>
<path class="st0" d="M40.285,81.6922c-2.3644-0.0587-4.5792,0.2089-6.9342,0.3489c-0.5444,2.4251-2.0332,4.849,0.9682,6.9116
	c-0.0865,0.0635-0.1731,0.1271-0.2596,0.1906c-2.5575,0.2668-5.115,0.5336-7.6829,0.8014
	c-0.1123-0.6631,0.3797-0.8869,0.6596-1.1978c1.098-1.2194,1.7112-2.6304,2.1276-4.2224
	c1.5798-6.0415,3.2644-12.0556,4.9083-18.0803c0.0959-0.3514,0.1404-0.7217,0.2752-1.0566c0.483-1.2,0.1973-2.2232-0.6411-3.1509
	c-0.2068-0.2288-0.4479-0.4563-0.4617-0.927c3.3393,0,6.6564,0,9.9699,0c0,0.1778,0.0184,0.2393-0.0026,0.2592
	c-1.5304,1.4476-1.2369,3.0928-0.7474,4.914c1.5738,5.8556,3.0259,11.744,4.5027,17.6254c0.3,1.1946,0.8328,2.2064,1.8165,2.9739
	c0.2286,0.1784,0.5757,0.3218,0.4976,0.8553c-3.2272,0.246-6.4676,0.5836-9.9014,0.6855c0.6113-1.2164,1.7654-1.9736,1.607-3.3644
	C40.8518,84.0765,40.6229,82.9234,40.285,81.6922z M39.5358,78.1788c-0.8554-3.6259-1.4206-7.0856-2.5759-10.465
	c-0.9041,3.5513-1.8082,7.1027-2.7554,10.8231C36.0581,78.4268,37.7278,78.4817,39.5358,78.1788z"/>
<path class="st0" d="M140.5465,62.6723c1.238-0.1563,1.5838-1.2336,2.5877-1.6006c0,3.1806,0,6.2502,0,9.4026
	c-0.7696,0.3711-1.6055,0.2276-2.426,0.1129c-0.4598-0.6047-0.55-1.3024-0.8168-1.9241c-0.507-1.1819-1.0694-2.3199-2.1489-3.1075
	c-1.5029-1.0964-3.2362-1.0308-4.6447,0.1762c-1.0689,0.916-1.8811,2.0433-2.218,3.3875
	c-1.0046,4.0081-1.0135,8.0354,0.0937,12.0344c0.3072,1.1095,0.8763,2.0996,1.6492,2.9634
	c2.0476,2.2883,5.8163,1.8423,6.9951-1.0866c0.4143-1.0295,0.48-2.1252,0.81-3.2115c1.0705-0.105,2.0942-0.0954,3.0823,0.2438
	c0.7509,5.4757-3.9566,10.1687-9.3915,9.4935c-4.572-0.568-7.4037-3.2673-8.7534-7.4272
	c-1.7444-5.3766-1.6374-10.7656,0.7792-16.0058c1.8432-3.9969,8.2027-7.3357,13.1434-3.9394
	C139.7149,62.4775,140.1828,62.6107,140.5465,62.6723z"/>
<path class="st0" d="M87.0971,61.2539c-0.008,1.7875,0.094,3.4526-0.0823,5.3299c-3.1764-2.5081-6.6572-1.3026-10.0556-1.6528
	c0,2.4073,0,4.6617,0,7.0701c2.0701,0,4.1047,0,6.1428,0c0.335,1.2187-0.0997,2.2949,0.2485,3.5402c-2.2377,0-4.2687,0-6.4205,0
	c-0.2193,2.5251-0.0378,4.8837-0.07,7.3801c1.8554,0.1966,3.6532,0.0057,5.4577-0.035c1.8388-0.0415,3.4841-0.523,5.1024-1.8491
	c0,2.0959,0,3.845,0,5.7527c-5.9826,0-11.9338,0-17.8999,0c-0.0507-0.4166,0.3315-0.6022,0.5479-0.8652
	c0.6308-0.7666,0.9501-1.625,1.0475-2.6171c0.3807-3.8765,0.1311-7.7601,0.1787-11.64c0.023-1.8724-0.056-3.7469,0.0012-5.6177
	c0.05-1.6355-0.3285-3.0697-1.5141-4.2436c-0.0925-0.0916-0.1453-0.2262-0.2043-0.3467c-0.0146-0.0299,0.0189-0.0833,0.0517-0.2058
	C75.3818,61.2539,81.1568,61.2539,87.0971,61.2539z"/>
<path class="st0" d="M59.0891,87.4227c-1.7376,0-3.4111,0-5.2263,0c-0.5682-1.3006-0.8123-2.7853-1.1724-4.225
	c-1.47-5.8782-2.9175-11.7624-4.3166-17.6579c-0.3385-1.4264-0.866-2.6806-2.0109-3.63c-0.1019-0.0845-0.1873-0.2002-0.2485-0.3179
	c-0.0352-0.0676-0.0064-0.1685-0.0064-0.3362c3.1647,0,6.3215,0,9.4762,0c0.0086,0.1301,0.0541,0.2592,0.0143,0.2958
	c-1.5312,1.4117-1.5903,3.0421-1.1051,4.9912c1.0563,4.2433,1.8906,8.5417,2.8209,12.8164
	c0.0535,0.2459-0.0238,0.5712,0.4687,0.7186c0.5012-1.9694,0.9985-3.9279,1.4981-5.8858c0.7209-2.8255,1.3946-5.6644,2.1846-8.4705
	c0.4295-1.5258,0.1758-2.7777-0.9638-3.8649c-0.1266-0.1207-0.214-0.2824-0.4238-0.5659c2.5983,0,5.0656,0,7.5637,0
	c0.1439,0.3533-0.2099,0.5169-0.4337,0.6991c-1.1936,0.9713-1.7876,2.2852-2.1622,3.7225c-1.8166,6.97-4.044,13.8291-5.64,20.8588
	C59.3564,86.7886,59.2508,86.9934,59.0891,87.4227z"/>
<path class="st0" d="M112.9808,61.2986c3.1086,0,6.0927,0,9.044,0c0.0374,0.1661,0.069,0.2292,0.0528,0.2458
	c-1.6877,1.7301-1.6933,3.9137-1.6836,6.116c0.0239,5.4285,0.0335,10.8572,0.025,16.2857
	c-0.0016,1.0064,0.3359,1.8722,0.8582,2.6929c0.2617,0.4112,0.5428,0.8102,0.943,1.4047c-3.2291-0.086-6.2412-0.2379-9.2655-0.5373
	c0.1058-0.6205,0.5033-0.8954,0.7726-1.2525c0.5941-0.7875,0.9201-1.6565,0.9521-2.6522c0.1997-6.2038-0.0544-12.4067-0.0211-18.61
	c0.0054-1.008-0.458-1.8393-1.0123-2.6373C113.4239,62.035,113.0438,61.8072,112.9808,61.2986z"/>
<path class="st0" d="M54.3939,100c0.3153,0,0.6215-0.0335,0.9097-0.0999c0.2845-0.0648,0.5398-0.1698,0.7592-0.312
	c0.2156-0.1406,0.3898-0.327,0.5173-0.5543c0.1267-0.2265,0.191-0.5045,0.191-0.8264c0-0.2758-0.0477-0.5101-0.1414-0.6968
	s-0.2298-0.3495-0.404-0.4842c-0.1765-0.136-0.3954-0.2512-0.6507-0.342c-0.2598-0.0929-0.5532-0.1813-0.8725-0.263
	c-0.254-0.0602-0.475-0.1168-0.6568-0.1679c-0.1915-0.0533-0.3539-0.1143-0.4825-0.181c-0.1326-0.0699-0.2355-0.1518-0.3059-0.2439
	c-0.0739-0.0969-0.1114-0.2191-0.1114-0.3629c0-0.2453,0.0972-0.4386,0.2888-0.5747c0.1846-0.1312,0.4634-0.1979,0.8291-0.1979
	c0.2028,0,0.4053,0.0244,0.6019,0.0728c0.1939,0.0471,0.3772,0.106,0.5441,0.1749c0.1672,0.0688,0.311,0.1401,0.4278,0.2118
	c0.0747,0.0458,0.1361,0.0868,0.183,0.1221l0.4953-0.862c-0.2759-0.1711-0.5968-0.3216-0.9545-0.4477
	c-0.3812-0.135-0.8052-0.2035-1.2604-0.2035c-0.3268,0-0.6362,0.042-0.9199,0.1251c-0.2823,0.0827-0.5331,0.2051-0.7455,0.3639
	c-0.2106,0.1572-0.3774,0.357-0.4961,0.5931c-0.1184,0.2359-0.1787,0.5104-0.1787,0.8159c0,0.23,0.0372,0.4301,0.1104,0.5942
	c0.0729,0.1631,0.184,0.3093,0.3308,0.4346c0.1492,0.1272,0.3386,0.2391,0.5631,0.3326c0.2266,0.0948,0.5004,0.1842,0.8138,0.2659
	c0.2612,0.0712,0.4966,0.136,0.7075,0.1944c0.2124,0.0592,0.3975,0.1259,0.5502,0.1976c0.1562,0.0742,0.2791,0.1631,0.3659,0.2643
	c0.0911,0.106,0.1372,0.2365,0.1372,0.3875c0,0.4718-0.3793,0.711-1.1272,0.711c-0.2588,0-0.5143-0.0303-0.7594-0.0902
	c-0.2443-0.0592-0.4699-0.1328-0.671-0.219c-0.2014-0.0873-0.3774-0.1746-0.5232-0.2598c-0.1066-0.0624-0.1881-0.1154-0.2478-0.1609
	l-0.4988,0.9222c0.364,0.2373,0.7782,0.4247,1.232,0.557C53.4188,99.9298,53.9067,100,54.3939,100z"/>
<path class="st0" d="M67.1729,97.6933c0.273-0.1133,0.509-0.2654,0.7012-0.4518c0.1927-0.1866,0.3446-0.4036,0.4514-0.6446
	c0.1062-0.2402,0.1602-0.4914,0.1602-0.7466c0-0.2423-0.0573-0.4868-0.1701-0.7273c-0.1134-0.2415-0.2724-0.4601-0.472-0.6499
	c-0.1996-0.1899-0.441-0.3449-0.7173-0.4611c-0.2745-0.1157-0.5791-0.1743-0.9053-0.1743h-2.767v6.1237h1.2782v-2.0981h1.5404
	C66.5985,97.8633,66.9014,97.806,67.1729,97.6933z M64.7324,96.9314v-2.1621h1.3957c0.1334,0,0.2664,0.0238,0.3956,0.071
	c0.131,0.0479,0.2465,0.1205,0.3431,0.2156c0.0949,0.0932,0.1731,0.2083,0.2315,0.3422c0.0585,0.1339,0.0883,0.286,0.0883,0.4523
	c0,0.327-0.0949,0.591-0.2823,0.7849c-0.1901,0.1966-0.4305,0.2962-0.7143,0.2962H64.7324z"/>
<path class="st0" d="M80.6105,94.7447c-0.2719-0.2919-0.6043-0.5316-0.9877-0.7118c-0.3831-0.18-0.8128-0.2713-1.2775-0.2713
	c-0.4535,0-0.8792,0.0854-1.2649,0.2541c-0.3874,0.1695-0.7257,0.4006-1.0062,0.6866c-0.281,0.2865-0.5047,0.6205-0.6646,0.9932
	c-0.1599,0.3714-0.2408,0.7656-0.2408,1.1718c0,0.3891,0.0766,0.775,0.2274,1.1472c0.1514,0.3733,0.3673,0.7088,0.6418,0.997
	c0.274,0.2887,0.6078,0.5241,0.992,0.6995c0.3828,0.1741,0.816,0.2624,1.2874,0.2624c0.4535,0,0.8792-0.0854,1.2652-0.2541
	c0.3866-0.1692,0.7235-0.3987,1.0013-0.6823c0.2775-0.2828,0.498-0.6138,0.6552-0.9838c0.157-0.3693,0.2365-0.7624,0.2365-1.1681
	c0-0.3827-0.0766-0.7656-0.2277-1.1384C81.097,95.3743,80.8824,95.0371,80.6105,94.7447z M80.1894,97.6518
	c-0.086,0.2565-0.2151,0.4906-0.3833,0.6954c-0.1696,0.2062-0.3801,0.3736-0.626,0.4978c-0.2467,0.1248-0.5339,0.188-0.8532,0.188
	c-0.3129,0-0.5966-0.0616-0.8433-0.1832c-0.2456-0.121-0.4562-0.2839-0.6258-0.4839c-0.169-0.1998-0.3-0.4327-0.389-0.6917
	c-0.0887-0.2581-0.1337-0.5297-0.1337-0.8068c0-0.2646,0.0434-0.5283,0.1289-0.7838c0.0863-0.2568,0.2138-0.4895,0.3791-0.6912
	c0.1666-0.2035,0.3772-0.3695,0.6263-0.4938c0.2502-0.1248,0.5387-0.188,0.8575-0.188c0.3057,0,0.5859,0.0602,0.8331,0.1791
	c0.2459,0.1178,0.4567,0.279,0.6266,0.4793c0.1685,0.199,0.3008,0.4314,0.3935,0.6912c0.0919,0.2598,0.1385,0.5313,0.1385,0.8071
	C80.3185,97.1331,80.2751,97.3969,80.1894,97.6518z"/>
<path class="st0" d="M91.4545,97.8462l1.4524,2.0834h1.394l-1.6094-2.3188l0.0814-0.0305c0.3809-0.1409,0.6871-0.3741,0.9103-0.693
	c0.2229-0.3192,0.3359-0.6788,0.3359-1.0687c0-0.2418-0.0557-0.4863-0.1653-0.7265c-0.1104-0.2407-0.2652-0.4595-0.4599-0.6497
	c-0.195-0.1904-0.4305-0.3457-0.7-0.4617c-0.2679-0.116-0.5655-0.1749-0.884-0.1749h-3.0967v6.1237h1.2513v-2.0981h1.4798
	L91.4545,97.8462z M89.9646,94.7375h1.7549c0.1302,0,0.2601,0.027,0.3863,0.0806c0.1248,0.0528,0.2373,0.1288,0.3351,0.2263
	c0.0959,0.0969,0.1739,0.2121,0.2309,0.3422c0.0571,0.1312,0.086,0.2766,0.086,0.4319c0,0.1484-0.0252,0.2895-0.0747,0.4199
	c-0.0501,0.131-0.1189,0.2461-0.2041,0.3422c-0.086,0.0972-0.1899,0.1754-0.3097,0.2327c-0.1203,0.0573-0.2515,0.0862-0.3895,0.0862
	h-1.8152V94.7375z"/>
<polygon class="st0" points="105.9347,93.8059 100.5758,93.8059 100.5758,94.7375 102.6862,94.7375 102.6862,99.9296 
	103.8247,99.9296 103.8247,94.7375 105.9347,94.7375 "/>
<path class="st0" d="M114.8399,100c0.3153,0,0.6212-0.0335,0.9094-0.0999c0.285-0.0648,0.5406-0.1698,0.7592-0.312
	c0.2162-0.1409,0.39-0.3272,0.517-0.5541v-0.0003c0.1272-0.2265,0.1915-0.5048,0.1915-0.8264c0-0.2753-0.0477-0.5096-0.1414-0.697
	c-0.0938-0.1864-0.2298-0.3492-0.404-0.4839c-0.1768-0.1363-0.3959-0.2514-0.6509-0.342c-0.259-0.0929-0.5526-0.1813-0.8727-0.263
	c-0.2475-0.0586-0.4688-0.1152-0.6566-0.1679c-0.191-0.0533-0.3533-0.1143-0.4822-0.181c-0.1323-0.0696-0.2355-0.1516-0.3062-0.2439
	c-0.0739-0.0967-0.1114-0.2188-0.1114-0.3629c0-0.2456,0.0972-0.4389,0.289-0.5747c0.1846-0.1312,0.4634-0.1979,0.8291-0.1979
	c0.2028,0,0.405,0.0244,0.6017,0.0728c0.1931,0.0469,0.3764,0.1058,0.5443,0.1749c0.1672,0.0688,0.311,0.1403,0.4278,0.2118
	c0.0766,0.0474,0.1369,0.0876,0.183,0.1221l0.495-0.862c-0.2746-0.1706-0.5955-0.3211-0.9547-0.4477
	c-0.3807-0.135-0.8047-0.2035-1.2601-0.2035c-0.3268,0-0.6362,0.042-0.9199,0.1251c-0.2821,0.0825-0.5328,0.2051-0.7452,0.3639
	c-0.2108,0.1577-0.3777,0.3572-0.4964,0.5931c-0.1184,0.2367-0.1787,0.5112-0.1787,0.8159c0,0.23,0.0372,0.4301,0.1104,0.5942
	c0.0734,0.1633,0.1846,0.3096,0.3308,0.4346c0.1492,0.1269,0.3386,0.2389,0.5631,0.3326c0.2269,0.0948,0.5007,0.1842,0.8138,0.2659
	c0.2612,0.0712,0.4966,0.136,0.7075,0.1944c0.2146,0.0597,0.3994,0.1264,0.5502,0.1976c0.1562,0.0742,0.2791,0.1631,0.3659,0.2643
	c0.0911,0.1052,0.1372,0.2356,0.1372,0.3875c0,0.4718-0.3793,0.711-1.1272,0.711c-0.2585,0-0.5141-0.0303-0.7594-0.0902
	c-0.2432-0.0589-0.4691-0.1328-0.6708-0.219c-0.2017-0.0873-0.3777-0.1746-0.5234-0.2598c-0.1039-0.0611-0.187-0.1152-0.2478-0.1609
	l-0.4985,0.9222c0.3635,0.2373,0.7779,0.4247,1.232,0.557C113.8648,99.9298,114.3526,100,114.8399,100z"/>
<path class="st1" d="M84.2542,9.9016c-1.6626-2.0609-5.0785-5.1827-5.0785-5.1827l0.2383-0.3274l7.064,2.9042l-1.7407-2.142
	c0,0,3.9042-2.0644,5.8439-3.0901c3.5383,2.1281,4.1671,5.8631,5.6986,9.2521c-4.0472,1.9513-7.9322,3.8244-12.0257,5.7981
	C84.2542,14.5316,84.2542,12.1465,84.2542,9.9016z"/>
<path class="st1" d="M72.5717,14.1935c3.8115,2.0911,7.623,4.1823,11.5059,6.3126c3.8578-2.1159,7.6744-4.2093,11.4911-6.3027
	c0.0766,0.1074,0.1531,0.2147,0.2297,0.3221c-3.8259,3.1927-7.7416,6.2768-11.7274,9.4779
	c-3.9515-3.1833-7.8404-6.3161-11.7294-9.4489C72.4183,14.4342,72.495,14.3138,72.5717,14.1935z"/>
<path class="st1" d="M113.6741,10.9167c0.5512,0.585,0.9407,1.0823,1.3622,1.8257c-10.0338,5.5744-20.0451,11.1363-30.1677,16.76
	c-0.4114-2.3998,0.442-4.1422,2.0273-5.4287c2.7937-2.2671,5.6759-4.4051,9.2263-5.4655c2.2998-0.6869,4.521-1.6378,6.7737-2.4804
	c0.2462-0.0921,0.4675-0.2508,0.6503-0.5538c-2.1883,0.4995-4.3766,0.999-6.5649,1.4985c-0.0478-0.1049-0.0956-0.2097-0.1434-0.3146
	c1.499-1.0026,2.6221-2.4552,4.5968-2.8822C105.5224,12.9917,109.5696,11.9207,113.6741,10.9167z"/>
<path class="st1" d="M95.0032,38.4577c0.6151,0.0086,1.0478-0.535,1.8419-0.6045c-0.4301,2.0213-0.8411,3.9524-1.265,5.9443
	c-3.6477,2.9685-7.3116,5.9502-11.1494,9.0735c-0.4134-1.7184,0.0385-3.2975-0.7218-4.7313
	c-0.6897-1.3006-1.1363-2.73-1.7208-4.1787c0.8519-0.1092,1.3743,0.6255,2.1516,0.3825c0.275-1.3083-0.0307-2.6821,0.2013-4.1883
	c4.4271-2.521,8.9228-5.0812,13.5049-7.6905c0.3113,1.2279-0.2184,2.1542-0.2848,3.4819c-0.7766,0.6976-1.725,1.5495-2.6734,2.4014
	c-0.0967,0.0437-0.2082,0.078-0.1425,0.2241C94.8789,38.6408,94.942,38.5515,95.0032,38.4577z"/>
</svg>
