<svg width="84" height="133" viewBox="0 0 84 133" fill="none" xmlns="http://www.w3.org/2000/svg">
<g clip-path="url(#clip0_2_2)">
<path d="M1.20001 109.1L1.20001 24C1.20001 19.6 4.20001 15.6 8.50001 14.4L39.5 5.69998C41.3 5.19998 43.1 5.19998 44.9 5.69998L75.9 14.4C80.2 15.6 83.2 19.6 83.2 24L83.2 109.2C83.2 113.6 80.2 117.6 75.9 118.8L44.9 127.5C43.1 128 41.3 128 39.5 127.5L8.50001 118.8C4.10001 117.5 1.20001 113.6 1.20001 109.1ZM79.3 24C79.3 21.3 77.5 18.8 74.8 18.1L43.8 9.39998C42.7 9.09998 41.6 9.09998 40.5 9.39998L9.50001 18.1C6.90001 18.8 5.00001 21.3 5.00001 24L5.00001 109.2C5.00001 111.9 6.80001 114.4 9.50001 115.1L40.5 123.8C41.6 124.1 42.7 124.1 43.8 123.8L74.8 115.1C77.4 114.4 79.3 111.9 79.3 109.2L79.3 24V24Z" fill="#D42027"/>
<path d="M76.2 109.1L76.2 24C76.2 22.6 75.3 21.4 74 21.1L43 12.4C42.5 12.2 41.9 12.2 41.3 12.4L10.3 21.1C9.00001 21.5 8.10001 22.7 8.10001 24L8.10001 109.2C8.10001 110.6 9.00001 111.8 10.3 112.1L41.3 120.8C41.8 121 42.4 121 43 120.8L74 112.1C75.3 111.7 76.2 110.5 76.2 109.1Z" fill="white"/>
<path d="M6.90002 109.1L6.90002 24C6.90002 22.1 8.20003 20.5 10 19.9L41 11.2C41.7 11 42.5 11 43.3 11.2L74.3 19.9C76.1 20.4 77.4 22.1 77.4 24L77.4 109.2C77.4 111.1 76.1 112.7 74.3 113.3L43.3 122C42.6 122.2 41.8 122.2 41 122L10 113.3C8.20003 112.7 6.90002 111 6.90002 109.1ZM75.1 24C75.1 23.1 74.5 22.4 73.7 22.2L42.7 13.4C42.4 13.3 42 13.3 41.7 13.4L10.7 22.1C9.90003 22.3 9.30003 23.1 9.30003 23.9L9.30002 109.1C9.30002 110 9.90002 110.7 10.7 110.9L41.7 119.6C42 119.7 42.4 119.7 42.7 119.6L73.7 110.9C74.5 110.7 75.1 109.9 75.1 109.1L75.1 24Z" fill="#1D3767"/>
<path d="M76.2 84.2L76.2 21.6L42.1 12.1L8.10001 21.6L8.10001 84.2L76.2 84.2Z" fill="#1D3767"/>
<path d="M33.4 90.3L36.7 90.3L36.7 110.9L33.6 110.9L33.6 96.5L33.8 97.4L30.8 107.2L29 107.2L26 97.7L26.3 96.5L26.3 110.9L23.1 110.9L23.1 90.3L26.5 90.3L29.9 101.5L33.4 90.3Z" fill="#D42027"/>
<path d="M40.7 90.3L44.2 90.3L44.2 110.9L40.7 110.9L40.7 90.3ZM42.1 107.5L49.5 107.5L49.5 110.9L42.1 110.9L42.1 107.5Z" fill="#D42027"/>
<path d="M54.8 107.6L57.9 107.6C58.3 107.6 58.7 107.5 58.9 107.3C59.1 107.1 59.3 106.7 59.3 106.3L59.3 103.5C59.3 103.2 59.2 102.9 59.1 102.6C59 102.4 58.8 102.2 58.6 102C58.4 101.9 58.1 101.8 57.8 101.8L54.8 101.8L54.8 98.5L57.7 98.5C58.1 98.5 58.4 98.4 58.7 98.1C58.9 97.8 59 97.5 59 97L59 94.8C59 94.4 58.9 94.1 58.7 93.8C58.5 93.6 58.1 93.5 57.7 93.5L54.7 93.5L54.7 90.2L58 90.2C58.9 90.2 59.7 90.4 60.4 90.7C61.1 91 61.6 91.5 61.9 92.2C62.2 92.8 62.4 93.6 62.4 94.5L62.4 96.7C62.4 97.3 62.3 97.9 62 98.3C61.7 98.7 61.4 99.2 61 99.5C60.6 99.8 60 100 59.4 100.1C60.1 100.2 60.7 100.4 61.2 100.7C61.7 101 62.1 101.4 62.3 101.9C62.6 102.4 62.7 103 62.7 103.7L62.7 106.5C62.7 107.4 62.5 108.2 62.2 108.8C61.9 109.4 61.4 109.9 60.7 110.3C60 110.6 59.3 110.8 58.3 110.8L54.7 110.8L54.7 107.6L54.8 107.6ZM52.8 90.3L56.3 90.3L56.3 110.9L52.8 110.9L52.8 90.3Z" fill="#D42027"/>
<path d="M39.3 25.1L39.8 25.8C39.5 26.6 39.2 27.4 39 28.3C39.5 28.9 40 29.5 40.6 30.1C40.8 29.2 41 28.4 41.2 27.5L41.8 28.2C41.6 29 41.4 29.9 41.3 30.8C41.9 31.3 42.5 31.9 43.2 32.3C43.2 31.4 43.3 30.5 43.4 29.7C43.6 29.9 43.9 30.1 44.1 30.3C44 31.2 44 32.1 44 32.9C44.7 33.4 45.4 33.8 46.1 34.2C46 33.3 46 32.5 46 31.6C46.3 31.8 46.5 31.9 46.8 32.1C46.8 33 46.9 33.8 47 34.7C47.3 34.9 47.7 35 48 35.2C48.4 35.4 48.7 35.5 49.1 35.6C48.9 34.7 48.7 33.9 48.6 33C48.9 33.1 49.1 33.3 49.4 33.4C49.5 34.2 49.7 35.1 50 35.9C50.7 36.2 51.5 36.4 52.2 36.5C51.9 35.7 51.6 34.8 51.4 34L52.3 34.2C52.6 35 52.9 35.8 53.2 36.7C54 36.9 54.7 37 55.5 37C55.1 36.2 54.7 35.4 54.4 34.6C54.7 34.7 55 34.7 55.3 34.7C55.7 35.5 56.1 36.3 56.5 37C57.2 37 57.9 37.1 58.6 37C58.1 36.3 57.6 35.6 57.2 34.8L58.1 34.8C58.6 35.5 59.1 36.2 59.6 36.9C60.3 36.9 60.9 36.8 61.6 36.7C61 36.1 60.5 35.4 60 34.8L60.9 34.7C61.4 35.3 62 36 62.6 36.5C62.7 36.5 62.8 36.5 62.9 36.4C60.5 32.4 56.7 28.8 51.8 26.7C46.9 24.5 41.7 24.1 36.8 25.2C37.3 26 37.8 26.8 38.4 27.5C38.7 26.7 39 25.9 39.3 25.1ZM18.6 47.1L19.6 46.6C20.4 47 21.1 47.4 21.9 47.9C22.8 47.5 23.7 47.1 24.7 46.9C24 46.3 23.2 45.8 22.4 45.3C22.7 45.2 23.1 45.1 23.5 44.9C24.3 45.4 25 46 25.7 46.6C26.5 46.4 27.2 46.2 28 46.1C27.4 45.5 26.7 44.8 26 44.2C26.4 44.1 26.7 44 27.1 44C27.8 44.6 28.4 45.3 29 45.9C29.9 45.8 30.8 45.7 31.8 45.7C31.3 45 30.7 44.3 30.1 43.6C30.5 43.6 30.8 43.5 31.2 43.5C31.8 44.2 32.3 44.9 32.8 45.7C33.6 45.7 34.4 45.8 35.2 45.9C34.7 45.1 34.2 44.4 33.7 43.6L34.8 43.7C35.3 44.5 35.7 45.3 36.1 46.1C36.9 46.2 37.7 46.4 38.4 46.6C38.1 45.8 37.7 45 37.3 44.1L38.4 44.3C38.8 45.1 39.1 46 39.4 46.8C40.2 47 40.9 47.3 41.6 47.6C41.4 46.7 41.2 45.9 40.9 45C41.3 45.1 41.6 45.2 41.9 45.4C42.2 46.3 42.4 47.2 42.5 48C43.2 48.3 43.9 48.7 44.6 49.1C44.5 48.2 44.4 47.3 44.2 46.4C44.5 46.6 44.9 46.7 45.2 46.9C45.3 47.8 45.4 48.7 45.5 49.6C46.2 50 46.8 50.5 47.5 51C47.5 50.1 47.5 49.2 47.5 48.3L48.4 48.9C48.4 49.8 48.4 50.7 48.3 51.6C48.9 52.1 49.5 52.6 50.1 53.2C50.3 52.3 50.4 51.4 50.4 50.5C50.7 50.7 50.9 51 51.2 51.3C51.1 52.2 50.9 53.1 50.8 54C51.3 54.6 51.8 55.2 52.3 55.8C52.6 55 52.8 54.1 53 53.2C53.2 53.5 53.5 53.8 53.7 54.1C53.5 55 53.2 55.8 52.9 56.7C53.4 57.4 53.8 58 54.2 58.7C54.6 57.9 54.9 57.1 55.2 56.2L55.8 57.1C55.4 58 55.1 58.8 54.7 59.6C55.1 60.4 55.4 61.1 55.8 61.9C56.3 61.2 56.7 60.4 57.1 59.6C57.3 59.9 57.4 60.3 57.6 60.6C57.2 61.4 56.7 62.1 56.2 62.8C56.5 63.7 56.7 64.5 56.9 65.4C57.5 64.7 58 64 58.6 63.3C58.7 63.7 58.8 64 58.9 64.4C58.3 65.1 57.7 65.8 57.1 66.5C57.1 66.8 57.2 67 57.2 67.3C60.1 65 62.4 62 64 58.4C67.1 51.5 66.6 43.8 63.3 37.6C63.1 37.6 63 37.7 62.8 37.7C62.4 38.5 62 39.4 61.6 40.2L60.5 40.3C61 39.5 61.4 38.7 61.8 37.8C61.1 37.9 60.4 38 59.6 38C59.1 38.8 58.6 39.5 58.1 40.2C57.7 40.2 57.4 40.2 57 40.2C57.6 39.5 58.1 38.8 58.6 38C57.9 38 57.1 38 56.4 38C55.8 38.7 55.3 39.4 54.6 40C54.2 40 53.9 39.9 53.5 39.8C54.2 39.2 54.8 38.5 55.4 37.9C54.6 37.8 53.8 37.7 53 37.5C52.4 38.1 51.7 38.7 51 39.3L49.9 39C50.6 38.5 51.3 37.9 52 37.3C51.2 37.1 50.5 36.9 49.7 36.6C49 37.1 48.2 37.6 47.4 38.1C47.1 38 46.7 37.8 46.4 37.7C47.2 37.3 48 36.8 48.7 36.3C48.3 36.2 48 36 47.6 35.8C47.2 35.6 46.9 35.5 46.5 35.3C45.7 35.7 44.9 36.1 44.1 36.5C43.8 36.3 43.5 36.1 43.1 35.9C44 35.6 44.8 35.2 45.6 34.8C44.8 34.4 44.1 33.9 43.4 33.4C42.6 33.7 41.7 34 40.9 34.2C40.6 34 40.3 33.7 40 33.5C40.9 33.3 41.7 33.1 42.6 32.8C41.9 32.3 41.3 31.8 40.7 31.2C39.8 31.4 39 31.5 38.1 31.7L37.3 30.9C38.2 30.8 39.1 30.7 40 30.5C39.4 29.9 38.9 29.3 38.4 28.7C37.5 28.8 36.6 28.8 35.7 28.8L35.1 27.9C36 27.9 36.9 27.9 37.8 27.9C37.2 27.1 36.6 26.2 36 25.3C29.2 27.1 23.2 31.9 20.1 38.8C18.5 42.4 17.9 46.1 18.1 49.8C19 49.2 19.9 48.7 20.9 48.2C20.2 47.9 19.4 47.5 18.6 47.1ZM56.6 67.8C56.5 67.4 56.5 67 56.4 66.6C55.6 66.3 54.8 66 54 65.7C53.9 65.4 53.8 65.1 53.7 64.8C54.5 65 55.4 65.3 56.2 65.6C56 64.8 55.8 63.9 55.5 63.1C54.6 62.9 53.8 62.7 52.9 62.5L52.5 61.7C53.4 61.8 54.3 62 55.1 62.2C54.8 61.4 54.4 60.6 54 59.9C53.1 59.8 52.2 59.7 51.4 59.7L50.9 58.9C51.8 58.9 52.6 58.9 53.5 59C53.1 58.3 52.7 57.7 52.3 57C51.4 57 50.5 57.1 49.7 57.2C49.5 57 49.3 56.7 49.1 56.5C50 56.4 50.8 56.3 51.7 56.2C51.2 55.6 50.7 55 50.2 54.4C49.3 54.5 48.5 54.7 47.6 54.9C47.4 54.7 47.2 54.5 46.9 54.3C47.7 54.1 48.6 53.9 49.5 53.7C49 53.2 48.4 52.6 47.8 52.1C46.9 52.3 46.1 52.6 45.3 52.9L44.7 52.5C45.5 52.2 46.3 51.8 47.1 51.6C46.5 51.1 45.9 50.7 45.2 50.3C44.4 50.7 43.6 51 42.9 51.5C42.6 51.3 42.4 51.2 42.1 51.1C42.8 50.6 43.6 50.2 44.4 49.8C43.7 49.4 43 49.1 42.3 48.8C41.5 49.3 40.8 49.7 40.1 50.3C39.8 50.2 39.5 50.1 39.2 50C39.9 49.5 40.6 48.9 41.3 48.4C40.6 48.1 39.9 47.9 39.1 47.6C38.4 48.2 37.8 48.7 37.2 49.3L36.3 49.1C36.9 48.5 37.5 47.9 38.2 47.3C37.5 47.1 36.7 47 35.9 46.8C35.3 47.4 34.7 48.1 34.2 48.8L33.3 48.7C33.8 48 34.3 47.3 34.9 46.6C34.1 46.5 33.4 46.5 32.6 46.4C32.1 47.1 31.6 47.9 31.2 48.6C30.9 48.6 30.6 48.6 30.3 48.7C30.7 47.9 31.1 47.2 31.6 46.4C30.7 46.4 29.8 46.5 28.9 46.6C28.5 47.4 28.1 48.2 27.8 49C27.5 49 27.2 49.1 26.9 49.2C27.2 48.4 27.5 47.6 27.9 46.8C27.1 46.9 26.4 47.1 25.6 47.3C25.3 48.1 25 48.9 24.8 49.7C24.5 49.8 24.2 49.9 23.9 50C24.1 49.2 24.3 48.4 24.6 47.5C24.1 47.7 23.6 47.8 23.1 48C22.8 48.1 22.4 48.3 22.1 48.4C21.9 49.3 21.7 50.2 21.6 51.1L20.8 51.5C20.9 50.6 21 49.7 21.1 48.9C20 49.4 19 50 18 50.7C18.8 59.1 24 66.8 32.2 70.4C40.7 74.2 49.9 72.8 56.6 67.8Z" fill="white"/>
</g>
<defs>
<clipPath id="clip0_2_2">
<rect width="132.3" height="83.1" fill="white" transform="translate(83.7 0.399994) rotate(90)"/>
</clipPath>
</defs>
</svg>
