<?xml version="1.0" encoding="utf-8"?>
<!-- Generator: Adobe Illustrator 24.1.3, SVG Export Plug-In . SVG Version: 6.00 Build 0)  -->
<svg version="1.1" id="Layer_1" xmlns="http://www.w3.org/2000/svg" xmlns:xlink="http://www.w3.org/1999/xlink" x="0px" y="0px"
	 viewBox="0 0 50 50" style="enable-background:new 0 0 50 50;" xml:space="preserve">
<style type="text/css">
	.st0{fill:#254B53;}
</style>
<path class="st0" d="M40.6,12.8l0.8-1.4L35.3,7l0.5-1.2l-8.3-5.1l-0.9,1.6L19.6,0l-4.3,8.8L12.4,8L4.8,22.6l9,13.7l-1,13.3L37,50
	l0-9.5l1.2-0.6l4-16.5l3-6.7L40.6,12.8z M39.8,11.9l-7.9,12.9L27.1,22l7.5-13.7L39.8,11.9z M27.8,2.6l6.6,3.5l-8.6,15.8l-4.4-2.1
	l3.7,0.1l4-6.3l-5.5-1.9L27.8,2.6z M20.3,1.6L26,3.4l-3.6,7.9l-2-0.3l-3.6-1.6L20.3,1.6z M35.3,48.8h-8.1l-0.7-6.1l-0.9,6.1h-1
	l1.1-8.6l0,0l0-1l2.2,1.2l7.6,0.1L35.3,48.8z M37.2,39.3l-9,0.4l-3.4-3l-0.6,12.2h-9.8L15,37.2l5.9,0.2l-6.3-2.1l-8-12.8l6.5-13
	l6,2.5l8.6,2.2l-3.4,4.4l-9.8-1.7l3.1,1.5l-3,1.5l4.5-0.9l6.3,5.3l-0.1,10.2l2-9l1.2,4.5l-0.1-5.7l0.8,0.5l0.6,2.4l0.2-1.9l2.3,1.3
	l0.7-0.7l5.1,3.4l2.2-3.4L37.2,39.3z M37.7,27.5l-4.5-2.4l6.4-10.6l4.1,2.9L37.7,27.5z"/>
</svg>
