<?xml version="1.0" encoding="utf-8"?>
<!-- Generator: Adobe Illustrator 24.1.3, SVG Export Plug-In . SVG Version: 6.00 Build 0)  -->
<svg version="1.1" id="Layer_1" xmlns="http://www.w3.org/2000/svg" xmlns:xlink="http://www.w3.org/1999/xlink" x="0px" y="0px"
	 viewBox="0 0 88.1 122.4" enable-background="new 0 0 88.1 122.4" xml:space="preserve">
<path fill="#1D3767" d="M41.4,9.1l-25.9,7.3c-4.3,1.2-7.2,5.1-7.2,9.5v70.5c0,4.4,2.9,8.3,7.2,9.5l25.9,7.3c1.7,0.5,3.6,0.5,5.3,0
	l25.9-7.3c4.3-1.2,7.2-5.1,7.2-9.5V25.9c0-4.4-2.9-8.3-7.2-9.5L46.8,9.1C45,8.6,43.2,8.6,41.4,9.1z"/>
<g>
	<path fill="none" stroke="#D42027" stroke-width="4.25" stroke-miterlimit="10" d="M44.1,119.1c-1.4,0-2.8-0.2-4.2-0.6L14,111.2
		c-6.6-1.9-11.2-7.9-11.2-14.8V25.9C2.8,19,7.4,12.9,14,11.1l25.9-7.3c1.4-0.4,2.8-0.6,4.2-0.6c1.4,0,2.8,0.2,4.2,0.6l25.9,7.3
		c6.6,1.9,11.2,7.9,11.2,14.8v70.5c0,6.9-4.6,12.9-11.2,14.8l-25.9,7.3C46.9,118.9,45.5,119.1,44.1,119.1z"/>
</g>
<g>
	<path fill="#FFFFFF" d="M39.5,28.2c3.1-2.1,6.5-3.9,10.2-5.3c2-0.8,4-1.4,6.1-2c-3.8-2-8-3-12.5-2.9c0,0.1,0,0.2,0,0.2
		c-0.2,2-1,3.2-1.8,4.5c-0.7,1.2-1.4,2.3-1.8,4.2C39.7,27.4,39.6,27.8,39.5,28.2z"/>
	<path fill="#FFFFFF" d="M59.5,23.2c-5.1,1.1-12.2,3.3-19,8.1c0.8,0.8,2.2,1.4,4.4,2c4,1.1,6.8,1,9.7,1c2.2,0,4.4-0.1,7.2,0.3
		c2.3,0.3,4.5,1,6.8,1.8C67,31,63.7,26.5,59.5,23.2z"/>
	<path fill="#FFFFFF" d="M26.7,40.8c0.9-1.3,1.9-2.5,2.9-3.7c0.1-0.2,0.3-0.3,0.4-0.5c-2.1-2.8-4.1-5.8-5.9-8.9
		c-3,3.8-5,8.5-5.4,13.6c1.3-0.4,2.8-0.8,5-0.8C24.9,40.5,25.9,40.6,26.7,40.8z"/>
	<path fill="#FFFFFF" d="M36.6,30.4c-0.3-1.5-0.1-2.9,0.1-4c0.5-2.5,1.4-4,2.2-5.3c0.6-1,1.1-1.7,1.3-2.8
		c-5.4,0.8-10.2,3.3-13.9,6.9c1.7,3.1,3.7,6.2,5.8,9C33.6,32.9,35,31.6,36.6,30.4z"/>
	<path fill="#FFFFFF" d="M54.7,37.4c-3,0.1-6.1,0.1-10.6-1.1c-2.2-0.6-4.6-1.4-6.1-3.1c-1.3,1.1-2.7,2.3-3.9,3.6
		c7.8,9.7,17.8,17.4,29.6,23c4.4-5.3,6.6-12.3,5.6-19.6c-2.6-1.2-5.3-2.1-8-2.5C58.8,37.3,56.8,37.3,54.7,37.4z"/>
	<path fill="#FFFFFF" d="M23.7,43.5c-2,0-3.3,0.4-4.6,0.8c-0.2,0.1-0.3,0.1-0.5,0.2c0,0.9,0.1,1.8,0.2,2.7c0.3,2,0.8,4,1.5,5.8
		c1.2-3.3,2.7-6.4,4.4-9.3C24.6,43.6,24.2,43.5,23.7,43.5z"/>
	<path fill="#FFFFFF" d="M32,39.1c-0.9,1.1-1.8,2.1-2.6,3.3c1.3,1.4,1.8,3.2,2.2,4.9c0.9,3.8,1.1,6.5,1.3,8.6c0.1,1,0.1,1.8,0.3,2.6
		c0,0,0,0,0,0c0.5,3.2,1.9,6.4,4.2,9.5c3.3,0.9,6.8,1.2,10.4,0.6c5.3-0.8,10.1-3.2,13.7-6.6c-4.5-2.2-8.7-4.7-12.7-7.5
		C42.4,50.1,36.8,44.9,32,39.1z"/>
	<path fill="#FFFFFF" d="M29.8,56.1c-0.2-2.1-0.4-4.6-1.2-8.2c-0.2-1-0.5-2.1-1-2.9c-2.2,3.6-4,7.6-5.2,11.8c2.5,4,6,7.2,10.1,9.3
		c-1.2-2.4-2.1-4.8-2.4-7.2C30,58.1,29.9,57.1,29.8,56.1z"/>
</g>
<path fill="#FFFFFF" d="M8.3,76.8v19.6c0,4.4,2.9,8.3,7.2,9.5l25.9,7.3c1.7,0.5,3.6,0.5,5.3,0l25.9-7.3c4.3-1.2,7.2-5.1,7.2-9.5
	V76.8H8.3z"/>
<g>
	<path fill="#D42027" d="M27.2,102.5V83.8h3.3c0.7,2.6,3,11.9,3.2,12.9h0c-0.1-2.3-0.1-4.9-0.1-8v-4.9h2.7v18.7h-3.2
		c-0.6-2.2-3.1-12.5-3.3-13.3h0c0.1,2.3,0.1,4.8,0.1,8.2v5.1H27.2z"/>
	<path fill="#D42027" d="M40.2,83.8h3.8c3.2,0,4.5,1.5,4.5,4.3v0.7c0,2.7-0.9,3.4-1.7,3.8c0.8,0.3,2.1,1,2.1,3.8v1.4
		c0,3.2-1.3,4.8-4.6,4.8h-4.1V83.8z M43.7,91.5c1.6,0,2.1-0.5,2.1-2.4v-0.7c0-1.6-0.6-2.2-1.9-2.2H43v5.2H43.7z M43,100.2h1
		c1.7,0,2.1-0.7,2.1-2.5v-1.2c0-1.8-0.5-2.6-2.3-2.6H43V100.2z"/>
	<path fill="#D42027" d="M54.9,97.5l-0.7,5h-2.9l3-18.7h4.1l3.1,18.7h-3l-0.7-5H54.9z M57.5,94.9c-0.4-3.2-0.8-6.2-1.1-8.3h-0.1
		c-0.1,1.5-0.6,5.5-1,8.3H57.5z"/>
</g>
<path fill="none" stroke="#1D3767" stroke-width="2.55" stroke-miterlimit="10" d="M41.4,9.1l-25.9,7.3c-4.3,1.2-7.2,5.1-7.2,9.5
	v70.5c0,4.4,2.9,8.3,7.2,9.5l25.9,7.3c1.7,0.5,3.6,0.5,5.3,0l25.9-7.3c4.3-1.2,7.2-5.1,7.2-9.5V25.9c0-4.4-2.9-8.3-7.2-9.5L46.8,9.1
	C45,8.6,43.2,8.6,41.4,9.1z"/>
</svg>
