<?xml version="1.0" encoding="utf-8"?>
<!-- Generator: Adobe Illustrator 24.2.0, SVG Export Plug-In . SVG Version: 6.00 Build 0)  -->
<svg version="1.1" id="Layer_1" xmlns="http://www.w3.org/2000/svg" xmlns:xlink="http://www.w3.org/1999/xlink" x="0px" y="0px"
	 viewBox="0 0 118.2 137.3" enable-background="new 0 0 118.2 137.3" xml:space="preserve">
<path fill="#1D3767" d="M101.9,129.5H16.2c-2.8,0-5.2-2.3-5.2-5.2V10.2c0-2.8,2.3-5.2,5.2-5.2h85.7c2.8,0,5.2,2.3,5.2,5.2v114.2
	C107.1,127.2,104.8,129.5,101.9,129.5z M16.2,8c-1.2,0-2.2,1-2.2,2.2v114.2c0,1.2,1,2.2,2.2,2.2h85.7c1.2,0,2.2-1,2.2-2.2V10.2
	c0-1.2-1-2.2-2.2-2.2H16.2z"/>
<g>
	<path fill="#1D3767" d="M28.9,14.7l3.5,9.1v-3.5c0-0.1,0-0.1,0-0.2c0-0.1,0-0.1,0-0.2c0-0.3,0-0.6,0-0.9c0-0.3-0.2-0.5-0.5-0.8
		v-3.5h6.5v3.5c-0.4,0.3-0.6,0.6-0.6,0.9c-0.1,0.3-0.1,0.7-0.1,1.2v14.7h-6.1l-3.9-9.1V29c0,0.5,0,0.9,0.1,1.2
		c0.1,0.4,0.3,0.6,0.7,0.8v3.9H22v-3.7c0.3-0.2,0.5-0.4,0.6-0.7s0.1-0.5,0.2-0.8c0-0.1,0-0.2,0-0.2c0-0.1,0-0.1,0-0.2
		c0-0.1,0-0.1,0-0.2c0-0.1,0-0.1,0-0.2v-8.5c0-0.1,0-0.1,0-0.2s0-0.1,0-0.2c0-0.4,0-0.7-0.1-1c-0.1-0.3-0.3-0.6-0.7-0.8v-3.5H28.9z"
		/>
	<path fill="#1D3767" d="M51.1,19.9c0-0.4-0.1-0.7-0.3-0.9s-0.5-0.3-0.7-0.3c0,0,0,0,0,0c0,0,0,0,0,0c-0.3,0-0.5,0.1-0.8,0.4
		c-0.2,0.3-0.4,0.7-0.4,1.2v9.3c0,0.4,0.1,0.8,0.4,1c0.2,0.2,0.5,0.4,0.8,0.4c0,0,0,0,0,0c0,0,0,0,0,0c0.3,0,0.5-0.1,0.7-0.3
		c0.2-0.2,0.3-0.6,0.3-1.1v-3.2h6.3v6.5c-0.4,0.7-1.3,1.2-2.6,1.6c-1.3,0.4-2.7,0.6-4.2,0.6c-0.1,0-0.2,0-0.3,0c-0.1,0-0.2,0-0.3,0
		c-2.1,0-3.9-0.5-5.4-1.4c-1.5-0.9-2.2-2.5-2.2-4.7v-8.3c0-2.1,0.6-3.7,1.7-4.8c1.1-1,2.9-1.6,5.2-1.6c1.7,0,3.2,0.2,4.4,0.5
		c1.3,0.3,2.5,0.8,3.7,1.6v5.8h-6.3V19.9z"/>
	<path fill="#1D3767" d="M75.9,29.4c0.1,0.5,0.2,0.9,0.4,1.2c0.2,0.4,0.4,0.6,0.7,0.8v3.5h-8v-3.5c0.4-0.3,0.6-0.5,0.7-0.8
		c0.1-0.3,0.1-0.6,0.1-1h-3.2c0,0.4,0,0.7,0.1,1c0.1,0.3,0.3,0.6,0.6,0.8v3.5h-6.9v-3.7c0.1-0.1,0.1-0.1,0.2-0.2
		c0-0.1,0.1-0.1,0.1-0.2c0.2-0.2,0.3-0.4,0.4-0.7c0.1-0.3,0.2-0.6,0.2-1L64,14.7h9.1L75.9,29.4z M68.1,19.7l-0.9,5.9H69L68.1,19.7z"
		/>
	<path fill="#1D3767" d="M95.1,29.4c0.1,0.5,0.2,0.9,0.4,1.2c0.2,0.4,0.4,0.6,0.7,0.8v3.5h-8v-3.5c0.4-0.3,0.6-0.5,0.7-0.8
		c0.1-0.3,0.1-0.6,0.1-1h-3.2c0,0.4,0,0.7,0.1,1s0.3,0.6,0.6,0.8v3.5h-6.9v-3.7c0.1-0.1,0.1-0.1,0.2-0.2c0-0.1,0.1-0.1,0.1-0.2
		c0.2-0.2,0.3-0.4,0.4-0.7c0.1-0.3,0.2-0.6,0.2-1l2.6-14.5h9.1L95.1,29.4z M87.3,19.7l-0.9,5.9h1.9L87.3,19.7z"/>
</g>
<g>
	<path fill="#1D3767" d="M46,111.4v3h-2.4v-0.5c0-0.3-0.1-0.4-0.2-0.5c-0.1-0.1-0.3-0.1-0.4-0.1c0,0,0,0,0,0c0,0,0,0,0,0
		c0,0-0.1,0-0.1,0c0,0-0.1,0-0.1,0v1.6h1.6v1.7h-1.6v1.1c0,0.2,0,0.3,0,0.4c0,0.1,0.1,0.3,0.2,0.4v1.6h-3.2v-1.6
		c0.1-0.1,0.2-0.2,0.3-0.3c0-0.1,0.1-0.3,0.1-0.4v-4.1c0-0.2,0-0.3-0.1-0.4c-0.1-0.1-0.2-0.2-0.3-0.2v-1.6H46z"/>
	<path fill="#1D3767" d="M46.8,113.9c0-0.9,0.3-1.5,0.8-2s1.4-0.7,2.5-0.7c1.1,0,1.9,0.2,2.4,0.6s0.7,1,0.7,1.9v3.9
		c0,0.8-0.2,1.5-0.7,1.9c-0.5,0.4-1.3,0.6-2.5,0.6c-1.2,0-2-0.2-2.5-0.7c-0.5-0.5-0.8-1.1-0.8-2.1V113.9z M50.6,113.9
		c0-0.2,0-0.4-0.1-0.5s-0.2-0.2-0.4-0.2c-0.2,0-0.3,0.1-0.4,0.2c-0.1,0.1-0.1,0.3-0.1,0.5v3.6c0,0,0,0,0,0s0,0,0,0
		c0,0.2,0,0.4,0.1,0.5c0.1,0.2,0.2,0.2,0.4,0.2c0.2,0,0.3-0.1,0.4-0.2s0.1-0.3,0.1-0.6V113.9z"/>
	<path fill="#1D3767" d="M54.5,113.9c0-0.9,0.3-1.5,0.8-2s1.4-0.7,2.5-0.7c1.1,0,1.9,0.2,2.4,0.6s0.7,1,0.7,1.9v3.9
		c0,0.8-0.2,1.5-0.7,1.9c-0.5,0.4-1.3,0.6-2.5,0.6c-1.2,0-2-0.2-2.5-0.7c-0.5-0.5-0.8-1.1-0.8-2.1V113.9z M58.3,113.9
		c0-0.2,0-0.4-0.1-0.5s-0.2-0.2-0.4-0.2c-0.2,0-0.3,0.1-0.4,0.2c-0.1,0.1-0.1,0.3-0.1,0.5v3.6c0,0,0,0,0,0s0,0,0,0
		c0,0.2,0,0.4,0.1,0.5c0.1,0.2,0.2,0.2,0.4,0.2c0.2,0,0.3-0.1,0.4-0.2s0.1-0.3,0.1-0.6V113.9z"/>
	<path fill="#1D3767" d="M69.3,111.4v3.9h-2v-1.5c0,0,0-0.1,0-0.1s0-0.1,0-0.1c0-0.1,0-0.1-0.1-0.2c-0.1-0.1-0.1-0.1-0.3-0.1v4.3
		c0,0,0,0,0,0s0,0,0,0c0,0.2,0,0.4,0.1,0.5c0,0.2,0.1,0.3,0.2,0.3v1.6h-3.3v-1.5c0.1,0,0.2-0.1,0.3-0.2c0-0.1,0.1-0.2,0.1-0.4
		c0,0,0-0.1,0-0.1c0,0,0-0.1,0-0.1c0,0,0-0.1,0-0.1c0,0,0,0,0-0.1v-4.2c-0.2,0-0.3,0-0.3,0.1c0,0.1-0.1,0.2-0.1,0.3c0,0,0,0.1,0,0.1
		s0,0,0,0.1v1.4h-2v-3.9H69.3z"/>
	<path fill="#1D3767" d="M73.6,111.4c0.9,0,1.7,0.1,2.4,0.3c0.7,0.2,1.1,0.8,1.1,1.8c0,0.5-0.1,1-0.3,1.3c-0.2,0.4-0.6,0.6-1.1,0.7
		c0.6,0.1,1.1,0.3,1.3,0.8s0.3,0.9,0.3,1.4c0,0.6-0.2,1.2-0.6,1.6c-0.4,0.4-1.1,0.7-2.3,0.7h-4v-1.6c0.2-0.1,0.3-0.2,0.4-0.3
		c0-0.2,0-0.3,0-0.5V114c0,0,0-0.1,0-0.1s0-0.1,0-0.1c0-0.2,0-0.3-0.1-0.5c0-0.1-0.2-0.2-0.3-0.3v-1.7H73.6z M73.2,114.8
		c0.4,0,0.6,0,0.8-0.1c0.2-0.1,0.3-0.2,0.3-0.5c0,0,0-0.1,0-0.1c0,0,0-0.1,0-0.1c0-0.4-0.1-0.6-0.3-0.7c-0.2-0.1-0.4-0.1-0.8-0.1
		V114.8z M73.2,118.2c0.4,0,0.7,0,0.8-0.1c0.2-0.1,0.3-0.3,0.3-0.6c0,0,0-0.1,0-0.1s0-0.1,0-0.1c0-0.4-0.1-0.6-0.3-0.7
		c-0.2-0.1-0.4-0.1-0.7-0.1c0,0,0,0-0.1,0s0,0-0.1,0V118.2z"/>
	<path fill="#1D3767" d="M84.5,117.7c0,0.2,0.1,0.4,0.2,0.5s0.2,0.3,0.3,0.3v1.5h-3.4v-1.5c0.2-0.1,0.3-0.2,0.3-0.4
		c0-0.1,0-0.3,0-0.4h-1.3c0,0.2,0,0.3,0,0.4c0,0.1,0.1,0.2,0.3,0.4v1.5H78v-1.6c0,0,0-0.1,0.1-0.1c0,0,0,0,0-0.1
		c0.1-0.1,0.1-0.2,0.2-0.3c0-0.1,0.1-0.3,0.1-0.4l1.1-6.1h3.9L84.5,117.7z M81.2,113.6l-0.4,2.5h0.8L81.2,113.6z"/>
	<path fill="#1D3767" d="M89.1,111.4v1.6c-0.2,0.1-0.3,0.2-0.3,0.3c0,0.2,0,0.4,0,0.5c0,0,0,0.1,0,0.1s0,0.1,0,0.1v4.1
		c0.3,0,0.5,0,0.6-0.1c0.1-0.1,0.2-0.3,0.2-0.7v-1.6h2.5v4.2h-6.3v-1.5c0.1-0.1,0.2-0.1,0.3-0.3s0-0.2,0-0.3c0,0,0,0,0-0.1
		c0,0,0,0,0-0.1c0,0,0-0.1,0-0.1s0,0,0-0.1v-3.9c0,0,0-0.1,0-0.1s0-0.1,0-0.1c0-0.1,0-0.2,0-0.4s-0.1-0.2-0.2-0.3v-1.6H89.1z"/>
	<path fill="#1D3767" d="M96.4,111.4v1.6c-0.2,0.1-0.3,0.2-0.3,0.3c0,0.2,0,0.4,0,0.5c0,0,0,0.1,0,0.1s0,0.1,0,0.1v4.1
		c0.3,0,0.5,0,0.6-0.1c0.1-0.1,0.2-0.3,0.2-0.7v-1.6h2.5v4.2h-6.3v-1.5c0.1-0.1,0.2-0.1,0.3-0.3s0-0.2,0-0.3c0,0,0,0,0-0.1
		c0,0,0,0,0-0.1c0,0,0-0.1,0-0.1s0,0,0-0.1v-3.9c0,0,0-0.1,0-0.1s0-0.1,0-0.1c0-0.1,0-0.2,0-0.4s-0.1-0.2-0.2-0.3v-1.6H96.4z"/>
</g>
<polygon fill="#FFFFFF" points="11.1,102 15.2,125.1 107.1,57 107.1,51 11.1,44 "/>
<polygon fill="#D42027" points="1.5,41.3 16,123.1 115.3,49.5 "/>
<polygon fill="#1D3767" points="1.6,43.9 25.3,121.6 116.6,43.9 "/>
<g>
	<path fill="#FFFFFF" d="M102.8,61.9c-2.6,9.1-11.7,31.2-40.9,38.5c-5,1.2-9.6,1.8-13.9,1.9c-12.2,0.2-21.9-3.5-29-7.7
		c-0.9-0.5-1.7-1.1-2.5-1.6c-2.1-1.4-4-2.9-5.5-4.2C10,87.9,9,87,8.3,86.1c0,0-0.1-0.1-0.1-0.1c-1.3-1.4-2.1-3.1-2.3-4.9
		c-0.3,2.5,0.5,5.1,2.3,6.9c0,0,0,0.1,0.1,0.1C9,89,10,89.9,11.1,90.7c1.5,1.3,3.3,2.8,5.5,4.2c0.8,0.5,1.6,1.1,2.5,1.6
		c7,4.2,16.8,7.9,29,7.7c4.3-0.1,9-0.7,13.9-1.9c29.2-7.3,38.3-29.3,40.9-38.5c0.3-1,0.3-2,0.2-3.1C103,61.2,102.9,61.6,102.8,61.9z
		"/>
</g>
<g>
	<path fill="#D42027" d="M8.8,78.3c0.3-1.1,0.8-2.5,1.4-4c0.8-1.7,2-3.4,3.4-5c-0.2,4,0.5,11.5,5.5,21c-2-0.8-3.9-1.7-5.5-2.9
		c-1.3-1.1-2.4-2.1-3.3-3C8.7,82.7,8.1,80.4,8.8,78.3z"/>
	<path fill="#FFFFFF" d="M22.7,91.4c-8.6-14.6-6.2-24.8-6.2-24.9c0-0.1,0-0.3,0-0.4c1.2-1.1,2.5-2.2,3.9-3.3c0,5,1,16.1,8.3,29.8
		C26.7,92.3,24.7,91.9,22.7,91.4z"/>
	<path fill="#FFFFFF" d="M42.2,54.1c-0.4-0.8-0.8-1.5-1-2.2c1.1-0.4,2.2-0.8,3.3-1.1c0.3,1,0.7,2,1.2,3.1c0.1,0.2,0.3,0.4,0.5,0.6
		c0.4,0.2,0.8,0.3,1.3,0.1c0.7-0.3,0.9-1.1,0.6-1.8c-0.5-1-0.8-1.9-1.1-2.8c0.9-0.3,1.8-0.5,2.6-0.7c0.4-0.1,0.9-0.2,1.4-0.3
		c0.2,0.9,0.3,1.9,0.4,3c0,0.5,0.3,0.9,0.6,1.1c0.2,0.1,0.5,0.2,0.7,0.2c0.7,0,1.3-0.6,1.3-1.4c0-1.3-0.2-2.4-0.4-3.4
		c1.1-0.2,2.3-0.4,3.4-0.6c0.1,0.8,0.2,1.6,0.2,2.6c0,0.5,0.2,0.9,0.6,1.2c0.2,0.1,0.4,0.2,0.6,0.2c0.7,0,1.4-0.6,1.4-1.3
		c0-1.1-0.1-2.1-0.2-3c1.1-0.1,2.2-0.3,3.3-0.4c0.1,0.7,0.2,1.4,0,2.3c-0.1,0.5,0.2,1.1,0.6,1.3c0.2,0.1,0.3,0.2,0.5,0.2
		c0.7,0.1,1.4-0.4,1.5-1.2c0.1-1.1,0.1-2,0-2.9c1.1-0.1,2.3-0.1,3.4-0.1c0.1,0.5,0.1,1.2,0,1.9c-0.1,0.5,0.2,1.1,0.6,1.3
		c0.2,0.1,0.3,0.2,0.5,0.2c0.7,0.1,1.4-0.4,1.5-1.1c0.1-0.8,0.1-1.6,0-2.2c1.6,0,3.2,0.1,4.8,0.3c0.1,0.7-0.1,1.3-0.3,1.9
		c-1.2,2.4-3,3.6-5.4,3.5c-4.2-0.2-6.8,0.9-10,2.4c-2.4,1-5.1,2.2-9.2,3.3c-4.2,1-7.1,1.2-9.7,1.4c-3.5,0.3-6.3,0.5-9.9,2.6
		c-2.1,1.2-4.3,1.1-6.4-0.5c-0.5-0.4-0.9-0.8-1.2-1.4c1.1-0.7,2.3-1.4,3.4-2.1c0.2,0.5,0.5,1.1,0.9,1.6c0.1,0.2,0.2,0.3,0.4,0.4
		c0.4,0.3,1,0.3,1.5-0.1c0.6-0.4,0.7-1.3,0.3-1.9c-0.3-0.5-0.6-0.9-0.7-1.3c1-0.5,2-1,3-1.5c0.3,0.7,0.7,1.5,1.2,2.2
		c0.1,0.2,0.2,0.3,0.4,0.4c0.4,0.3,1,0.3,1.5-0.1c0.6-0.4,0.7-1.3,0.3-1.9c-0.4-0.6-0.7-1.2-1-1.8c1-0.5,2.1-0.9,3.1-1.3
		c0.3,0.8,0.6,1.7,1.2,2.6c0.1,0.2,0.3,0.4,0.5,0.5c0.4,0.2,0.9,0.3,1.4,0C42.4,55.5,42.6,54.7,42.2,54.1"/>
	<path fill="#FFFFFF" d="M21.1,58c0,0.3,0.1,0.7,0.1,1c0,0-0.1,0.1-0.1,0.1c-1.6,1.1-3.1,2.3-4.5,3.5c1.3-1.8,2.8-3.6,4.5-5.3
		C21.1,57.5,21.1,57.7,21.1,58z"/>
	<path fill="#D42027" d="M99.3,64.4C99.2,64.4,99.2,64.4,99.3,64.4c-0.9,2.3-2.2,4.4-3.8,6.4c-0.1-10.2-2.8-16.8-4.8-20.3
		c1.7,0.8,3.3,1.7,4.8,2.7c1.5,1.2,2.7,2.4,3.6,3.4c1.2,1.2,1.6,3,1.2,4.7C100,62.1,99.7,63.2,99.3,64.4"/>
	<path fill="#FFFFFF" d="M78.5,44.1c-0.1-0.3-0.3-0.6-0.5-0.9c1.9,0.6,3.7,1.3,5.4,2.1c-1.5-0.3-3.1-0.6-4.7-0.8
		C78.7,44.4,78.6,44.2,78.5,44.1"/>
	<path fill="#FFFFFF" d="M88,77.9c0-15.7-4.3-25.9-6.7-30.3c1.8,0.3,3.5,0.7,5.1,1.2c0.1,0.1,0.1,0.2,0.2,0.3
		c0.1,0.1,6.9,7.9,6.2,24.7C91.3,75.2,89.7,76.6,88,77.9z"/>
	<path fill="#D42027" d="M42.2,62.1c2.5-0.2,5.6-0.4,9.9-1.4c0,0,0,0,0,0c0.1,0,0.2,0,0.2-0.1c0.1,0,0.1,0,0.2-0.1c0,0,0,0,0,0
		c4.2-1.1,7.1-2.3,9.4-3.4c3.1-1.4,5.2-2.3,8.8-2.1c3.5,0.1,6.3-1.6,8-5c0.2-0.3,0.3-0.6,0.4-1c2.3,4.4,6.6,14.9,6.2,30.7
		c-7.5,5-16.7,8.8-25.2,11c-7.8,2-18.4,3-28,2.2c-7.7-13.8-8.8-25.1-8.8-30c0.3,0.3,0.5,0.5,0.8,0.7c0.3,0.2,0.6,0.4,0.8,0.6
		c2.8,1.7,5.8,1.7,8.5,0.1C36.5,62.5,38.8,62.4,42.2,62.1"/>
	<path fill="#FFFFFF" d="M61.9,44.2c0,0,0.1,0.1,0.1,0.2c-1,0.1-2,0.2-3,0.4c-0.5-1.2-1-1.9-1-2c-0.4-0.6-1.3-0.8-1.9-0.3
		c-0.6,0.4-0.8,1.3-0.3,1.9c0,0,0.2,0.3,0.5,0.9c-1.1,0.2-2.2,0.4-3.3,0.6c-0.4-1.3-0.9-2-0.9-2.1c-0.4-0.6-1.2-0.9-1.8-0.5
		c-0.6,0.4-0.9,1.2-0.5,1.8c0,0,0.3,0.5,0.6,1.3c-0.4,0.1-0.8,0.2-1.3,0.3c-0.9,0.2-1.7,0.4-2.5,0.7c-0.1-0.9-0.1-1.5-0.1-1.5
		c0-0.7-0.6-1.3-1.3-1.4c-0.7,0-1.3,0.6-1.4,1.3c0,0.1,0,1,0.2,2.3c-1.1,0.3-2.2,0.7-3.2,1.1c-0.1-0.7,0-1.1,0-1.1
		c0.1-0.7-0.4-1.4-1.2-1.5c-0.7-0.1-1.4,0.4-1.5,1.2c0,0.1-0.1,1,0.1,2.4c-1,0.4-1.9,0.8-2.9,1.2c0-0.3,0.1-0.4,0.1-0.5
		c0.2-0.7-0.3-1.4-1-1.6c-0.7-0.2-1.4,0.3-1.6,1c0,0.1-0.2,1-0.1,2.3c-0.9,0.4-1.8,0.9-2.7,1.3c0-0.6-0.4-1.1-1-1.2
		c-0.7-0.2-1.4,0.3-1.6,1c0,0.1-0.2,0.7-0.1,1.7c-1.2,0.7-2.3,1.3-3.4,2c0.1-1.6,0.8-3.1,1.9-4.2c5.5-4.4,12.6-8.3,21.8-10.6
		c9.1-2.3,17.1-2.2,23.9-1c0,0,0.1,0,0.1,0c1.6,0.4,3,1.3,4,2.6c-1.5-0.1-3-0.2-4.5-0.2c-0.4-0.7-0.7-1.1-0.8-1.1
		c-0.5-0.5-1.3-0.6-1.9-0.1C68,43,67.8,43.5,67.9,44c-1,0-2,0.1-3,0.1c-0.5-1.1-1-1.7-1.1-1.7c-0.5-0.5-1.3-0.6-1.9-0.1
		C61.4,42.8,61.4,43.6,61.9,44.2"/>
</g>
<g>
	<path fill="#1D3767" d="M63.9,42.4c-0.5-0.5-1.3-0.6-1.9-0.1c-0.5,0.4-0.5,1.1-0.3,1.6h3.1C64.3,43,63.9,42.5,63.9,42.4z"/>
	<path fill="#1D3767" d="M58,42.7c-0.4-0.6-1.3-0.8-1.9-0.3c-0.5,0.3-0.7,1-0.5,1.5h3C58.3,43.2,58,42.8,58,42.7z"/>
	<path fill="#1D3767" d="M70.2,42.8c-0.5-0.5-1.3-0.6-1.9-0.1c-0.4,0.3-0.5,0.8-0.4,1.2h3C70.6,43.2,70.2,42.8,70.2,42.8z"/>
	<path fill="#1D3767" d="M50.2,43.2c-0.3,0.2-0.5,0.4-0.6,0.7h2.5c-0.1-0.1-0.1-0.2-0.1-0.2C51.7,43.1,50.9,42.8,50.2,43.2z"/>
</g>
<path fill="#1D3767" d="M102.2,56.2c-0.3-0.6-0.7-1.1-1.1-1.5c-2.8-2.9-7.6-7.2-14.5-10.8c-9.5-4.9-22.8-8.2-39.7-4
	c-4.2,1-8,2.4-11.4,4c-4.3,2-7.9,4.3-11.1,6.8c-0.1,0-0.2,0.1-0.2,0.2c0,0-0.1,0.1-0.1,0.1c-7.3,5.9-11.9,12.8-14.7,18.5
	c-0.8,1.7-1.5,3.3-2,4.7c-0.5,1.2-0.9,2.3-1.2,3.4c0,0,0,0,0,0c-0.8,3-0.1,6.1,2,8.4c0,0,0,0.1,0.1,0.1C9,87,10,87.9,11.1,88.7
	c1.5,1.3,3.3,2.8,5.5,4.2c0.8,0.5,1.6,1.1,2.5,1.6c7,4.2,16.8,7.9,29,7.7c4.3-0.1,9-0.7,13.9-1.9c29.2-7.3,38.3-29.3,40.9-38.5
	C103.4,60,103.1,57.9,102.2,56.2z M80,43.9c1.2,0.5,2.4,0.9,3.5,1.4c-1.5-0.3-3.1-0.6-4.7-0.8c-0.1-0.1-0.1-0.3-0.2-0.4
	c0-0.1-0.1-0.1-0.1-0.2c-0.1-0.2-0.2-0.5-0.4-0.7C78.7,43.4,79.3,43.7,80,43.9z M76.3,48.9c-1.2,2.4-3,3.6-5.4,3.5
	c-4.2-0.2-6.8,0.9-10,2.4c-2.4,1-5.1,2.2-9.2,3.3c-4.2,1-7.1,1.2-9.7,1.4c-3.5,0.3-6.3,0.5-9.9,2.6c-2.1,1.2-4.3,1.1-6.4-0.5
	c-0.5-0.4-0.9-0.8-1.2-1.4c1.1-0.7,2.3-1.4,3.4-2.1c0.2,0.5,0.5,1.1,0.9,1.6c0.1,0.2,0.2,0.3,0.4,0.4c0.4,0.3,1,0.3,1.5-0.1
	c0.6-0.4,0.7-1.3,0.3-1.9c-0.3-0.5-0.6-0.9-0.7-1.3c1-0.5,2-1,3-1.5c0.3,0.7,0.7,1.5,1.2,2.2c0.1,0.2,0.2,0.3,0.4,0.4
	c0.4,0.3,1,0.3,1.5-0.1c0.6-0.4,0.7-1.3,0.3-1.9c-0.4-0.6-0.7-1.2-1-1.8c1-0.5,2.1-0.9,3.1-1.3c0.3,0.8,0.6,1.7,1.2,2.6
	c0.1,0.2,0.3,0.4,0.5,0.5c0.4,0.2,0.9,0.3,1.4,0c0.6-0.4,0.9-1.2,0.5-1.8c-0.4-0.8-0.8-1.5-1-2.2c1.1-0.4,2.2-0.8,3.3-1.1
	c0.3,1,0.7,2,1.2,3.1c0.1,0.2,0.3,0.4,0.5,0.6c0.4,0.2,0.8,0.3,1.3,0.1c0.7-0.3,0.9-1.1,0.6-1.8c-0.5-1-0.8-1.9-1.1-2.8
	c0.9-0.3,1.8-0.5,2.6-0.7c0.4-0.1,0.9-0.2,1.4-0.3c0.2,0.9,0.3,1.9,0.4,3c0,0.5,0.3,0.9,0.6,1.1c0.2,0.1,0.5,0.2,0.7,0.2
	c0.7,0,1.3-0.6,1.3-1.4c0-1.3-0.2-2.4-0.4-3.4c1.1-0.2,2.3-0.4,3.4-0.6c0.1,0.8,0.2,1.6,0.2,2.6c0,0.5,0.2,0.9,0.6,1.2
	c0.2,0.1,0.4,0.2,0.6,0.2c0.7,0,1.4-0.6,1.4-1.3c0-1.1-0.1-2.1-0.2-3c1.1-0.1,2.2-0.3,3.3-0.4c0.1,0.7,0.2,1.4,0,2.3
	c-0.1,0.5,0.2,1.1,0.6,1.3c0.2,0.1,0.3,0.2,0.5,0.2c0.7,0.1,1.4-0.4,1.5-1.2c0.1-1.1,0.1-2,0-2.9c1.1-0.1,2.3-0.1,3.4-0.1
	c0.1,0.5,0.1,1.2,0,1.9c-0.1,0.5,0.2,1.1,0.6,1.3c0.2,0.1,0.3,0.2,0.5,0.2c0.7,0.1,1.4-0.4,1.5-1.1c0.1-0.8,0.1-1.6,0-2.2
	c1.6,0,3.2,0.1,4.8,0.3C76.7,47.7,76.6,48.3,76.3,48.9z M25.7,53.1c4.5-3.6,10.1-6.8,17-9.2c1.6-0.5,3.1-1,4.8-1.4
	c9.1-2.3,17.1-2.2,23.9-1c0,0,0.1,0,0.1,0c1.5,0.3,2.8,1.2,3.8,2.4c0.1,0.1,0.2,0.2,0.2,0.3c-1.5-0.1-3-0.2-4.5-0.2c0,0,0,0,0,0h-3
	c0,0,0,0,0,0.1c-1,0-2,0.1-3,0.1c0-0.1-0.1-0.1-0.1-0.2h-3.1c0,0.1,0.1,0.2,0.2,0.3c0,0,0.1,0.1,0.1,0.2c-1,0.1-2,0.2-3,0.4
	c-0.1-0.3-0.2-0.6-0.3-0.8h-3c0,0.1,0.1,0.2,0.1,0.3c0,0,0.2,0.3,0.5,0.9c-1.1,0.2-2.2,0.4-3.3,0.6c-0.3-0.9-0.6-1.6-0.8-1.9h-2.5
	c-0.1,0.4-0.1,0.8,0.1,1.1c0,0,0.3,0.5,0.6,1.3c-0.4,0.1-0.8,0.2-1.3,0.3c-0.9,0.2-1.7,0.4-2.5,0.7c-0.1-0.9-0.1-1.5-0.1-1.5
	c0-0.7-0.6-1.3-1.3-1.4c-0.7,0-1.3,0.6-1.4,1.3c0,0.1,0,1,0.2,2.3c-1.1,0.3-2.2,0.7-3.2,1.1c-0.1-0.7,0-1.1,0-1.1
	c0.1-0.7-0.4-1.4-1.2-1.5c-0.7-0.1-1.4,0.4-1.5,1.2c0,0.1-0.1,1,0.1,2.4c-1,0.4-1.9,0.8-2.9,1.2c0-0.3,0.1-0.4,0.1-0.5
	c0.2-0.7-0.3-1.4-1-1.6c-0.7-0.2-1.4,0.3-1.6,1c0,0.1-0.2,1-0.1,2.3c-0.9,0.4-1.8,0.9-2.7,1.3c0-0.6-0.4-1.1-1-1.2
	c-0.7-0.2-1.4,0.3-1.6,1c0,0.1-0.2,0.7-0.1,1.7c-1.2,0.7-2.3,1.3-3.4,2C23.9,55.7,24.6,54.1,25.7,53.1z M24,63.7
	c0.3,0.2,0.6,0.4,0.8,0.6c2.8,1.7,5.8,1.7,8.5,0.1c3.1-1.8,5.4-2,8.8-2.2c2.5-0.2,5.6-0.4,9.9-1.4c0,0,0,0,0,0c0.1,0,0.2,0,0.2-0.1
	c0.1,0,0.1,0,0.2-0.1c0,0,0,0,0,0c4.2-1.1,7.1-2.3,9.4-3.4c3.1-1.4,5.2-2.3,8.8-2.1c3.5,0.1,6.3-1.6,8-5c0.2-0.3,0.3-0.6,0.4-1
	C80.9,52.6,84,60,85,70.8c0.3,2.8,0.4,5.8,0.3,9c-6.9,4.6-15.2,8.2-23.2,10.4c-0.7,0.2-1.4,0.4-2.1,0.6c-7.8,2-18.4,3-28,2.2
	c-7.7-13.8-8.8-25.1-8.8-30C23.5,63.2,23.7,63.5,24,63.7z M41.8,99.3C41.8,99.3,41.7,99.3,41.8,99.3C41.7,99.3,41.8,99.3,41.8,99.3z
	 M21.1,57.3c0,0.2,0,0.5,0,0.7c0,0.3,0.1,0.7,0.1,1c0,0-0.1,0.1-0.1,0.1c-1.6,1.1-3.1,2.3-4.5,3.5C17.9,60.8,19.4,59,21.1,57.3z
	 M15.1,88.4c-0.5-0.3-1.1-0.6-1.6-1c-1.3-1.1-2.4-2.1-3.3-3c-1.6-1.6-2.1-3.9-1.5-6c0.3-1.1,0.8-2.5,1.4-4c0.1-0.3,0.3-0.5,0.4-0.8
	c0.8-1.4,1.8-2.9,2.9-4.2c-0.2,4,0.5,11.5,5.5,21C17.6,89.7,16.3,89.1,15.1,88.4z M16.5,66.5c0-0.1,0-0.3,0-0.4
	c1.2-1.1,2.5-2.2,3.9-3.3c0,5,1,16.1,8.3,29.8c-2.1-0.3-4.1-0.7-6.1-1.2C14.1,76.8,16.5,66.7,16.5,66.5z M92.8,73.8
	c-1.4,1.5-3.1,2.8-4.8,4.2c0-3.3-0.2-6.4-0.5-9.2c-1.2-10.5-4.3-17.6-6.2-21.1c1.8,0.3,3.5,0.7,5.1,1.2c0.1,0.1,0.1,0.2,0.2,0.3
	c0.1,0.1,4.3,5,5.8,15.5C92.7,67.3,92.9,70.3,92.8,73.8z M100.3,61.2c-0.3,0.9-0.6,2-1,3.2c0,0,0,0.1,0,0.1
	c-0.9,2.2-2.2,4.3-3.7,6.3c0-3.1-0.3-5.8-0.7-8.2c-1-5.7-2.7-9.6-4.1-12.1c1.7,0.8,3.3,1.7,4.8,2.7c1.5,1.2,2.7,2.4,3.6,3.4
	c0.4,0.4,0.7,0.9,1,1.5C100.5,59,100.6,60.1,100.3,61.2z"/>
</svg>
