<?xml version="1.0" encoding="utf-8"?>
<!-- Generator: Adobe Illustrator 24.1.3, SVG Export Plug-In . SVG Version: 6.00 Build 0)  -->
<svg version="1.1" id="Layer_1" xmlns="http://www.w3.org/2000/svg" xmlns:xlink="http://www.w3.org/1999/xlink" x="0px" y="0px"
	 viewBox="0 0 118.2 137.3" enable-background="new 0 0 118.2 137.3" xml:space="preserve">
<g>
	<path fill="#1D3767" d="M27.7,13.8l3.7,9.6v-3.7c0-0.1,0-0.1,0-0.2c0-0.1,0-0.1,0-0.2c0-0.3,0-0.6,0-0.9c0-0.3-0.2-0.6-0.5-0.8
		v-3.7h6.9v3.7c-0.4,0.3-0.6,0.6-0.7,0.9c-0.1,0.3-0.1,0.7-0.1,1.2v15.5h-6.5l-4.1-9.6v3.3c0,0.5,0,0.9,0.1,1.3
		c0.1,0.4,0.3,0.7,0.7,0.9v4.1h-6.7v-3.9c0.3-0.2,0.5-0.4,0.6-0.7c0.1-0.3,0.2-0.6,0.2-0.8c0-0.1,0-0.2,0-0.2c0-0.1,0-0.1,0-0.2
		c0-0.1,0-0.1,0-0.2c0-0.1,0-0.1,0-0.2v-9c0-0.1,0-0.1,0-0.2c0-0.1,0-0.1,0-0.2c0-0.4,0-0.8-0.1-1.1c-0.1-0.3-0.3-0.6-0.7-0.9v-3.7
		H27.7z"/>
	<path fill="#1D3767" d="M51.2,19.2c0-0.4-0.1-0.8-0.3-1c-0.2-0.2-0.5-0.3-0.8-0.3c0,0,0,0,0,0c0,0,0,0,0,0c-0.3,0-0.6,0.1-0.8,0.4
		c-0.2,0.3-0.4,0.7-0.4,1.2v9.8c0,0.4,0.1,0.8,0.4,1.1c0.2,0.3,0.5,0.4,0.8,0.4c0,0,0,0,0,0c0,0,0,0,0,0c0.3,0,0.5-0.1,0.8-0.3
		s0.3-0.6,0.3-1.1v-3.3h6.7V33c-0.4,0.7-1.4,1.3-2.7,1.7c-1.4,0.4-2.8,0.6-4.4,0.7c-0.1,0-0.2,0-0.4,0c-0.1,0-0.2,0-0.4,0
		c-2.3,0-4.2-0.5-5.7-1.5c-1.6-1-2.3-2.6-2.3-5V20c0-2.3,0.6-3.9,1.8-5c1.2-1.1,3-1.6,5.5-1.6c1.8,0,3.3,0.2,4.7,0.5
		c1.4,0.3,2.7,0.9,3.9,1.7v6.1h-6.7V19.2z"/>
	<path fill="#1D3767" d="M77.5,29.3c0.1,0.5,0.2,0.9,0.4,1.3c0.2,0.4,0.4,0.7,0.7,0.8v3.7h-8.5v-3.7c0.4-0.3,0.6-0.6,0.7-0.9
		c0.1-0.3,0.1-0.7,0.1-1h-3.3c0,0.4,0,0.7,0.1,1c0.1,0.3,0.3,0.6,0.7,0.9v3.7h-7.3v-3.9c0.1-0.1,0.1-0.1,0.2-0.2s0.1-0.1,0.1-0.2
		c0.2-0.2,0.3-0.5,0.4-0.7c0.1-0.3,0.2-0.6,0.3-1.1l2.7-15.3h9.6L77.5,29.3z M69.2,19l-1,6.3h2L69.2,19z"/>
	<path fill="#1D3767" d="M97.8,29.3c0.1,0.5,0.2,0.9,0.4,1.3c0.2,0.4,0.4,0.7,0.7,0.8v3.7h-8.5v-3.7c0.4-0.3,0.6-0.6,0.7-0.9
		c0.1-0.3,0.1-0.7,0.1-1H88c0,0.4,0,0.7,0.1,1c0.1,0.3,0.3,0.6,0.7,0.9v3.7h-7.3v-3.9c0.1-0.1,0.1-0.1,0.2-0.2s0.1-0.1,0.1-0.2
		c0.2-0.2,0.3-0.5,0.4-0.7c0.1-0.3,0.2-0.6,0.3-1.1l2.7-15.3h9.6L97.8,29.3z M89.6,19l-1,6.3h2L89.6,19z"/>
</g>
<g>
	<path fill="#1D3767" d="M18.8,124.6v-1.5c0.3-0.1,0.3-0.4,0.3-0.7v-4.2c0-0.3,0-0.5-0.3-0.7v-1.5h3.9c0.7,0,1.4,0,2,0.3
		c0.6,0.4,0.8,1.1,0.8,1.8c0,1-0.4,1.6-1.3,1.9v0c1.1,0.1,1.5,1,1.5,2c0,0.7-0.2,1.5-0.7,1.9c-0.6,0.5-1.4,0.5-2.1,0.5H18.8z
		 M21.8,119.4H22c0.6,0,0.9-0.1,0.9-0.8c0-0.6-0.3-0.8-0.9-0.8h-0.2V119.4z M21.8,122.9h0.2c0.6,0,0.9-0.3,0.9-0.9
		c0-0.7-0.2-0.9-0.9-0.9h-0.2V122.9z"/>
	<path fill="#1D3767" d="M30.2,124.6h-2.9v-1.5c0.3-0.2,0.3-0.6,0.4-1l1.1-6.1h3.8l1.2,6.2c0,0.3,0.1,0.7,0.4,0.8v1.5h-3.4v-1.5
		c0.2-0.1,0.3-0.2,0.3-0.5c0-0.1,0-0.2,0-0.2h-1.3c0,0.1,0,0.2,0,0.2c0,0.2,0.1,0.4,0.3,0.5V124.6z M30.9,120.7l-0.4-2.5h0l-0.4,2.5
		H30.9z"/>
	<path fill="#1D3767" d="M39.6,118.7c0-0.4,0-0.9-0.5-0.9c-0.3,0-0.5,0.3-0.5,0.6c0,0.2,0,0.3,0.2,0.5c0.1,0.2,0.5,0.3,0.7,0.3
		c0.6,0.2,1.5,0.4,2,0.8c0.3,0.2,0.5,0.5,0.7,0.8c0.1,0.4,0.2,0.8,0.2,1.2v0c0,1.6-0.7,2.9-3.3,2.9c-1.1,0-2.2-0.2-3.1-0.9v-2.3h2.6
		c0,0.5,0,0.9,0.1,1.1c0.1,0.2,0.3,0.3,0.5,0.3c0.4,0,0.5-0.3,0.5-0.7c0-0.9-0.5-0.9-1.3-1.1c-1.6-0.4-2.5-0.8-2.5-2.6v-0.2
		c0-0.9,0.2-1.4,0.9-1.9c0.6-0.4,1.4-0.5,2.2-0.5c1.2,0,2.2,0.2,3.2,0.9v2h-2.5V118.7z"/>
	<path fill="#1D3767" d="M49.4,120l1.3,2.5c0.1,0.3,0.2,0.5,0.6,0.7v1.5h-3.1v-1c0-0.7-0.1-0.8-0.4-1.4l-0.7-1.3h0v1.4
		c0,0.3,0,0.6,0.3,0.8v1.5h-3.2v-1.5c0.3-0.2,0.3-0.5,0.3-0.8v-3.8c0-0.3,0-0.6-0.3-0.8v-1.5h3.2v1.5c-0.3,0.2-0.3,0.5-0.3,0.8v1.1
		l0.6-1c0.4-0.7,0.4-0.8,0.4-1.1v-1.3h2.9v1.5c-0.3,0.1-0.4,0.3-0.6,0.5L49.4,120z"/>
	<path fill="#1D3767" d="M59.3,121.6v3.1h-6.4v-1.5c0.3-0.2,0.3-0.5,0.3-0.8v-3.8c0-0.3,0-0.6-0.3-0.8v-1.5h6.4v2.9h-2.5v-0.3
		c0-0.6-0.1-0.8-0.8-0.8h-0.2v1.5h1.7v1.7h-1.7v1.7H56c0.8,0,0.8-0.3,0.8-1v-0.3H59.3z"/>
	<path fill="#1D3767" d="M60.7,116.1h7.4v3.9h-1.9v-1.4c0-0.4-0.1-0.6-0.5-0.6v4.4c0,0.3,0,0.6,0.3,0.8v1.5h-3.2v-1.5
		c0.3-0.2,0.3-0.5,0.3-0.8v-4.4c-0.4,0-0.5,0.2-0.5,0.6v1.4h-1.9V116.1z"/>
	<path fill="#1D3767" d="M69.7,124.6v-1.5c0.3-0.1,0.3-0.4,0.3-0.7v-4.2c0-0.3,0-0.5-0.3-0.7v-1.5h3.9c0.7,0,1.4,0,2,0.3
		c0.6,0.4,0.8,1.1,0.8,1.8c0,1-0.4,1.6-1.3,1.9v0c1.1,0.1,1.5,1,1.5,2c0,0.7-0.2,1.5-0.7,1.9c-0.6,0.5-1.4,0.5-2.1,0.5H69.7z
		 M72.7,119.4h0.2c0.6,0,0.9-0.1,0.9-0.8c0-0.6-0.3-0.8-0.9-0.8h-0.2V119.4z M72.7,122.9h0.2c0.6,0,0.9-0.3,0.9-0.9
		c0-0.7-0.2-0.9-0.9-0.9h-0.2V122.9z"/>
	<path fill="#1D3767" d="M81.1,124.6h-2.9v-1.5c0.3-0.2,0.3-0.6,0.4-1l1.1-6.1h3.8l1.2,6.2c0,0.3,0.1,0.7,0.4,0.8v1.5h-3.4v-1.5
		c0.2-0.1,0.3-0.2,0.3-0.5c0-0.1,0-0.2,0-0.2h-1.3c0,0.1,0,0.2,0,0.2c0,0.2,0.1,0.4,0.3,0.5V124.6z M81.8,120.7l-0.4-2.5h0l-0.4,2.5
		H81.8z"/>
	<path fill="#1D3767" d="M86.6,124.6v-1.5c0.3-0.2,0.3-0.5,0.3-0.8v-3.8c0-0.3,0-0.6-0.3-0.8v-1.5h3.2v1.5c-0.3,0.2-0.3,0.5-0.3,0.8
		v4.4h0.3c0.7,0,0.7-0.4,0.7-0.9v-1.4h2.3v4.2H86.6z"/>
	<path fill="#1D3767" d="M94.5,124.6v-1.5c0.3-0.2,0.3-0.5,0.3-0.8v-3.8c0-0.3,0-0.6-0.3-0.8v-1.5h3.2v1.5c-0.3,0.2-0.3,0.5-0.3,0.8
		v4.4h0.3c0.7,0,0.7-0.4,0.7-0.9v-1.4h2.3v4.2H94.5z"/>
</g>
<g>
	<path fill="#D42027" d="M91,53.8c0.8,2.7,1.3,4.7,1.8,7.6c2.4-0.1,4.7-0.1,6.9,0v-11c-1.9,1.9-4.6,3.1-8.3,3.4
		C91.3,53.8,91.2,53.8,91,53.8z"/>
	<path fill="#1D3767" d="M50.7,111.2h35.7c3.5-8.3,4.9-19.1,4.1-31.3C77.1,82,63.8,101.3,50.7,111.2z"/>
	<path fill="#D42027" d="M90.1,50.9c0.1,0,0.2,0,0.2,0c4.6,0,7.7-1.9,9.4-4.7V40H85.7C87.4,43.2,88.9,46.8,90.1,50.9z"/>
	<path fill="#D42027" d="M93.6,66.5c0.6,3.4,0.7,4.9,1,8.3c1.8,0,3.5,0.3,5.1,0.9v-9.3C97.8,66.4,95.8,66.4,93.6,66.5z"/>
	<path fill="#1D3767" d="M90.3,75.2c-0.3-3.4-0.4-5-0.9-8.4C64,68,28.9,74.7,18.7,81.4v29.8h23.6C55.9,102.8,70.5,78.7,90.3,75.2z"
		/>
	<path fill="#D42027" d="M95,79.6c0.9,12.4-0.4,23.2-4.2,31.6h9V80.7C98.3,80,96.7,79.6,95,79.6z"/>
	<path fill="#1D3767" d="M88.6,61.7c-0.5-2.9-1-5-1.7-7.7C73.9,53.6,62.5,44,50,40H18.7v36.7C29.8,69,63.8,62.6,88.6,61.7z"/>
	<path fill="#1D3767" d="M86.1,50.9c-1.2-4.1-2.6-7.7-4.3-10.9h-24C67.5,44.1,76.6,50,86.1,50.9z"/>
</g>
<path fill="#D42027" d="M102,131.9H16.2c-2.8,0-5.1-2.3-5.1-5.1V10.5c0-2.8,2.3-5.1,5.1-5.1H102c2.8,0,5.1,2.3,5.1,5.1v116.3
	C107.1,129.6,104.8,131.9,102,131.9z M16.2,8.4c-1.2,0-2.1,0.9-2.1,2.1v116.3c0,1.2,0.9,2.1,2.1,2.1H102c1.2,0,2.1-0.9,2.1-2.1V10.5
	c0-1.2-0.9-2.1-2.1-2.1H16.2z"/>
</svg>
