<?xml version="1.0" encoding="utf-8"?>
<!-- Generator: Adobe Illustrator 24.1.3, SVG Export Plug-In . SVG Version: 6.00 Build 0)  -->
<svg version="1.1" id="Layer_1" xmlns="http://www.w3.org/2000/svg" xmlns:xlink="http://www.w3.org/1999/xlink" x="0px" y="0px"
	 viewBox="0 0 118.2 137.3" enable-background="new 0 0 118.2 137.3" xml:space="preserve">
<g>
	<g>
		<path fill="#FFFFFF" d="M109.1,82.9c0,14.1-8.8,22.4-22.7,28.7c-8.8,4-17.5,5.4-26.3,14.8c-9.2-9.5-18.5-11-27.7-15
			c-14.2-6.2-23.3-14.6-23.3-29V13.3c0,0,9.3,3.5,50.2,3.5s49.8-3.5,49.8-3.5V82.9z"/>
		<path fill="#1D3767" d="M60.1,128.2l-0.9-0.9c-6.8-7-13.5-9.5-20.6-12.1c-2.2-0.8-4.5-1.7-6.8-2.7c-16.4-7.1-24-16.7-24-30.1v-71
			l1.7,0.6c0.1,0,9.9,3.4,49.8,3.4c39.9,0,49.3-3.4,49.4-3.4l1.7-0.6l0,1.8v69.6c0,13.3-7.2,22.5-23.4,29.8c-2.1,1-4.3,1.8-6.4,2.6
			c-6.7,2.6-13.1,5-19.6,12L60.1,128.2z M10.3,14.9v67.6c0,12.5,6.9,21,22.5,27.8c2.2,1,4.5,1.8,6.7,2.6c6.7,2.5,13.7,5,20.6,11.8
			c6.6-6.7,13.2-9.2,19.6-11.7c2-0.8,4.2-1.6,6.2-2.5c15.2-6.9,22-15.4,22-27.6v-68c-4.1,1-16.6,3.1-48.6,3.1
			C27.2,18,14.4,15.9,10.3,14.9z"/>
	</g>
	<path fill="#D42027" d="M60.2,137.1l-5.4-5.5c-5.8-6-11.9-8.2-18.3-10.6c-2.3-0.8-4.7-1.7-7.1-2.8C17.5,113,1.7,103.7,1.7,82.5V2.7
		l9.8,3.7c0.8,0.2,10.9,3.1,47.7,3.1c36.2,0,46.5-2.8,47.2-3l10-3.9v80.4c0,20.8-15.4,30.2-27,35.4c-2.3,1-4.5,1.9-6.7,2.7
		c-6.6,2.5-11.8,4.5-17.3,10.4L60.2,137.1z M5.8,8.6v73.9c0,18.8,14.4,27.2,25.2,31.9c2.3,1,4.6,1.9,6.9,2.7
		c6.9,2.5,13.3,4.9,19.8,11.6l2.4,2.5l2.3-2.5c6.2-6.6,12.3-9,18.8-11.5c2.1-0.8,4.3-1.6,6.5-2.6c10.6-4.8,24.6-13.3,24.6-31.7V8.5
		l-4.5,1.7c-0.1,0-9.4,3.3-48.6,3.3c-37.7,0-48-3-49-3.3l-0.1,0L5.8,8.6z"/>
	<polygon fill="#D42027" points="20.6,59.6 23.8,62 22.4,58.3 25.7,56 21.7,56.1 20.6,52.4 19.5,56.1 15.5,56 18.8,58.3 17.5,62 	
		"/>
	<polygon fill="#D42027" points="34.4,59.6 37.6,62 36.3,58.3 39.5,56 35.6,56.1 34.4,52.4 33.3,56.1 29.4,56 32.6,58.3 31.3,62 	
		"/>
	<polygon fill="#D42027" points="97.5,59.6 100.7,62 99.4,58.3 102.6,56 98.7,56.1 97.5,52.4 96.4,56.1 92.5,56 95.7,58.3 94.4,62 	
		"/>
	<polygon fill="#D42027" points="20.6,73.4 23.8,75.8 22.4,72.1 25.7,69.9 21.7,70 20.6,66.2 19.5,70 15.5,69.9 18.8,72.1 
		17.5,75.8 	"/>
	<polygon fill="#D42027" points="97.5,73.4 100.7,75.8 99.4,72.1 102.6,69.9 98.7,70 97.5,66.2 96.4,70 92.5,69.9 95.7,72.1 
		94.4,75.8 	"/>
	<polygon fill="#D42027" points="83.7,59.6 86.9,62 85.5,58.3 88.8,56 84.8,56.1 83.7,52.4 82.6,56.1 78.6,56 81.9,58.3 80.6,62 	
		"/>
	<path fill="#1D3767" d="M109.1,48.6V13.3c0,0-8.9,3.5-49.8,3.5S9.1,13.3,9.1,13.3v35.3H109.1z"/>
	<path fill="#1D3767" d="M60.1,52.2C52.4,56.5,45.6,62.5,40.6,70c-6,9.1-8.3,19-7.3,28c0.7-6.6,3.1-13.3,7.3-19.6
		c4.2-6.3,9.7-11.6,16-15.7l1.5,24.8c-2.1,0.1-4,0.4-5.7,0.9c1.7,0.5,3.7,0.8,5.8,0.9l0.2,3.9c-2.2,0.1-4.3,0.4-6.1,0.9
		c1.8,0.5,3.9,0.8,6.2,0.9l0.2,3.8c-2.4,0.1-4.5,0.4-6.4,0.9c1.9,0.5,4.1,0.8,6.5,0.9l0.2,3.8c-2.5,0.1-4.8,0.4-6.7,0.9
		c2,0.5,4.3,0.9,6.9,0.9l0.2,3.8c-2.6,0-5,0.4-7.1,0.9c2.1,0.6,4.5,0.9,7.2,0.9l0.5,7.8l0.5-7.8c2.7,0,5.1-0.4,7.2-0.9
		c-2-0.5-4.5-0.9-7.1-0.9l0.2-3.8c2.5-0.1,4.9-0.4,6.9-0.9c-2-0.5-4.3-0.8-6.7-0.9l0.2-3.8c2.4-0.1,4.6-0.4,6.5-0.9
		c-1.9-0.5-4-0.8-6.4-0.9l0.2-3.8c2.3-0.1,4.4-0.4,6.2-0.9c-1.8-0.5-3.8-0.8-6.1-0.9l0.2-3.9c2.1-0.1,4.1-0.4,5.8-0.9
		c-1.7-0.4-3.6-0.8-5.7-0.9l1.5-24.8c6.3,4.1,11.8,9.3,16,15.7c4.2,6.4,6.6,13.1,7.3,19.6c1-9.1-1.2-18.9-7.3-28
		C74.6,62.5,67.8,56.5,60.1,52.2z"/>
</g>
<g>
	<g>
		<path fill="#FFFFFF" d="M25.4,44.1c0-1.4,0-2.7,0-4.1c0.5-0.1,0.8-0.2,1-0.5c0.2-0.3,0.3-0.9,0.3-1.9c0-3.9,0-7.9,0-11.8
			c0-0.7-0.1-1.2-0.3-1.5c-0.2-0.3-0.5-0.5-1-0.7c0-1.3,0-2.6,0-4c2.1,0.2,4.3,0.4,6.4,0.5c2.1,4.7,4.1,9.2,6.2,13.7
			c0-2.4,0-4.7,0-7.1c0-0.8-0.1-1.4-0.3-1.8c-0.2-0.3-0.5-0.6-1-0.7c0-1.3,0-2.5,0-3.8c2.6,0.2,5.2,0.3,7.8,0.4c0,1.3,0,2.5,0,3.8
			c-0.5,0.1-0.9,0.3-1,0.6c-0.2,0.3-0.3,0.9-0.3,1.9c0,5.6,0,11.3,0,16.9c-1.7,0-3.4,0-5.1,0c-2.1-4.5-4.1-9-6.2-13.6
			c0,2.4,0,4.8,0,7.2c0,0.9,0.1,1.5,0.3,1.8c0.2,0.3,0.5,0.5,1,0.6c0,1.3,0,2.7,0,4C30.6,44.1,28,44.1,25.4,44.1z"/>
		<path fill="#FFFFFF" d="M52.5,44.1c0-1.3,0-2.6,0-3.9c0.5-0.1,0.8-0.3,1-0.6c0.2-0.3,0.3-0.9,0.3-1.8c0-3.5,0-7.1,0-10.6
			c0-0.9-0.1-1.5-0.3-1.8c-0.2-0.3-0.5-0.5-1-0.6c0-1.2,0-2.5,0-3.7c5.6,0.1,11.2,0.1,16.9-0.1c0,2.4,0,4.7,0,7.1
			c-1.7,0-3.3,0.1-5,0.1c0-0.1,0-0.1,0-0.2c0-0.9-0.2-1.5-0.6-1.8c-0.4-0.3-1.1-0.5-2.1-0.5c-0.7,0-1.5,0-2.2,0c0,1.6,0,3.1,0,4.7
			c2.1,0,4.3,0,6.4,0c0,1.3,0,2.6,0,3.9c-2.1,0-4.3,0-6.4,0c0,1.2,0,2.5,0,3.7c0,0.9,0.1,1.5,0.3,1.8c0.2,0.3,0.5,0.5,1,0.5
			c0,1.3,0,2.6,0,3.9C58,44.1,55.2,44.1,52.5,44.1z"/>
		<path fill="#FFFFFF" d="M93.5,44.1c-5.5,0-11,0-16.6,0c0-1.3,0-2.6,0-3.9c0.5-0.1,0.8-0.3,1-0.6c0.2-0.3,0.3-0.9,0.3-1.9
			c0-3.6,0-7.2,0-10.8c0-1-0.1-1.6-0.3-1.8c-0.2-0.3-0.5-0.5-1-0.5c0-1.3,0-2.5,0-3.8c2.7-0.1,5.4-0.3,8.2-0.5c0,1.3,0,2.6,0,3.9
			c-0.5,0.1-0.8,0.3-1,0.6c-0.2,0.3-0.3,0.9-0.3,1.9c0,4.3,0,8.6,0,12.9c0.6,0,1.2,0,1.9,0c1.1,0,1.8-0.2,2.3-0.7
			c0.4-0.4,0.6-1.5,0.6-3c0-0.9,0-1.8,0-2.7c1.6-0.1,3.3-0.1,4.9-0.2C93.5,36.7,93.5,40.4,93.5,44.1z"/>
	</g>
</g>
</svg>
