<?xml version="1.0" encoding="utf-8"?>
<!-- Generator: Adobe Illustrator 24.1.3, SVG Export Plug-In . SVG Version: 6.00 Build 0)  -->
<svg version="1.1" id="Layer_1" xmlns="http://www.w3.org/2000/svg" xmlns:xlink="http://www.w3.org/1999/xlink" x="0px" y="0px"
	 viewBox="0 0 124.5 150" style="enable-background:new 0 0 124.5 150;" xml:space="preserve">
<style type="text/css">
	.st0{fill:#FFFFFF;}
	.st1{fill:none;stroke:#D42027;stroke-width:4.4313;stroke-miterlimit:10;}
	.st2{fill:#FFFFFF;stroke:#1D3767;stroke-width:2.6588;stroke-miterlimit:10;}
	.st3{fill:#1D3767;}
	.st4{fill:none;}
</style>
<g>
	<g>
		<path class="st0" d="M62.2,140.2c-5.6-3.5-12.4-6.4-20.2-8.6c-17.8-5-33-15.9-33-32.9s8.9-25.4,9.7-34c1.1-11.2-2.1-21.3-6.3-30.1
			c0,0,7.1-2.4,11.4-7.5s4.9-11.3,4.9-11.3s11,8.3,33.5,8.3s33.5-8.3,33.5-8.3s0.9,6.8,5.9,12.5s10.5,6.3,10.5,6.3
			c-4.2,8.8-7.4,19-6.3,30.1c0.8,8.6,9.7,19.4,9.7,34s-15.1,27.9-33.1,32.9C74.6,133.8,67.8,136.7,62.2,140.2z"/>
		<path class="st1" d="M59.2,145.1c-5.1-3.2-11.4-5.9-18.7-7.9c-23.7-6.7-37.3-20.7-37.3-38.4c0-11.7,3.7-19.6,6.7-26
			c1.5-3.3,2.9-6.2,3.1-8.5c0.8-8.4-1-17-5.8-27.1l-2.8-5.9l6.2-2.1c1.6-0.5,6.2-2.6,8.9-5.7c3-3.6,3.5-8.1,3.5-8.2l1.1-10.1
			l8.1,6.1c0.1,0,10.1,7.2,30,7.2c20,0,30-7.1,30.1-7.2l7.8-5.9l1.3,9.8c0,0,0.8,5.3,4.5,9.5c3.3,3.8,6.8,4.4,6.8,4.4l7.9,1
			l-3.4,7.2c-4.8,10.1-6.6,18.7-5.8,27.1c0.3,2.6,1.7,5.9,3.4,9.8c2.8,6.6,6.4,14.8,6.4,24.7c0,16.5-15.3,32.3-37.3,38.4
			c-7.2,2-13.5,4.7-18.7,7.9l-3.1,1.9L59.2,145.1z"/>
	</g>
	<path class="st2" d="M62.2,140.2c-5.6-3.5-12.4-6.4-20.2-8.6c-17.8-5-33-15.9-33-32.9s8.9-25.4,9.7-34c1.1-11.2-2.1-21.3-6.3-30.1
		c0,0,7.1-2.4,11.4-7.5s4.9-11.3,4.9-11.3s11,8.3,33.5,8.3s33.5-8.3,33.5-8.3s0.9,6.8,5.9,12.5s10.5,6.3,10.5,6.3
		c-4.2,8.8-7.4,19-6.3,30.1c0.8,8.6,9.7,19.4,9.7,34s-15.1,27.9-33.1,32.9C74.6,133.8,67.8,136.7,62.2,140.2z"/>
	<g>
		<path class="st3" d="M18.9,62.7h86.7c-0.5-10.3,2.5-19.7,6.5-28c0,0-5.5-0.7-10.5-6.3c-4.9-5.7-5.9-12.5-5.9-12.5
			s-11,8.3-33.5,8.3s-33.5-8.3-33.5-8.3s-0.6,6.2-4.9,11.3s-11.4,7.5-11.4,7.5C16.4,42.9,19.4,52.3,18.9,62.7z"/>
	</g>
	<g>
		<path class="st0" d="M27.9,53.4l4.8-22.6h9.5L43,42.5h0.2c0.3-2.7,1-6.5,1.7-9.7l0.4-2h7.5L48,53.4h-9.2l-0.9-12.6h-0.1
			c-0.3,2.8-1.2,6.6-1.9,10.3l-0.5,2.3H27.9z"/>
		<path class="st0" d="M59.5,30.8h8.3l-1.7,7.8h3.5l1.7-7.8h8.4l-4.8,22.6h-8.4l1.8-8.8h-3.5L63,53.4h-8.3L59.5,30.8z"/>
		<path class="st0" d="M86.4,30.8h8.3l-3.6,16.9h8.7l-2,5.7H81.6L86.4,30.8z"/>
	</g>
</g>
<g>
	<path class="st4" d="M79.7,93.2L52,117.4c0.4,0.1,0.9,0.1,1.3,0.2l28.4-24.8C81.1,92.9,80.4,93,79.7,93.2z"/>
	<path class="st4" d="M94.1,89.1L61,118c0.4,0,0.9,0,1.3,0c0.1,0,0.1,0,0.2,0l31.6-27.7V89.1z"/>
	<path class="st4" d="M70.6,94.4l-24.9,21.8c0.4,0.1,0.8,0.2,1.2,0.3l25.4-22.2C71.7,94.3,71.1,94.3,70.6,94.4z"/>
	<path class="st4" d="M75,93.9l-26.2,22.9c0.4,0.1,0.8,0.2,1.3,0.2l26.8-23.4C76.2,93.8,75.6,93.8,75,93.9z"/>
	<path class="st4" d="M77.3,93.6l-26.9,23.5c0.4,0.1,0.9,0.1,1.3,0.2l27.6-24.1C78.6,93.4,78,93.5,77.3,93.6z"/>
	<path class="st4" d="M72.7,94.2l-25.6,22.3c0.4,0.1,0.8,0.2,1.2,0.3L74.5,94C73.9,94.1,73.3,94.1,72.7,94.2z"/>
	<path class="st4" d="M88.3,90.8l-31,27.1c0.5,0,0.9,0.1,1.4,0.1l32.7-28.5C90.4,90,89.3,90.4,88.3,90.8z"/>
	<path class="st4" d="M82.3,92.6l-28.6,25c0.4,0.1,0.9,0.1,1.4,0.1L84.5,92C83.8,92.2,83.1,92.4,82.3,92.6z"/>
	<path class="st4" d="M85.1,91.9l-29.6,25.9c0.5,0,0.9,0.1,1.4,0.1l30.7-26.8C86.7,91.4,85.9,91.6,85.1,91.9z"/>
	<path class="st4" d="M94.1,87.7c-0.5,0.4-1,0.8-1.6,1.1L59.1,118c0.5,0,1,0,1.5,0l33.6-29.3V87.7z"/>
	<path class="st4" d="M39.5,91.9c-0.3-0.1-0.5-0.2-0.8-0.2L30.4,99v1.3l9.5-8.3C39.8,92,39.7,91.9,39.5,91.9z"/>
	<path class="st4" d="M43.3,92.8l-12.9,11.2v1l0,0.2c0,0,0,0.1,0,0.1l14.1-12.3C44.1,93,43.7,92.9,43.3,92.8z"/>
	<path class="st4" d="M40.2,92.1l-9.8,8.6v1.3l11-9.6C41,92.3,40.6,92.2,40.2,92.1z"/>
	<path class="st4" d="M41.7,92.5l-11.3,9.9v1.3l12.5-10.9C42.5,92.7,42.1,92.6,41.7,92.5z"/>
	<path class="st4" d="M33.4,89.6l-3,2.7v1.3l4-3.5C34.1,89.9,33.7,89.7,33.4,89.6z"/>
	<path class="st4" d="M68.5,94.5l-24.3,21.2c0.4,0.1,0.8,0.2,1.2,0.3l24.8-21.6C69.6,94.5,69,94.5,68.5,94.5z"/>
	<path class="st4" d="M37.4,91.2l-7,6.1v1.3l8.1-7.1C38.1,91.5,37.7,91.3,37.4,91.2z"/>
	<path class="st4" d="M92.6,109.1l-3.1,2.7C90.8,110.9,91.8,110,92.6,109.1z"/>
	<path class="st4" d="M49.7,94l-17.6,15.4c0.2,0.2,0.4,0.5,0.7,0.7l18.2-15.9C50.6,94.1,50.2,94,49.7,94z"/>
	<path class="st4" d="M51.4,94.2L33,110.2c0.2,0.2,0.5,0.4,0.8,0.7l19-16.6C52.4,94.3,51.9,94.2,51.4,94.2z"/>
	<path class="st4" d="M48.1,93.7l-16.7,14.6c0.2,0.3,0.4,0.5,0.6,0.8l17.4-15.2C48.9,93.8,48.5,93.8,48.1,93.7z"/>
	<path class="st4" d="M44.8,93.2l-14.4,12.6c0,0.4,0.1,0.7,0.2,1.1l15.4-13.5C45.7,93.3,45.2,93.2,44.8,93.2z"/>
	<path class="st4" d="M46.4,93.5l-15.7,13.7c0.1,0.3,0.3,0.6,0.5,0.9l16.5-14.4C47.3,93.6,46.9,93.5,46.4,93.5z"/>
	<path class="st4" d="M34.7,90.2l-4.3,3.7v1.3l5.3-4.6C35.4,90.5,35,90.3,34.7,90.2z"/>
	<path class="st4" d="M58.6,94.7l-21.2,18.5c0.3,0.2,0.6,0.3,1,0.5l21.7-18.9C59.6,94.7,59.1,94.7,58.6,94.7z"/>
	<path class="st4" d="M60.5,94.7l-21.8,19.1c0.3,0.1,0.7,0.3,1,0.4L62,94.7C61.5,94.7,61,94.7,60.5,94.7z"/>
	<path class="st4" d="M62.4,94.7L40,114.3c0.3,0.1,0.7,0.3,1.1,0.4l22.9-20C63.5,94.7,62.9,94.7,62.4,94.7z"/>
	<path class="st4" d="M66.4,94.6l-23.7,20.7c0.4,0.1,0.7,0.2,1.1,0.3L68,94.6C67.5,94.6,66.9,94.6,66.4,94.6z"/>
	<path class="st4" d="M53.2,94.3L34,111.1c0.3,0.2,0.5,0.4,0.8,0.6l19.7-17.2C54.1,94.4,53.6,94.4,53.2,94.3z"/>
	<path class="st4" d="M64.4,94.7l-23,20.1c0.4,0.1,0.7,0.3,1.1,0.4L66,94.7C65.4,94.7,64.9,94.7,64.4,94.7z"/>
	<path class="st4" d="M55,94.5l-19.9,17.4c0.3,0.2,0.6,0.4,0.9,0.6l20.4-17.8C55.9,94.5,55.4,94.5,55,94.5z"/>
	<path class="st4" d="M30.4,87.7v0.8l0.5-0.4C30.7,87.9,30.5,87.8,30.4,87.7z"/>
	<path class="st4" d="M32.2,88.9l-1.8,1.6v1.3l2.8-2.4C32.8,89.3,32.5,89.1,32.2,88.9z"/>
	<path class="st4" d="M31.1,88.2l-0.7,0.6v1.3l1.6-1.4C31.7,88.6,31.4,88.4,31.1,88.2z"/>
	<path class="st4" d="M56.8,94.6l-20.5,17.9c0.3,0.2,0.6,0.3,0.9,0.5l21-18.4C57.7,94.6,57.3,94.6,56.8,94.6z"/>
	<path class="st4" d="M36,90.7l-5.6,4.9v1.3l6.7-5.8C36.7,91,36.3,90.8,36,90.7z"/>
	<path class="st4" d="M73,117.3l21.1-18.4v-1.3l-22.9,20C71.8,117.5,72.4,117.4,73,117.3z"/>
	<path class="st4" d="M70.8,117.6l23.4-20.4v-1.3L69,117.8C69.6,117.7,70.2,117.7,70.8,117.6z"/>
	<path class="st4" d="M88.1,112.6l5.2-4.5c0.4-0.7,0.7-1.3,0.8-2l-9.3,8.2C85.9,113.7,87.1,113.2,88.1,112.6z"/>
	<path class="st4" d="M75.4,116.9l18.7-16.3v-1.3l-20.6,18C74.2,117.1,74.8,117,75.4,116.9z"/>
	<path class="st4" d="M68.6,117.8l25.5-22.3v-1.3l-27.2,23.8C67.5,117.9,68,117.9,68.6,117.8z"/>
	<path class="st4" d="M64.4,118l29.7-25.9v-1.3l-31.2,27.3C63.4,118.1,63.9,118,64.4,118z"/>
	<path class="st4" d="M83.9,114.6l10.2-8.9c0-0.1,0-0.2,0-0.3l0-0.3v-0.7l-12.7,11.1C82.3,115.2,83.1,114.9,83.9,114.6z"/>
	<path class="st4" d="M78,116.4l16.1-14.1v-1.3L76,116.8C76.7,116.7,77.3,116.5,78,116.4z"/>
	<path class="st4" d="M80.8,115.6L94.1,104v-1.3l-15.6,13.6C79.3,116,80.1,115.8,80.8,115.6z"/>
	<path class="st4" d="M66.5,117.9l27.6-24.2v-1.3L64.9,118C65.4,118,65.9,118,66.5,117.9z"/>
	<path class="st3" d="M62.3,72.5c-18.1,0-32.7,4.7-32.7,10.5v22.3h0c0,7.6,14.7,13.8,32.7,13.8S95,112.9,95,105.3h0V83
		C95,77.2,80.3,72.5,62.3,72.5z M32,88.8c0.1,0.1,0.2,0.1,0.3,0.1l-1.8,1.6v-0.4L32,88.8z M30.4,88.8v-0.4l0.5-0.4
		c0.1,0.1,0.2,0.1,0.2,0.2L30.4,88.8z M33.2,89.4c0.1,0,0.2,0.1,0.3,0.1l-3,2.7v-0.4L33.2,89.4z M34.4,90c0.1,0,0.2,0.1,0.3,0.1
		l-4.3,3.7v-0.4L34.4,90z M35.7,90.6c0.1,0,0.2,0.1,0.3,0.1l-5.6,4.9v-0.4L35.7,90.6z M37.1,91.1c0.1,0,0.2,0.1,0.3,0.1l-7,6.1v-0.4
		L37.1,91.1z M38.5,91.6c0.1,0,0.2,0.1,0.3,0.1L30.4,99v-0.4L38.5,91.6z M39.9,92c0.1,0,0.2,0.1,0.3,0.1l-9.8,8.6v-0.4L39.9,92z
		 M41.4,92.4c0.1,0,0.2,0.1,0.3,0.1l-11.3,9.9V102L41.4,92.4z M42.9,92.8c0.1,0,0.2,0.1,0.3,0.1l-12.9,11.2v-0.4L42.9,92.8z
		 M30.4,105.4l14.1-12.3c0.1,0,0.2,0,0.3,0.1l-14.4,12.6C30.4,105.6,30.4,105.5,30.4,105.4z M30.7,106.9l15.4-13.5
		c0.1,0,0.2,0,0.4,0.1l-15.7,13.7C30.7,107.1,30.7,107,30.7,106.9z M31.2,108.1l16.5-14.4c0.1,0,0.2,0,0.4,0.1l-16.7,14.6
		C31.3,108.2,31.3,108.1,31.2,108.1z M32,109.1l17.4-15.2c0.1,0,0.2,0,0.4,0l-17.6,15.4C32.1,109.3,32,109.2,32,109.1z M32.8,110
		l18.2-15.9c0.1,0,0.2,0,0.4,0L33,110.2C33,110.2,32.9,110.1,32.8,110z M33.8,110.9l19-16.6c0.1,0,0.3,0,0.4,0L34,111.1
		C34,111,33.9,110.9,33.8,110.9z M34.9,111.7l19.7-17.2c0.1,0,0.3,0,0.4,0l-19.9,17.4C35,111.8,34.9,111.7,34.9,111.7z M36,112.4
		l20.4-17.8c0.1,0,0.3,0,0.4,0l-20.5,17.9C36.2,112.5,36.1,112.4,36,112.4z M37.2,113l21-18.4c0.1,0,0.3,0,0.4,0l-21.2,18.5
		C37.4,113.1,37.3,113.1,37.2,113z M38.4,113.6l21.7-18.9c0.1,0,0.3,0,0.4,0l-21.8,19.1C38.6,113.7,38.5,113.7,38.4,113.6z
		 M39.7,114.2L62,94.7c0.1,0,0.2,0,0.2,0c0.1,0,0.1,0,0.2,0L40,114.3C39.9,114.3,39.8,114.3,39.7,114.2z M41,114.7l22.9-20
		c0.1,0,0.3,0,0.4,0l-23,20.1C41.2,114.8,41.1,114.8,41,114.7z M42.4,115.2L66,94.7c0.1,0,0.3,0,0.4,0l-23.7,20.7
		C42.6,115.3,42.5,115.3,42.4,115.2z M43.9,115.7L68,94.6c0.1,0,0.3,0,0.4,0l-24.3,21.2C44.1,115.7,44,115.7,43.9,115.7z
		 M45.3,116.1l24.8-21.6c0.2,0,0.3,0,0.5,0l-24.9,21.8C45.6,116.1,45.4,116.1,45.3,116.1z M46.9,116.4l25.4-22.2c0.2,0,0.3,0,0.5,0
		l-25.6,22.3C47.1,116.5,47,116.5,46.9,116.4z M48.4,116.8L74.5,94c0.2,0,0.3,0,0.5-0.1l-26.2,22.9
		C48.6,116.8,48.5,116.8,48.4,116.8z M50,117.1l26.8-23.4c0.2,0,0.3-0.1,0.5-0.1l-26.9,23.5C50.3,117.1,50.1,117.1,50,117.1z
		 M51.7,117.3l27.6-24.1c0.2,0,0.4-0.1,0.5-0.1L52,117.4C51.9,117.4,51.8,117.3,51.7,117.3z M53.3,117.5l28.4-24.8
		c0.2,0,0.4-0.1,0.6-0.1l-28.6,25C53.6,117.6,53.5,117.6,53.3,117.5z M55.1,117.7L84.5,92c0.2,0,0.3-0.1,0.5-0.1c0,0,0.1,0,0.2,0
		l-29.6,25.9C55.3,117.8,55.2,117.7,55.1,117.7z M56.9,117.9l30.7-26.8c0.2-0.1,0.5-0.2,0.7-0.3l-31,27.1
		C57.1,117.9,57,117.9,56.9,117.9z M58.7,118l32.7-28.5c0.4-0.2,0.8-0.4,1.2-0.7L59.1,118C58.9,118,58.8,118,58.7,118z M92.6,109.1
		l-3.1,2.7c-0.4,0.3-0.9,0.6-1.4,0.9l5.2-4.5C93.1,108.4,92.8,108.8,92.6,109.1z M94,106.1l-9.3,8.2c-0.3,0.1-0.5,0.2-0.8,0.3
		l10.2-8.9C94.1,105.8,94.1,105.9,94,106.1z M94.1,104.3l-12.7,11.1c-0.2,0.1-0.4,0.1-0.6,0.2L94.1,104V104.3z M94.1,102.6
		l-15.6,13.6c-0.2,0-0.4,0.1-0.6,0.1l16.1-14.1V102.6z M94.1,100.9L76,116.8c-0.2,0-0.4,0.1-0.5,0.1l18.7-16.3V100.9z M94.1,99.2
		l-20.6,18c-0.2,0-0.3,0.1-0.5,0.1l21.1-18.4V99.2z M94.1,97.6l-22.9,20c-0.2,0-0.3,0-0.5,0.1l23.4-20.4V97.6z M94.1,95.9L69,117.8
		c-0.2,0-0.3,0-0.5,0l25.5-22.3V95.9z M94.1,94.2l-27.2,23.8c-0.2,0-0.3,0-0.5,0l27.6-24.2V94.2z M94.1,92.5L64.9,118
		c-0.1,0-0.3,0-0.4,0l29.7-25.9V92.5z M94.1,90.8l-31.2,27.3c-0.1,0-0.3,0-0.4,0l31.6-27.7V90.8z M94.1,89.1L61,118
		c-0.1,0-0.3,0-0.4,0l33.6-29.3V89.1z M62.3,93.4c-15.4,0-28.3-3.7-31.9-8.6c5.4,4,17.6,6.7,31.9,6.7s26.4-2.8,31.9-6.7
		C90.6,89.7,77.6,93.4,62.3,93.4z"/>
</g>
</svg>
