<svg width="16" height="17" viewBox="0 0 16 17" fill="none" xmlns="http://www.w3.org/2000/svg">
<g clip-path="url(#clip0_9878_64722)">
<path d="M12.4285 12.6135C12.4285 12.9717 12.1396 13.2624 11.7807 13.2624H4.27768C3.91949 13.2624 3.62952 12.9717 3.62952 12.6135V5.91012C5.59628 5.90292 10.1845 5.90292 12.4285 5.91012V12.6135V12.6135Z" fill="#78C257"/>
<path d="M6.40897 2.4732C6.44599 2.54587 6.41787 2.63672 6.3442 2.67441C6.27119 2.71143 6.18038 2.68231 6.14336 2.6093L5.19494 0.760802C5.15725 0.687128 5.18738 0.59799 5.26041 0.559965C5.33342 0.522241 5.42356 0.551396 5.46125 0.624768L6.409 2.47327L6.40897 2.4732Z" fill="#78C257"/>
<path d="M9.8633 2.55103C9.82216 2.62266 9.73101 2.64733 9.65901 2.60485C9.58771 2.56438 9.56338 2.47324 9.60519 2.40157L10.6437 0.603079C10.6849 0.531782 10.7767 0.506443 10.8473 0.548585C10.9193 0.589355 10.9436 0.680903 10.9025 0.751832L9.86326 2.551L9.8633 2.55103Z" fill="#78C257"/>
<path d="M14.7192 10.7958C14.7192 11.3171 14.297 11.7404 13.7746 11.7404C13.2522 11.7404 12.8289 11.3174 12.8289 10.7958V6.66171C12.8289 6.13933 13.2519 5.71741 13.7746 5.71741C14.2966 5.71741 14.7192 6.13937 14.7192 6.66171V10.7958Z" fill="#78C257"/>
<path d="M3.22295 10.7958C3.22295 11.3171 2.79932 11.7404 2.27865 11.7404C1.75594 11.7404 1.33331 11.3174 1.33331 10.7958V6.66171C1.33331 6.13933 1.75557 5.71741 2.27865 5.71741C2.79932 5.71741 3.22295 6.13937 3.22295 6.66171V10.7958Z" fill="#78C257"/>
<path d="M7.33681 15.527C7.33681 16.0483 6.91385 16.4716 6.3908 16.4716C5.86946 16.4716 5.4472 16.0486 5.4472 15.527V11.3929C5.4472 10.8719 5.86946 10.4476 6.3908 10.4476C6.91351 10.4476 7.33681 10.8719 7.33681 11.3929V15.527Z" fill="#78C257"/>
<path d="M10.6139 15.527C10.6139 16.0483 10.191 16.4716 9.66827 16.4716C9.14693 16.4716 8.72363 16.0486 8.72363 15.527V11.3929C8.72363 10.8719 9.14659 10.4476 9.66827 10.4476C10.1906 10.4476 10.6139 10.8719 10.6139 11.3929V15.527Z" fill="#78C257"/>
<path d="M8.02921 1.49292C5.73134 1.49292 3.83895 3.24171 3.586 5.48954H12.4721C12.2198 3.24171 10.3285 1.49295 8.02921 1.49295V1.49292ZM6.02439 3.91592C5.8194 3.91592 5.65385 3.75106 5.65385 3.54678C5.65385 3.3432 5.8194 3.17831 6.02439 3.17831C6.2273 3.17831 6.39286 3.34316 6.39286 3.54678C6.39286 3.75106 6.2273 3.91592 6.02439 3.91592ZM10.0419 3.91592C9.83761 3.91592 9.67206 3.75106 9.67206 3.54678C9.67206 3.3432 9.83761 3.17831 10.0419 3.17831C10.2469 3.17831 10.4111 3.34316 10.4111 3.54678C10.4111 3.75106 10.2469 3.91592 10.0419 3.91592Z" fill="#78C257"/>
</g>
<defs>
<clipPath id="clip0_9878_64722">
<rect width="16" height="16" fill="white" transform="translate(0 0.5)"/>
</clipPath>
</defs>
</svg>
