<svg width="16" height="16" viewBox="0 0 16 16" fill="none" xmlns="http://www.w3.org/2000/svg">
<path d="M8 0.5C7.26903 0.5 6.67647 1.09256 6.67647 1.82353V6.67647H1.82353C1.09256 6.67647 0.5 7.26903 0.5 8C0.5 8.73097 1.09256 9.32353 1.82353 9.32353H6.67647V14.1765C6.67647 14.9074 7.26904 15.5 8 15.5C8.73097 15.5 9.32353 14.9074 9.32353 14.1765V9.32353H14.1765C14.9074 9.32353 15.5 8.73097 15.5 8C15.5 7.26904 14.9074 6.67647 14.1765 6.67647H9.32353V1.82353C9.32353 1.09256 8.73097 0.5 8 0.5Z" fill="#15202B"/>
</svg>
