<?xml version="1.0" encoding="utf-8"?>
<!-- Generator: Adobe Illustrator 24.1.3, SVG Export Plug-In . SVG Version: 6.00 Build 0)  -->
<svg version="1.1" id="Layer_1" xmlns="http://www.w3.org/2000/svg" xmlns:xlink="http://www.w3.org/1999/xlink" x="0px" y="0px"
	 viewBox="0 0 50 50" style="enable-background:new 0 0 50 50;" xml:space="preserve">
<style type="text/css">
	.st0{fill:#254B53;}
</style>
<g>
	<path class="st0" d="M49.1,39.2h-1.2V24.6c0-0.5-0.4-0.9-0.9-0.9h-13V11.5c0-0.5-0.4-0.9-0.9-0.9h-15c-0.5,0-0.9,0.4-0.9,0.9v12.2
		H3.1c-0.5,0-0.9,0.4-0.9,0.9v14.6H0.9c-0.5,0-0.9,0.4-0.9,0.9c0,0.5,0.4,0.9,0.9,0.9h2.2h43.8h2.2c0.5,0,0.9-0.4,0.9-0.9
		C50,39.6,49.6,39.2,49.1,39.2z M18.6,25.6h13.7v13.6H18.6V25.6z M32,12.4v12.2H18.9V12.4H32z M4.1,25.6h13.5v13.7H4.1V25.6z
		 M33.4,39.2V25.6h0.2c0.1,0,0.2,0,0.3-0.1h12.1v13.7H33.4z"/>
	<path class="st0" d="M24.8,21.2h1.1V15h-0.8c-0.1,0.2-0.3,0.4-0.5,0.5c-0.2,0.1-0.5,0.2-0.8,0.3v0.7h1V21.2z"/>
	<path class="st0" d="M10.3,34.5c0.1-0.1,0.2-0.2,0.3-0.4l0.2-0.3c0.2-0.3,0.4-0.5,0.5-0.7c0.5-0.5,0.7-0.9,0.9-1.1
		c0.2-0.4,0.3-0.8,0.3-1.2c0-0.4-0.2-0.8-0.5-1.1c-0.3-0.3-0.8-0.5-1.3-0.5c-0.5,0-1,0.1-1.3,0.4c-0.4,0.3-0.6,0.8-0.6,1.4v0.2H10
		V31c0-0.1,0-0.3,0.1-0.4c0.1-0.3,0.4-0.5,0.7-0.5c0.2,0,0.4,0.1,0.5,0.2c0.1,0.1,0.2,0.3,0.2,0.5c0,0.2-0.1,0.5-0.2,0.7
		c-0.2,0.3-0.4,0.7-0.8,1.1c-0.4,0.4-0.6,0.7-0.8,0.9L9.4,34c-0.1,0.1-0.2,0.2-0.3,0.3c-0.2,0.2-0.2,0.3-0.2,0.3v0.9h3.6v-0.9
		L10.3,34.5C10.3,34.6,10.3,34.6,10.3,34.5z"/>
	<path class="st0" d="M40.8,32.3c0.2-0.1,0.3-0.2,0.4-0.3c0.3-0.3,0.4-0.6,0.4-1v-0.3c0-0.4-0.1-0.7-0.4-1c-0.3-0.3-0.7-0.4-1.3-0.4
		c-0.6,0-1,0.2-1.3,0.5c-0.3,0.3-0.4,0.6-0.4,1.1V31h1.1v-0.2c0-0.2,0-0.3,0.1-0.4c0.1-0.2,0.3-0.2,0.5-0.2c0.4,0,0.6,0.2,0.6,0.6
		v0.1c0,0.3-0.1,0.6-0.3,0.8c-0.2,0.2-0.5,0.3-1,0.3v0.8c0.8,0,1.2,0.3,1.2,1v0.4c0,0.4-0.3,0.6-0.8,0.6c-0.2,0-0.3-0.1-0.5-0.1
		c-0.1-0.1-0.2-0.2-0.2-0.4l0-0.2L38,34v0.2c0,0.4,0.2,0.8,0.5,1c0.3,0.3,0.8,0.4,1.3,0.4c0.5,0,0.9-0.1,1.3-0.4
		c0.4-0.3,0.6-0.7,0.6-1.1v-0.5c0-0.2,0-0.4-0.1-0.6C41.4,32.7,41.1,32.4,40.8,32.3z"/>
</g>
</svg>
