<?xml version="1.0" encoding="utf-8"?>
<!-- Generator: Adobe Illustrator 25.4.1, SVG Export Plug-In . SVG Version: 6.00 Build 0)  -->
<svg version="1.1" id="Layer_1" xmlns="http://www.w3.org/2000/svg" xmlns:xlink="http://www.w3.org/1999/xlink" x="0px" y="0px"
	 viewBox="0 0 212 100" style="enable-background:new 0 0 212 100;" xml:space="preserve">
<style type="text/css">
	.st0{fill:url(#SVGID_1_);}
	.st1{fill:#1F261F;}
	.st2{fill:url(#SVGID_00000010303578498082674900000016820774144156755862_);}
	.st3{fill:url(#SVGID_00000076603824576913623450000006842851130558446762_);}
	.st4{fill:url(#SVGID_00000004522171288254730860000012255346477625832111_);}
	.st5{fill:url(#SVGID_00000049187212371470003030000006078784480908147870_);}
	.st6{fill:url(#SVGID_00000029765617280013270570000009659548383567955850_);}
	.st7{fill:url(#SVGID_00000165951264910365743460000009469407016132660892_);}
	.st8{fill:url(#SVGID_00000042707635077601526480000005966627944898054019_);}
</style>
<linearGradient id="SVGID_1_" gradientUnits="userSpaceOnUse" x1="34.6076" y1="79.9647" x2="34.6076" y2="7.1774">
	<stop  offset="0" style="stop-color:#148E95"/>
	<stop  offset="0.5" style="stop-color:#2BACB6"/>
	<stop  offset="1" style="stop-color:#148E95"/>
</linearGradient>
<path class="st0" d="M46.2506,7.1774c-0.1302,0.0061-0.2591,0.0073-0.3898,0.0156c-5.4564,0.3463-11.5591,3.21-15.5619,8.0944
	c-4.964,6.0574-6.8518,13.3205-7.5544,20.9229c-1.0014,10.8337-0.3203,21.4861,4.8203,31.3507
	c3.9902,7.657,10.2693,12.0882,19.126,12.3991c0.0577,0.0022,0.1146,0.0027,0.1721,0.0046
	c-6.3205-6.3573-15.2072-17.1078-15.2072-36.8141C31.6557,23.6844,42.5033,10.938,46.2506,7.1774z"/>
<path class="st1" d="M46.6908,79.9601c7.1935,0.2801,13.1288-2.3322,17.9167-7.9566c1.0843,4.1575,1.2709,8.1689,0.7899,12.2909
	c-7.8413,2.5966-15.8036,3.384-23.8963,2.4885C28.2657,85.3184,16.9335,80.07,8.7511,69.2471
	C-10.0042,44.4395,2.8267,9.2792,33.5357,1.8337c16.4496-3.9883,32.0062-1.6782,45.713,8.9784
	c3.7025,2.8786,6.7329,6.4265,9.1821,10.5522c39.1113,0,78.2114,0,117.5308,0c-0.3109,0.8442-0.5591,1.5182-0.8195,2.2254
	c-50.1538,0-100.2258,0-150.4791,0c0.3082-0.8088,0.5534-1.4523,0.8139-2.1358c4.1912,0,8.3278,0,12.7261,0
	c-2.8826-6.3225-7.1732-10.9003-13.6864-13.1233c-2.7752-0.9472-5.6488-1.3285-8.6559-1.1376
	c-5.4565,0.3463-11.5591,3.21-15.5619,8.0944c-4.964,6.0574-6.8518,13.3205-7.5544,20.9229
	c-1.0014,10.8337-0.3203,21.4861,4.8204,31.3507C31.5551,75.218,37.8341,79.6491,46.6908,79.9601z"/>
<linearGradient id="SVGID_00000021806144802678171390000009456389585464427146_" gradientUnits="userSpaceOnUse" x1="37.2139" y1="79.9647" x2="37.2139" y2="7.1774">
	<stop  offset="0" style="stop-color:#0B8088"/>
	<stop  offset="0.5" style="stop-color:#11565B"/>
	<stop  offset="1" style="stop-color:#0B8088"/>
</linearGradient>
<path style="fill:url(#SVGID_00000021806144802678171390000009456389585464427146_);" d="M46.2506,7.1774
	c-0.1302,0.0061-0.2591,0.0073-0.3898,0.0156c-1.6134,0.1024-3.283,0.4304-4.9384,0.9601
	c-1.7277,1.6268-3.0796,3.5955-4.4922,5.3482c-3.5908,4.4552-7.4888,14.5984-8.4047,22.6704
	c-1.5389,13.5628,0.8681,24.484,5.8793,33.0002c2.7022,4.5921,5.1647,8.0241,8.2761,10.2277
	c1.4222,0.3147,2.924,0.5048,4.5099,0.5605c0.0577,0.0022,0.1146,0.0027,0.1721,0.0046
	c-6.3205-6.3573-15.2072-17.1078-15.2072-36.8141C31.6557,23.6844,42.5033,10.938,46.2506,7.1774z"/>
<path class="st1" d="M94.3377,49.2221c-1.0611,8.3972-4.2425,15.7723-9.654,22.2339c-5.9637-0.2957-11.3541-2.105-16.331-5.472
	c2.0633-4.6126,3.2269-9.419,3.7224-14.5533c-5.7584,0-11.4762,0-17.4136,0c0.3182-0.8801,0.5627-1.5566,0.7984-2.2085
	C68.4595,49.2221,81.3554,49.2221,94.3377,49.2221z"/>
<path class="st1" d="M118.8685,58.4782c2.7915,2.1341,3.638,4.2315,2.7827,6.7095c-0.8933,2.5879-2.8984,3.8319-6.2119,3.8343
	c-6.2578,0.0044-12.5155,0.0013-18.8714,0.0013c0-6.6325,0-13.1863,0-19.7987c6.5269,0,13.014-0.0733,19.4978,0.042
	c2.1044,0.0374,3.5746,1.4388,4.3037,3.3793C121.1975,54.8499,120.5563,56.7931,118.8685,58.4782z M101.9816,64.7476
	c4.2198,0,8.3576,0.0317,12.4943-0.0208c1.13-0.0143,1.8579-0.7732,1.8942-1.8973c0.0347-1.0719-0.6516-1.8956-1.6998-1.9149
	c-4.2177-0.0776-8.4376-0.0321-12.6887-0.0321C101.9816,62.2462,101.9816,63.4474,101.9816,64.7476z M102.0093,53.3068
	c0,1.4079,0,2.6006,0,3.8558c3.7278,0,7.3451,0.013,10.9623-0.0073c1.2204-0.0069,1.995-0.7013,2.0369-1.8878
	c0.04-1.1324-0.7045-1.9159-1.8279-1.9359C109.4781,53.2658,105.7737,53.3068,102.0093,53.3068z"/>
<path class="st1" d="M166.6848,49.166c2.1182-0.0005,4.2377-0.0477,6.3544,0.0095c4.2388,0.1146,6.8875,2.8563,6.9086,7.0882
	c0.0092,1.8343,0.0065,3.6687,0.0005,5.503c-0.0139,4.2776-2.6963,7.1442-6.948,7.2299c-4.3289,0.0873-8.6625,0.0941-12.991-0.0013
	c-4.1834-0.0922-6.9054-2.9737-6.9299-7.1268c-0.0111-1.8813-0.0125-3.7628,0.0002-5.6441c0.028-4.139,2.6714-6.9018,6.8272-7.0441
	C162.1637,49.103,164.4253,49.1665,166.6848,49.166z M166.4558,64.516c1.6002,0,3.2024,0.0497,4.8002-0.0125
	c2.0329-0.0791,3.2681-1.0316,3.2424-3.2278c-0.0176-1.5047-0.0165-3.0098-0.0005-4.5146c0.0222-2.0868-1.0932-3.1906-3.0816-3.2469
	c-3.2449-0.0918-6.4951-0.0708-9.7413-0.0073c-1.7762,0.0347-3.0692,0.9602-3.0656,2.8177c0.0146,7.3902-1.305,8.4906,7.4228,8.1951
	C166.1732,64.515,166.3146,64.5192,166.4558,64.516z"/>
<path class="st1" d="M137.3221,49.1642c2.119-0.0004,4.239-0.0413,6.3568,0.0082c4.3014,0.1007,6.996,2.8729,7.0044,7.1478
	c0.0036,1.835,0.0038,3.67,0.0001,5.505c-0.0084,4.1549-2.7136,7.0679-6.8791,7.1664c-4.3768,0.1036-8.7601,0.1065-13.1366-0.0024
	c-4.1796-0.104-6.8523-2.999-6.862-7.1803c-0.0042-1.835-0.0052-3.67,0.0005-5.505c0.0133-4.2783,2.7036-7.0335,7.0178-7.1308
	C132.989,49.1243,135.156,49.1646,137.3221,49.1642z M137.2709,64.5139c1.601,0,3.2042,0.0523,4.8026-0.0135
	c1.9129-0.0788,3.0588-1.0499,3.1857-3.0435c0.3665-5.7578-0.2261-7.5358-2.6577-7.9269c-0.3229-0.0519-0.6573-0.0429-0.9864-0.0438
	c-1.6011-0.0042-3.2021-0.0024-4.8032-0.0024c-7.7843-0.0001-7.8292,0.0497-7.5689,7.8762
	c0.0665,2.0014,1.1752,3.0228,3.0847,3.1331C133.9703,64.5881,135.6228,64.5128,137.2709,64.5139z"/>
<linearGradient id="SVGID_00000003788946757067077400000017825573890170433156_" gradientUnits="userSpaceOnUse" x1="112.7662" y1="26.5951" x2="112.7662" y2="46.1292">
	<stop  offset="0" style="stop-color:#C84025"/>
	<stop  offset="1" style="stop-color:#932C17"/>
</linearGradient>
<path style="fill:url(#SVGID_00000003788946757067077400000017825573890170433156_);" d="M125.8923,33.5728
	c-0.0138-4.0875-2.6495-6.8502-6.7437-6.9227c-4.2368-0.075-8.4769-0.0713-12.7138-0.0008
	c-3.8223,0.0636-6.5452,2.5746-6.7569,6.2128c-0.1034,1.7769,0.0326,3.5677,0.0603,5.3522
	c-0.3431,4.3533,1.6572,7.2593,5.9492,7.6645c4.1905,0.3956,8.4401,0.2042,12.6637,0.2035c5.1113-0.0008,7.8373-3.005,7.4723-8.1416
	C125.848,36.4848,125.8972,35.0287,125.8923,33.5728z M116.5966,41.6507c-2.6259,0.0032-5.2528-0.0412-7.8776,0.0128
	c-2.3995,0.0494-3.7231-0.9865-3.8053-3.4435c0.0245-1.2644,0.0755-2.5289,0.0677-3.7931
	c-0.0147-2.3771,1.1296-3.5641,3.5226-3.5542c2.7708,0.0115,5.5417-0.0041,8.3125,0.004c2.8194,0.0083,3.7804,0.9908,3.7983,3.8296
	c0.0068,1.0767,0.0473,2.1532,0.0725,3.2298C120.4169,40.9229,119.622,41.647,116.5966,41.6507z"/>
<linearGradient id="SVGID_00000044178102143806165950000016612402671606525855_" gradientUnits="userSpaceOnUse" x1="141.8425" y1="26.6226" x2="141.8425" y2="46.0489">
	<stop  offset="0" style="stop-color:#C84025"/>
	<stop  offset="1" style="stop-color:#932C17"/>
</linearGradient>
<path style="fill:url(#SVGID_00000044178102143806165950000016612402671606525855_);" d="M146.3402,38.8128h0.5255
	c3.9262,0,7.0027-2.1089,7.2245-5.7858c0.2127-3.5259-2.6785-6.3567-6.5608-6.3922c-2.5399-0.0232-5.0803-0.0062-7.6204-0.0064
	c-3.4103-0.0004-6.8207-0.0001-10.3236-0.0001c0,0.6623-0.0045,1.1253,0.0007,1.5883c0.0315,2.7693,0.0652,5.5386,0.0982,8.3079
	c0,3.1683,0,6.3366,0,9.4855c1.7929,0,3.466,0,5.1824,0c0-3.3082,0-6.5347,0-9.7612c0-1.714,0-3.428,0-5.2915
	c3.8988,0,7.5043,0.0118,11.1095-0.0058c1.4443-0.007,2.7579,0.2284,2.7565,2.0183c-0.0014,1.7538-1.2707,2.0775-2.7339,2.0707
	c-3.3018-0.0155-6.6037-0.0049-10.3026-0.0049c1.4568,1.3773,2.603,2.4609,3.7492,3.5444c2.5583,2.4661,5.1165,4.9322,7.748,7.469
	c2.1117,0,4.422,0,6.899,0c-2.3454-2.154-4.5603-4.1654-6.7365-6.2178C147.1534,39.6399,146.3402,38.8128,146.3402,38.8128z"/>
<linearGradient id="SVGID_00000172441475276793089210000007975066759562178213_" gradientUnits="userSpaceOnUse" x1="168.508" y1="26.6278" x2="168.508" y2="45.9512">
	<stop  offset="0" style="stop-color:#C84025"/>
	<stop  offset="1" style="stop-color:#932C17"/>
</linearGradient>
<path style="fill:url(#SVGID_00000172441475276793089210000007975066759562178213_);" d="M158.1704,26.6278l-2.7042,4.2652h9.6231
	c0,0,0,5.4966,0,8.1687c0,2.3236,0,6.8894,0,6.8894h5.1399c0,0,0-4.6358,0-6.8866c0-2.711,0-8.2035,0-8.2035h8.6113l2.7095-4.2334
	L158.1704,26.6278z"/>
<linearGradient id="SVGID_00000021814461127983712390000005105424838739141029_" gradientUnits="userSpaceOnUse" x1="83.5505" y1="26.6107" x2="83.5505" y2="46.0397">
	<stop  offset="0" style="stop-color:#C84025"/>
	<stop  offset="1" style="stop-color:#932C17"/>
</linearGradient>
<path style="fill:url(#SVGID_00000021814461127983712390000005105424838739141029_);" d="M90.6171,26.7138
	c-6.7166-0.1939-13.4427-0.0548-20.3023-0.0548c1.2466,4.3951,1.8016,8.8062,2.1026,13.2551c0,2.0418,0,4.0836,0,6.1256
	c2.0525,0,3.9005,0,5.9821,0c0-2.1009,0-4.1024-0.0001-6.1039c3.9505,0.0118,7.9032,0.1132,11.8506,0.0094
	c3.6721-0.0966,6.4252-2.934,6.5327-6.4716C96.8915,29.8948,94.3455,26.8215,90.6171,26.7138z M89.1582,35.6481
	c-3.572,0.0403-10.87,0.0133-10.87,0.0133v-4.7157c0,0,8.2416-0.0614,10.8776,0c1.4938,0.0348,2.4267,0.9253,2.3773,2.4309
	C91.4968,34.7841,90.5937,35.6319,89.1582,35.6481z"/>
<path class="st1" d="M98.7656,70.4216c-0.1079,0.0959-0.6403,0.3697-0.7986,0.4106c-13.0396,4.8189-24.6429,2.546-34.7673-7.0298
	c-0.1946-0.2219-0.3893-0.4438-0.584-0.6658c-0.0539,0.037-0.1078,0.0741-0.1617,0.1111c0.1174,0.208,0.2347,0.4161,0.3527,0.6252
	c7.1165,12.3507,6.4207,24.3411-1.6684,35.9895L61.2853,100l37.6005-29.4266C98.8858,70.5734,98.8056,70.4722,98.7656,70.4216z"/>
<linearGradient id="SVGID_00000140734960607489028070000012190339790781491356_" gradientUnits="userSpaceOnUse" x1="56.0654" y1="26.6143" x2="56.0654" y2="46.121">
	<stop  offset="0" style="stop-color:#C84025"/>
	<stop  offset="1" style="stop-color:#932C17"/>
</linearGradient>
<path style="fill:url(#SVGID_00000140734960607489028070000012190339790781491356_);" d="M68.0382,39.0151
	c-0.5429-3.2322-2.8596-5.1895-6.3243-5.2377c-3.3428-0.0465-6.6868-0.0219-10.0302-0.0064
	c-1.1116,0.0052-2.2449-0.0752-2.214-1.5038c0.0307-1.4209,1.1834-1.443,2.2807-1.4392c4.5651,0.0156,9.1304,0.0066,13.7804,0.0066
	c0.4808-1.3922,0.948-2.745,1.4487-4.1949c-5.8627,0-11.5596-0.0735-17.2533,0.0293c-3.1035,0.056-5.4582,2.3911-5.6624,5.2558
	c-0.2283,3.2041,1.6904,5.9991,4.9378,6.3033c3.9203,0.3672,7.8907,0.2484,11.8399,0.2484c1.2471,0,2.336,0.3615,2.336,1.7086
	s-1.0098,1.6697-2.2857,1.6697c-4.9827,0-9.9655,0.0062-14.9813,0.0062c-0.5214,1.4319-1.008,2.7685-1.5374,4.2224
	c5.9975,0,11.7871,0.1049,17.5707-0.0361C65.951,45.9498,68.4655,42.8773,68.0382,39.0151z"/>
<linearGradient id="SVGID_00000126296980509282116980000013732167827673930381_" gradientUnits="userSpaceOnUse" x1="193.2808" y1="26.6052" x2="193.2808" y2="46.112">
	<stop  offset="0" style="stop-color:#C84025"/>
	<stop  offset="1" style="stop-color:#932C17"/>
</linearGradient>
<path style="fill:url(#SVGID_00000126296980509282116980000013732167827673930381_);" d="M205.2536,39.0061
	c-0.5429-3.2322-2.8596-5.1895-6.3243-5.2377c-3.3428-0.0465-6.6868-0.0219-10.0302-0.0064
	c-1.1116,0.0052-2.2449-0.0752-2.214-1.5038c0.0307-1.4209,1.1834-1.443,2.2807-1.4392c4.5651,0.0156,9.1304,0.0066,13.7804,0.0066
	c0.4808-1.3922,0.948-2.745,1.4487-4.1949c-5.8627,0-11.5596-0.0735-17.2533,0.0293c-3.1035,0.056-5.4582,2.3911-5.6624,5.2558
	c-0.2283,3.2041,1.6904,5.9991,4.9378,6.3033c3.9203,0.3672,7.8907,0.2484,11.8399,0.2484c1.2471,0,2.336,0.3616,2.336,1.7086
	c0,1.347-1.0098,1.6697-2.2857,1.6697c-4.9827,0-9.9655,0.0062-14.9813,0.0062c-0.5214,1.4319-1.008,2.7685-1.5374,4.2224
	c5.9975,0,11.7871,0.1049,17.5707-0.0361C203.1664,45.9407,205.6809,42.8683,205.2536,39.0061z"/>
<polygon class="st1" points="181.9699,49.1409 187.3158,49.1409 187.3158,57.6812 197.5307,49.0924 205.0224,49.1045 
	193.734,58.4108 212,73.9069 204.5,73.9069 187.3158,59.4554 187.3158,68.8932 181.9699,68.8932 "/>
</svg>
