<?xml version="1.0" encoding="utf-8"?>
<!-- Generator: Adobe Illustrator 24.1.3, SVG Export Plug-In . SVG Version: 6.00 Build 0)  -->
<svg version="1.1" id="Layer_1" xmlns="http://www.w3.org/2000/svg" xmlns:xlink="http://www.w3.org/1999/xlink" x="0px" y="0px"
	 viewBox="0 0 50 50" style="enable-background:new 0 0 50 50;" xml:space="preserve">
<style type="text/css">
	.st0{fill:#254B53;}
</style>
<path class="st0" d="M49.6,12.1c-5.3-3.6-11.5-4.2-17.5-4.8c-6-0.5-11.7-1.1-16.5-4.4c-0.3-0.2-0.6-0.2-0.9-0.1
	c-0.3,0.1-0.5,0.3-0.6,0.6l-7.5,24L0.1,45.9c-0.2,0.5,0.1,1.1,0.6,1.3c0.1,0,0.2,0.1,0.3,0.1c0.4,0,0.8-0.3,0.9-0.7l5.3-15.2
	c5,3.1,10.8,3.6,16.4,4.1c6,0.5,11.7,1.1,16.5,4.4c0.2,0.1,0.4,0.2,0.6,0.2c0.1,0,0.2,0,0.3-0.1c0.3-0.1,0.5-0.3,0.6-0.6L50,13.2
	C50.1,12.8,49.9,12.3,49.6,12.1z M26.6,25.1c2.7,0.2,5.4,0.5,8,1c-0.9,2.8-1.8,5.6-2.6,8.4c-2.6-0.5-5.3-0.8-8-1
	C24.9,30.7,25.8,27.9,26.6,25.1z M35.5,25.7c0.9-2.8,1.7-5.6,2.6-8.3c2.6,0.6,5.2,1.5,7.5,2.9L43,28.6
	C40.7,27.3,38.1,26.4,35.5,25.7z M39.9,10.3c-0.7,2.2-1.4,4.4-2.1,6.7c-2.8-0.5-5.8-0.8-8.7-1.1c0.7-2.2,1.4-4.4,2.1-6.7
	c0.2,0,0.5,0,0.7,0.1C34.7,9.6,37.4,9.8,39.9,10.3z M15.6,5.3C17.7,6.6,20,7.4,22.4,8c-0.7,2.3-1.4,4.5-2.1,6.8
	c-2.4-0.6-4.6-1.5-6.8-2.7L15.6,5.3z M10.6,21c2.3,1.3,4.7,2.2,7.2,2.8c0.9-2.9,1.8-5.8,2.7-8.7c2.5,0.5,5.2,0.8,7.8,1.1
	c-0.9,2.9-1.8,5.8-2.8,8.8c-2.8-0.3-5.5-0.6-8.1-1.2c-0.9,2.8-1.8,5.6-2.6,8.4c-2.4-0.6-4.7-1.4-6.8-2.8L10.6,21z"/>
</svg>
