<svg width="14" height="14" viewBox="0 0 14 14" fill="none" xmlns="http://www.w3.org/2000/svg">
<path fill-rule="evenodd" clip-rule="evenodd" d="M7.76231 11.5467L8.29998 12.0805C8.52764 12.3065 8.89577 12.3065 9.12101 12.0805L13.8293 7.40875C14.0569 7.18273 14.0569 6.81727 13.8293 6.59366L9.12101 1.91951C8.89335 1.6935 8.52522 1.6935 8.29998 1.91951L7.76231 2.45329C7.53222 2.6817 7.53707 3.05439 7.77199 3.27799L10.6904 6.03824L0.581265 6.03824C0.259147 6.03824 0 6.29551 0 6.6153L0 7.3847C0 7.70449 0.259147 7.96176 0.581265 7.96176L10.6904 7.96176L7.77199 10.722C7.53464 10.9456 7.5298 11.3183 7.76231 11.5467Z" fill="#FD5000"/>
</svg>
