<svg xmlns="http://www.w3.org/2000/svg"  xmlns:xlink="http://www.w3.org/1999/xlink" x="0px" y="0px"
   viewBox="0 0 200 100" style="enable-background:new 0 0 200 100;" xml:space="preserve">
  <path d="M12.9695 28.7324C12.919 15.3637 21.4745 7.94953 37.1816 7.89398C48.4846 7.85358 50.5048 15.2475 50.5048 17.9344C50.5048 23.0808 43.222 28.5404 43.222 28.5404C43.222 28.5404 43.626 31.7475 49.8786 31.7223C56.1311 31.697 62.222 27.5707 62.1866 17.2425C62.1563 5.37883 49.727 -0.0454155 37.4392 3.90938e-05C27.1614 0.0353926 -0.0961952 1.47984 -0.000235563 28.5404C0.0906735 52.5758 45.4543 54.697 45.4897 70.0859C45.5503 86.798 26.8028 91.298 20.4594 91.298C14.1159 91.298 11.5351 86.8081 11.525 84.3435C11.4796 70.8081 24.9493 67.0405 24.9493 67.0405C24.9493 66.0303 24.1614 61.5303 18.9442 61.5506C5.50481 61.5758 0.15128 73.1314 0.191684 84.4142C0.227037 94.0101 7.00986 100 17.2523 99.9596C36.8381 99.8889 58.924 90.3334 58.8432 69.1112C58.7725 49.2627 13.025 44.0808 12.9695 28.7324Z" fill="#ffffff"/>
  <path d="M199.682 81.9091C199.525 81.5303 199.086 81.6212 198.505 82.101C196.283 83.9343 191.202 89.1262 179.313 89.1717C157.636 89.2525 153.874 53.5252 153.874 53.5252C153.874 53.5252 170.394 41.1919 172.975 36.2172C175.556 31.2424 167.344 30.1566 167.344 30.1566C167.344 30.1566 155.788 44.2172 147.596 48.3384C148.485 42.2222 154.546 28.2828 154.894 20.2677C155.243 12.2525 145.243 14.2071 143.647 14.9747C143.647 18.4747 134.813 50.2475 131.596 67.7121C129.702 70.7424 126.995 74.2071 124.571 74.2121C123.167 74.2121 122.652 71.6111 122.636 67.8838C122.636 62.7121 125.485 54.4242 125.465 49.3889C125.465 45.904 123.864 45.697 122.485 45.702C122.187 45.702 120.53 45.7475 120.227 45.7475C116.692 45.7475 117.854 42.7172 114.672 42.7475C104.934 42.7828 92.5304 53.4141 91.99 69.4596C88.7021 71.6363 84.1011 74.3788 81.7526 74.3889C79.288 74.3889 78.6769 72.1111 78.6718 70.1414C78.6718 66.6818 84.2678 46.1262 84.2678 46.1262C84.2678 46.1262 91.3941 44.298 94.5052 43.697C96.8587 43.2374 97.5355 43.0656 98.4496 41.9293C99.3638 40.7929 101.152 38.4444 102.596 36.3333C104.041 34.2222 102.621 32.5909 99.9496 32.601C96.4446 32.601 87.0658 34.8232 87.0658 34.8232C87.0658 34.8232 91.5708 15.399 91.5658 15.005C91.5607 14.6111 91.0607 14.404 90.2981 14.4091C88.591 14.4091 85.5456 15.3283 83.5961 16.0252C80.6112 17.0909 78.1819 20.7475 77.692 22.4495C77.2021 24.1515 73.8284 37.4798 73.8284 37.4798C73.8284 37.4798 55.7627 43.7172 53.2931 44.6515C53.2194 44.6768 53.1554 44.7244 53.1101 44.7878C53.0649 44.8512 53.0405 44.9271 53.0405 45.005C53.0405 45.1667 55.1062 53.0858 59.3436 53.0555C62.3739 53.0555 71.2779 49.4091 71.2779 49.4091C71.2779 49.4091 66.7021 67.5909 66.7325 73.6515C66.7325 77.5404 68.5658 82.0959 76.1617 82.0707C83.2324 82.0707 89.4193 78.4192 92.884 75.8788C94.7779 80.6717 99.2527 81.9848 102.308 81.9747C109.157 81.9747 114.429 76.5101 115.106 75.7778C115.995 77.8788 118.091 81.9141 122.879 81.899C125.586 81.899 128.389 78.8687 130.455 75.9293C130.416 76.5401 130.424 77.1531 130.48 77.7626C131.308 85.298 142.495 80.8687 143.106 79.8182C143.485 74.3687 143.248 63.2273 145.424 56.3485C148.313 79.8131 159.273 95.5959 178.975 95.5252C189.99 95.4848 195.642 92.3182 197.98 89.707C198.919 88.6684 199.57 87.4024 199.868 86.0345C200.167 84.6666 200.103 83.2444 199.682 81.9091ZM105.152 74.1717C95.692 74.2071 108.046 49.6869 116.116 49.6565C116.126 52.8182 115.95 74.1363 105.152 74.1717Z" fill="#ffffff"/>
  <path d="M181.95 81.6868C190.49 81.6565 197.101 76.0353 198.313 74.207C199.879 71.8282 196.495 68.2373 195.419 68.2979C192.722 70.8787 189.904 73.9999 183.576 74.0201C176.126 74.0504 177.813 65.8535 177.813 65.8535C177.813 65.8535 192.152 67.707 197.914 57.3989C199.758 54.101 199.833 49.5403 199.091 47.5757C198.349 45.6111 194.177 41.9747 187.54 42.5252C179.389 43.2121 169.116 51.7121 166.859 61.9191C165.046 70.1313 168.475 81.7373 181.95 81.6868ZM191.04 47.2929C192.384 47.2474 192.263 49.4595 191.904 51.7727C191.399 54.909 187.091 62.8838 178.869 62.5706C179.439 57.9292 185.556 47.4747 191.056 47.2929H191.04Z" fill="#ffffff"/>
</svg>
