<?xml version="1.0" encoding="utf-8"?>
<!-- Generator: Adobe Illustrator 24.1.3, SVG Export Plug-In . SVG Version: 6.00 Build 0)  -->
<svg version="1.1" id="Layer_1" xmlns="http://www.w3.org/2000/svg" xmlns:xlink="http://www.w3.org/1999/xlink" x="0px" y="0px"
	 viewBox="0 0 140 80" style="enable-background:new 0 0 140 80;" xml:space="preserve">
<style type="text/css">
	.st0{fill:#FFFFFF;}
	.st1{fill:#ED1C24;}
	.st2{fill:#253477;}
</style>
<g>
	<g>
		<rect x="4.1" y="3.9" class="st0" width="131.7" height="72.1"/>
		<polygon class="st1" points="135.8,32.7 77.9,32.7 77.9,3.9 62,3.9 62,32.7 4.2,32.7 4.2,47.2 62,47.2 62,76 77.9,76 77.9,47.2 
			135.8,47.2 		"/>
	</g>
	<g>
		<polygon class="st2" points="4.1,12.3 4.1,28 32.9,28 		"/>
		<polygon class="st2" points="20,3.9 19.6,3.9 56.8,24.4 56.8,3.9 		"/>
		<polygon class="st1" points="48.3,27.9 4.1,3.9 4.1,9.6 37.8,27.9 		"/>
		<polygon class="st1" points="91.7,52 135.9,76 135.9,70.3 102.2,52 		"/>
	</g>
	<g>
		<polygon class="st2" points="4.1,67.7 4.1,52 32.9,52 		"/>
		<polygon class="st2" points="20,76.1 19.6,76.1 56.8,55.6 56.8,76.1 		"/>
		<polygon class="st1" points="48.1,52 4.2,76 14.4,76 56.8,53 56.8,52 		"/>
	</g>
	<g>
		<polygon class="st2" points="135.9,12.3 135.9,28 107.1,28 		"/>
		<polygon class="st2" points="120,3.9 120.4,3.9 83.2,24.4 83.2,3.9 		"/>
		<polygon class="st1" points="135.8,3.9 125.9,3.9 83.2,27.1 83.2,27.9 92.3,27.9 		"/>
	</g>
	<g>
		<polygon class="st2" points="135.9,67.7 135.9,52 107.1,52 		"/>
		<polygon class="st2" points="120,76.1 120.4,76.1 83.2,55.6 83.2,76.1 		"/>
	</g>
</g>
<g>
	<path class="st0" d="M136,4v72H4V4H136 M140,0H0v80h140V0L140,0z"/>
</g>
</svg>
