<?xml version="1.0" encoding="utf-8"?>
<!-- Generator: Adobe Illustrator 24.1.3, SVG Export Plug-In . SVG Version: 6.00 Build 0)  -->
<svg version="1.1" id="Layer_1" xmlns="http://www.w3.org/2000/svg" xmlns:xlink="http://www.w3.org/1999/xlink" x="0px" y="0px"
	 viewBox="0 0 140 80" style="enable-background:new 0 0 140 80;" xml:space="preserve">
<style type="text/css">
	.st0{fill:#FFFFFF;}
	.st1{fill:#D02032;}
	.st2{fill:#3B3971;}
</style>
<g>
	<rect x="3.7" y="3.9" class="st0" width="132.5" height="72.2"/>
	<rect x="3.7" y="3.6" class="st1" width="132.4" height="5.7"/>
	<rect x="3.7" y="14.8" class="st1" width="132.4" height="5.7"/>
	<rect x="3.7" y="26" class="st1" width="132.4" height="5.7"/>
	<rect x="3.7" y="37.1" class="st1" width="132.4" height="5.7"/>
	<rect x="3.7" y="48.3" class="st1" width="132.4" height="5.7"/>
	<rect x="3.7" y="59.5" class="st1" width="132.4" height="5.7"/>
	<rect x="3.7" y="70.7" class="st1" width="132.4" height="5.7"/>
	<rect x="3.7" y="3.6" class="st2" width="52.9" height="39.2"/>
	<g>
		<polygon class="st0" points="8.2,5.1 8.7,6.7 10.3,6.7 9,7.7 9.5,9.3 8.2,8.3 6.9,9.3 7.4,7.7 6.1,6.7 7.7,6.7 		"/>
		<polygon class="st0" points="12.6,9.2 13.1,10.8 14.7,10.8 13.4,11.8 13.9,13.4 12.6,12.4 11.3,13.4 11.8,11.8 10.5,10.8 
			12.1,10.8 		"/>
		<polygon class="st0" points="12.6,17 13.1,18.6 14.7,18.6 13.4,19.6 13.9,21.2 12.6,20.2 11.3,21.2 11.8,19.6 10.5,18.6 
			12.1,18.6 		"/>
		<polygon class="st0" points="12.6,24.9 13.1,26.5 14.7,26.5 13.4,27.5 13.9,29.1 12.6,28.1 11.3,29.1 11.8,27.5 10.5,26.5 
			12.1,26.5 		"/>
		<polygon class="st0" points="12.6,32.8 13.1,34.4 14.7,34.4 13.4,35.3 13.9,36.9 12.6,36 11.3,36.9 11.8,35.3 10.5,34.4 
			12.1,34.4 		"/>
		<polygon class="st0" points="21.4,9.2 21.9,10.8 23.5,10.8 22.2,11.8 22.7,13.4 21.4,12.4 20.1,13.4 20.6,11.8 19.3,10.8 
			20.9,10.8 		"/>
		<polygon class="st0" points="21.4,17 21.9,18.6 23.5,18.6 22.2,19.6 22.7,21.2 21.4,20.2 20.1,21.2 20.6,19.6 19.3,18.6 
			20.9,18.6 		"/>
		<polygon class="st0" points="21.4,24.9 21.9,26.5 23.5,26.5 22.2,27.5 22.7,29.1 21.4,28.1 20.1,29.1 20.6,27.5 19.3,26.5 
			20.9,26.5 		"/>
		<polygon class="st0" points="21.4,32.8 21.9,34.4 23.5,34.4 22.2,35.3 22.7,36.9 21.4,36 20.1,36.9 20.6,35.3 19.3,34.4 
			20.9,34.4 		"/>
		<polygon class="st0" points="30.3,9.2 30.8,10.8 32.4,10.8 31.1,11.8 31.6,13.4 30.3,12.4 29,13.4 29.5,11.8 28.2,10.8 29.8,10.8 
					"/>
		<polygon class="st0" points="30.3,17 30.8,18.6 32.4,18.6 31.1,19.6 31.6,21.2 30.3,20.2 29,21.2 29.5,19.6 28.2,18.6 29.8,18.6 
					"/>
		<polygon class="st0" points="30.3,24.9 30.8,26.5 32.4,26.5 31.1,27.5 31.6,29.1 30.3,28.1 29,29.1 29.5,27.5 28.2,26.5 
			29.8,26.5 		"/>
		<polygon class="st0" points="30.3,32.8 30.8,34.4 32.4,34.4 31.1,35.3 31.6,36.9 30.3,36 29,36.9 29.5,35.3 28.2,34.4 29.8,34.4 
					"/>
		<polygon class="st0" points="39.1,9.2 39.6,10.8 41.2,10.8 39.9,11.8 40.4,13.4 39.1,12.4 37.8,13.4 38.3,11.8 37,10.8 38.6,10.8 
					"/>
		<polygon class="st0" points="39.1,17 39.6,18.6 41.2,18.6 39.9,19.6 40.4,21.2 39.1,20.2 37.8,21.2 38.3,19.6 37,18.6 38.6,18.6 
					"/>
		<polygon class="st0" points="39.1,24.9 39.6,26.5 41.2,26.5 39.9,27.5 40.4,29.1 39.1,28.1 37.8,29.1 38.3,27.5 37,26.5 
			38.6,26.5 		"/>
		<polygon class="st0" points="39.1,32.8 39.6,34.4 41.2,34.4 39.9,35.3 40.4,36.9 39.1,36 37.8,36.9 38.3,35.3 37,34.4 38.6,34.4 
					"/>
		<polygon class="st0" points="47.9,9.2 48.4,10.8 50,10.8 48.7,11.8 49.2,13.4 47.9,12.4 46.6,13.4 47.1,11.8 45.8,10.8 47.4,10.8 
					"/>
		<polygon class="st0" points="47.9,17 48.4,18.6 50,18.6 48.7,19.6 49.2,21.2 47.9,20.2 46.6,21.2 47.1,19.6 45.8,18.6 47.4,18.6 
					"/>
		<polygon class="st0" points="47.9,24.9 48.4,26.5 50,26.5 48.7,27.5 49.2,29.1 47.9,28.1 46.6,29.1 47.1,27.5 45.8,26.5 
			47.4,26.5 		"/>
		<polygon class="st0" points="47.9,32.8 48.4,34.4 50,34.4 48.7,35.3 49.2,36.9 47.9,36 46.6,36.9 47.1,35.3 45.8,34.4 47.4,34.4 
					"/>
		<polygon class="st0" points="8.2,13 8.7,14.6 10.3,14.6 9,15.6 9.5,17.2 8.2,16.2 6.9,17.2 7.4,15.6 6.1,14.6 7.7,14.6 		"/>
		<polygon class="st0" points="8.2,20.9 8.7,22.5 10.3,22.5 9,23.5 9.5,25.1 8.2,24.1 6.9,25.1 7.4,23.5 6.1,22.5 7.7,22.5 		"/>
		<polygon class="st0" points="8.2,28.7 8.7,30.3 10.3,30.3 9,31.3 9.5,32.9 8.2,31.9 6.9,32.9 7.4,31.3 6.1,30.3 7.7,30.3 		"/>
		<polygon class="st0" points="8.2,36.6 8.7,38.2 10.3,38.2 9,39.2 9.5,40.8 8.2,39.8 6.9,40.8 7.4,39.2 6.1,38.2 7.7,38.2 		"/>
		<polygon class="st0" points="17,5.1 17.4,6.7 19.1,6.7 17.8,7.7 18.2,9.3 17,8.3 15.7,9.3 16.2,7.7 14.9,6.7 16.5,6.7 		"/>
		<polygon class="st0" points="17,13 17.4,14.6 19.1,14.6 17.8,15.6 18.2,17.2 17,16.2 15.7,17.2 16.2,15.6 14.9,14.6 16.5,14.6 		
			"/>
		<polygon class="st0" points="17,20.9 17.4,22.5 19.1,22.5 17.8,23.5 18.2,25.1 17,24.1 15.7,25.1 16.2,23.5 14.9,22.5 16.5,22.5 
					"/>
		<polygon class="st0" points="17,28.7 17.4,30.3 19.1,30.3 17.8,31.3 18.2,32.9 17,31.9 15.7,32.9 16.2,31.3 14.9,30.3 16.5,30.3 
					"/>
		<polygon class="st0" points="17,36.6 17.4,38.2 19.1,38.2 17.8,39.2 18.2,40.8 17,39.8 15.7,40.8 16.2,39.2 14.9,38.2 16.5,38.2 
					"/>
		<polygon class="st0" points="25.9,5.1 26.4,6.7 28,6.7 26.7,7.7 27.2,9.3 25.9,8.3 24.6,9.3 25.1,7.7 23.8,6.7 25.4,6.7 		"/>
		<polygon class="st0" points="25.9,13 26.4,14.6 28,14.6 26.7,15.6 27.2,17.2 25.9,16.2 24.6,17.2 25.1,15.6 23.8,14.6 25.4,14.6 
					"/>
		<polygon class="st0" points="25.9,20.9 26.4,22.5 28,22.5 26.7,23.5 27.2,25.1 25.9,24.1 24.6,25.1 25.1,23.5 23.8,22.5 
			25.4,22.5 		"/>
		<polygon class="st0" points="25.9,28.7 26.4,30.3 28,30.3 26.7,31.3 27.2,32.9 25.9,31.9 24.6,32.9 25.1,31.3 23.8,30.3 
			25.4,30.3 		"/>
		<polygon class="st0" points="25.9,36.6 26.4,38.2 28,38.2 26.7,39.2 27.2,40.8 25.9,39.8 24.6,40.8 25.1,39.2 23.8,38.2 
			25.4,38.2 		"/>
		<polygon class="st0" points="34.7,5.1 35.2,6.7 36.8,6.7 35.5,7.7 36,9.3 34.7,8.3 33.4,9.3 33.9,7.7 32.6,6.7 34.2,6.7 		"/>
		<polygon class="st0" points="34.7,13 35.2,14.6 36.8,14.6 35.5,15.6 36,17.2 34.7,16.2 33.4,17.2 33.9,15.6 32.6,14.6 34.2,14.6 
					"/>
		<polygon class="st0" points="34.7,20.9 35.2,22.5 36.8,22.5 35.5,23.5 36,25.1 34.7,24.1 33.4,25.1 33.9,23.5 32.6,22.5 
			34.2,22.5 		"/>
		<polygon class="st0" points="34.7,28.7 35.2,30.3 36.8,30.3 35.5,31.3 36,32.9 34.7,31.9 33.4,32.9 33.9,31.3 32.6,30.3 
			34.2,30.3 		"/>
		<polygon class="st0" points="34.7,36.6 35.2,38.2 36.8,38.2 35.5,39.2 36,40.8 34.7,39.8 33.4,40.8 33.9,39.2 32.6,38.2 
			34.2,38.2 		"/>
		<polygon class="st0" points="43.5,5.1 44,6.7 45.6,6.7 44.3,7.7 44.8,9.3 43.5,8.3 42.2,9.3 42.7,7.7 41.4,6.7 43,6.7 		"/>
		<polygon class="st0" points="43.5,13 44,14.6 45.6,14.6 44.3,15.6 44.8,17.2 43.5,16.2 42.2,17.2 42.7,15.6 41.4,14.6 43,14.6 		
			"/>
		<polygon class="st0" points="43.5,20.9 44,22.5 45.6,22.5 44.3,23.5 44.8,25.1 43.5,24.1 42.2,25.1 42.7,23.5 41.4,22.5 43,22.5 
					"/>
		<polygon class="st0" points="43.5,28.7 44,30.3 45.6,30.3 44.3,31.3 44.8,32.9 43.5,31.9 42.2,32.9 42.7,31.3 41.4,30.3 43,30.3 
					"/>
		<polygon class="st0" points="43.5,36.6 44,38.2 45.6,38.2 44.3,39.2 44.8,40.8 43.5,39.8 42.2,40.8 42.7,39.2 41.4,38.2 43,38.2 
					"/>
		<polygon class="st0" points="52.4,5.1 52.9,6.7 54.5,6.7 53.2,7.7 53.7,9.3 52.4,8.3 51.1,9.3 51.6,7.7 50.3,6.7 51.9,6.7 		"/>
		<polygon class="st0" points="52.4,13 52.9,14.6 54.5,14.6 53.2,15.6 53.7,17.2 52.4,16.2 51.1,17.2 51.6,15.6 50.3,14.6 
			51.9,14.6 		"/>
		<polygon class="st0" points="52.4,20.9 52.9,22.5 54.5,22.5 53.2,23.5 53.7,25.1 52.4,24.1 51.1,25.1 51.6,23.5 50.3,22.5 
			51.9,22.5 		"/>
		<polygon class="st0" points="52.4,28.7 52.9,30.3 54.5,30.3 53.2,31.3 53.7,32.9 52.4,31.9 51.1,32.9 51.6,31.3 50.3,30.3 
			51.9,30.3 		"/>
		<polygon class="st0" points="52.4,36.6 52.9,38.2 54.5,38.2 53.2,39.2 53.7,40.8 52.4,39.8 51.1,40.8 51.6,39.2 50.3,38.2 
			51.9,38.2 		"/>
	</g>
</g>
<g>
	<path class="st0" d="M136,4v72H4V4H136 M140,0H0v80h140V0L140,0z"/>
</g>
</svg>
