<?xml version="1.0" encoding="utf-8"?>
<!-- Generator: Adobe Illustrator 24.3.0, SVG Export Plug-In . SVG Version: 6.00 Build 0)  -->
<svg version="1.1" id="Layer_1" xmlns="http://www.w3.org/2000/svg" xmlns:xlink="http://www.w3.org/1999/xlink" x="0px" y="0px"
	 viewBox="0 0 140 80" style="enable-background:new 0 0 140 80;" xml:space="preserve">
<style type="text/css">
	.st0{fill:#006068;}
	.st1{fill:#7ACCCE;}
	.st2{fill:#FFFFFF;}
	.st3{clip-path:url(#SVGID_2_);}
</style>
<g>
	<g>
		<path class="st0" d="M140,0.2H0v80h140V0.2L140,0.2z"/>
	</g>
	<g>
		<g>
			<g>
				<path class="st1" d="M84.7,12.9c-0.2,0.1-0.5,0.2-0.7,0.3c0.7,0.5,1.4,1,1.9,1.7c0.3,0,0.7,0,1,0C86.3,14.1,85.5,13.4,84.7,12.9
					 M80,10.8c0,0.2,0,0.4,0,0.6c1.3,0.3,2.5,0.8,3.6,1.5c0.2-0.1,0.4-0.2,0.6-0.3C82.9,11.8,81.4,11.2,80,10.8 M75,10.4
					c0.3,0.2,0.5,0.4,0.8,0.6c1.2-0.2,2.4-0.1,3.7,0.2c0-0.2-0.1-0.4-0.1-0.6C77.9,10.3,76.4,10.2,75,10.4 M71.3,11.9
					c0.4,0.1,0.9,0.3,1.3,0.4c0.6-0.5,1.3-0.9,2.3-1.2c0.1,0,0.2-0.1,0.4-0.1c-0.3-0.2-0.6-0.4-0.8-0.6c-0.1,0-0.3,0.1-0.4,0.1
					C72.9,10.8,71.9,11.3,71.3,11.9 M70.1,14.8c0.5,0,1,0,1.5,0c0-0.8,0.2-1.6,0.8-2.2c-0.5-0.1-0.9-0.2-1.4-0.4
					C70.3,13,70,13.9,70.1,14.8 M71.6,18.3c0.4-0.2,0.8-0.4,1.3-0.6c-0.8-0.9-1.2-1.8-1.3-2.6c-0.5,0-1,0.1-1.5,0.1
					C70.3,16.2,70.8,17.3,71.6,18.3 M75.6,21.3c0.2-0.3,0.5-0.7,0.7-1c-1.2-0.6-2.2-1.3-3-2.2c-0.4,0.2-0.8,0.4-1.2,0.6
					C73,19.8,74.2,20.7,75.6,21.3 M80.5,22.9c0-0.4,0-0.8-0.1-1.2c-1.3-0.2-2.5-0.5-3.7-1.1c-0.2,0.3-0.4,0.7-0.6,1.1
					C77.6,22.2,79.1,22.7,80.5,22.9 M85.3,22.6c-0.3-0.4-0.5-0.8-0.8-1.2c-0.2,0.1-0.3,0.1-0.5,0.1c-0.9,0.2-1.9,0.3-3,0.2
					c0.1,0.4,0.1,0.8,0.2,1.3c1.2,0.1,2.4,0,3.5-0.2C84.9,22.7,85.1,22.6,85.3,22.6 M88.1,20.4c-0.4-0.3-0.8-0.6-1.2-0.9
					c-0.4,0.7-1.1,1.3-2,1.6c0.3,0.4,0.6,0.8,0.9,1.2C86.9,21.9,87.7,21.3,88.1,20.4 M88.4,17.3c-0.4-0.1-0.8-0.3-1.2-0.4
					c0.3,0.9,0.3,1.7-0.1,2.4c0.4,0.3,0.8,0.5,1.2,0.8C88.7,19.3,88.7,18.3,88.4,17.3 M86.9,14.8c-0.3,0-0.7,0-1,0
					c0.5,0.6,0.9,1.1,1.1,1.7c0.4,0.1,0.8,0.2,1.2,0.3C87.9,16.2,87.5,15.5,86.9,14.8"/>
				<path class="st1" d="M87.9,12.5c-0.2,0-0.3-0.1-0.5-0.1c1.4,0.9,2.7,2,3.7,3.2c0.3,0.1,0.5,0.2,0.8,0.3
					C89.4,13.3,87.9,12.5,87.9,12.5 M79.5,8.8c0,0.1,0.1,0.1,0.1,0.2c2.4,0.6,4.8,1.6,6.9,2.9c0.1,0,0.3,0,0.4,0
					C84.7,10.5,82.1,9.5,79.5,8.8 M70.7,8.1c0.3,0.1,0.5,0.2,0.8,0.3c2.3-0.3,4.7-0.1,7.2,0.4c-0.1-0.1-0.1-0.2-0.2-0.2
					C75.8,8,73.1,7.8,70.7,8.1 M64,10.9c0.4,0,0.8,0,1.3,0.1c1.1-1,2.6-1.8,4.5-2.3c0.2-0.1,0.5-0.1,0.7-0.1
					c-0.3-0.1-0.6-0.2-0.8-0.2c-0.2,0-0.5,0.1-0.7,0.2C66.9,8.9,65.2,9.8,64,10.9 M61.9,16c0.5-0.1,0.9-0.2,1.4-0.3
					c-0.1-1.6,0.4-3.1,1.5-4.3c-0.4,0-0.9,0-1.3,0C62.4,12.7,61.8,14.3,61.9,16 M64.7,22.3c0.4-0.3,0.8-0.5,1.2-0.8
					c-1.5-1.7-2.3-3.5-2.5-5.1c-0.5,0.1-0.9,0.2-1.4,0.4C62.2,18.5,63.1,20.4,64.7,22.3 M71.7,27.6c0.2-0.4,0.5-0.8,0.7-1.2
					c-2.2-1.1-4.3-2.6-5.9-4.2c-0.4,0.3-0.8,0.6-1.2,0.8C67.1,24.8,69.3,26.4,71.7,27.6 M80.5,30.3c0-0.5,0-0.9,0-1.4
					c-2.4-0.3-4.9-1-7.2-2.1c-0.2,0.4-0.4,0.8-0.6,1.2C75.2,29.2,77.9,30,80.5,30.3 M89,29.8c-0.2-0.5-0.4-0.9-0.6-1.3
					c-0.3,0.1-0.7,0.2-1,0.3c-1.8,0.4-3.8,0.5-5.8,0.4c0,0.5,0,0.9,0,1.4c2.2,0.2,4.3,0.1,6.3-0.4C88.3,30,88.6,29.9,89,29.8
					 M94.1,26c-0.3-0.4-0.6-0.7-1-1.1c-0.8,1.3-2.1,2.5-3.9,3.2c0.2,0.4,0.4,0.9,0.6,1.3C91.8,28.7,93.3,27.5,94.1,26 M94.5,20.3
					c-0.3-0.2-0.6-0.4-1-0.6c0.6,1.7,0.5,3.3-0.1,4.7c0.3,0.3,0.7,0.7,1,1C95.1,23.9,95.1,22.1,94.5,20.3 M91.9,16
					c-0.3-0.1-0.5-0.2-0.8-0.3c1.1,1.4,1.4,1.8,2.1,3.3c0.3,0.2,0.6,0.4,1,0.6C93.7,18.4,93,17.2,91.9,16"/>
				<path class="st1" d="M95.4,18.5c-0.4-0.5-1-1.1-1.4-1.5l1.1,1.1C95.1,18.3,95.2,18.4,95.4,18.5 M66.9,7.8l0.2,0
					c0.2,0,0.4,0,0.6-0.1L66.9,7.8 M57.4,11.7c0.4-0.1,0.8-0.2,1.1-0.3c1.5-1.4,3.7-2.5,6.4-3.2c0.3-0.1,0.6-0.1,1-0.2
					c-0.3,0-0.5,0.1-0.8,0.1c-0.3,0.1-0.7,0.1-1,0.2C61.2,9,59,10.2,57.4,11.7 M54.4,18.7c0.4-0.2,0.8-0.4,1.3-0.6
					c-0.1-2.3,0.6-4.3,2.1-6.1c-0.4,0.1-0.8,0.2-1.2,0.3C55.1,14.2,54.3,16.3,54.4,18.7 M58.3,27.3c0.4-0.3,0.7-0.6,1.1-1
					c-2.1-2.4-3.2-4.9-3.6-7.2c-0.4,0.2-0.8,0.4-1.3,0.6C54.9,22.1,56.1,24.7,58.3,27.3 M67.9,34.6c0.2-0.4,0.5-0.9,0.7-1.3
					c-3.2-1.6-6-3.6-8.3-6c-0.4,0.3-0.7,0.7-1.1,1C61.6,30.8,64.6,32.9,67.9,34.6 M79.9,38.3c0.1-0.5,0.1-1,0.2-1.4
					c-3.4-0.5-6.9-1.5-10.2-2.9c-0.2,0.4-0.4,0.9-0.6,1.3C72.7,36.8,76.3,37.9,79.9,38.3 M91.5,37.6c-0.1-0.5-0.2-0.9-0.4-1.4
					c-0.5,0.1-0.9,0.3-1.4,0.4c-2.5,0.6-5.3,0.8-8.2,0.5c0,0.5-0.1,1-0.1,1.5c3,0.3,5.9,0.1,8.6-0.5C90.5,37.9,91,37.7,91.5,37.6
					 M98.5,32.4c-0.2-0.4-0.4-0.8-0.7-1.2c-1.1,1.9-2.9,3.5-5.6,4.5c0.1,0.5,0.3,0.9,0.4,1.4C95.4,36,97.3,34.4,98.5,32.4 M99,24.6
					c-0.2-0.3-0.4-0.6-0.7-0.8c0.8,2.4,0.7,4.7-0.1,6.6c0.2,0.4,0.5,0.8,0.7,1.1C99.8,29.5,99.9,27.1,99,24.6 M95.4,18.5
					c-0.1-0.1-0.2-0.3-0.4-0.4c1.4,1.5,2.3,3.1,3,4.6c0.2,0.3,0.5,0.5,0.7,0.8c-0.6-1.5-1.6-3-2.8-4.5L95.4,18.5"/>
				<path class="st1" d="M51.5,14.3c0.3-0.2,0.6-0.4,1-0.6c0.8-0.7,1.7-1.4,2.7-2l-1.8,1.1C52.7,13.3,52.1,13.7,51.5,14.3 M48,22.8
					c0.3-0.3,0.7-0.6,1.1-0.8c-0.1-2.8,0.8-5.3,2.6-7.4c-0.3,0.2-0.7,0.4-1,0.6C48.8,17.3,47.9,19.9,48,22.8 M52.6,33.1
					c0.3-0.4,0.6-0.7,0.9-1.1c-2.5-3-4-6-4.4-8.9c-0.4,0.3-0.7,0.6-1,0.8C48.6,26.9,50,30,52.6,33.1 M64.2,41.9
					c0.2-0.4,0.4-0.9,0.6-1.3c-3.9-2-7.4-4.5-10.2-7.4c-0.3,0.4-0.6,0.7-0.9,1.1C56.6,37.3,60.2,39.9,64.2,41.9 M78.8,46.4
					c0.1-0.5,0.2-1,0.2-1.4c-4.2-0.6-8.5-1.8-12.5-3.6c-0.2,0.4-0.4,0.9-0.6,1.3C70,44.6,74.4,45.9,78.8,46.4 M92.7,45.5
					c0-0.5-0.1-0.9-0.1-1.4c-0.6,0.2-1.1,0.3-1.7,0.5c-3.1,0.7-6.6,0.9-10.1,0.6c-0.1,0.5-0.1,1-0.2,1.4c3.6,0.3,7.1,0.1,10.4-0.6
					C91.5,45.8,92.1,45.7,92.7,45.5 M101.1,39.3c-0.1-0.4-0.2-0.8-0.3-1.2c-1.3,2.3-3.6,4.3-6.8,5.5c0.1,0.5,0.1,0.9,0.2,1.4
					C97.4,43.6,99.8,41.7,101.1,39.3 M101.8,29.7c-0.1-0.3-0.2-0.6-0.3-0.9c1,2.9,0.9,5.7-0.2,8.2c0.1,0.4,0.2,0.8,0.3,1.2
					c1.1-2.5,1.2-5.3,0.2-8.3L101.8,29.7"/>
				<path class="st1" d="M43,28c0.2-0.3,0.5-0.7,0.8-1c-0.1-3.1,0.8-5.9,2.8-8.3l-1.2,1.5C43.7,22.5,42.9,25.1,43,28 M48.1,39.4
					c0.2-0.4,0.5-0.8,0.7-1.2c-2.8-3.4-4.5-6.8-4.9-10c-0.3,0.3-0.5,0.7-0.8,1C43.6,32.6,45.3,36,48.1,39.4 M61,49.2
					c0.2-0.4,0.4-0.9,0.5-1.3c-4.4-2.2-8.3-5-11.4-8.3c-0.2,0.4-0.5,0.8-0.7,1.2C52.6,44.1,56.6,47,61,49.2 M77.1,54.2
					c0.1-0.4,0.2-0.9,0.3-1.3c-4.7-0.6-9.6-2-14-4.1c-0.2,0.4-0.3,0.9-0.5,1.3C67.4,52.2,72.3,53.6,77.1,54.2 M92.5,53.2
					c0.1-0.4,0.1-0.9,0.1-1.3c-0.6,0.2-1.3,0.4-2,0.5c-3.5,0.8-7.4,1-11.3,0.7c-0.1,0.5-0.2,0.9-0.3,1.3c4,0.4,7.9,0.1,11.5-0.7
					C91.2,53.6,91.9,53.4,92.5,53.2 M101.8,46.3c0-0.4,0-0.8,0-1.2c-1.5,2.6-4.1,4.8-7.6,6.2c0,0.4-0.1,0.9-0.1,1.3
					C97.7,51.1,100.3,48.9,101.8,46.3 M103.3,40.9l0-1.9c0,1.8-0.3,3.5-0.9,5c0,0.4,0,0.8,0,1.2C103,43.8,103.3,42.4,103.3,40.9"/>
				<path class="st1" d="M39.8,34.3c0.1-0.2,0.1-0.4,0.2-0.6c0.1-0.2,0.1-0.4,0.2-0.6c-0.1-1.8,0.2-3.5,0.8-5.1l-0.3,0.9l-0.3,0.9
					C39.9,32,39.9,32,39.8,34.3 M45.1,46c0.1-0.2,0.1-0.4,0.2-0.6c0.1-0.2,0.1-0.4,0.2-0.6c-3-3.5-4.6-7.1-5.1-10.4
					c-0.1,0.2-0.1,0.4-0.2,0.6c-0.1,0.2-0.1,0.4-0.2,0.6C40.5,39,42.1,42.5,45.1,46 M58.3,56.1c0.1-0.2,0.1-0.4,0.2-0.6
					c0.1-0.2,0.1-0.4,0.2-0.6c-4.6-2.3-8.7-5.2-11.9-8.6c-0.1,0.2-0.1,0.4-0.2,0.6c-0.1,0.2-0.1,0.4-0.2,0.6
					C49.7,50.9,53.8,53.8,58.3,56.1 M74.9,61.2c0.1-0.2,0.1-0.4,0.2-0.6c0.1-0.2,0.1-0.4,0.2-0.6c-5-0.7-10-2.1-14.6-4.2
					c-0.1,0.2-0.1,0.4-0.2,0.6c-0.1,0.2-0.1,0.4-0.2,0.6C64.9,59.1,69.9,60.6,74.9,61.2 M90.8,60.2c0.1-0.2,0.1-0.4,0.2-0.6
					c0.1-0.2,0.1-0.4,0.2-0.6c-0.7,0.2-1.3,0.4-2,0.6c-3.7,0.9-7.7,1.1-11.8,0.7c-0.1,0.2-0.1,0.4-0.2,0.6c-0.1,0.2-0.1,0.4-0.2,0.6
					c4.1,0.4,8.1,0.2,11.8-0.7C89.4,60.6,90.1,60.4,90.8,60.2 M100.4,53.1c0.1-0.2,0.1-0.4,0.2-0.6c0.1-0.2,0.1-0.4,0.2-0.6
					c-1.6,2.7-4.2,5-8,6.5c-0.1,0.2-0.1,0.4-0.2,0.6c-0.1,0.2-0.1,0.4-0.2,0.6C96.1,58.1,98.8,55.8,100.4,53.1 M101.5,50.6l0.3-0.9
					c-0.1,0.4-0.3,0.7-0.4,1.1c-0.1,0.2-0.1,0.4-0.2,0.6c-0.1,0.2-0.1,0.4-0.2,0.6c0.1-0.1,0.1-0.3,0.2-0.4L101.5,50.6"/>
				<path class="st1" d="M38.9,40.9c0-0.4,0-0.8,0-1.2c0-0.3,0-0.7,0-1l0,1.9C38.9,40.7,38.9,40.8,38.9,40.9 M43.9,52.1
					c0-0.3,0-0.7,0.1-1c-2.9-3.4-4.5-6.9-5-10.1c0,0.4,0,0.8,0,1.1C39.5,45.4,41.1,48.8,43.9,52.1 M56.6,61.8
					c0.1-0.3,0.2-0.6,0.2-0.9c-4.4-2.2-8.4-5.1-11.6-8.4c0,0.3-0.1,0.7-0.1,1C48.3,56.8,52.2,59.6,56.6,61.8 M72.5,66.7
					c0.1-0.3,0.3-0.5,0.4-0.8c-4.8-0.6-9.7-2.1-14.2-4.1c-0.1,0.3-0.2,0.6-0.3,0.9C62.9,64.7,67.7,66.1,72.5,66.7 M87.7,65.7
					c0.2-0.3,0.4-0.6,0.6-0.8c-0.6,0.2-1.3,0.4-2,0.6c-3.6,0.9-7.5,1.1-11.5,0.7c-0.2,0.3-0.3,0.6-0.5,0.8c4,0.3,7.8,0.1,11.3-0.7
					C86.4,66.1,87.1,65.9,87.7,65.7 M95.6,60.8l1.2-1.5c-1.6,2-3.9,3.8-6.9,5c-0.2,0.3-0.4,0.6-0.7,0.9C91.9,64.1,94,62.6,95.6,60.8
					"/>
				<path class="st1" d="M44.6,57.2c-0.1-0.3-0.2-0.5-0.2-0.8c-1.9-2.3-3.3-4.6-4-6.9l0.4,1.2l0.3,0.7C41.8,53.4,43,55.3,44.6,57.2
					 M55.9,65.8c0-0.2,0-0.4,0.1-0.6c-4-2-7.6-4.6-10.5-7.6c0.1,0.3,0.1,0.5,0.2,0.8C48.5,61.4,52,63.9,55.9,65.8 M70,70.2
					c0.1-0.1,0.3-0.3,0.4-0.5c-4.3-0.6-8.8-1.9-12.8-3.7c0,0.2-0.1,0.4-0.1,0.6C61.5,68.4,65.8,69.7,70,70.2 M83.6,69.3
					c0.3-0.2,0.5-0.3,0.8-0.5c-0.6,0.2-1.2,0.4-1.8,0.5c-3.2,0.8-6.7,1-10.4,0.6c-0.2,0.2-0.3,0.3-0.5,0.5c3.5,0.3,7,0.1,10.1-0.6
					C82.5,69.7,83,69.5,83.6,69.3 M87,67.9l1.8-1.1c-0.9,0.6-1.9,1.1-3,1.5c-0.3,0.2-0.6,0.4-0.8,0.5C85.7,68.5,86.4,68.2,87,67.9"
					/>
				<path class="st1" d="M46.4,60.6C46.4,60.5,46.4,60.5,46.4,60.6C46.4,60.5,46.4,60.5,46.4,60.6L46.4,60.6 M56.2,68.1
					c0-0.1-0.1-0.2-0.1-0.3c-3.3-1.7-6.3-3.8-8.7-6.3c0.1,0.1,0.2,0.3,0.4,0.4l0.6,0.6C50.5,64.7,53.2,66.6,56.2,68.1 M67.7,71.7
					c0.1,0,0.3-0.1,0.4-0.1c-3.6-0.5-7.3-1.5-10.7-3.1c0,0.1,0,0.2,0.1,0.3C60.7,70.2,64.2,71.2,67.7,71.7 M74.5,71.8
					c0.8-0.1,1.9-0.3,2.7-0.4c-2.4,0.4-4.9,0.5-7.6,0.3c-0.2,0-0.3,0.1-0.5,0.1C70.9,72,72.7,72,74.5,71.8"/>
				<path class="st1" d="M83.5,12.8c0.2-0.1,0.4-0.2,0.6-0.3c0.9-0.4,1.7-0.6,2.4-0.6c0.1,0,0.3,0,0.4,0c0.4,0,0.7,0.2,0.9,0.3
					l1.2,0.8c-0.4-0.2-0.8-0.4-1.2-0.5c-0.2,0-0.3-0.1-0.5-0.1c-0.8-0.1-1.7,0.1-2.7,0.4c-0.2,0.1-0.5,0.2-0.7,0.3
					c-1.3,0.5-2.7,1.3-4.3,2.4C81.1,14.3,82.4,13.4,83.5,12.8"/>
				<path class="st1" d="M79.5,11.2c0-0.2-0.1-0.4-0.1-0.6c-0.2-0.9-0.4-1.5-0.7-1.9c-0.1-0.1-0.1-0.2-0.2-0.2
					c-0.2-0.1-0.3-0.2-0.5-0.3l0.4,0.1l0.9,0.2c0.1,0,0.2,0.1,0.3,0.2c0,0.1,0.1,0.1,0.1,0.2c0.2,0.4,0.3,1,0.3,1.8
					c0,0.2,0,0.4,0,0.6c0,1.1-0.1,2.5-0.2,4.2C79.7,13.8,79.6,12.3,79.5,11.2"/>
				<path class="st1" d="M75.3,11.1c-0.3-0.2-0.6-0.4-0.8-0.6c-1.3-0.9-2.6-1.5-3.9-2c-0.3-0.1-0.6-0.2-0.8-0.2
					c-1.3-0.3-2.6-0.4-3.8-0.3c-0.3,0-0.5,0.1-0.8,0.1c0,0,0,0,0,0l1.9-0.3l0.2,0c1.1-0.1,2.3,0,3.5,0.3c0.3,0.1,0.5,0.2,0.8,0.3
					c1.2,0.4,2.4,1.1,3.6,2c0.3,0.2,0.5,0.4,0.8,0.6c1.4,1.2,2.7,2.7,4,4.5C78.3,13.7,76.8,12.3,75.3,11.1"/>
				<path class="st1" d="M72.3,12.6c-0.5-0.1-0.9-0.2-1.4-0.4c-2.1-0.5-4.2-0.8-6.2-0.8c-0.4,0-0.9,0-1.3,0c-2,0-3.9,0.3-5.7,0.7
					c-0.4,0.1-0.8,0.2-1.2,0.3c-1.8,0.5-3.4,1.2-5,2.1c-0.3,0.2-0.7,0.4-1,0.6c-1.4,1-2.7,2.1-3.9,3.4l1.1-1.2l1.1-1
					c0.8-0.7,1.6-1.4,2.5-2c0.3-0.2,0.6-0.4,1-0.6c1.5-0.9,3.1-1.5,4.9-2c0.4-0.1,0.8-0.2,1.1-0.3c1.8-0.4,3.6-0.6,5.5-0.5
					c0.4,0,0.8,0,1.3,0.1c1.9,0.1,3.9,0.5,6,1c0.4,0.1,0.9,0.3,1.3,0.4c2.4,0.8,4.8,1.8,7.1,3.2C77.3,14.3,74.8,13.3,72.3,12.6"/>
				<path class="st1" d="M71.6,15.1c-0.5,0-1,0.1-1.5,0.1c-2.3,0.2-4.5,0.6-6.7,1.1c-0.5,0.1-0.9,0.2-1.4,0.4
					c-2.1,0.6-4.2,1.4-6.2,2.3c-0.4,0.2-0.8,0.4-1.3,0.6c-1.9,1-3.7,2.1-5.3,3.4c-0.4,0.3-0.7,0.6-1,0.8c-1.6,1.3-3,2.8-4.2,4.3
					c-0.3,0.3-0.5,0.7-0.8,1c-1.1,1.6-2.1,3.3-2.8,5.1c-0.1,0.2-0.1,0.4-0.2,0.6c-0.1,0.2-0.1,0.4-0.2,0.6c-0.6,1.8-0.9,3.6-1,5.4
					c0,0.4,0,0.8,0,1.1c0,0.8,0.1,1.5,0.2,2.2l0-0.1c-0.1-0.9-0.2-2.2-0.3-3.1c0-0.1,0-0.2,0-0.4c0-0.4,0-0.8,0-1.2
					c0.1-1.8,0.4-3.6,1-5.4c0.1-0.2,0.1-0.4,0.2-0.6c0.1-0.2,0.1-0.4,0.2-0.6c0.7-1.8,1.6-3.5,2.8-5.1c0.2-0.3,0.5-0.7,0.8-1
					c1.2-1.5,2.6-2.9,4.2-4.2c0.3-0.3,0.7-0.6,1.1-0.8c1.6-1.2,3.4-2.3,5.4-3.2c0.4-0.2,0.8-0.4,1.3-0.6c2-0.9,4-1.6,6.2-2.1
					c0.5-0.1,0.9-0.2,1.4-0.3c2.2-0.5,4.4-0.8,6.7-0.9c0.5,0,1,0,1.5,0c2.6,0.1,4.8,0.1,8.2,0.8l0,0C77.4,15.3,75,15,71.6,15.1"/>
				<path class="st1" d="M73.2,18.1c-0.4,0.2-0.8,0.4-1.2,0.6c-1.8,1-3.7,2.1-5.5,3.4c-0.4,0.3-0.8,0.6-1.2,0.8
					c-1.8,1.3-3.5,2.8-5.1,4.3c-0.4,0.3-0.7,0.7-1.1,1c-1.6,1.6-3.1,3.2-4.5,4.9c-0.3,0.4-0.6,0.7-0.9,1.1c-1.4,1.7-2.6,3.5-3.7,5.3
					c-0.2,0.4-0.5,0.8-0.7,1.2c-1,1.8-1.9,3.6-2.6,5.5c-0.1,0.2-0.1,0.4-0.2,0.6c-0.1,0.2-0.1,0.4-0.2,0.6c-0.6,1.8-1,3.5-1.2,5
					c0,0.3-0.1,0.7-0.1,1c-0.1,1.5,0,2.9,0.3,4.1c0.1,0.3,0.1,0.5,0.2,0.8c0.4,1.2,0.9,2.2,1.7,3.1c0.1,0.1,0.2,0.3,0.4,0.4l-0.9-1
					l-0.4-0.5c0,0,0,0,0,0c-0.8-1-1.4-2.1-1.8-3.3c-0.1-0.3-0.2-0.5-0.2-0.8c-0.3-1.3-0.5-2.7-0.4-4.3c0-0.3,0-0.7,0.1-1
					c0.2-1.6,0.5-3.3,1.1-5.1c0.1-0.2,0.1-0.4,0.2-0.6c0.1-0.2,0.1-0.4,0.2-0.6c0.7-1.8,1.6-3.6,2.6-5.4c0.2-0.4,0.5-0.8,0.7-1.2
					c1.1-1.8,2.4-3.5,3.8-5.2c0.3-0.4,0.6-0.7,0.9-1.1c1.5-1.7,3-3.2,4.7-4.7c0.4-0.3,0.7-0.6,1.1-1c1.7-1.5,3.5-2.8,5.3-4
					c0.4-0.3,0.8-0.5,1.2-0.8c1.9-1.2,3.8-2.2,5.7-3.1c0.4-0.2,0.8-0.4,1.3-0.6c2.3-1,4.6-1.7,6.8-2.2
					C77.6,16.2,75.4,17.1,73.2,18.1"/>
				<path class="st1" d="M76.8,20.6c-0.2,0.3-0.4,0.7-0.6,1.1c-0.9,1.6-1.8,3.4-2.8,5.3c-0.2,0.4-0.4,0.8-0.6,1.2
					c-1,1.9-1.9,3.8-2.9,5.8c-0.2,0.4-0.4,0.9-0.6,1.3c-0.9,2-1.9,4.1-2.8,6.1c-0.2,0.4-0.4,0.9-0.6,1.3c-0.9,2-1.7,4.1-2.6,6.1
					c-0.2,0.4-0.3,0.9-0.5,1.3c-0.8,2-1.5,3.9-2.2,5.7c-0.1,0.2-0.1,0.4-0.2,0.6c-0.1,0.2-0.1,0.4-0.2,0.6c-0.6,1.8-1.1,3.4-1.6,4.8
					c-0.1,0.3-0.2,0.6-0.3,0.9C58,64,57.8,65.1,57.6,66c0,0.2-0.1,0.4-0.1,0.6c-0.1,0.8-0.2,1.5-0.1,1.9c0,0.1,0,0.2,0.1,0.3
					c0.1,0.2,0.2,0.3,0.3,0.4l-1.2-0.6c-0.1-0.1-0.3-0.3-0.4-0.4c0-0.1-0.1-0.2-0.1-0.3c-0.2-0.5-0.2-1.1-0.2-2c0-0.2,0-0.4,0.1-0.6
					c0.1-1,0.3-2.1,0.7-3.4c0.1-0.3,0.2-0.6,0.2-0.9c0.4-1.4,0.9-3,1.5-4.8c0.1-0.2,0.1-0.4,0.2-0.6c0.1-0.2,0.1-0.4,0.2-0.6
					c0.7-1.8,1.4-3.7,2.2-5.7c0.2-0.4,0.4-0.9,0.5-1.3c0.8-2,1.8-4,2.7-6c0.2-0.4,0.4-0.9,0.6-1.3c1-2,2-4,3-6
					c0.2-0.4,0.5-0.9,0.7-1.3c1-2,2.1-3.9,3.2-5.7c0.2-0.4,0.5-0.8,0.7-1.2c1.1-1.8,2.1-3.5,3.2-5.1c0.2-0.3,0.5-0.7,0.7-1
					c1.2-1.8,2.4-3.4,3.5-4.8C78.8,17,77.8,18.7,76.8,20.6"/>
				<path class="st1" d="M81,21.7c0.1,0.4,0.1,0.8,0.2,1.3c0.2,2,0.4,4,0.4,6.1c0,0.5,0,0.9,0,1.4c0,2.1,0,4.4-0.1,6.6
					c0,0.5-0.1,1-0.1,1.5c-0.1,2.2-0.4,4.5-0.7,6.7c-0.1,0.5-0.1,1-0.2,1.4c-0.3,2.2-0.7,4.4-1.2,6.4c-0.1,0.5-0.2,0.9-0.3,1.3
					c-0.5,2.1-1.1,4-1.7,5.9c-0.1,0.2-0.1,0.4-0.2,0.6c-0.1,0.2-0.1,0.4-0.2,0.6c-0.7,1.8-1.3,3.3-2,4.6c-0.2,0.3-0.3,0.6-0.5,0.8
					c-0.7,1.2-1.4,2.2-2.2,3c-0.2,0.2-0.3,0.3-0.5,0.5c-0.7,0.7-1.5,1.1-2.2,1.3c-0.2,0-0.3,0.1-0.5,0.1c-0.3,0-0.5,0.1-0.8,0
					L67,71.8l-0.1,0c0.3,0,0.5,0,0.8,0c0.1,0,0.3-0.1,0.4-0.1c0.6-0.2,1.3-0.7,1.9-1.4c0.1-0.1,0.3-0.3,0.4-0.5c0.7-0.8,1.3-1.8,2-3
					c0.1-0.3,0.3-0.5,0.4-0.8c0.7-1.3,1.3-2.9,2-4.6c0.1-0.2,0.1-0.4,0.2-0.6c0.1-0.2,0.1-0.4,0.2-0.6c0.6-1.8,1.2-3.8,1.8-5.9
					c0.1-0.4,0.2-0.9,0.3-1.3c0.5-2.1,1-4.2,1.4-6.4c0.1-0.5,0.2-1,0.2-1.4c0.4-2.2,0.7-4.4,0.9-6.7c0.1-0.5,0.1-1,0.2-1.4
					c0.2-2.2,0.4-4.4,0.5-6.5c0-0.5,0-0.9,0-1.4c0.1-2.1,0-4.1,0-6.1c0-0.4,0-0.8-0.1-1.2c-0.1-2.2-0.4-4.3-0.7-6.1
					C80.3,17.4,80.7,19.5,81,21.7"/>
				<path class="st1" d="M84.9,21.2c0.3,0.4,0.6,0.8,0.9,1.2c1.3,1.8,2.4,3.8,3.4,5.8c0.2,0.4,0.4,0.9,0.6,1.3c1,2,1.8,4.1,2.4,6.3
					c0.1,0.5,0.3,0.9,0.4,1.4c0.6,2.1,1,4.3,1.3,6.4c0.1,0.5,0.1,0.9,0.2,1.4c0.2,2.1,0.2,4.2,0.1,6.3c0,0.4-0.1,0.9-0.1,1.3
					c-0.2,2-0.6,4-1.2,5.8c-0.1,0.2-0.1,0.4-0.2,0.6c-0.1,0.2-0.1,0.4-0.2,0.6c-0.7,1.8-1.5,3.3-2.5,4.7c-0.2,0.3-0.4,0.6-0.7,0.9
					c-1,1.3-2.2,2.3-3.4,3.2c-0.3,0.2-0.6,0.4-0.8,0.5c-0.6,0.3-1.1,0.6-1.7,0.8c-0.6,0.2-1.5,0.6-2.1,0.8c0.8-0.3,1.7-0.7,2.5-1.1
					c0.3-0.2,0.5-0.3,0.8-0.5c1.2-0.8,2.3-1.9,3.3-3.1c0.2-0.3,0.4-0.6,0.6-0.8c0.9-1.3,1.8-2.9,2.4-4.7c0.1-0.2,0.1-0.4,0.2-0.6
					c0.1-0.2,0.1-0.4,0.2-0.6c0.6-1.8,1-3.8,1.3-5.8c0.1-0.4,0.1-0.9,0.1-1.3c0.2-2.1,0.2-4.2,0.1-6.3c0-0.5-0.1-0.9-0.1-1.4
					c-0.2-2.2-0.6-4.4-1.1-6.5c-0.1-0.5-0.2-0.9-0.4-1.4c-0.6-2.2-1.3-4.3-2.2-6.4c-0.2-0.5-0.4-0.9-0.6-1.3c-0.9-2-2-4-3.1-5.9
					c-0.3-0.4-0.5-0.8-0.8-1.2c-1.4-2.1-3-4.1-4.8-5.8C81.6,17.2,83.4,19.1,84.9,21.2"/>
				<path class="st1" d="M87.1,19.3c0.4,0.3,0.8,0.5,1.2,0.8c1.9,1.3,3.6,2.7,5.1,4.3c0.3,0.3,0.7,0.7,1,1c1.5,1.6,2.7,3.3,3.8,5
					c0.2,0.4,0.5,0.8,0.7,1.1c1,1.8,1.8,3.6,2.4,5.5c0.1,0.4,0.2,0.8,0.3,1.2c0.5,1.9,0.7,3.8,0.8,5.7c0,0.4,0,0.8,0,1.2
					c-0.1,1.9-0.4,3.8-1,5.6c-0.1,0.2-0.1,0.4-0.2,0.6c-0.1,0.2-0.1,0.4-0.2,0.6c-0.1,0.2-0.2,0.5-0.3,0.7c-0.5,1-1.1,2.2-1.6,3.1
					c0.5-0.9,0.9-1.8,1.3-2.7c0.1-0.2,0.1-0.4,0.2-0.6c0.1-0.2,0.1-0.4,0.2-0.6c0.6-1.8,0.9-3.7,1-5.6c0-0.4,0-0.8,0-1.2
					c0-1.9-0.3-3.8-0.7-5.8c-0.1-0.4-0.2-0.8-0.3-1.2c-0.6-1.9-1.3-3.8-2.3-5.6c-0.2-0.4-0.4-0.8-0.7-1.2c-1.1-1.8-2.3-3.6-3.7-5.2
					c-0.3-0.4-0.6-0.7-1-1.1c-1.5-1.6-3.2-3.1-5-4.5c-0.4-0.3-0.8-0.6-1.2-0.9c-2.2-1.5-4.6-2.9-7.2-4
					C81.9,16.5,84.2,17.5,87.1,19.3"/>
				<path class="st1" d="M87,16.5c0.4,0.1,0.8,0.2,1.2,0.3c1.8,0.6,3.5,1.3,5,2.1c0.3,0.2,0.6,0.4,1,0.6c1.4,0.9,2.7,2,3.8,3.2
					c0.2,0.3,0.5,0.5,0.7,0.8c0.9,1.1,1.6,2.4,2.2,3.7l0.6,1.5l0.3,1c-0.1-0.3-0.2-0.6-0.3-0.9c-0.6-1.5-1.4-2.9-2.4-4.3
					c-0.2-0.3-0.4-0.6-0.7-0.8c-1.1-1.3-2.4-2.4-3.9-3.4c-0.3-0.2-0.6-0.4-1-0.6c-1.5-1-3.3-1.8-5.1-2.4c-0.4-0.1-0.8-0.3-1.2-0.4
					c-2.3-0.7-4.7-1.1-7.4-1.3C81.9,15.7,84.2,15.8,87,16.5"/>
			</g>
		</g>
	</g>
	<g>
		<path class="st1" d="M140,0.2L0,80.2h140V0.2L140,0.2z"/>
	</g>
	<g>
		<path class="st2" d="M136,3.8v72H4v-72H136 M140-0.2H0v80h140V-0.2L140-0.2z"/>
	</g>
	<g>
		<defs>
			<path id="SVGID_1_" d="M140,0.2L0,80.2h140V0.2L140,0.2z"/>
		</defs>
		<clipPath id="SVGID_2_">
			<use xlink:href="#SVGID_1_"  style="overflow:visible;"/>
		</clipPath>
		<g class="st3">
			<g>
				<g>
					<path class="st0" d="M84.7,12.9c-0.2,0.1-0.5,0.2-0.7,0.3c0.7,0.5,1.4,1,1.9,1.7c0.3,0,0.7,0,1,0
						C86.3,14.1,85.5,13.4,84.7,12.9 M80,10.8c0,0.2,0,0.4,0,0.6c1.3,0.3,2.5,0.8,3.6,1.5c0.2-0.1,0.4-0.2,0.6-0.3
						C82.9,11.8,81.4,11.2,80,10.8 M75,10.4c0.3,0.2,0.5,0.4,0.8,0.6c1.2-0.2,2.4-0.1,3.7,0.2c0-0.2-0.1-0.4-0.1-0.6
						C77.9,10.3,76.4,10.2,75,10.4 M71.3,11.9c0.4,0.1,0.9,0.3,1.3,0.4c0.6-0.5,1.3-0.9,2.3-1.2c0.1,0,0.2-0.1,0.4-0.1
						c-0.3-0.2-0.6-0.4-0.8-0.6c-0.1,0-0.3,0.1-0.4,0.1C72.9,10.8,71.9,11.3,71.3,11.9 M70.1,14.8c0.5,0,1,0,1.5,0
						c0-0.8,0.2-1.6,0.8-2.2c-0.5-0.1-0.9-0.2-1.4-0.4C70.3,13,70,13.9,70.1,14.8 M71.6,18.3c0.4-0.2,0.8-0.4,1.3-0.6
						c-0.8-0.9-1.2-1.8-1.3-2.6c-0.5,0-1,0.1-1.5,0.1C70.3,16.2,70.8,17.3,71.6,18.3 M75.6,21.3c0.2-0.3,0.5-0.7,0.7-1
						c-1.2-0.6-2.2-1.3-3-2.2c-0.4,0.2-0.8,0.4-1.2,0.6C73,19.8,74.2,20.7,75.6,21.3 M80.5,22.9c0-0.4,0-0.8-0.1-1.2
						c-1.3-0.2-2.5-0.5-3.7-1.1c-0.2,0.3-0.4,0.7-0.6,1.1C77.6,22.2,79.1,22.7,80.5,22.9 M85.3,22.6c-0.3-0.4-0.5-0.8-0.8-1.2
						c-0.2,0.1-0.3,0.1-0.5,0.1c-0.9,0.2-1.9,0.3-3,0.2c0.1,0.4,0.1,0.8,0.2,1.3c1.2,0.1,2.4,0,3.5-0.2
						C84.9,22.7,85.1,22.6,85.3,22.6 M88.1,20.4c-0.4-0.3-0.8-0.6-1.2-0.9c-0.4,0.7-1.1,1.3-2,1.6c0.3,0.4,0.6,0.8,0.9,1.2
						C86.9,21.9,87.7,21.3,88.1,20.4 M88.4,17.3c-0.4-0.1-0.8-0.3-1.2-0.4c0.3,0.9,0.3,1.7-0.1,2.4c0.4,0.3,0.8,0.5,1.2,0.8
						C88.7,19.3,88.7,18.3,88.4,17.3 M86.9,14.8c-0.3,0-0.7,0-1,0c0.5,0.6,0.9,1.1,1.1,1.7c0.4,0.1,0.8,0.2,1.2,0.3
						C87.9,16.2,87.5,15.5,86.9,14.8"/>
					<path class="st0" d="M87.9,12.5c-0.2,0-0.3-0.1-0.5-0.1c1.4,0.9,2.7,2,3.7,3.2c0.3,0.1,0.5,0.2,0.8,0.3
						C89.4,13.3,87.9,12.5,87.9,12.5 M79.5,8.8c0,0.1,0.1,0.1,0.1,0.2c2.4,0.6,4.8,1.6,6.9,2.9c0.1,0,0.3,0,0.4,0
						C84.7,10.5,82.1,9.5,79.5,8.8 M70.7,8.1c0.3,0.1,0.5,0.2,0.8,0.3c2.3-0.3,4.7-0.1,7.2,0.4c-0.1-0.1-0.1-0.2-0.2-0.2
						C75.8,8,73.1,7.8,70.7,8.1 M64,10.9c0.4,0,0.8,0,1.3,0.1c1.1-1,2.6-1.8,4.5-2.3c0.2-0.1,0.5-0.1,0.7-0.1
						c-0.3-0.1-0.6-0.2-0.8-0.2c-0.2,0-0.5,0.1-0.7,0.2C66.9,8.9,65.2,9.8,64,10.9 M61.9,16c0.5-0.1,0.9-0.2,1.4-0.3
						c-0.1-1.6,0.4-3.1,1.5-4.3c-0.4,0-0.9,0-1.3,0C62.4,12.7,61.8,14.3,61.9,16 M64.7,22.3c0.4-0.3,0.8-0.5,1.2-0.8
						c-1.5-1.7-2.3-3.5-2.5-5.1c-0.5,0.1-0.9,0.2-1.4,0.4C62.2,18.5,63.1,20.4,64.7,22.3 M71.7,27.6c0.2-0.4,0.5-0.8,0.7-1.2
						c-2.2-1.1-4.3-2.6-5.9-4.2c-0.4,0.3-0.8,0.6-1.2,0.8C67.1,24.8,69.3,26.4,71.7,27.6 M80.5,30.3c0-0.5,0-0.9,0-1.4
						c-2.4-0.3-4.9-1-7.2-2.1c-0.2,0.4-0.4,0.8-0.6,1.2C75.2,29.2,77.9,30,80.5,30.3 M89,29.8c-0.2-0.5-0.4-0.9-0.6-1.3
						c-0.3,0.1-0.7,0.2-1,0.3c-1.8,0.4-3.8,0.5-5.8,0.4c0,0.5,0,0.9,0,1.4c2.2,0.2,4.3,0.1,6.3-0.4C88.3,30,88.6,29.9,89,29.8
						 M94.1,26c-0.3-0.4-0.6-0.7-1-1.1c-0.8,1.3-2.1,2.5-3.9,3.2c0.2,0.4,0.4,0.9,0.6,1.3C91.8,28.7,93.3,27.5,94.1,26 M94.5,20.3
						c-0.3-0.2-0.6-0.4-1-0.6c0.6,1.7,0.5,3.3-0.1,4.7c0.3,0.3,0.7,0.7,1,1C95.1,23.9,95.1,22.1,94.5,20.3 M91.9,16
						c-0.3-0.1-0.5-0.2-0.8-0.3c1.1,1.4,1.4,1.8,2.1,3.3c0.3,0.2,0.6,0.4,1,0.6C93.7,18.4,93,17.2,91.9,16"/>
					<path class="st0" d="M95.4,18.5c-0.4-0.5-1-1.1-1.4-1.5l1.1,1.1C95.1,18.3,95.2,18.4,95.4,18.5 M66.9,7.8l0.2,0
						c0.2,0,0.4,0,0.6-0.1L66.9,7.8 M57.4,11.7c0.4-0.1,0.8-0.2,1.1-0.3c1.5-1.4,3.7-2.5,6.4-3.2c0.3-0.1,0.6-0.1,1-0.2
						c-0.3,0-0.5,0.1-0.8,0.1c-0.3,0.1-0.7,0.1-1,0.2C61.2,9,59,10.2,57.4,11.7 M54.4,18.7c0.4-0.2,0.8-0.4,1.3-0.6
						c-0.1-2.3,0.6-4.3,2.1-6.1c-0.4,0.1-0.8,0.2-1.2,0.3C55.1,14.2,54.3,16.3,54.4,18.7 M58.3,27.3c0.4-0.3,0.7-0.6,1.1-1
						c-2.1-2.4-3.2-4.9-3.6-7.2c-0.4,0.2-0.8,0.4-1.3,0.6C54.9,22.1,56.1,24.7,58.3,27.3 M67.9,34.6c0.2-0.4,0.5-0.9,0.7-1.3
						c-3.2-1.6-6-3.6-8.3-6c-0.4,0.3-0.7,0.7-1.1,1C61.6,30.8,64.6,32.9,67.9,34.6 M79.9,38.3c0.1-0.5,0.1-1,0.2-1.4
						c-3.4-0.5-6.9-1.5-10.2-2.9c-0.2,0.4-0.4,0.9-0.6,1.3C72.7,36.8,76.3,37.9,79.9,38.3 M91.5,37.6c-0.1-0.5-0.2-0.9-0.4-1.4
						c-0.5,0.1-0.9,0.3-1.4,0.4c-2.5,0.6-5.3,0.8-8.2,0.5c0,0.5-0.1,1-0.1,1.5c3,0.3,5.9,0.1,8.6-0.5C90.5,37.9,91,37.7,91.5,37.6
						 M98.5,32.4c-0.2-0.4-0.4-0.8-0.7-1.2c-1.1,1.9-2.9,3.5-5.6,4.5c0.1,0.5,0.3,0.9,0.4,1.4C95.4,36,97.3,34.4,98.5,32.4 M99,24.6
						c-0.2-0.3-0.4-0.6-0.7-0.8c0.8,2.4,0.7,4.7-0.1,6.6c0.2,0.4,0.5,0.8,0.7,1.1C99.8,29.5,99.9,27.1,99,24.6 M95.4,18.5
						c-0.1-0.1-0.2-0.3-0.4-0.4c1.4,1.5,2.3,3.1,3,4.6c0.2,0.3,0.5,0.5,0.7,0.8c-0.6-1.5-1.6-3-2.8-4.5L95.4,18.5"/>
					<path class="st0" d="M51.5,14.3c0.3-0.2,0.6-0.4,1-0.6c0.8-0.7,1.7-1.4,2.7-2l-1.8,1.1C52.7,13.3,52.1,13.7,51.5,14.3 M48,22.8
						c0.3-0.3,0.7-0.6,1.1-0.8c-0.1-2.8,0.8-5.3,2.6-7.4c-0.3,0.2-0.7,0.4-1,0.6C48.8,17.3,47.9,19.9,48,22.8 M52.6,33.1
						c0.3-0.4,0.6-0.7,0.9-1.1c-2.5-3-4-6-4.4-8.9c-0.4,0.3-0.7,0.6-1,0.8C48.6,26.9,50,30,52.6,33.1 M64.2,41.9
						c0.2-0.4,0.4-0.9,0.6-1.3c-3.9-2-7.4-4.5-10.2-7.4c-0.3,0.4-0.6,0.7-0.9,1.1C56.6,37.3,60.2,39.9,64.2,41.9 M78.8,46.4
						c0.1-0.5,0.2-1,0.2-1.4c-4.2-0.6-8.5-1.8-12.5-3.6c-0.2,0.4-0.4,0.9-0.6,1.3C70,44.6,74.4,45.9,78.8,46.4 M92.7,45.5
						c0-0.5-0.1-0.9-0.1-1.4c-0.6,0.2-1.1,0.3-1.7,0.5c-3.1,0.7-6.6,0.9-10.1,0.6c-0.1,0.5-0.1,1-0.2,1.4c3.6,0.3,7.1,0.1,10.4-0.6
						C91.5,45.8,92.1,45.7,92.7,45.5 M101.1,39.3c-0.1-0.4-0.2-0.8-0.3-1.2c-1.3,2.3-3.6,4.3-6.8,5.5c0.1,0.5,0.1,0.9,0.2,1.4
						C97.4,43.6,99.8,41.7,101.1,39.3 M101.8,29.7c-0.1-0.3-0.2-0.6-0.3-0.9c1,2.9,0.9,5.7-0.2,8.2c0.1,0.4,0.2,0.8,0.3,1.2
						c1.1-2.5,1.2-5.3,0.2-8.3L101.8,29.7"/>
					<path class="st0" d="M43,28c0.2-0.3,0.5-0.7,0.8-1c-0.1-3.1,0.8-5.9,2.8-8.3l-1.2,1.5C43.7,22.5,42.9,25.1,43,28 M48.1,39.4
						c0.2-0.4,0.5-0.8,0.7-1.2c-2.8-3.4-4.5-6.8-4.9-10c-0.3,0.3-0.5,0.7-0.8,1C43.6,32.6,45.3,36,48.1,39.4 M61,49.2
						c0.2-0.4,0.4-0.9,0.5-1.3c-4.4-2.2-8.3-5-11.4-8.3c-0.2,0.4-0.5,0.8-0.7,1.2C52.6,44.1,56.6,47,61,49.2 M77.1,54.2
						c0.1-0.4,0.2-0.9,0.3-1.3c-4.7-0.6-9.6-2-14-4.1c-0.2,0.4-0.3,0.9-0.5,1.3C67.4,52.2,72.3,53.6,77.1,54.2 M92.5,53.2
						c0.1-0.4,0.1-0.9,0.1-1.3c-0.6,0.2-1.3,0.4-2,0.5c-3.5,0.8-7.4,1-11.3,0.7c-0.1,0.5-0.2,0.9-0.3,1.3c4,0.4,7.9,0.1,11.5-0.7
						C91.2,53.6,91.9,53.4,92.5,53.2 M101.8,46.3c0-0.4,0-0.8,0-1.2c-1.5,2.6-4.1,4.8-7.6,6.2c0,0.4-0.1,0.9-0.1,1.3
						C97.7,51.1,100.3,48.9,101.8,46.3 M103.3,40.9l0-1.9c0,1.8-0.3,3.5-0.9,5c0,0.4,0,0.8,0,1.2C103,43.8,103.3,42.4,103.3,40.9"/>
					<path class="st0" d="M39.8,34.3c0.1-0.2,0.1-0.4,0.2-0.6c0.1-0.2,0.1-0.4,0.2-0.6c-0.1-1.8,0.2-3.5,0.8-5.1l-0.3,0.9l-0.3,0.9
						C39.9,32,39.9,32,39.8,34.3 M45.1,46c0.1-0.2,0.1-0.4,0.2-0.6c0.1-0.2,0.1-0.4,0.2-0.6c-3-3.5-4.6-7.1-5.1-10.4
						c-0.1,0.2-0.1,0.4-0.2,0.6c-0.1,0.2-0.1,0.4-0.2,0.6C40.5,39,42.1,42.5,45.1,46 M58.3,56.1c0.1-0.2,0.1-0.4,0.2-0.6
						c0.1-0.2,0.1-0.4,0.2-0.6c-4.6-2.3-8.7-5.2-11.9-8.6c-0.1,0.2-0.1,0.4-0.2,0.6c-0.1,0.2-0.1,0.4-0.2,0.6
						C49.7,50.9,53.8,53.8,58.3,56.1 M74.9,61.2c0.1-0.2,0.1-0.4,0.2-0.6c0.1-0.2,0.1-0.4,0.2-0.6c-5-0.7-10-2.1-14.6-4.2
						c-0.1,0.2-0.1,0.4-0.2,0.6c-0.1,0.2-0.1,0.4-0.2,0.6C64.9,59.1,69.9,60.6,74.9,61.2 M90.8,60.2c0.1-0.2,0.1-0.4,0.2-0.6
						c0.1-0.2,0.1-0.4,0.2-0.6c-0.7,0.2-1.3,0.4-2,0.6c-3.7,0.9-7.7,1.1-11.8,0.7c-0.1,0.2-0.1,0.4-0.2,0.6
						c-0.1,0.2-0.1,0.4-0.2,0.6c4.1,0.4,8.1,0.2,11.8-0.7C89.4,60.6,90.1,60.4,90.8,60.2 M100.4,53.1c0.1-0.2,0.1-0.4,0.2-0.6
						c0.1-0.2,0.1-0.4,0.2-0.6c-1.6,2.7-4.2,5-8,6.5c-0.1,0.2-0.1,0.4-0.2,0.6c-0.1,0.2-0.1,0.4-0.2,0.6
						C96.1,58.1,98.8,55.8,100.4,53.1 M101.5,50.6l0.3-0.9c-0.1,0.4-0.3,0.7-0.4,1.1c-0.1,0.2-0.1,0.4-0.2,0.6
						c-0.1,0.2-0.1,0.4-0.2,0.6c0.1-0.1,0.1-0.3,0.2-0.4L101.5,50.6"/>
					<path class="st0" d="M38.9,40.9c0-0.4,0-0.8,0-1.2c0-0.3,0-0.7,0-1l0,1.9C38.9,40.7,38.9,40.8,38.9,40.9 M43.9,52.1
						c0-0.3,0-0.7,0.1-1c-2.9-3.4-4.5-6.9-5-10.1c0,0.4,0,0.8,0,1.1C39.5,45.4,41.1,48.8,43.9,52.1 M56.6,61.8
						c0.1-0.3,0.2-0.6,0.2-0.9c-4.4-2.2-8.4-5.1-11.6-8.4c0,0.3-0.1,0.7-0.1,1C48.3,56.8,52.2,59.6,56.6,61.8 M72.5,66.7
						c0.1-0.3,0.3-0.5,0.4-0.8c-4.8-0.6-9.7-2.1-14.2-4.1c-0.1,0.3-0.2,0.6-0.3,0.9C62.9,64.7,67.7,66.1,72.5,66.7 M87.7,65.7
						c0.2-0.3,0.4-0.6,0.6-0.8c-0.6,0.2-1.3,0.4-2,0.6c-3.6,0.9-7.5,1.1-11.5,0.7c-0.2,0.3-0.3,0.6-0.5,0.8c4,0.3,7.8,0.1,11.3-0.7
						C86.4,66.1,87.1,65.9,87.7,65.7 M95.6,60.8l1.2-1.5c-1.6,2-3.9,3.8-6.9,5c-0.2,0.3-0.4,0.6-0.7,0.9
						C91.9,64.1,94,62.6,95.6,60.8"/>
					<path class="st0" d="M44.6,57.2c-0.1-0.3-0.2-0.5-0.2-0.8c-1.9-2.3-3.3-4.6-4-6.9l0.4,1.2l0.3,0.7C41.8,53.4,43,55.3,44.6,57.2
						 M55.9,65.8c0-0.2,0-0.4,0.1-0.6c-4-2-7.6-4.6-10.5-7.6c0.1,0.3,0.1,0.5,0.2,0.8C48.5,61.4,52,63.9,55.9,65.8 M70,70.2
						c0.1-0.1,0.3-0.3,0.4-0.5c-4.3-0.6-8.8-1.9-12.8-3.7c0,0.2-0.1,0.4-0.1,0.6C61.5,68.4,65.8,69.7,70,70.2 M83.6,69.3
						c0.3-0.2,0.5-0.3,0.8-0.5c-0.6,0.2-1.2,0.4-1.8,0.5c-3.2,0.8-6.7,1-10.4,0.6c-0.2,0.2-0.3,0.3-0.5,0.5c3.5,0.3,7,0.1,10.1-0.6
						C82.5,69.7,83,69.5,83.6,69.3 M87,67.9l1.8-1.1c-0.9,0.6-1.9,1.1-3,1.5c-0.3,0.2-0.6,0.4-0.8,0.5C85.7,68.5,86.4,68.2,87,67.9"
						/>
					<path class="st0" d="M46.4,60.6C46.4,60.5,46.4,60.5,46.4,60.6C46.4,60.5,46.4,60.5,46.4,60.6L46.4,60.6 M56.2,68.1
						c0-0.1-0.1-0.2-0.1-0.3c-3.3-1.7-6.3-3.8-8.7-6.3c0.1,0.1,0.2,0.3,0.4,0.4l0.6,0.6C50.5,64.7,53.2,66.6,56.2,68.1 M67.7,71.7
						c0.1,0,0.3-0.1,0.4-0.1c-3.6-0.5-7.3-1.5-10.7-3.1c0,0.1,0,0.2,0.1,0.3C60.7,70.2,64.2,71.2,67.7,71.7 M74.5,71.8
						c0.8-0.1,1.9-0.3,2.7-0.4c-2.4,0.4-4.9,0.5-7.6,0.3c-0.2,0-0.3,0.1-0.5,0.1C70.9,72,72.7,72,74.5,71.8"/>
					<path class="st0" d="M83.5,12.8c0.2-0.1,0.4-0.2,0.6-0.3c0.9-0.4,1.7-0.6,2.4-0.6c0.1,0,0.3,0,0.4,0c0.4,0,0.7,0.2,0.9,0.3
						l1.2,0.8c-0.4-0.2-0.8-0.4-1.2-0.5c-0.2,0-0.3-0.1-0.5-0.1c-0.8-0.1-1.7,0.1-2.7,0.4c-0.2,0.1-0.5,0.2-0.7,0.3
						c-1.3,0.5-2.7,1.3-4.3,2.4C81.1,14.3,82.4,13.4,83.5,12.8"/>
					<path class="st0" d="M79.5,11.2c0-0.2-0.1-0.4-0.1-0.6c-0.2-0.9-0.4-1.5-0.7-1.9c-0.1-0.1-0.1-0.2-0.2-0.2
						c-0.2-0.1-0.3-0.2-0.5-0.3l0.4,0.1l0.9,0.2c0.1,0,0.2,0.1,0.3,0.2c0,0.1,0.1,0.1,0.1,0.2c0.2,0.4,0.3,1,0.3,1.8
						c0,0.2,0,0.4,0,0.6c0,1.1-0.1,2.5-0.2,4.2C79.7,13.8,79.6,12.3,79.5,11.2"/>
					<path class="st0" d="M75.3,11.1c-0.3-0.2-0.6-0.4-0.8-0.6c-1.3-0.9-2.6-1.5-3.9-2c-0.3-0.1-0.6-0.2-0.8-0.2
						c-1.3-0.3-2.6-0.4-3.8-0.3c-0.3,0-0.5,0.1-0.8,0.1c0,0,0,0,0,0l1.9-0.3l0.2,0c1.1-0.1,2.3,0,3.5,0.3c0.3,0.1,0.5,0.2,0.8,0.3
						c1.2,0.4,2.4,1.1,3.6,2c0.3,0.2,0.5,0.4,0.8,0.6c1.4,1.2,2.7,2.7,4,4.5C78.3,13.7,76.8,12.3,75.3,11.1"/>
					<path class="st0" d="M72.3,12.6c-0.5-0.1-0.9-0.2-1.4-0.4c-2.1-0.5-4.2-0.8-6.2-0.8c-0.4,0-0.9,0-1.3,0c-2,0-3.9,0.3-5.7,0.7
						c-0.4,0.1-0.8,0.2-1.2,0.3c-1.8,0.5-3.4,1.2-5,2.1c-0.3,0.2-0.7,0.4-1,0.6c-1.4,1-2.7,2.1-3.9,3.4l1.1-1.2l1.1-1
						c0.8-0.7,1.6-1.4,2.5-2c0.3-0.2,0.6-0.4,1-0.6c1.5-0.9,3.1-1.5,4.9-2c0.4-0.1,0.8-0.2,1.1-0.3c1.8-0.4,3.6-0.6,5.5-0.5
						c0.4,0,0.8,0,1.3,0.1c1.9,0.1,3.9,0.5,6,1c0.4,0.1,0.9,0.3,1.3,0.4c2.4,0.8,4.8,1.8,7.1,3.2C77.3,14.3,74.8,13.3,72.3,12.6"/>
					<path class="st0" d="M71.6,15.1c-0.5,0-1,0.1-1.5,0.1c-2.3,0.2-4.5,0.6-6.7,1.1c-0.5,0.1-0.9,0.2-1.4,0.4
						c-2.1,0.6-4.2,1.4-6.2,2.3c-0.4,0.2-0.8,0.4-1.3,0.6c-1.9,1-3.7,2.1-5.3,3.4c-0.4,0.3-0.7,0.6-1,0.8c-1.6,1.3-3,2.8-4.2,4.3
						c-0.3,0.3-0.5,0.7-0.8,1c-1.1,1.6-2.1,3.3-2.8,5.1c-0.1,0.2-0.1,0.4-0.2,0.6c-0.1,0.2-0.1,0.4-0.2,0.6c-0.6,1.8-0.9,3.6-1,5.4
						c0,0.4,0,0.8,0,1.1c0,0.8,0.1,1.5,0.2,2.2l0-0.1c-0.1-0.9-0.2-2.2-0.3-3.1c0-0.1,0-0.2,0-0.4c0-0.4,0-0.8,0-1.2
						c0.1-1.8,0.4-3.6,1-5.4c0.1-0.2,0.1-0.4,0.2-0.6c0.1-0.2,0.1-0.4,0.2-0.6c0.7-1.8,1.6-3.5,2.8-5.1c0.2-0.3,0.5-0.7,0.8-1
						c1.2-1.5,2.6-2.9,4.2-4.2c0.3-0.3,0.7-0.6,1.1-0.8c1.6-1.2,3.4-2.3,5.4-3.2c0.4-0.2,0.8-0.4,1.3-0.6c2-0.9,4-1.6,6.2-2.1
						c0.5-0.1,0.9-0.2,1.4-0.3c2.2-0.5,4.4-0.8,6.7-0.9c0.5,0,1,0,1.5,0c2.6,0.1,4.8,0.1,8.2,0.8l0,0C77.4,15.3,75,15,71.6,15.1"/>
					<path class="st0" d="M73.2,18.1c-0.4,0.2-0.8,0.4-1.2,0.6c-1.8,1-3.7,2.1-5.5,3.4c-0.4,0.3-0.8,0.6-1.2,0.8
						c-1.8,1.3-3.5,2.8-5.1,4.3c-0.4,0.3-0.7,0.7-1.1,1c-1.6,1.6-3.1,3.2-4.5,4.9c-0.3,0.4-0.6,0.7-0.9,1.1
						c-1.4,1.7-2.6,3.5-3.7,5.3c-0.2,0.4-0.5,0.8-0.7,1.2c-1,1.8-1.9,3.6-2.6,5.5c-0.1,0.2-0.1,0.4-0.2,0.6
						c-0.1,0.2-0.1,0.4-0.2,0.6c-0.6,1.8-1,3.5-1.2,5c0,0.3-0.1,0.7-0.1,1c-0.1,1.5,0,2.9,0.3,4.1c0.1,0.3,0.1,0.5,0.2,0.8
						c0.4,1.2,0.9,2.2,1.7,3.1c0.1,0.1,0.2,0.3,0.4,0.4l-0.9-1l-0.4-0.5c0,0,0,0,0,0c-0.8-1-1.4-2.1-1.8-3.3
						c-0.1-0.3-0.2-0.5-0.2-0.8c-0.3-1.3-0.5-2.7-0.4-4.3c0-0.3,0-0.7,0.1-1c0.2-1.6,0.5-3.3,1.1-5.1c0.1-0.2,0.1-0.4,0.2-0.6
						c0.1-0.2,0.1-0.4,0.2-0.6c0.7-1.8,1.6-3.6,2.6-5.4c0.2-0.4,0.5-0.8,0.7-1.2c1.1-1.8,2.4-3.5,3.8-5.2c0.3-0.4,0.6-0.7,0.9-1.1
						c1.5-1.7,3-3.2,4.7-4.7c0.4-0.3,0.7-0.6,1.1-1c1.7-1.5,3.5-2.8,5.3-4c0.4-0.3,0.8-0.5,1.2-0.8c1.9-1.2,3.8-2.2,5.7-3.1
						c0.4-0.2,0.8-0.4,1.3-0.6c2.3-1,4.6-1.7,6.8-2.2C77.6,16.2,75.4,17.1,73.2,18.1"/>
					<path class="st0" d="M76.8,20.6c-0.2,0.3-0.4,0.7-0.6,1.1c-0.9,1.6-1.8,3.4-2.8,5.3c-0.2,0.4-0.4,0.8-0.6,1.2
						c-1,1.9-1.9,3.8-2.9,5.8c-0.2,0.4-0.4,0.9-0.6,1.3c-0.9,2-1.9,4.1-2.8,6.1c-0.2,0.4-0.4,0.9-0.6,1.3c-0.9,2-1.7,4.1-2.6,6.1
						c-0.2,0.4-0.3,0.9-0.5,1.3c-0.8,2-1.5,3.9-2.2,5.7c-0.1,0.2-0.1,0.4-0.2,0.6c-0.1,0.2-0.1,0.4-0.2,0.6
						c-0.6,1.8-1.1,3.4-1.6,4.8c-0.1,0.3-0.2,0.6-0.3,0.9C58,64,57.8,65.1,57.6,66c0,0.2-0.1,0.4-0.1,0.6c-0.1,0.8-0.2,1.5-0.1,1.9
						c0,0.1,0,0.2,0.1,0.3c0.1,0.2,0.2,0.3,0.3,0.4l-1.2-0.6c-0.1-0.1-0.3-0.3-0.4-0.4c0-0.1-0.1-0.2-0.1-0.3
						c-0.2-0.5-0.2-1.1-0.2-2c0-0.2,0-0.4,0.1-0.6c0.1-1,0.3-2.1,0.7-3.4c0.1-0.3,0.2-0.6,0.2-0.9c0.4-1.4,0.9-3,1.5-4.8
						c0.1-0.2,0.1-0.4,0.2-0.6c0.1-0.2,0.1-0.4,0.2-0.6c0.7-1.8,1.4-3.7,2.2-5.7c0.2-0.4,0.4-0.9,0.5-1.3c0.8-2,1.8-4,2.7-6
						c0.2-0.4,0.4-0.9,0.6-1.3c1-2,2-4,3-6c0.2-0.4,0.5-0.9,0.7-1.3c1-2,2.1-3.9,3.2-5.7c0.2-0.4,0.5-0.8,0.7-1.2
						c1.1-1.8,2.1-3.5,3.2-5.1c0.2-0.3,0.5-0.7,0.7-1c1.2-1.8,2.4-3.4,3.5-4.8C78.8,17,77.8,18.7,76.8,20.6"/>
					<path class="st0" d="M81,21.7c0.1,0.4,0.1,0.8,0.2,1.3c0.2,2,0.4,4,0.4,6.1c0,0.5,0,0.9,0,1.4c0,2.1,0,4.4-0.1,6.6
						c0,0.5-0.1,1-0.1,1.5c-0.1,2.2-0.4,4.5-0.7,6.7c-0.1,0.5-0.1,1-0.2,1.4c-0.3,2.2-0.7,4.4-1.2,6.4c-0.1,0.5-0.2,0.9-0.3,1.3
						c-0.5,2.1-1.1,4-1.7,5.9c-0.1,0.2-0.1,0.4-0.2,0.6c-0.1,0.2-0.1,0.4-0.2,0.6c-0.7,1.8-1.3,3.3-2,4.6c-0.2,0.3-0.3,0.6-0.5,0.8
						c-0.7,1.2-1.4,2.2-2.2,3c-0.2,0.2-0.3,0.3-0.5,0.5c-0.7,0.7-1.5,1.1-2.2,1.3c-0.2,0-0.3,0.1-0.5,0.1c-0.3,0-0.5,0.1-0.8,0
						L67,71.8l-0.1,0c0.3,0,0.5,0,0.8,0c0.1,0,0.3-0.1,0.4-0.1c0.6-0.2,1.3-0.7,1.9-1.4c0.1-0.1,0.3-0.3,0.4-0.5
						c0.7-0.8,1.3-1.8,2-3c0.1-0.3,0.3-0.5,0.4-0.8c0.7-1.3,1.3-2.9,2-4.6c0.1-0.2,0.1-0.4,0.2-0.6c0.1-0.2,0.1-0.4,0.2-0.6
						c0.6-1.8,1.2-3.8,1.8-5.9c0.1-0.4,0.2-0.9,0.3-1.3c0.5-2.1,1-4.2,1.4-6.4c0.1-0.5,0.2-1,0.2-1.4c0.4-2.2,0.7-4.4,0.9-6.7
						c0.1-0.5,0.1-1,0.2-1.4c0.2-2.2,0.4-4.4,0.5-6.5c0-0.5,0-0.9,0-1.4c0.1-2.1,0-4.1,0-6.1c0-0.4,0-0.8-0.1-1.2
						c-0.1-2.2-0.4-4.3-0.7-6.1C80.3,17.4,80.7,19.5,81,21.7"/>
					<path class="st0" d="M84.9,21.2c0.3,0.4,0.6,0.8,0.9,1.2c1.3,1.8,2.4,3.8,3.4,5.8c0.2,0.4,0.4,0.9,0.6,1.3c1,2,1.8,4.1,2.4,6.3
						c0.1,0.5,0.3,0.9,0.4,1.4c0.6,2.1,1,4.3,1.3,6.4c0.1,0.5,0.1,0.9,0.2,1.4c0.2,2.1,0.2,4.2,0.1,6.3c0,0.4-0.1,0.9-0.1,1.3
						c-0.2,2-0.6,4-1.2,5.8c-0.1,0.2-0.1,0.4-0.2,0.6c-0.1,0.2-0.1,0.4-0.2,0.6c-0.7,1.8-1.5,3.3-2.5,4.7c-0.2,0.3-0.4,0.6-0.7,0.9
						c-1,1.3-2.2,2.3-3.4,3.2c-0.3,0.2-0.6,0.4-0.8,0.5c-0.6,0.3-1.1,0.6-1.7,0.8c-0.6,0.2-1.5,0.6-2.1,0.8c0.8-0.3,1.7-0.7,2.5-1.1
						c0.3-0.2,0.5-0.3,0.8-0.5c1.2-0.8,2.3-1.9,3.3-3.1c0.2-0.3,0.4-0.6,0.6-0.8c0.9-1.3,1.8-2.9,2.4-4.7c0.1-0.2,0.1-0.4,0.2-0.6
						c0.1-0.2,0.1-0.4,0.2-0.6c0.6-1.8,1-3.8,1.3-5.8c0.1-0.4,0.1-0.9,0.1-1.3c0.2-2.1,0.2-4.2,0.1-6.3c0-0.5-0.1-0.9-0.1-1.4
						c-0.2-2.2-0.6-4.4-1.1-6.5c-0.1-0.5-0.2-0.9-0.4-1.4c-0.6-2.2-1.3-4.3-2.2-6.4c-0.2-0.5-0.4-0.9-0.6-1.3c-0.9-2-2-4-3.1-5.9
						c-0.3-0.4-0.5-0.8-0.8-1.2c-1.4-2.1-3-4.1-4.8-5.8C81.6,17.2,83.4,19.1,84.9,21.2"/>
					<path class="st0" d="M87.1,19.3c0.4,0.3,0.8,0.5,1.2,0.8c1.9,1.3,3.6,2.7,5.1,4.3c0.3,0.3,0.7,0.7,1,1c1.5,1.6,2.7,3.3,3.8,5
						c0.2,0.4,0.5,0.8,0.7,1.1c1,1.8,1.8,3.6,2.4,5.5c0.1,0.4,0.2,0.8,0.3,1.2c0.5,1.9,0.7,3.8,0.8,5.7c0,0.4,0,0.8,0,1.2
						c-0.1,1.9-0.4,3.8-1,5.6c-0.1,0.2-0.1,0.4-0.2,0.6c-0.1,0.2-0.1,0.4-0.2,0.6c-0.1,0.2-0.2,0.5-0.3,0.7c-0.5,1-1.1,2.2-1.6,3.1
						c0.5-0.9,0.9-1.8,1.3-2.7c0.1-0.2,0.1-0.4,0.2-0.6c0.1-0.2,0.1-0.4,0.2-0.6c0.6-1.8,0.9-3.7,1-5.6c0-0.4,0-0.8,0-1.2
						c0-1.9-0.3-3.8-0.7-5.8c-0.1-0.4-0.2-0.8-0.3-1.2c-0.6-1.9-1.3-3.8-2.3-5.6c-0.2-0.4-0.4-0.8-0.7-1.2c-1.1-1.8-2.3-3.6-3.7-5.2
						c-0.3-0.4-0.6-0.7-1-1.1c-1.5-1.6-3.2-3.1-5-4.5c-0.4-0.3-0.8-0.6-1.2-0.9c-2.2-1.5-4.6-2.9-7.2-4
						C81.9,16.5,84.2,17.5,87.1,19.3"/>
					<path class="st0" d="M87,16.5c0.4,0.1,0.8,0.2,1.2,0.3c1.8,0.6,3.5,1.3,5,2.1c0.3,0.2,0.6,0.4,1,0.6c1.4,0.9,2.7,2,3.8,3.2
						c0.2,0.3,0.5,0.5,0.7,0.8c0.9,1.1,1.6,2.4,2.2,3.7l0.6,1.5l0.3,1c-0.1-0.3-0.2-0.6-0.3-0.9c-0.6-1.5-1.4-2.9-2.4-4.3
						c-0.2-0.3-0.4-0.6-0.7-0.8c-1.1-1.3-2.4-2.4-3.9-3.4c-0.3-0.2-0.6-0.4-1-0.6c-1.5-1-3.3-1.8-5.1-2.4c-0.4-0.1-0.8-0.3-1.2-0.4
						c-2.3-0.7-4.7-1.1-7.4-1.3C81.9,15.7,84.2,15.8,87,16.5"/>
				</g>
			</g>
		</g>
	</g>
</g>
</svg>
